<svg width="157" height="128" viewBox="0 0 157 128" fill="none" xmlns="http://www.w3.org/2000/svg">
<path d="M21.0319 24.832L29.197 30.6053L29.197 30.6053L21.0319 24.832ZM84.3919 24.832L76.2268 30.6053L76.2462 30.6327L76.2657 30.6599L84.3919 24.832ZM84.5359 103.168L76.3708 97.3947L84.5359 103.168ZM20.8879 103.168L12.684 108.886L12.7033 108.914L12.7228 108.941L20.8879 103.168ZM63.9439 44.128L54.6459 47.8085L54.6592 47.8422L54.6728 47.8759L63.9439 44.128ZM41.4799 44.128L50.751 47.8759L50.7646 47.8422L50.778 47.8085L41.4799 44.128ZM41.3359 84.016L31.9726 87.5272L32.0172 87.6461L32.0648 87.7639L41.3359 84.016ZM63.9439 84.016L54.6459 80.3355L54.6253 80.3874L54.6054 80.4395L63.9439 84.016ZM20.9519 63.856C20.9519 48.577 24.0761 37.8477 29.197 30.6053L12.8668 19.0587C4.54773 30.8243 0.951938 46.111 0.951938 63.856H20.9519ZM29.197 30.6053C33.593 24.3881 40.6922 20.576 52.7119 20.576V0.575993C35.9317 0.575993 21.9109 6.26786 12.8668 19.0587L29.197 30.6053ZM52.7119 20.576C64.7317 20.576 71.8309 24.3881 76.2268 30.6053L92.557 19.0587C83.513 6.26786 69.4922 0.575993 52.7119 0.575993V20.576ZM76.2657 30.6599C81.454 37.8942 84.6159 48.6015 84.6159 63.856H104.616C104.616 46.0865 100.962 30.7778 92.5182 19.0041L76.2657 30.6599ZM84.6159 63.856C84.6159 79.3561 81.4799 90.169 76.3708 97.3947L92.701 108.941C101.032 97.159 104.616 81.7639 104.616 63.856H84.6159ZM76.3708 97.3947C71.9879 103.593 64.8558 107.424 52.7119 107.424V127.424C69.5601 127.424 83.6439 121.751 92.701 108.941L76.3708 97.3947ZM52.7119 107.424C40.5681 107.424 33.4359 103.593 29.053 97.3947L12.7228 108.941C21.7799 121.751 35.8638 127.424 52.7119 127.424V107.424ZM29.0919 97.4501C24.0496 90.2155 20.9519 79.3801 20.9519 63.856H0.951938C0.951938 81.7399 4.47826 97.1125 12.684 108.886L29.0919 97.4501ZM76.6799 63.856C76.6799 54.7712 75.7581 46.6708 73.215 40.3801L54.6728 47.8759C55.7778 50.6092 56.6799 55.6608 56.6799 63.856H76.6799ZM73.242 40.4475C71.6413 36.4036 68.951 32.8533 65.0089 30.4274C61.1666 28.0629 56.8694 27.216 52.7119 27.216V47.216C54.2185 47.216 54.6252 47.5211 54.527 47.4606C54.5131 47.4521 54.4904 47.4362 54.4657 47.4144C54.4543 47.4043 54.4449 47.3951 54.4379 47.3877C54.4309 47.3804 54.4278 47.3765 54.4284 47.3773C54.4288 47.3778 54.4504 47.4045 54.4875 47.4694C54.5251 47.5351 54.5809 47.6443 54.6459 47.8085L73.242 40.4475ZM52.7119 27.216C48.5545 27.216 44.2573 28.0629 40.415 30.4274C36.4729 32.8533 33.7826 36.4036 32.1819 40.4475L50.778 47.8085C50.843 47.6443 50.8988 47.5351 50.9364 47.4694C50.9735 47.4045 50.9951 47.3778 50.9955 47.3773C50.9961 47.3765 50.993 47.3804 50.986 47.3877C50.979 47.3951 50.9696 47.4043 50.9582 47.4144C50.9334 47.4362 50.9107 47.4521 50.8969 47.4606C50.7986 47.5211 51.2054 47.216 52.7119 47.216V27.216ZM32.2088 40.3801C29.6658 46.6708 28.7439 54.7712 28.7439 63.856H48.7439C48.7439 55.6608 49.6461 50.6092 50.751 47.8759L32.2088 40.3801ZM28.7439 63.856C28.7439 73.0902 29.6134 81.2359 31.9726 87.5272L50.6992 80.5048C49.6025 77.58 48.7439 72.2858 48.7439 63.856H28.7439ZM32.0648 87.7639C33.7069 91.8259 36.466 95.3248 40.435 97.6861C44.2817 99.9746 48.5689 100.784 52.7119 100.784V80.784C51.095 80.784 50.6061 80.4654 50.6609 80.4979C50.69 80.5153 50.7394 80.5561 50.7686 80.5913C50.7906 80.6179 50.7177 80.542 50.607 80.2681L32.0648 87.7639ZM52.7119 100.784C56.8477 100.784 61.1507 99.9773 65.001 97.6572C68.9854 95.2564 71.7101 91.6983 73.2825 87.5925L54.6054 80.4395C54.5077 80.6946 54.4495 80.7444 54.4936 80.6898C54.5454 80.6258 54.6216 80.5612 54.6788 80.5268C54.7852 80.4627 54.3362 80.784 52.7119 80.784V100.784ZM73.242 87.6965C75.7597 81.336 76.6799 73.1193 76.6799 63.856H56.6799C56.6799 72.2567 55.7762 77.4799 54.6459 80.3355L73.242 87.6965ZM102.569 39.232H92.5686V49.232H102.569V39.232ZM102.569 12.736V2.736H92.5686V12.736H102.569ZM146.921 12.736H156.921V2.736H146.921V12.736ZM146.921 118V128H156.921V118H146.921ZM117.401 118H107.401V128H117.401V118ZM117.401 39.232H127.401V29.232H117.401V39.232ZM112.569 39.232V12.736H92.5686V39.232H112.569ZM102.569 22.736H146.921V2.736H102.569V22.736ZM136.921 12.736V118H156.921V12.736H136.921ZM146.921 108H117.401V128H146.921V108ZM127.401 118V39.232H107.401V118H127.401ZM117.401 29.232H102.569V49.232H117.401V29.232Z" fill="url(#paint0_linear)"/>
<defs>
<linearGradient id="paint0_linear" x1="80.5" y1="-40" x2="80" y2="147" gradientUnits="userSpaceOnUse">
<stop stop-color="#FF5757"/>
<stop offset="1" stop-color="#B7E8F8"/>
</linearGradient>
</defs>
</svg>
