<svg width="189" height="128" viewBox="0 0 189 128" fill="none" xmlns="http://www.w3.org/2000/svg">
<path d="M20.8835 24.832L29.0486 30.6053L29.0486 30.6053L20.8835 24.832ZM84.2435 24.832L76.0784 30.6053L76.0977 30.6327L76.1173 30.6599L84.2435 24.832ZM84.3875 103.168L76.2224 97.3947L84.3875 103.168ZM20.7395 103.168L12.5355 108.886L12.5549 108.914L12.5744 108.941L20.7395 103.168ZM63.7955 44.128L54.4974 47.8085L54.5108 47.8422L54.5244 47.8759L63.7955 44.128ZM41.3315 44.128L50.6026 47.8759L50.6162 47.8422L50.6296 47.8085L41.3315 44.128ZM41.1875 84.016L31.8242 87.5272L31.8688 87.6461L31.9164 87.7639L41.1875 84.016ZM63.7955 84.016L54.4974 80.3355L54.4769 80.3874L54.4569 80.4395L63.7955 84.016ZM20.8035 63.856C20.8035 48.577 23.9277 37.8477 29.0486 30.6053L12.7184 19.0587C4.39929 30.8243 0.8035 46.111 0.8035 63.856H20.8035ZM29.0486 30.6053C33.4446 24.3881 40.5438 20.576 52.5635 20.576V0.575993C35.7832 0.575993 21.7624 6.26786 12.7184 19.0587L29.0486 30.6053ZM52.5635 20.576C64.5832 20.576 71.6824 24.3881 76.0784 30.6053L92.4086 19.0587C83.3646 6.26786 69.3438 0.575993 52.5635 0.575993V20.576ZM76.1173 30.6599C81.3055 37.8942 84.4675 48.6015 84.4675 63.856H104.467C104.467 46.0865 100.813 30.7778 92.3697 19.0041L76.1173 30.6599ZM84.4675 63.856C84.4675 79.3561 81.3315 90.169 76.2224 97.3947L92.5526 108.941C100.883 97.159 104.467 81.7639 104.467 63.856H84.4675ZM76.2224 97.3947C71.8395 103.593 64.7074 107.424 52.5635 107.424V127.424C69.4116 127.424 83.4955 121.751 92.5526 108.941L76.2224 97.3947ZM52.5635 107.424C40.4196 107.424 33.2875 103.593 28.9046 97.3947L12.5744 108.941C21.6315 121.751 35.7154 127.424 52.5635 127.424V107.424ZM28.9435 97.4501C23.9012 90.2155 20.8035 79.3801 20.8035 63.856H0.8035C0.8035 81.7399 4.32983 97.1125 12.5355 108.886L28.9435 97.4501ZM76.5315 63.856C76.5315 54.7712 75.6097 46.6708 73.0666 40.3801L54.5244 47.8759C55.6293 50.6092 56.5315 55.6608 56.5315 63.856H76.5315ZM73.0936 40.4475C71.4928 36.4036 68.8026 32.8533 64.8605 30.4274C61.0182 28.0629 56.721 27.216 52.5635 27.216V47.216C54.07 47.216 54.4768 47.5211 54.3785 47.4606C54.3647 47.4521 54.342 47.4362 54.3173 47.4144C54.3058 47.4043 54.2964 47.3951 54.2894 47.3877C54.2825 47.3804 54.2794 47.3765 54.28 47.3773C54.2804 47.3778 54.302 47.4045 54.3391 47.4694C54.3766 47.5351 54.4324 47.6443 54.4974 47.8085L73.0936 40.4475ZM52.5635 27.216C48.406 27.216 44.1088 28.0629 40.2665 30.4274C36.3244 32.8533 33.6342 36.4036 32.0334 40.4475L50.6296 47.8085C50.6946 47.6443 50.7504 47.5351 50.7879 47.4694C50.825 47.4045 50.8466 47.3778 50.847 47.3773C50.8476 47.3765 50.8445 47.3804 50.8376 47.3877C50.8306 47.3951 50.8212 47.4043 50.8097 47.4144C50.785 47.4362 50.7623 47.4521 50.7485 47.4606C50.6502 47.5211 51.057 47.216 52.5635 47.216V27.216ZM32.0604 40.3801C29.5173 46.6708 28.5955 54.7712 28.5955 63.856H48.5955C48.5955 55.6608 49.4977 50.6092 50.6026 47.8759L32.0604 40.3801ZM28.5955 63.856C28.5955 73.0902 29.465 81.2359 31.8242 87.5272L50.5508 80.5048C49.454 77.58 48.5955 72.2858 48.5955 63.856H28.5955ZM31.9164 87.7639C33.5585 91.8259 36.3176 95.3248 40.2866 97.6861C44.1333 99.9746 48.4205 100.784 52.5635 100.784V80.784C50.9465 80.784 50.4577 80.4654 50.5124 80.4979C50.5416 80.5153 50.591 80.5561 50.6201 80.5913C50.6422 80.6179 50.5693 80.542 50.4586 80.2681L31.9164 87.7639ZM52.5635 100.784C56.6992 100.784 61.0023 99.9773 64.8526 97.6572C68.837 95.2564 71.5616 91.6983 73.1341 87.5925L54.4569 80.4395C54.3592 80.6946 54.301 80.7444 54.3452 80.6898C54.3969 80.6258 54.4732 80.5612 54.5304 80.5268C54.6367 80.4627 54.1878 80.784 52.5635 80.784V100.784ZM73.0936 87.6965C75.6112 81.336 76.5315 73.1193 76.5315 63.856H56.5315C56.5315 72.2567 55.6278 77.4799 54.4974 80.3355L73.0936 87.6965ZM104.58 95.392L98.4127 87.5204L94.5801 90.5232V95.392H104.58ZM127.476 76.528L120.84 69.0472L127.476 76.528ZM142.452 60.256L150.552 66.1211L150.575 66.0883L150.599 66.0553L142.452 60.256ZM146.34 36.928L138.447 43.0674L138.55 43.2004L138.658 43.3298L146.34 36.928ZM133.812 37.936L142.133 43.483L142.184 43.4052L142.235 43.3265L133.812 37.936ZM131.652 48.16V58.16H141.867L141.65 47.9473L131.652 48.16ZM104.292 48.16L94.2978 47.8231L93.9494 58.16H104.292V48.16ZM109.908 26.992L118.405 32.2656L118.425 32.2332L118.445 32.2006L109.908 26.992ZM123.444 14.608L127.664 23.6738L127.728 23.6441L127.792 23.6135L123.444 14.608ZM168.372 19.36L175.501 12.3476V12.3476L168.372 19.36ZM166.932 70.192L159.006 64.0949L158.985 64.1224L158.964 64.15L166.932 70.192ZM142.02 93.664L136.328 85.4421L110.007 103.664H142.02V93.664ZM178.02 93.664H188.02V83.664H178.02V93.664ZM178.02 116.56V126.56H188.02V116.56H178.02ZM104.58 116.56H94.5801V126.56H104.58V116.56ZM110.748 103.264C120.151 95.8961 127.954 89.4715 134.112 84.0087L120.84 69.0472C115.094 74.1445 107.633 80.2959 98.4127 87.5204L110.748 103.264ZM134.112 84.0087C140.526 78.3189 146.031 72.3631 150.552 66.1211L134.353 54.3909C130.809 59.2849 126.33 64.1771 120.84 69.0472L134.112 84.0087ZM150.599 66.0553C155.404 59.3051 158.5 51.9331 158.5 44.128H138.5C138.5 46.4989 137.564 49.8789 134.305 54.4567L150.599 66.0553ZM158.5 44.128C158.5 39.5703 157.428 34.6131 154.022 30.5262L138.658 43.3298C138.421 43.0455 138.365 42.8419 138.382 42.8975C138.407 42.9827 138.5 43.3542 138.5 44.128H158.5ZM154.234 30.7886C150.563 26.0693 145.287 24.336 140.292 24.336V44.336C140.579 44.336 140.365 44.3828 139.881 44.1754C139.337 43.9423 138.815 43.5416 138.447 43.0674L154.234 30.7886ZM140.292 24.336C134.002 24.336 128.711 27.3553 125.389 32.5455L142.235 43.3265C142.248 43.3064 142.017 43.6575 141.441 43.9776C140.855 44.3031 140.381 44.336 140.292 44.336V24.336ZM125.492 32.389C122.308 37.1648 121.54 42.9891 121.654 48.3727L141.65 47.9473C141.614 46.2449 141.741 45.0595 141.904 44.287C142.067 43.5172 142.225 43.3446 142.133 43.483L125.492 32.389ZM131.652 38.16H104.292V58.16H131.652V38.16ZM114.286 48.4969C114.533 41.1828 116.111 35.9613 118.405 32.2656L101.412 21.7184C96.7936 29.1587 94.6273 38.0492 94.2978 47.8231L114.286 48.4969ZM118.445 32.2006C120.96 28.0782 124.029 25.3664 127.664 23.6738L119.224 5.54217C111.724 9.03359 105.768 14.5777 101.372 21.7833L118.445 32.2006ZM127.792 23.6135C131.87 21.6447 136.554 20.576 142.02 20.576V0.575993C133.855 0.575993 126.154 2.1953 119.097 5.60247L127.792 23.6135ZM142.02 20.576C152.329 20.576 158.055 23.1314 161.243 26.3724L175.501 12.3476C167.169 3.87657 155.327 0.575993 142.02 0.575993V20.576ZM161.243 26.3724C164.912 30.1029 167.012 35.0426 167.012 42.112H187.012C187.012 30.5574 183.352 20.3291 175.501 12.3476L161.243 26.3724ZM167.012 42.112C167.012 49.6598 164.529 56.9148 159.006 64.0949L174.858 76.2891C182.775 65.9972 187.012 54.5322 187.012 42.112H167.012ZM158.964 64.15C153.043 71.9582 145.536 79.0676 136.328 85.4421L147.712 101.886C158.473 94.4364 167.573 85.8978 174.9 76.2339L158.964 64.15ZM142.02 103.664H178.02V83.664H142.02V103.664ZM168.02 93.664V116.56H188.02V93.664H168.02ZM178.02 106.56H104.58V126.56H178.02V106.56ZM114.58 116.56V95.392H94.5801V116.56H114.58Z" fill="url(#paint0_linear)"/>
<defs>
<linearGradient id="paint0_linear" x1="93.5" y1="-40" x2="93" y2="151" gradientUnits="userSpaceOnUse">
<stop stop-color="#FF5757"/>
<stop offset="1" stop-color="#B7E8F8"/>
</linearGradient>
</defs>
</svg>
