<svg width="191" height="129" viewBox="0 0 191 129" fill="none" xmlns="http://www.w3.org/2000/svg">
<path d="M20.9304 24.832L29.0955 30.6053L29.0955 30.6053L20.9304 24.832ZM84.2904 24.832L76.1253 30.6053L76.1446 30.6327L76.1642 30.6599L84.2904 24.832ZM84.4344 103.168L76.2693 97.3947L84.4344 103.168ZM20.7864 103.168L12.5824 108.886L12.6017 108.914L12.6213 108.941L20.7864 103.168ZM63.8424 44.128L54.5443 47.8085L54.5577 47.8422L54.5713 47.8759L63.8424 44.128ZM41.3784 44.128L50.6495 47.8759L50.6631 47.8422L50.6764 47.8085L41.3784 44.128ZM41.2344 84.016L31.8711 87.5272L31.9157 87.6461L31.9633 87.7639L41.2344 84.016ZM63.8424 84.016L54.5443 80.3355L54.5238 80.3874L54.5038 80.4395L63.8424 84.016ZM20.8504 63.856C20.8504 48.577 23.9746 37.8477 29.0955 30.6053L12.7653 19.0587C4.44617 30.8243 0.850375 46.111 0.850375 63.856H20.8504ZM29.0955 30.6053C33.4915 24.3881 40.5907 20.576 52.6104 20.576V0.575993C35.8301 0.575993 21.8093 6.26786 12.7653 19.0587L29.0955 30.6053ZM52.6104 20.576C64.6301 20.576 71.7293 24.3881 76.1253 30.6053L92.4555 19.0587C83.4115 6.26786 69.3907 0.575993 52.6104 0.575993V20.576ZM76.1642 30.6599C81.3524 37.8942 84.5144 48.6015 84.5144 63.856H104.514C104.514 46.0865 100.86 30.7778 92.4166 19.0041L76.1642 30.6599ZM84.5144 63.856C84.5144 79.3561 81.3784 90.169 76.2693 97.3947L92.5995 108.941C100.93 97.159 104.514 81.7639 104.514 63.856H84.5144ZM76.2693 97.3947C71.8864 103.593 64.7542 107.424 52.6104 107.424V127.424C69.4585 127.424 83.5424 121.751 92.5995 108.941L76.2693 97.3947ZM52.6104 107.424C40.4665 107.424 33.3344 103.593 28.9515 97.3947L12.6213 108.941C21.6784 121.751 35.7622 127.424 52.6104 127.424V107.424ZM28.9904 97.4501C23.948 90.2155 20.8504 79.3801 20.8504 63.856H0.850375C0.850375 81.7399 4.3767 97.1125 12.5824 108.886L28.9904 97.4501ZM76.5784 63.856C76.5784 54.7712 75.6565 46.6708 73.1135 40.3801L54.5713 47.8759C55.6762 50.6092 56.5784 55.6608 56.5784 63.856H76.5784ZM73.1404 40.4475C71.5397 36.4036 68.8495 32.8533 64.9074 30.4274C61.0651 28.0629 56.7679 27.216 52.6104 27.216V47.216C54.1169 47.216 54.5237 47.5211 54.4254 47.4606C54.4116 47.4521 54.3889 47.4362 54.3642 47.4144C54.3527 47.4043 54.3433 47.3951 54.3363 47.3877C54.3293 47.3804 54.3262 47.3765 54.3268 47.3773C54.3272 47.3778 54.3489 47.4045 54.3859 47.4694C54.4235 47.5351 54.4793 47.6443 54.5443 47.8085L73.1404 40.4475ZM52.6104 27.216C48.4529 27.216 44.1557 28.0629 40.3134 30.4274C36.3713 32.8533 33.681 36.4036 32.0803 40.4475L50.6764 47.8085C50.7414 47.6443 50.7972 47.5351 50.8348 47.4694C50.8719 47.4045 50.8935 47.3778 50.8939 47.3773C50.8945 47.3765 50.8914 47.3804 50.8844 47.3877C50.8774 47.3951 50.8681 47.4043 50.8566 47.4144C50.8319 47.4362 50.8092 47.4521 50.7954 47.4606C50.6971 47.5211 51.1039 47.216 52.6104 47.216V27.216ZM32.1073 40.3801C29.5642 46.6708 28.6424 54.7712 28.6424 63.856H48.6424C48.6424 55.6608 49.5445 50.6092 50.6495 47.8759L32.1073 40.3801ZM28.6424 63.856C28.6424 73.0902 29.5119 81.2359 31.8711 87.5272L50.5977 80.5048C49.5009 77.58 48.6424 72.2858 48.6424 63.856H28.6424ZM31.9633 87.7639C33.6053 91.8259 36.3644 95.3248 40.3335 97.6861C44.1802 99.9746 48.4674 100.784 52.6104 100.784V80.784C50.9934 80.784 50.5046 80.4654 50.5593 80.4979C50.5885 80.5153 50.6378 80.5561 50.667 80.5913C50.6891 80.6179 50.6162 80.542 50.5055 80.2681L31.9633 87.7639ZM52.6104 100.784C56.7461 100.784 61.0491 99.9773 64.8995 97.6572C68.8838 95.2564 71.6085 91.6983 73.1809 87.5925L54.5038 80.4395C54.4061 80.6946 54.3479 80.7444 54.3921 80.6898C54.4438 80.6258 54.5201 80.5612 54.5773 80.5268C54.6836 80.4627 54.2347 80.784 52.6104 80.784V100.784ZM73.1404 87.6965C75.6581 81.336 76.5784 73.1193 76.5784 63.856H56.5784C56.5784 72.2567 55.6746 77.4799 54.5443 80.3355L73.1404 87.6965ZM106.787 44.128L96.7933 43.7742L96.4268 54.128H106.787V44.128ZM116.867 19.216L123.594 26.6154L123.624 26.5877L123.654 26.5598L116.867 19.216ZM162.227 14.32L157.755 23.2643L157.854 23.3136L157.953 23.3607L162.227 14.32ZM174.179 24.688L165.637 29.8875L165.663 29.9294L165.688 29.971L174.179 24.688ZM173.459 55.072L181.173 61.4358L181.211 61.3892L181.249 61.3421L173.459 55.072ZM162.659 62.848L159.497 53.3612L152.659 55.6404V62.848H162.659ZM162.659 63.424H152.659V70.3742L159.173 72.7968L162.659 63.424ZM175.907 104.176L167.348 99.0048L167.348 99.0049L175.907 104.176ZM163.811 114.976L168.218 123.953L163.811 114.976ZM116.435 110.224L109.971 117.854L110.028 117.902L110.085 117.949L116.435 110.224ZM105.635 83.44V73.44H95.3921L95.6379 83.6799L105.635 83.44ZM133.139 83.44L143.127 83.9394L143.651 73.44H133.139V83.44ZM135.587 92.368L128.019 98.9042L128.019 98.9042L135.587 92.368ZM150.275 92.944L143.005 86.0778L142.901 86.1875L142.801 86.3004L150.275 92.944ZM149.123 77.968L143.123 85.968L143.201 86.0264L143.28 86.0833L149.123 77.968ZM132.707 75.376H122.707V85.376H132.707V75.376ZM132.707 52.48V42.48H122.707V52.48H132.707ZM137.603 52.48L137.866 42.4835L137.735 42.48H137.603V52.48ZM146.819 50.752L151.291 59.6963L151.357 59.6634L151.422 59.6295L146.819 50.752ZM148.547 36.208L141.252 43.0474L141.362 43.165L141.476 43.2791L148.547 36.208ZM136.451 36.928L128.13 31.381L128.098 31.4294L128.067 31.4781L136.451 36.928ZM134.291 44.128V54.128H143.647L144.269 44.7932L134.291 44.128ZM116.781 44.4818C117.096 35.5659 119.752 30.1079 123.594 26.6154L110.14 11.8166C101.31 19.844 97.2457 30.9941 96.7933 43.7742L116.781 44.4818ZM123.654 26.5598C127.624 22.8907 133.743 20.432 143.363 20.432V0.431995C130.327 0.431995 118.782 3.8293 110.08 11.8722L123.654 26.5598ZM143.363 20.432C149.617 20.432 154.288 21.5309 157.755 23.2643L166.699 5.37572C159.798 1.92506 151.893 0.431995 143.363 0.431995V20.432ZM157.953 23.3607C161.702 25.133 164.094 27.352 165.637 29.8875L182.721 19.4885C178.888 13.192 173.312 8.49903 166.501 5.27927L157.953 23.3607ZM165.688 29.971C167.315 32.5854 168.211 35.6247 168.211 39.376H188.211C188.211 32.1833 186.419 25.4306 182.67 19.405L165.688 29.971ZM168.211 39.376C168.211 44.2977 167.034 47.1053 165.669 48.8019L181.249 61.3421C186.22 55.1667 188.211 47.5103 188.211 39.376H168.211ZM165.745 48.7082C163.564 51.3527 161.462 52.706 159.497 53.3612L165.821 72.3348C171.92 70.302 177.018 66.4713 181.173 61.4358L165.745 48.7082ZM152.659 62.848V63.424H172.659V62.848H152.659ZM159.173 72.7968C163.523 74.4145 166.049 76.4781 167.548 78.6098C169.039 80.7286 170.083 83.7196 170.083 88.192H190.083C190.083 80.4724 188.223 73.2394 183.906 67.1022C179.597 60.9779 173.411 56.7535 166.145 54.0512L159.173 72.7968ZM170.083 88.192C170.083 92.6478 169.077 96.1432 167.348 99.0048L184.466 109.347C188.305 102.993 190.083 95.8322 190.083 88.192H170.083ZM167.348 99.0049C165.646 101.822 163.13 104.171 159.404 105.999L168.218 123.953C175.052 120.597 180.6 115.746 184.466 109.347L167.348 99.0049ZM159.404 105.999C155.785 107.776 151.074 108.864 144.947 108.864V128.864C153.412 128.864 161.277 127.36 168.218 123.953L159.404 105.999ZM144.947 108.864C134.51 108.864 127.497 106.372 122.785 102.499L110.085 117.949C119.389 125.596 131.384 128.864 144.947 128.864V108.864ZM122.899 102.594C118.816 99.1344 115.875 93.3243 115.632 83.2001L95.6379 83.6799C95.9709 97.5557 100.23 109.602 109.971 117.854L122.899 102.594ZM105.635 93.44H133.139V73.44H105.635V93.44ZM123.151 82.9406C122.88 88.3658 123.964 94.2095 128.019 98.9042L143.155 85.8318C143.315 86.017 143.307 86.1136 143.251 85.9077C143.183 85.6585 143.071 85.0493 143.127 83.9394L123.151 82.9406ZM128.019 98.9042C132.287 103.846 138.192 105.536 143.795 105.536V85.536C142.913 85.536 142.585 85.4059 142.608 85.4148C142.626 85.4217 142.711 85.4578 142.832 85.5414C142.954 85.6264 143.066 85.7284 143.155 85.8318L128.019 98.9042ZM143.795 105.536C148.8 105.536 153.931 103.883 157.749 99.5876L142.801 86.3004C142.92 86.1665 143.076 86.023 143.264 85.8907C143.453 85.7585 143.635 85.6648 143.789 85.6032C144.098 85.4797 144.159 85.536 143.795 85.536V105.536ZM157.545 99.8102C161.287 95.8482 162.723 90.8936 162.723 86.032H142.723C142.723 86.5327 142.652 86.6736 142.685 86.5815C142.701 86.5354 142.736 86.4525 142.798 86.3502C142.861 86.2472 142.933 86.154 143.005 86.0778L157.545 99.8102ZM162.723 86.032C162.723 80.0108 160.592 73.9036 154.966 69.8527L143.28 86.0833C143.195 86.0223 143.072 85.9161 142.947 85.7626C142.822 85.6088 142.739 85.4625 142.692 85.3565C142.599 85.1496 142.723 85.2859 142.723 86.032H162.723ZM155.123 69.968C150.152 66.2397 143.618 65.376 137.747 65.376V85.376C139.886 85.376 141.369 85.5552 142.329 85.7741C143.31 85.9976 143.414 86.1861 143.123 85.968L155.123 69.968ZM137.747 65.376H132.707V85.376H137.747V65.376ZM142.707 75.376V52.48H122.707V75.376H142.707ZM132.707 62.48H137.603V42.48H132.707V62.48ZM137.34 62.4765C142.141 62.6029 146.945 61.8694 151.291 59.6963L142.347 41.8077C141.701 42.1305 140.361 42.5491 137.866 42.4835L137.34 62.4765ZM151.422 59.6295C158.481 55.9694 160.707 48.9987 160.707 42.832H140.707C140.707 43.7651 140.545 43.7915 140.758 43.3573C140.874 43.1212 141.069 42.8181 141.363 42.5167C141.658 42.2147 141.964 42.0051 142.216 41.8745L151.422 59.6295ZM160.707 42.832C160.707 38.4255 159.649 33.1683 155.618 29.1369L141.476 43.2791C141.22 43.0234 141.026 42.7617 140.887 42.5269C140.751 42.2964 140.685 42.1226 140.66 42.0442C140.616 41.9111 140.707 42.116 140.707 42.832H160.707ZM155.842 29.3686C152.162 25.4431 147.346 23.904 142.643 23.904V43.904C142.868 43.904 142.72 43.938 142.356 43.7958C141.955 43.6395 141.555 43.3713 141.252 43.0474L155.842 29.3686ZM142.643 23.904C137.096 23.904 131.629 26.1325 128.13 31.381L144.772 42.475C144.517 42.8573 144.044 43.3289 143.395 43.6457C142.801 43.9357 142.454 43.904 142.643 43.904V23.904ZM128.067 31.4781C125.675 35.1574 124.59 39.3143 124.313 43.4628L144.269 44.7932C144.376 43.1817 144.731 42.5386 144.835 42.3779L128.067 31.4781ZM134.291 34.128H106.787V54.128H134.291V34.128Z" fill="url(#paint0_linear)"/>
<defs>
<linearGradient id="paint0_linear" x1="96.5" y1="-40" x2="96" y2="143.5" gradientUnits="userSpaceOnUse">
<stop stop-color="#FF5757"/>
<stop offset="1" stop-color="#B7E8F8"/>
</linearGradient>
</defs>
</svg>
