<svg width="133" height="179" viewBox="0 0 133 179" fill="none" xmlns="http://www.w3.org/2000/svg">
<path d="M2.12672 40.3659C5.44579 25.2293 12.6007 15.0506 24.7053 8.31234C33.6156 3.3546 44.6999 0.601288 57.602 0.128273C68.6239 -0.273345 81.3968 0.396017 81.5215 0.40048C81.9938 0.423033 82.4004 0.741785 82.5357 1.19555C82.671 1.64932 82.5055 2.13921 82.123 2.41749C81.8646 2.60491 56.2832 21.347 50.8703 27.996C44.1653 36.2649 39.6612 47.9743 38.8414 59.3177C38.0618 69.9338 45.1142 89.2516 50.2599 103.357C51.9573 108.003 53.423 112.019 54.4655 115.281C58.2791 127.2 77.4718 176.295 77.6634 176.791C77.7974 177.134 77.7533 177.522 77.5456 177.826C77.3379 178.131 76.9935 178.312 76.6254 178.312H59.6959C59.3682 178.312 59.0568 178.17 58.8449 177.92C45.6756 162.364 35.5714 145.755 24.8701 128.173L22.3084 123.965C14.5342 111.251 7.99412 93.0045 3.74838 80.3848C-0.666649 67.301 -1.1478 55.3283 2.12672 40.3659Z" fill="#E47E7B"/>
<path d="M56.6442 90.3896C56.4745 90.039 56.4981 89.6253 56.7066 89.2963C56.9174 88.9686 57.2843 88.7755 57.6734 88.7876H58.5154C75.3488 88.8342 89.0821 75.2983 89.3068 58.4389C89.5314 41.5794 76.1637 27.6812 59.3351 27.2777C58.9075 27.2692 58.5236 27.0134 58.3505 26.6217C58.1739 26.2329 58.2344 25.7771 58.5065 25.4481C67.8266 14.2296 95.3415 18.8348 96.5087 19.0356C96.8125 19.0865 97.0809 19.263 97.2483 19.522L121.19 56.0023C121.427 56.3673 121.427 56.8376 121.19 57.2026L97.3151 95.5794C97.156 95.8349 96.9005 96.0152 96.6067 96.0792C90.2723 97.3749 83.8297 98.0667 77.365 98.1456C68.6642 98.1721 59.647 96.5433 56.6442 90.3896Z" fill="#E47E7B"/>
<path d="M20.6644 80.4028C24.9369 93.0984 31.6196 110.966 39.2156 123.965C51.3291 144.755 62.1818 161.895 75.7476 177.938C75.9606 178.187 76.2713 178.33 76.5986 178.33H76.6476C76.9873 178.321 77.3042 178.157 77.5074 177.884C86.7697 164.826 95.3542 151.299 103.227 137.357C110.253 124.862 115.701 113.612 119.862 102.969C125.208 89.3366 130.109 75.927 131.633 61.7053C132.969 49.0365 130.809 36.9657 125.52 27.724C121.693 21.0304 115.514 15.2293 106.083 9.42812C95.466 2.89068 84.845 -0.233009 74.5269 0.146296C61.6071 0.619312 50.5583 3.37262 41.6347 8.33036C29.5479 15.0508 22.3707 25.2295 19.0561 40.366C15.7771 55.3285 16.2583 67.3012 20.6644 80.4028ZM53.1379 79.1935C44.6998 70.2735 42.3717 57.179 47.2167 45.8897C52.0616 34.6003 63.1498 27.2825 75.418 27.2778C75.6986 27.2778 75.9748 27.2778 76.2555 27.2778C93.0831 27.6815 106.45 41.5783 106.227 58.4367C106.003 75.2951 92.2725 88.8316 75.4402 88.7878H74.5982C66.4546 88.5856 58.7295 85.1313 53.1423 79.1935H53.1379Z" fill="#FF989D"/>
</svg>
