<svg width="58" height="58" viewBox="0 0 58 58" fill="none" xmlns="http://www.w3.org/2000/svg">
<path d="M10.5905 0C4.72381 0 0 4.7238 0 10.5904V47.4095C0 53.2761 4.72381 57.9999 10.5905 57.9999H30.5461V35.3256H24.5504V27.1621H30.5461V20.1876C30.5461 14.7081 34.0887 9.67693 42.2494 9.67693C45.5535 9.67693 47.9969 9.99413 47.9969 9.99413L47.8047 17.6175C47.8047 17.6175 45.3128 17.594 42.5937 17.594C39.6509 17.594 39.179 18.9499 39.179 21.2009V27.1622H48.0385L47.6525 35.3256H39.179V58H47.4095C53.2762 58 58 53.2762 58 47.4096V10.5905C58 4.72386 53.2762 5.79999e-05 47.4095 5.79999e-05H10.5904L10.5905 0Z" fill="#37A1C4"/>
</svg>
