<svg width="1480" height="499" viewBox="0 0 1480 499" fill="none" xmlns="http://www.w3.org/2000/svg">
<path opacity="0.5" fill-rule="evenodd" clip-rule="evenodd" d="M1480 226.52C1478.39 226.52 1477.08 227.529 1477.08 228.773V229.884C1477.08 231.139 1475.73 232.151 1474.1 232.132C1469.73 232.087 1467.07 232.057 1467.07 232.057V233.96H1463.14V211.108C1463.14 209.865 1461.83 208.858 1460.22 208.858H1457.88C1456.27 208.858 1454.96 207.848 1454.96 206.607V200.257C1454.96 198.473 1453.09 197.03 1450.78 197.03H1402.39C1400.07 197.03 1398.2 198.473 1398.2 200.257V251.771C1398.2 253.55 1396.33 254.996 1394.01 254.996H1381.66C1379.35 254.996 1377.48 256.44 1377.48 258.221V298.402C1377.48 300.183 1375.6 301.627 1373.29 301.627H1371.34C1369.03 301.627 1367.16 300.183 1367.16 298.402V296.404C1367.16 294.623 1365.28 293.177 1362.97 293.177H1352.54C1350.92 293.177 1349.62 292.172 1349.62 290.926V289.86C1349.62 288.617 1348.31 287.607 1346.69 287.607H1344.28C1342.66 287.607 1341.35 286.6 1341.35 285.357V282.882C1341.35 281.099 1339.48 279.657 1337.17 279.657H1335.22C1332.91 279.657 1331.03 281.099 1331.03 282.882V299.376C1331.03 300.62 1329.73 301.627 1328.11 301.627H1326.93C1325.32 301.627 1325.34 300.62 1325.34 299.376V261.049C1325.34 260.874 1325.32 260.7 1325.29 260.528H1296.24C1296.21 260.7 1296.19 260.874 1296.19 261.049V297.072C1296.19 298.553 1294.88 300.174 1293.02 300.535L1289.85 300.556V131.019C1289.85 129.238 1287.97 127.792 1285.66 127.792H1218.11C1215.8 127.792 1213.93 129.238 1213.93 131.019V199.271C1213.93 201.052 1212.05 202.495 1209.74 202.495H1207.24C1204.93 202.495 1203.05 203.939 1203.05 205.72V252.139H1199.69L1197.78 245.147C1196.87 241.835 1190.8 241.7 1189.64 244.97L1187.96 249.759C1187.46 251.165 1185.81 252.139 1183.92 252.139H1172.14C1169.83 252.139 1167.96 250.698 1167.96 248.914V171.347C1167.96 169.566 1166.08 168.122 1163.77 168.122H1157.69C1155.38 168.122 1153.5 169.566 1153.5 171.347V212.79C1153.5 214.571 1151.63 216.015 1149.32 216.015H1116.4C1114.09 216.015 1112.22 214.571 1112.22 212.79V212.083C1112.22 210.299 1110.34 208.858 1108.03 208.858H1096.81C1094.49 208.858 1092.62 210.299 1092.62 212.083V215.973C1092.62 217.754 1090.75 219.197 1088.43 219.197H1082.35C1080.03 219.197 1078.16 217.754 1078.16 215.973V214.465C1078.16 212.684 1076.29 211.24 1073.97 211.24H1066.87C1064.56 211.24 1062.69 212.684 1062.69 214.465V249.511C1062.69 251.254 1060.89 252.682 1058.62 252.736C1055.16 252.818 1051.77 252.861 1049.13 252.818C1046.74 252.781 1044.85 254.243 1044.9 256.09C1045.05 261.21 1044.54 270.025 1044.24 274.658C1044.12 276.371 1042.29 277.704 1040.06 277.704H1036.77C1034.46 277.704 1032.59 279.145 1032.59 280.929V301.469C1032.59 303.25 1030.71 304.694 1028.4 304.694H1027.49C1025.18 304.694 1023.31 303.25 1023.31 301.469V262.615C1023.31 262.087 1023.14 261.566 1022.82 261.099L1016.75 252.328C1015.11 249.957 1010.65 250.08 1009.23 252.535L1002.47 264.243C1002.24 264.656 1002.11 265.102 1002.11 265.552V293.255C1002.11 294.498 1000.81 295.505 999.194 295.505H997.182C995.568 295.505 994.261 294.498 994.261 293.255V186.051C994.261 184.269 992.385 182.826 990.076 182.826H943.896C941.587 182.826 939.712 184.269 939.712 186.051V198.653C939.712 199.893 938.404 200.903 936.79 200.903H936.59C934.976 200.903 933.668 201.91 933.668 203.154V236.416C933.668 238.197 931.796 239.641 929.484 239.641H918.244C915.932 239.641 914.057 238.197 914.057 236.416V188.216C914.057 186.435 912.185 184.991 909.87 184.991H883.456C881.144 184.991 879.271 183.548 879.271 181.767V144.281C879.271 142.5 877.399 141.057 875.084 141.057H839.226C836.911 141.057 835.039 142.5 835.039 144.281V159.5C835.039 161.281 833.166 162.724 830.852 162.724H784.179V120.469C784.179 119.228 782.871 118.219 781.257 118.219H778.993C777.379 118.219 776.071 117.212 776.071 115.968V76.1548C776.071 74.9116 774.763 73.9043 773.149 73.9043H770.885C769.274 73.9043 767.966 72.897 767.966 71.6538L680.246 70.1841C680.246 71.3306 679.127 72.2954 677.646 72.4228L676.205 72.5455C674.727 72.6729 673.608 73.6354 673.608 74.7842V117.65H669.184V241.285C669.184 242.266 668.606 243.194 667.61 243.807L663.942 246.064C662.946 246.673 662.368 247.603 662.368 248.584V251.613C661.966 251.606 661.686 251.601 661.686 251.601V261.313C661.686 263.094 659.811 264.54 657.499 264.54H656.288C653.978 264.54 652.103 263.094 652.103 261.313V140.493C652.103 138.712 650.228 137.268 647.919 137.268H611.114C608.802 137.268 606.927 138.712 606.927 140.493V274.092L585.012 258.695C584.226 258.088 583.787 257.27 583.787 256.414V161.132V150.04C583.787 148.256 581.912 146.813 579.6 146.813H574.558C572.246 146.813 570.373 145.369 570.373 143.588V140.493C570.373 138.712 568.498 137.268 566.186 137.268H539.239C536.928 137.268 535.052 135.824 535.052 134.041V76.228C535.052 74.4445 533.18 73.0008 530.868 73.0008H507.916C505.605 73.0008 503.732 74.4445 503.732 76.228V202.432C503.732 204.213 501.857 205.659 499.545 205.659H478.663C476.354 205.659 474.479 204.213 474.479 202.432V96.8059C474.479 95.0248 472.606 93.581 470.292 93.581H440.676C438.364 93.581 436.489 95.0248 436.489 96.8059V261.313C436.489 263.094 434.617 264.54 432.305 264.54H431.095C428.784 264.54 426.911 263.094 426.911 261.313V257.6C426.911 255.755 424.916 254.283 422.524 254.361L414.758 254.614C412.366 254.689 410.371 253.217 410.371 251.372V240.37H410.397V234.357C410.397 232.576 408.525 231.132 406.213 231.132H400.129C397.818 231.132 395.942 229.688 395.942 227.907V223.177H391.313V150.613C391.313 148.832 389.438 147.388 387.126 147.388H343.133C340.821 147.388 338.946 148.832 338.946 150.613V213.585C338.946 215.366 337.073 216.812 334.762 216.812H332.865C330.553 216.812 328.681 215.366 328.681 213.585V150.613C328.681 148.832 326.806 147.388 324.496 147.388H285.873C283.561 147.388 281.686 148.832 281.686 150.613V201.653C281.686 203.434 279.813 204.88 277.501 204.88H271.12C268.808 204.88 266.933 206.324 266.933 208.105V228.468L264.661 227.445C262.911 226.654 260.681 226.944 259.363 228.131L256.015 231.151C255.368 231.736 255.013 232.479 255.013 233.248V239.544C255.013 240.617 254.03 241.54 252.667 241.752L250.741 242.049C249.375 242.262 248.394 243.186 248.394 244.257V290.162C248.394 291.943 246.522 293.387 244.21 293.387H242.178C239.866 293.387 237.993 291.943 237.993 290.162V207.758C237.993 206.904 237.551 206.084 236.768 205.48L234.749 203.923C233.964 203.319 233.524 202.498 233.524 201.644V186.565C233.524 185.711 233.082 184.89 232.296 184.286L225.771 179.259C224.985 178.653 224.543 177.832 224.543 176.978V139.035C224.543 138.157 224.079 137.318 223.259 136.709L213.233 129.28C212.413 128.672 211.947 127.832 211.947 126.957V115.64L210.013 113.772V104.357C210.013 103.701 206.62 100.703 206.62 100.045V89.4952C206.62 88.4195 205.637 87.4947 204.271 87.2872C202.609 86.5165 201.778 85.7734 201.778 85.0578V73.4679L199.844 72.345V63.7628L196.938 61.8921V54.7796C196.938 54.3054 196.802 53.836 196.541 53.4066L193.068 0.592529H191.132H188.705V58.1908C188.705 58.6626 188.569 59.1297 188.311 59.5566L182.078 69.835C181.82 70.262 181.684 70.7267 181.684 71.1985V79.0352C181.684 79.8915 181.242 80.7101 180.459 81.3164C176.274 84.8613 174.181 86.9183 174.181 87.4876V98.844H169.211V111.625C169.211 112.22 168.905 112.793 168.359 113.215L166.555 114.61C166.009 115.029 165.703 115.6 165.703 116.197V126.28L163.04 128.33V139.896H160.179V177.306C160.179 178.549 158.871 179.556 157.257 179.556H155.92C154.306 179.556 152.998 180.563 152.998 181.807V186.478C152.998 188.259 151.123 189.705 148.811 189.705C146.499 189.705 144.627 191.146 144.627 192.93V283.09C144.627 284.873 142.752 286.314 140.442 286.314H138.66C136.346 286.314 134.473 284.873 134.473 283.09V279.376C134.473 278.133 133.166 277.126 131.554 277.126H131.552C129.937 277.126 128.63 276.119 128.63 274.875V195.609C128.63 193.828 126.755 192.385 124.445 192.385H38.0329C35.721 192.385 33.8485 193.828 33.8485 195.609V296.666C33.8485 298.397 32.0693 299.836 29.8213 299.891C27.0299 299.957 17.7289 299.935 15.8245 299.756C15.5715 299.735 15.3398 299.784 15.0974 299.806V267.765C15.0974 265.984 13.2223 264.54 10.913 264.54H0.184379C-2.12755 264.54 -4 265.984 -4 267.765V495.331C-4 497.112 -2.12489 498.556 0.187042 498.556L1480 495.611V226.52Z" fill="url(#paint0_linear)"/>
<defs>
<linearGradient id="paint0_linear" x1="738" y1="0.592529" x2="738" y2="498.556" gradientUnits="userSpaceOnUse">
<stop stop-color="#A7B3FE"/>
<stop offset="1" stop-color="white" stop-opacity="0"/>
</linearGradient>
</defs>
</svg>
