<svg width="430" height="295" viewBox="0 0 430 295" fill="none" xmlns="http://www.w3.org/2000/svg">
<path opacity="0.5" d="M215 294.831C333.741 294.831 430 289.089 430 282.007C430 274.925 333.741 269.184 215 269.184C96.2588 269.184 0 274.925 0 282.007C0 289.089 96.2588 294.831 215 294.831Z" fill="#B7E8F8"/>
<mask id="mask0" mask-type="alpha" maskUnits="userSpaceOnUse" x="100" y="0" width="252" height="295">
<rect x="100.332" width="250.83" height="294.878" fill="#C4C4C4"/>
</mask>
<g mask="url(#mask0)">
<path fill-rule="evenodd" clip-rule="evenodd" d="M253.938 179.801C253.888 179.177 254.42 180.803 254.507 181.843C255.347 191.798 256.59 209.326 257.567 219.268C258.555 229.311 260.85 249.796 262.092 259.812C263.62 272.126 263.985 266.87 265.672 279.163C267.388 291.664 269.232 304.147 271.03 316.636C272.633 327.772 274.208 338.913 275.875 350.04C278.199 365.552 280.603 381.052 282.952 396.56C283.368 399.308 283.943 403.815 284.262 406.575C284.62 409.676 288.861 410.049 285.76 410.347C285.245 410.396 284.731 410.448 284.262 410.494L286.485 440.441C288.24 440.441 289.573 440.469 290.904 440.436C298.5 441.205 303.63 441.486 310.261 442.93C314.849 443.928 319.896 445.167 323.728 447.913C328.699 451.474 331.313 456.258 331.399 462.391C331.475 467.803 330.498 473.071 329.171 478.279C328.581 480.589 328.056 480.917 325.573 480.871C312.053 480.619 298.504 480.726 285.073 478.944C274.086 477.486 264.892 474.247 253.938 472.542C253.549 472.481 253.195 472.206 252.763 472.001C252.763 468.806 252.584 465.658 252.793 462.537C253.887 446.169 254.435 428.68 255.605 412.317C255.703 410.949 249.245 408.046 247.4 407.728C246.666 407.156 246.521 405.655 246.378 404.539C245.433 397.134 244.621 389.711 243.654 382.308C241.663 367.085 239.733 351.853 237.539 336.658C234.459 315.325 232.046 301.837 229.186 280.476C227.227 265.853 228.826 247.201 225.847 232.79C225.273 230.01 224.782 227.213 224.218 224.432C224.057 223.636 223.775 222.866 223.547 222.084C223.327 222.09 219.623 219.261 219.402 219.268C218.199 224.648 215.967 232.875 214.666 238.233C210.995 253.35 207.131 268.422 203.56 283.563C196.9 311.807 193.832 334.589 185.914 362.511C177.996 390.433 176.262 396.845 172.462 410.347C171.213 414.785 170.202 419.285 169.28 423.802C168.62 427.04 170.122 425.806 167.139 425.137C163.759 424.379 158.86 423.498 155.403 422.677C152.959 431.145 150.577 439.396 148.119 447.913C148.874 448.17 149.501 449.048 150.382 449.308C157.311 451.35 163.891 454.151 169.843 458.281C171.228 459.241 172.575 460.273 173.837 461.387C180.149 466.959 181.886 473.724 179.038 481.651C178.565 482.968 177.911 484.218 177.363 485.509C177.106 486.112 176.775 486.683 176.395 487.219C172.199 493.146 173.181 490.816 169.28 490.708C165.809 490.613 160.343 490.284 156.935 489.622C151.267 488.521 149.31 487.178 143.865 485.238C139 483.505 137.069 484.394 134.593 482.368C128.356 477.264 123.017 471.3 117.811 465.206C117.062 464.329 116.482 463.311 115.82 462.36C114.082 459.862 113.759 457.384 114.858 454.362C118.914 443.194 122.703 431.929 126.582 420.698C126.925 419.706 127.191 418.69 127.556 417.473C124.586 416.502 125.55 414.362 126 412.317C134.193 375.131 140.995 340.556 152.151 304.143C163.308 267.731 167.353 244.394 174.899 217.687C178.241 205.859 180.02 193.796 182.92 181.843C183.167 180.826 183.152 181.73 183.599 180.793L253.938 179.801Z" fill="white"/>
<path fill-rule="evenodd" clip-rule="evenodd" d="M254.879 180.39C255.189 181.381 255.359 182.435 255.446 183.475C256.281 193.436 256.964 203.412 257.936 213.359C258.919 223.409 260.101 233.442 261.337 243.464C262.857 255.785 264.463 268.097 266.142 280.398C267.848 292.906 270.774 305.396 272.564 317.893C274.16 329.036 275.726 340.183 277.384 351.317C279.697 366.838 282.089 382.348 284.426 397.865C284.839 400.614 285.958 405.125 286.275 407.886C286.511 409.939 286.729 410.77 285.685 410.871L286.711 440.459C288.457 440.459 289.783 440.487 291.107 440.454C298.665 441.223 303.769 441.504 310.367 442.949C314.933 443.948 319.954 445.188 323.766 447.935C328.712 451.499 331.314 456.286 331.399 462.422C331.474 467.838 330.503 473.109 329.182 478.32C328.596 480.631 328.073 480.959 325.601 480.913C312.151 480.661 298.669 480.768 285.305 478.985C274.374 477.526 263.496 475.659 252.597 473.952C252.211 473.892 251.857 473.617 251.428 473.412C251.428 470.214 251.25 467.065 251.457 463.942C252.547 447.564 252.638 431.192 253.802 414.82C253.85 414.14 253.734 411.545 253.734 411.557C253.734 411.57 248.561 411.717 247.638 411.557C246.906 410.985 243.339 393.176 242.376 385.769C240.396 370.537 238.475 355.295 236.293 340.092C233.227 318.745 230.236 297.464 227.39 276.09C225.442 261.459 224.972 247.103 222.008 232.683C221.437 229.902 220.949 227.103 220.388 224.32C220.228 223.524 219.946 222.753 219.72 221.971C219.5 221.977 219.53 221.975 219.31 221.982C218.113 227.366 216.997 232.769 215.703 238.129C212.05 253.256 207.112 268.337 203.56 283.487C196.933 311.748 193.242 339.92 185.363 367.858C181.556 381.361 178.375 394.73 174.594 408.24C173.35 412.681 172.346 417.184 171.428 421.703C170.771 424.943 169.84 425.816 166.874 425.146C163.509 424.387 160.162 423.554 156.722 422.732C154.291 431.205 151.921 439.461 149.475 447.983C150.227 448.24 151.084 448.568 151.961 448.828C158.856 450.872 165.401 453.673 171.324 457.807C172.701 458.767 174.043 459.799 175.298 460.914C181.578 466.49 183.306 473.258 180.472 481.19C180.002 482.508 179.351 483.759 178.806 485.051C178.551 485.654 178.22 486.226 177.843 486.761C173.668 492.692 173.839 491.791 169.958 491.684C166.504 491.588 161.066 491.259 157.674 490.597C152.035 489.495 148.327 488.655 142.91 486.714C138.069 484.979 136.954 484.439 134.491 482.411C128.285 477.305 122.973 471.337 117.793 465.239C117.048 464.361 116.47 463.342 115.813 462.391C114.082 459.892 113.762 457.412 114.854 454.389C118.89 443.214 122.66 431.942 126.52 420.704C126.86 419.712 127.125 418.695 127.489 417.477C124.534 416.505 125.551 414.389 125.941 412.318C133.043 374.533 140.263 339.808 150.078 302.611C157.674 273.82 163.303 246.672 173.03 215.974C176.71 204.359 177.702 198.098 180.587 186.138C180.833 185.12 181.108 184.09 181.552 183.152C181.716 182.806 182.46 182.485 182.847 182.571C183.208 182.651 183.598 183.251 183.699 183.686C183.81 184.165 183.656 184.729 183.531 185.234C179.544 201.362 176.015 217.622 171.452 233.585C162.291 265.631 154.647 296.916 146.428 329.491C139.097 358.542 132.218 392.427 129.708 407.714C129.348 409.901 128.749 412.009 128.277 414.113C141.551 416.888 154.672 419.631 168.122 422.444C168.321 421.937 168.715 421.22 168.885 420.454C172.872 402.461 177.899 385.075 182.828 367.35C190.382 340.194 193.991 312.868 200.411 285.421C203.909 270.473 208.866 255.611 212.436 240.679C214.27 233.009 215.821 225.272 217.497 217.564C218.165 214.493 218.154 214.445 221.273 213.942C223.762 213.54 226.268 213.235 228.774 212.953C231.333 212.664 231.974 213.319 231.62 215.974C231.246 218.788 230.703 221.579 230.303 224.39C229.37 230.952 228.254 234.83 227.39 241.401C227.271 242.31 227.286 250.543 227.39 251.472C229.541 270.714 230.303 278.325 231.513 286.742C232.723 295.158 235.108 312.926 236.991 326.045C239.128 340.936 241.091 355.854 243.041 370.771C244.623 382.873 246.296 392.202 247.638 399.985C248.59 405.508 249.848 407.879 250.045 408.801C260.956 408.857 272.564 409.26 283.752 408.801C283.385 405.755 282.563 402.859 282.132 399.985C278.718 377.201 275.204 354.433 271.862 331.638C269.039 312.382 265.199 293.112 262.628 273.82C260.155 255.258 257.829 236.675 255.684 218.071C254.672 209.297 254.24 200.457 253.538 191.647C253.296 188.605 253.024 185.566 252.78 182.525C252.73 181.9 252.619 181.237 252.773 180.655C252.881 180.248 253.363 179.716 253.734 179.666C254.094 179.618 254.77 180.04 254.879 180.39ZM117.433 455.754C116.559 458.446 116.499 458.737 118.074 460.931C123.687 468.749 130.202 475.734 137.83 481.617C139.125 482.616 140.783 483.229 142.333 483.781C149.438 486.315 149.021 486.524 157.3 487.826C160.449 488.501 168.324 489.372 171.56 489.404C172.036 489.298 173.884 488.304 175.256 486.145C174.562 485.994 173.875 486.127 173.5 486.086C169.114 485.607 164.731 485.109 160.341 484.673C153.425 483.987 146.419 481.313 141.368 477.764C133.904 471.926 126.616 465.902 120.301 458.789C119.408 457.783 118.454 456.832 117.433 455.754ZM174.59 464.11C167.088 465.84 163.334 471.154 162.115 482.181C164.677 482.46 167.059 482.726 169.442 482.98C171.813 483.232 174.185 483.471 176.379 483.698C180.722 476.198 179.734 468.141 174.59 464.11ZM126.132 430.514C123.452 438.034 120.886 445.238 118.264 452.595C119.772 454.275 121.237 455.906 122.701 457.537C128.91 464.453 136.013 470.367 143.39 475.966C147.668 478.604 153.634 481.452 159.24 481.749C160.025 477.394 160.74 474.349 162.322 470.62C163.992 466.68 167.753 463.418 172.462 461.783C170.308 460.332 167.254 458.367 164.981 457.23C164.619 457.365 164.179 457.799 162.278 459.459C160.761 460.785 159.556 461.412 157.861 462.733C156.483 463.808 155.79 464.807 154.303 464.164C153.375 463.632 153.957 462.406 156.021 460.715C158.016 459.079 159.749 457.676 162.17 455.767C160.332 454.697 159.231 454.194 157.814 453.592C156.489 453.028 155.034 452.749 155.034 452.749C154.174 453.338 153.837 453.636 153.2 454.218C151.572 455.706 149.874 457.118 148.209 458.566L148.128 458.636C146.956 459.657 145.286 458.109 146.235 456.879C147.743 454.924 149.782 453.526 151.884 451.477C149.565 450.497 147.83 450.21 147.698 450.301C146.992 450.789 145.916 451.378 144.706 452.656C143.5 453.823 142.27 454.98 140.95 456.013C140.864 456.081 140.76 456.127 140.644 456.159C139.841 456.378 139.018 455.703 139.059 454.872C139.065 454.748 139.087 454.632 139.133 454.525C139.406 453.884 139.975 453.324 140.521 452.85C141.949 451.613 143.462 450.473 144.883 449.228C145.568 448.628 146.398 447.98 146.69 447.181C147.836 444.05 148.794 440.851 149.92 437.372C141.882 435.055 134.081 432.806 126.132 430.514ZM254.115 463.769C253.993 466.37 253.883 468.735 253.765 471.234C277.948 476.353 301.968 478.665 326.504 478.178C327.083 475.596 327.624 473.179 328.257 470.352C303.165 470.867 278.773 467.831 254.115 463.769ZM317.789 447.506C312.161 450.812 306.465 459.68 305.214 467.238C312.928 468.025 320.608 467.913 328.225 467.73C330.47 456.653 325.494 451.077 317.789 447.506ZM256.28 433.623C255.612 442.799 254.962 451.751 254.296 460.912C270.351 464.225 286.183 465.755 302.185 467.099C304.333 458.986 308.201 452.124 314.794 445.934C311.317 445.224 309.126 444.846 305.932 444.323C305.17 444.131 303.707 444.086 303.707 444.086C303.206 444.328 303.075 444.846 302.7 445.43C301.565 447.198 300.449 448.982 299.232 450.693C298.561 451.637 298.356 453.312 296.632 452.933C295.648 452.717 295.775 451.373 296.988 449.382C298.118 447.532 299.301 445.715 300.493 443.831C297.265 443.296 295.533 443.07 295.121 443.382C294.572 443.799 294.086 444.783 293.404 445.755C292.258 447.388 291.272 449.135 290.088 450.739C289.375 451.705 288.981 453.865 287.24 452.7C285.799 451.737 287.299 450.442 287.883 449.444C289.081 447.395 290.403 445.419 291.716 443.345C289.289 443.253 286.737 442.682 286.33 443.125C285.815 443.682 284.901 445.072 284.271 446.132C283.254 447.845 282.044 449.444 280.904 451.083C280.548 451.596 280.219 452.184 279.73 452.532C279.391 452.773 278.665 452.859 278.361 452.651C278.038 452.429 277.816 451.741 277.895 451.322C278.005 450.733 278.383 450.17 278.735 449.656C280.16 447.576 281.636 445.532 283.056 443.448C283.516 442.772 284.187 442.024 284.202 441.297C284.258 438.604 284.08 435.906 283.985 433.067C274.606 432.217 265.555 432.467 256.28 433.623ZM132.018 440.528C135.519 440.527 138.225 443.34 138.258 447.016C138.295 451.023 134.973 454.591 131.091 454.715C127.589 454.825 124.535 451.694 124.602 448.064C124.674 444.164 128.251 440.529 132.018 440.528ZM267.117 437.8C270.853 437.861 273.668 440.781 273.742 444.671C273.826 449.069 270.024 453.081 265.776 453.08C261.957 453.079 258.967 449.956 258.993 445.998C259.023 441.516 262.775 437.731 267.117 437.8ZM132.044 443.276C129.558 443.244 127.282 445.478 127.196 448.033C127.124 450.141 128.704 451.902 130.764 452.009C133.312 452.143 135.742 449.716 135.725 447.055C135.71 444.855 134.199 443.304 132.044 443.276ZM266.828 440.366C264.1 440.453 261.615 443.101 261.566 445.969C261.525 448.455 263.386 450.446 265.763 450.453C268.605 450.461 271.199 447.684 271.151 444.684C271.111 442.15 269.247 440.288 266.828 440.366ZM153.77 422.841C144.941 423.347 136.606 423.824 128.108 424.311C127.74 425.539 127.397 426.686 126.997 428.022C134.969 430.322 142.598 432.524 150.706 434.864C151.766 430.703 152.731 426.916 153.77 422.841ZM282.499 413.497C281.587 413.793 280.978 413.921 280.431 414.18C273.227 417.601 266.062 421.107 258.818 424.44C257.519 425.038 256.081 425.92 256.081 425.92C255.83 427.894 255.818 428.049 255.605 430.454C264.756 430.268 273.713 430.088 282.897 429.902C282.997 424.504 283.008 419.105 282.499 413.497Z" fill="black"/>
<path fill-rule="evenodd" clip-rule="evenodd" d="M227.133 6.07044L227.6 6.629C228.828 8.11349 232.064 12.127 232.188 13.3526L232.191 13.4214C232.191 14.1663 232.94 15.7009 231.546 17.8719C231.778 17.9272 232.01 17.985 232.241 18.0451C232.514 16.1952 232.854 14.2853 233.27 12.3196L230.298 8.67653C229.786 8.05514 229.457 7.66289 229.311 7.49978C235.756 8.81555 239.733 10.4222 241.24 12.3196L241.454 12.5953C243.841 15.7443 249.606 25.5832 252.896 43.5662L253.904 49.1728C256.282 62.4916 255.386 60.3117 245.5 63.3112C238.177 65.533 234.516 68.1381 234.516 71.1265C229.184 68.5613 226.047 65.8965 225.105 63.1321C221.734 63.7822 217.825 63.9306 213.378 63.577L212.882 63.5356L213.867 73.3797C215.422 74.9237 216.39 77.0971 216.39 79.5048C216.39 84.1897 212.725 87.9875 208.204 87.9875C203.683 87.9875 200.018 84.1897 200.018 79.5048C200.018 78.8034 200.1 78.1219 200.255 77.4701L200.013 74.5642C199.341 66.7119 198.686 60.6886 198.047 56.4943L197.847 57.066C195.593 63.4515 193.511 66.6439 191.601 66.6439C188.317 66.6439 185.615 64.0415 182.292 64.0415C178.969 64.0415 171.793 66.3646 166.643 64.0415C163.209 62.4928 158.65 61.536 152.964 61.1711C160.649 55.2222 166.387 48.1642 171.272 39.234C174.573 33.2004 177.497 25.6265 180.319 19.5783C187.319 4.57815 201.176 -2.63125 227.133 6.07044ZM191.708 34.5104C190.805 34.561 190.632 34.7478 190.617 35.6017C190.818 35.459 191.021 35.3066 191.224 35.1434L191.708 34.5104Z" fill="white"/>
<path fill-rule="evenodd" clip-rule="evenodd" d="M225.817 4.74157C227.587 5.50455 230.062 7.23984 230.636 7.93636C232.194 8.03578 234.941 8.1284 236.792 8.92069C240.416 9.93067 242.258 12.3342 244.35 15.0203C247.312 18.8222 249.064 23.1112 250.144 27.5969C251.127 31.6813 251.928 35.8055 252.658 39.9339C253.5 44.6891 255.238 49.1367 257.897 53.3095C258.213 53.8046 258.639 54.2771 258.79 54.8109C258.896 55.1882 258.772 55.8376 258.478 56.0271C258.147 56.2406 257.315 56.2605 257.046 56.0354C256.364 55.4661 255.801 54.7523 255.325 54.0259C251.987 48.931 250.595 43.2971 249.477 37.5518C248.587 32.9739 247.545 28.4023 246.194 23.9186C245.024 20.0352 242.871 16.5112 239.622 13.6221C237.315 11.5691 235.619 10.8977 232.449 10.825C232.576 11.3091 232.709 11.7366 232.798 12.172C233.072 13.5185 233.134 14.8098 232.98 16.0266C233.006 16.0366 233.029 16.0482 233.048 16.0609C234.244 16.8554 236.106 17.7185 236.963 18.7918C240.923 23.7478 243.255 29.3018 243.491 35.5531C243.644 39.6236 243.55 43.6574 242.464 47.6509C241.4 51.5637 239.465 54.5844 236.897 56.9375C237.015 57.1661 237.138 57.389 237.292 57.5623C238.258 58.6442 239.231 59.8352 240.492 60.5552C242.417 61.654 244.601 62.3678 246.649 63.2938C246.84 63.3807 247.022 63.4855 247.196 63.5988C248.3 64.313 247.538 65.8875 246.229 65.5735C246.118 65.5467 246.004 65.5103 245.893 65.4666C243.415 64.4958 240.989 63.4107 238.567 62.3267C237.981 62.0644 237.458 61.6972 237.029 61.2474C236.301 60.4815 235.558 59.6919 235.047 58.8049C235 58.723 234.95 58.6381 234.898 58.5508C232.408 60.3237 229.485 61.6334 226.285 62.6275C228.284 66.4435 231.904 68.6317 235.795 70.5658C235.869 70.6027 235.888 70.7354 236.042 71.0426C235.405 72.244 234.432 72.3735 233.396 71.9251C229.16 70.0891 225.746 67.4451 223.939 63.29L223.9 63.2998C220.937 64.056 217.678 63.7952 214.307 64.0162C214.364 64.6535 214.406 65.5134 214.523 66.3635C215.006 69.8839 215.513 73.4016 216.01 76.9204C216.032 77.077 216.046 77.2342 216.053 77.3919C216.092 78.2736 216.099 79.2749 214.862 79.2566C214.391 79.2492 213.644 78.2643 213.526 77.6423C213.043 75.1089 212.576 71.5841 212.313 69.0218C211.846 66.9753 212.076 66.7505 211.355 66.0171L211.289 65.951C211.011 65.6776 210.254 64.8434 210.042 64.5225C208.522 62.2199 208.072 61.9684 206.904 59.5758C206.876 59.4574 206.867 59.3346 206.872 59.2091C206.907 58.3094 207.786 57.6677 208.73 57.839C209.021 57.8914 209.277 57.9776 209.461 58.1375C214.399 62.4562 220.083 62.2227 225.813 60.2797C234.062 57.4822 239.641 52.4171 240.638 43.7666C241.414 37.04 241.165 30.4602 237.58 24.3998C236.372 22.3575 235.043 20.636 233.048 18.7438C232.938 18.6105 232.696 18.4418 232.419 18.2603C231.539 20.5331 229.751 22.4438 227.025 23.8276C224.012 25.3572 220.658 26.409 217.347 27.3787C216.003 27.7728 214.897 28.2709 213.754 28.9826C211.851 30.169 209.854 31.3218 207.721 32.1094C204.613 33.2565 201.256 33.7562 198.162 35.0755C196.898 35.6145 195.276 35.4831 193.517 35.5287C193.23 35.5358 192.971 35.4216 192.8 35.2388L193.061 35.1647C191.67 35.5788 190.473 35.6841 189.15 36.2178C188.022 36.6728 186.967 37.4705 186.122 38.3255C183.449 41.0303 184.072 44.1737 187.752 45.4357C190.091 46.2378 192.688 46.4441 195.194 46.7349C198.098 47.0715 198.599 47.3034 198.879 49.8384C199.783 58.0235 200.622 66.2146 201.453 74.4062C201.563 75.486 201.565 76.592 201.439 77.6675C201.398 78.0227 200.814 78.5541 200.443 78.5814C200.044 78.6103 199.378 78.2229 199.233 77.8704C198.975 77.2484 199.016 76.5162 198.945 75.8292C198.438 70.8919 197.932 65.9545 197.425 61.0173C195.988 63.4027 194.138 65.5537 192.127 67.6144C191.853 67.8943 191.519 68.2702 191.165 68.3154C190.943 68.344 190.717 68.3476 190.488 68.3383C189.662 68.3045 189.059 67.5334 189.4 66.8687C189.428 66.8147 189.461 66.7633 189.499 66.716C190.616 65.3518 191.924 64.1102 193.044 62.7481C194.789 60.6249 196.266 58.3786 196.882 55.7526C196.707 54.0576 196.532 52.3627 196.356 50.6678C196.316 50.2908 196.151 49.9258 196.011 49.4423C193.5 49.1073 191.273 48.9382 189.11 48.4929C185.607 47.7727 182.563 46.2323 181.977 42.5908C181.429 39.192 183.411 36.6646 186.36 34.9153C187.849 34.0325 189.586 33.4847 191.265 32.9303C191.66 32.8002 192.13 32.7653 192.587 32.8033C192.58 30.7101 192.578 28.7368 192.64 26.7654C192.643 26.6728 192.676 26.5807 192.731 26.4896C193.113 25.8512 194.123 25.7245 194.718 26.2149C194.846 26.3195 194.937 26.4305 194.961 26.5519C195.258 28.0396 195.344 29.5619 195.47 31.0743C195.523 31.7096 195.479 32.3517 195.479 33.1356C199.019 33.0105 201.236 31.2737 202.739 28.9183C204.364 26.3708 205.564 23.6073 206.999 20.9599C207.455 20.1199 207.401 18.4365 209.027 18.9896C210.635 19.5365 209.846 20.9326 209.368 21.9562C208.113 24.6382 206.783 27.2913 205.336 30.259C209.615 29.2396 212.78 27.3175 214.977 24.2755C216.415 22.2859 217.564 20.1294 218.823 18.0393C219.125 17.539 219.243 16.9137 219.649 16.5097L219.66 16.4992C220.346 15.8346 221.642 16.202 221.856 17.0869C221.885 17.2067 221.889 17.3203 221.855 17.4239C221.435 18.6871 220.742 19.8829 220.104 21.0828C219.527 22.1661 218.88 23.22 217.96 24.814C221.811 23.7747 224.944 22.7349 227.454 20.6244C231.399 17.3067 231.515 12.4242 227.742 8.95157C226.793 8.07869 225.665 7.2817 224.459 6.72699C215.934 2.80534 200.32 1.52534 189.893 9.62611C185.936 12.7 183.204 16.5222 181.186 20.7422C179.266 24.7564 177.465 28.8382 176.003 33.0006C172.26 43.6561 165.207 52.3053 156.246 59.8556C155.476 60.5045 154.672 61.1759 153.749 61.606C153.263 61.8326 152.62 61.7907 152.002 61.7928C151.73 61.7934 151.483 61.6531 151.373 61.4307C151.289 61.2591 151.323 61.0607 151.458 60.9179C152.029 60.3145 152.566 59.6797 153.213 59.1528C162.565 51.5277 169.892 42.744 173.681 31.7499C175.241 27.2233 177.269 22.7987 179.454 18.4778C182.899 11.6654 188.206 6.27852 196.159 3.51599C206.186 0.0339205 216.16 0.578681 225.817 4.74157ZM179.296 51.2267C179.269 51.2942 179.237 51.3596 179.2 51.422C176.301 56.2179 173.29 60.9614 168.301 64.3815C167.564 64.887 166.713 65.3358 165.833 65.5801C165.376 65.7068 164.489 65.4657 164.259 65.1369C164.05 64.8375 164.287 63.9218 164.632 63.7466C170.555 60.7408 173.49 55.596 176.743 50.6763C176.811 50.5733 176.877 50.4676 176.944 50.363C177.691 49.2015 179.792 49.9647 179.296 51.2267ZM189.196 51.0337C189.255 51.16 189.293 51.2869 189.299 51.4154C189.335 52.1316 189.102 52.9385 188.713 53.5771C186.565 57.1143 184.37 60.6302 182.107 64.111C181.612 64.8723 180.917 65.5021 179.68 65.6108C179.124 65.6595 178.677 65.2079 178.81 64.7263C178.938 64.2664 179.059 63.8593 179.316 63.5392C182.463 59.6416 185.308 55.6181 186.894 50.9715C186.925 50.8788 186.983 50.7934 187.059 50.7126C187.652 50.0833 188.841 50.2755 189.196 51.0337Z" fill="black"/>
<path fill-rule="evenodd" clip-rule="evenodd" d="M199.934 76.6888C205.02 76.1838 210.341 76.4363 215.896 77.4461L239.031 78.5296L252.826 87.3592L262.556 105.109L270.602 129.881L301.82 108.59L305.968 112.129L315.923 100.559L322.671 96.8102L323.983 99.5443L318.817 106.845L327.537 101.177L339.374 97.6131L341.47 99.5443L330.964 108.59L332.183 113.82L334.246 114.08V119.377L329.593 124.683L316.987 129.881L310.031 136.048L290.784 155.728L274.156 166.275L266.484 165.063L254.966 152.598L262.556 174.167L247.958 181.991L240.588 182.748L239.031 180.231L209.505 183.982L191.022 186.432L174.993 182.748L184.071 200.642V202.936H181.745L176.033 197.773L172.47 214.399L170.214 217.301L167.383 215.232L164.077 218.86L162.947 217.301L164.077 206.127L156.357 211.489L155.284 210.497L156.357 207.836L162.947 201.838L134.809 178.021L122.231 157.392L111.293 134.035L110.099 122.34V119.377L114.744 110.232L141.331 92.8516L173.856 81.9394C186.156 78.9439 194.848 77.1937 199.934 76.6888ZM174.49 112.452L159.235 118.262L139.566 128.412C145.286 138.278 149.902 145.654 153.414 150.538C156.926 155.422 162.693 162.486 170.715 171.729L174.49 173.023V112.452Z" fill="white"/>
<path fill-rule="evenodd" clip-rule="evenodd" d="M198.072 75.0066C199.421 74.5878 200.886 75.3556 201.231 76.7264C201.322 77.0931 201.393 77.4849 201.449 77.8874C202.11 82.6177 202.774 87.3469 203.441 92.0757C203.57 92.9858 203.722 93.8926 203.886 94.9506C208.604 96.1476 212.976 95.7876 217.458 93.5184C216.873 90.8 216.296 88.1901 215.755 85.5729C215.208 82.9297 214.619 80.2911 214.194 77.6274C213.824 75.3135 214.295 74.9695 216.589 75.1429C217.816 75.2364 219.064 75.0408 220.304 75.0181C227.106 74.8932 233.774 75.6771 240.182 78.0946C247.766 80.9548 253.511 86.0488 257.699 92.8954C262.008 99.9414 264.816 107.655 267.263 115.502C268.489 119.435 269.621 123.397 270.864 127.572C274.911 124.703 278.583 121.999 282.358 119.447C287.692 115.84 293.09 112.328 298.482 108.809C302.179 106.397 302.196 106.423 305.785 109.178C307.344 107.266 308.776 105.22 310.503 103.466C312.456 101.481 314.606 99.6706 316.808 97.9609C317.76 97.2219 319.021 96.8145 320.203 96.4574C321.677 96.012 323.344 95.4198 324.528 96.9411C325.587 98.3002 324.856 99.7006 324.151 101.011C324.056 101.186 323.473 102.26 322.936 102.524C324.112 101.949 325.98 101.002 326.912 100.533C330.532 98.7105 334.147 96.8756 338.273 96.473C339.438 96.3594 340.64 95.9015 341.662 97.2053C342.641 98.4543 342.505 100.257 341.402 101.398C340.475 102.357 339.398 103.2 338.331 104.006C336.266 105.567 333.641 107.059 331.424 108.615C332.289 109.532 333.1 111.483 332.711 112.733C333.279 112.906 334.23 113.779 334.565 114.556C335.817 117.459 335 121.308 332.137 123.555C329.884 125.324 327.348 127.103 324.653 127.866C317.855 129.79 312.877 133.799 308.322 139.078C301.88 146.545 294.866 153.555 286.935 159.487C283.72 161.892 280.182 163.973 276.546 165.68C270.92 168.322 265.828 166.845 261.408 162.673C260.769 162.07 259.95 161.612 256.414 155.88C257.12 157.798 260.481 164.934 261.204 166.845C261.865 168.593 262.576 170.323 263.235 172.073C263.628 173.118 263.606 174.057 262.608 174.856C256.511 179.733 249.813 183.317 242.026 184.624C239.943 184.973 238.657 184.006 237.876 182.061C234.335 182.683 230.909 183.503 227.435 183.849C221.038 184.487 220.18 184.376 213.773 184.912C212.823 184.992 208.286 184.624 206.963 185.585C204.751 187.348 203.434 186.855 202.424 187.04C196.012 188.216 189.604 187.767 183.197 186.952C181.561 186.744 179.92 186.589 177.835 186.36C178.415 187.364 178.808 188.025 179.182 188.696C180.9 191.775 182.685 194.82 184.286 197.959C184.791 198.949 185.089 200.142 185.143 201.269C185.262 203.772 182.603 205.415 180.483 204.082C179.79 203.646 179.203 203.034 178.595 202.472C177.996 201.918 177.433 201.326 176.433 200.333C175.857 202.935 175.353 205.085 174.909 207.249C174.37 209.876 173.889 212.516 173.374 215.149C173.308 215.486 173.231 215.82 173.129 216.148C171.988 219.799 168.905 220.29 167.261 217.415C166.643 218.13 165.746 219.9 165.007 220.507C163.58 221.681 162.116 221.167 161.726 219.361C161.392 217.81 161.434 216.147 161.501 214.543C161.549 213.422 162.16 210.287 162.561 208.795L162.595 208.67L162.584 208.697C162.076 209.863 160.812 210.909 160.284 211.227L160.226 211.261C159.411 211.714 158.637 212.277 157.772 212.595C156.5 213.061 155.099 213.485 154.009 212.25C152.853 210.941 153.577 209.58 154.428 208.576C156.093 206.613 157.977 204.834 160.068 202.669C159.121 201.832 158.03 200.814 156.882 199.865C154.321 197.746 151.729 195.664 149.153 193.564C138.306 184.723 129.454 174.181 122.921 161.816C118.801 154.018 115.078 146.003 111.391 137.985C109.35 133.544 108.015 128.842 107.712 123.89C107.455 119.668 108.47 115.884 111.009 112.481C113.597 109.012 116.872 106.302 120.418 103.922C135.624 93.718 151.845 85.7255 169.789 81.5913C177.571 79.7985 185.391 78.1811 193.181 76.4214C194.734 76.0705 196.253 75.5713 198.072 75.0066ZM172.987 184.942C173.009 184.963 172.458 186.425 172.434 186.48C169.849 192.099 168.382 195.995 164.437 202.942C163.966 203.771 163.44 204.05 162.525 204.316C162.353 204.366 161.705 204.106 161.575 204.224C159.971 205.669 157.379 207.545 156.321 209.472C156.285 210.165 156.974 210.203 157.215 210.079C158.816 209.252 162.015 206.681 163.515 205.132C163.875 204.761 164.424 204.645 164.894 204.874C165.257 205.05 165.45 205.455 165.397 205.855C165.063 208.36 163.715 213.448 163.829 215.769L163.86 216.111C163.911 216.688 164.701 216.808 164.921 216.273C165.306 215.333 165.68 214.286 165.803 213.65C166.714 208.938 166.636 207.249 167.62 204.078C167.834 203.384 167.934 202.609 168.324 202.032C168.604 201.618 169.398 201.156 169.746 201.288C170.163 201.446 170.615 202.231 170.583 202.712C170.514 203.732 170.178 204.742 169.886 205.737C169.212 208.027 169.399 209.087 168.948 212.649C168.803 213.789 168.706 213.758 168.53 215.363C168.386 216.67 170.213 216.37 170.374 215.822C170.773 214.462 171.14 213.279 171.379 212.071C172.268 207.59 173.053 203.089 173.921 198.604C173.959 198.408 174.007 198.215 174.062 198.023C174.456 196.649 176.17 196.211 177.207 197.194C177.754 197.712 178.186 198.33 178.716 198.805C179.756 199.738 180.134 200.573 180.911 201.488C181.288 201.931 181.853 202.172 182.434 202.132L182.453 202.131C182.725 202.111 182.909 201.84 182.818 201.582C180.776 195.754 177.591 189.17 172.987 184.942ZM197.993 77.8277C187.437 80.2875 177.233 82.5688 167.077 85.0542C150.74 89.0527 136.067 96.7159 122.136 105.926C118.75 108.164 115.599 110.712 113.144 114.015C111.015 116.882 110.108 120.057 110.325 123.65C110.593 128.078 111.79 132.263 113.537 136.263C116.194 142.35 119.095 148.33 121.894 154.354C130.576 173.038 144.271 187.415 160.64 199.489C160.872 199.66 161.186 199.722 161.695 199.931C162.251 198.944 162.871 198.013 163.327 197.009C165.983 191.148 168.582 185.261 171.24 179.401C172.146 177.402 172.999 175.326 172.999 175.326C172.999 175.326 171.647 173.839 170.212 172.264C157.789 158.645 146.399 144.262 137.578 127.984C137.037 126.986 136.507 125.965 136.149 124.895C136.037 124.559 136.393 123.822 136.731 123.645C137.07 123.467 137.819 123.596 138.098 123.879C138.726 124.513 139.175 125.325 139.682 126.042C144.168 123.75 148.398 121.315 152.846 119.384C159.217 116.619 165.748 114.223 172.212 111.673C172.694 111.482 173.174 111.262 173.676 111.153C175.225 110.817 175.809 111.215 175.977 112.753C176.056 113.471 176.002 114.205 176.003 114.931C176.012 120.02 176.039 125.109 176.023 130.198C175.988 141.723 176.072 153.251 175.791 164.77C175.755 166.268 175.383 169.82 175.384 169.813C175.416 169.549 177.544 171.497 178.163 172.141C180.199 174.257 181.278 176.899 179.531 179.528C178.831 180.583 178.309 181.759 177.595 183.089C186.234 184.912 194.433 184.914 202.831 183.69C203.027 148.361 202.222 113.325 197.993 77.8277ZM218.075 96.3869C213.433 98.4359 208.838 98.4538 203.975 97.9826C204.188 99.358 204.27 100.642 204.483 101.911C205.484 107.844 206.841 113.742 207.432 119.716C209.398 139.617 208.888 159.537 207.312 179.445C207.233 180.444 207.304 181.456 207.305 182.645C217.302 182.407 226.958 181.917 236.448 179.456C236.366 178.861 236.374 178.55 236.277 178.276C231.552 164.821 228.443 150.955 225.804 136.971C223.399 124.224 221.006 111.474 218.587 98.7289C218.445 97.9778 218.304 97.221 218.075 96.3869ZM256.942 96.98C249.816 82.3321 234.772 75.9464 217.051 78.195C217.303 79.7414 217.482 81.0697 217.739 82.3834C220.871 98.3683 224.019 114.35 227.155 130.335C229.97 144.694 232.654 159.088 237.325 172.998C238.368 176.104 239.838 179.066 241.115 182.104C248.772 180.848 254.958 177.559 260.629 173.049C260.084 171.717 259.622 170.675 259.227 169.609C256.346 161.842 253.044 154.199 250.703 146.272C246.738 132.842 243.373 119.234 239.789 105.692C239.556 104.809 239.505 103.842 239.576 102.931C239.605 102.562 240.138 102.097 240.543 101.943C240.807 101.843 241.369 102.132 241.59 102.411C241.895 102.796 242.045 103.325 242.192 103.813C244.835 112.552 247.45 121.298 250.107 130.032C252.676 138.477 255.318 146.897 259.492 154.731C260.32 156.286 261.17 157.838 262.124 159.318C264.75 163.393 269.735 165.209 274.341 163.73C279.9 161.945 284.577 158.588 288.725 154.664C295.808 147.964 302.595 140.947 309.481 134.037C310.272 133.244 310.903 132.293 311.533 131.508C308.002 124.356 304.579 117.421 301.174 110.523C300.785 110.633 300.56 110.641 300.402 110.748C291.391 116.872 282.39 123.012 273.374 129.131C271.492 130.409 270.251 132.08 269.708 134.314C269.44 135.416 269.064 136.529 268.51 137.508C268.471 137.577 268.423 137.641 268.367 137.701C267.686 138.423 266.393 138.081 266.207 137.106C266.185 136.992 266.183 136.883 266.209 136.781C266.623 135.109 267.177 133.453 267.867 131.873C268.261 130.969 268.599 130.12 269.037 129.382C269.037 129.382 268.284 127.866 268.098 127.305C266.856 123.563 265.943 119.705 264.569 116.016C262.182 109.61 259.925 103.112 256.942 96.98ZM244.577 174.963C244.779 175.291 244.888 175.66 244.883 176.037C244.868 177.044 244.375 177.806 243.211 177.927C242.176 178.033 240.994 176.918 241.067 175.706C241.067 175.698 241.068 175.691 241.068 175.683C241.19 174.023 243.685 173.518 244.577 174.963ZM173.417 114.477C166.464 115.671 144.688 125.524 141.399 128.949C149.423 144.427 160.628 157.572 172.566 170.382C174.334 151.713 173.05 133.113 173.417 114.477ZM238.975 162.741C240.697 163.352 241.294 166.101 239.096 166.459C238.507 166.556 237.891 166.179 237.478 165.511C236.908 164.59 237.368 162.17 238.975 162.741ZM236.383 149.613C236.55 149.665 236.705 149.744 236.856 149.844C238.07 150.644 238.114 152.301 236.902 153.103C236.768 153.192 236.63 153.262 236.483 153.309C235.433 153.646 234.536 152.7 234.516 151.513C234.495 150.342 235.394 149.304 236.383 149.613ZM233.416 137.586C233.743 137.652 234.04 137.843 234.345 138.106C235.35 138.972 235.307 140.493 234.151 141.185C233.979 141.288 233.811 141.353 233.637 141.366C232.309 141.469 231.879 140.352 231.794 139.333C231.712 138.345 232.294 137.359 233.416 137.586ZM322.36 98.3383C319.795 98.5468 317.415 100.202 315.693 101.977C313.242 104.505 310.867 107.133 308.721 109.921C305.704 113.838 305.805 113.918 307.994 118.501C308.665 119.907 309.313 121.325 310.037 122.703C311.232 124.978 312.48 127.225 313.616 129.317C316.913 128.083 319.966 127.088 322.89 125.801C325.343 124.722 327.802 123.521 329.973 121.974C332.32 120.301 332.835 118.35 331.911 115.793C331.747 115.339 331.279 115.064 330.803 115.137C329.01 115.41 327.07 115.569 325.525 116.017C323.876 116.494 322.162 117.268 320.668 118.374C320.245 118.617 319.914 120.294 321.055 120.117C323.673 120.011 326.247 119.444 328.817 119.34C329.466 119.313 329.98 119.895 329.848 120.531C329.68 121.338 328.983 121.651 328.23 121.721C325.663 121.961 323.069 122.179 320.502 122.066C318.707 121.987 318.069 120.941 318.156 119.075C318.187 118.401 319.352 116.76 319.352 116.76C316.822 116.399 316.888 113.631 318.598 112.275C320.204 111 322.021 110.303 323.934 109.64C329.243 107.8 332.829 104.61 337.331 101.48C337.824 101.138 338.265 100.718 338.827 100.181C339.219 99.8064 338.926 99.1498 338.384 99.1838C335.702 99.3513 333.657 100.157 331.732 101.162C327.412 103.419 323.165 105.823 318.962 108.293C318.741 108.423 318.525 108.54 318.316 108.638C316.735 109.385 315.282 107.365 316.439 106.053C318.269 103.976 320.08 101.922 321.89 99.8686C322.213 99.5019 322.415 99.031 322.4 98.5425C322.397 98.4616 322.386 98.3906 322.36 98.3383ZM230.7 123.417C231.032 123.504 231.336 123.7 231.66 123.963C232.559 124.693 232.559 126.082 231.647 126.796C231.439 126.958 231.237 127.078 231.016 127.143C230.034 127.429 229.04 126.21 229.059 124.983C229.076 123.915 229.696 123.155 230.7 123.417ZM330.509 112.429C330.569 111.74 329.933 109.877 328.79 110.173C326.671 110.72 322.03 111.724 320.526 113.242C320.024 113.749 319.453 114.823 321.197 115.105C324.196 114.26 326.477 112.694 330.509 112.429ZM229.9 111.197C230.406 111.97 230.131 112.958 229.187 113.399C229.031 113.472 228.868 113.522 228.7 113.536C227.425 113.635 227.072 112.696 226.908 111.876C226.737 111.03 227.255 110.413 228.331 110.277C228.884 110.208 229.496 110.581 229.9 111.197ZM226.352 99.4973C226.564 99.6133 226.755 99.7757 226.914 99.9661C227.593 100.78 227.706 102.113 226.528 102.551C226.388 102.603 226.254 102.631 226.121 102.629C225.03 102.612 224.548 101.634 224.73 100.664C224.827 100.155 225.246 99.4224 225.811 99.3589C225.998 99.3378 226.186 99.4064 226.352 99.4973ZM225.255 89.3387L225.278 89.3612C225.986 90.0467 225.949 91.2915 225.184 91.9038C224.996 92.0547 224.813 92.1659 224.618 92.2212C223.703 92.4827 222.864 91.4205 223.094 90.1947C223.14 89.9511 223.262 89.7258 223.42 89.5081C223.871 88.8842 224.711 88.8117 225.255 89.3387Z" fill="black"/>
<path fill-rule="evenodd" clip-rule="evenodd" d="M219.303 44.0507C221.322 44.0988 223.337 44.0753 225.351 44.1288C226.854 44.1692 228.357 44.2521 229.857 44.4393C230.075 44.4666 230.293 44.496 230.509 44.5299C232.408 44.8229 231.971 45.356 231.818 46.867C231.517 49.8508 227.118 54.0117 224.109 54.1312C219.831 54.3014 217.073 49.8896 218.105 45.3789L218.15 45.1773C218.338 44.3131 218.367 44.0289 219.303 44.0507ZM220.14 49.5611C221.234 51.9141 224.738 52.7582 226.644 51.0503C226.556 48.6629 221.607 47.6337 220.14 49.5611ZM232.776 37.1222C232.743 39.3764 230.686 42.19 228.545 42.68C228.329 42.7291 228.091 42.6811 227.844 42.5938C227.188 42.3624 226.895 41.605 227.232 40.996C227.29 40.8929 227.355 40.7974 227.433 40.7139C228.228 39.8626 229.327 39.5237 229.972 38.5868C230.199 38.2572 230.417 37.5254 230.344 36.9901C230.288 36.5689 229.584 36.1787 229.162 36.2344C228.702 36.2944 228.252 36.3686 227.922 36.6087C227.058 37.2368 226.433 38.1868 225.608 38.8837C225.312 39.1336 224.687 39.3284 224.326 39.0626C223.937 38.7772 223.702 37.8021 223.89 37.6057C225.301 36.1345 226.562 34.833 228.3 33.8879C230.343 32.7763 232.814 34.5411 232.776 37.1222ZM216.882 33.8578C218.408 33.974 219.494 35.5315 219.478 37.5789C219.462 39.5093 218.686 40.4518 217.157 40.397C215.327 40.3305 214.03 39.0245 214.021 37.236C214.012 35.2515 215.294 33.7371 216.882 33.8578ZM232.103 28.0306C233.578 28.0221 235.045 29.5717 235.02 31.1808C234.999 32.5744 234.289 33.4289 232.784 33.4858C231.242 33.544 229.674 32.1088 229.568 30.5876C229.48 29.3223 230.753 28.0386 232.103 28.0306Z" fill="black"/>
</g>
</svg>
