<svg width="799" height="456" viewBox="0 0 799 456" fill="none" xmlns="http://www.w3.org/2000/svg">
<path fill-rule="evenodd" clip-rule="evenodd" d="M416.381 440.195H789.27C733.477 154.834 682.912 12.1541 637.575 12.1541C569.568 12.1541 544.672 100.997 507.369 135.309C470.065 169.62 448.376 184.77 387.383 160.039C326.39 135.309 199.469 145.796 199.469 228.672C199.469 283.923 217.306 354.341 252.98 439.925L416.381 440.195Z" fill="#FBF9FF" fill-opacity="0.68"/>
<path fill-rule="evenodd" clip-rule="evenodd" d="M434.962 440.195C495.118 359.775 510.157 301.801 480.079 266.274C434.962 212.984 388.938 176.033 329.475 176.033C270.011 176.033 117.741 266.982 105.276 324.954C96.9668 363.601 120.782 402.015 176.723 440.195H434.962Z" fill="#FF5374"/>
<path fill-rule="evenodd" clip-rule="evenodd" d="M77.4675 440.195C105.436 331.486 125.105 277.132 136.475 277.132C153.53 277.132 207.875 324.763 223.877 324.763C234.545 324.763 263.583 363.24 310.993 440.195H77.4675Z" fill="#B7E8F8"/>
<path fill-rule="evenodd" clip-rule="evenodd" d="M11.094 328.747C10.966 328.773 10.7632 328.755 10.633 328.853C7.59265 331.131 4.94977 333.837 3.07484 337.343C2.21483 338.953 1.67369 340.66 1.96784 342.566C2.75823 347.702 3.31585 352.896 4.3959 357.959C6.29703 366.877 9.55067 375.296 13.1202 383.558C18.9471 397.047 26.9573 408.844 36.9203 419.012C47.7028 430.016 60.9823 435.481 75.1742 438.743C75.6944 438.863 76.258 438.759 77.1966 438.759C42.2599 410.919 21.5353 373.512 11.094 328.747ZM80.8499 438.858C80.8028 438.413 80.8282 438.266 80.7721 438.193C80.4682 437.793 80.1583 437.397 79.8245 437.026C72.6923 429.124 66.8878 420.14 61.7907 410.598C58.296 404.056 55.6517 397.061 52.8793 390.138C49.3637 381.358 46.1662 372.445 43.6116 363.28C41.4935 355.684 39.635 348.002 37.5804 340.383C36.555 336.578 35.5962 332.715 34.1688 329.083C31.8141 323.087 27.1579 320.863 21.3931 322.487C18.629 323.267 16.2286 324.84 13.814 326.413C12.8881 327.016 12.6471 327.676 12.9465 328.814C14.2421 333.755 15.2294 338.808 16.769 343.654C20.5832 355.659 24.8585 367.457 30.6031 378.577C42.7599 402.109 58.6785 421.949 78.9682 437.551C79.5244 437.98 80.1179 438.352 80.8499 438.858ZM70.7874 264.41C71.232 265.335 71.5209 265.967 71.836 266.584C75.0305 272.856 77.9967 279.242 80.1531 286.041C83.7533 297.394 86.4605 308.986 87.8646 320.909C88.557 326.783 89.0869 332.681 89.6954 338.567C90.5322 346.664 91.0636 354.784 90.9978 362.934C90.9139 373.426 90.1992 383.882 89.3743 394.332C88.6715 403.227 87.8287 412.096 86.4276 420.896C86.3857 421.163 86.4613 421.451 86.483 421.728C86.8699 421.285 87.0555 420.821 87.194 420.34C89.5397 412.204 91.9626 404.093 94.2035 395.924C98.9421 378.646 102.06 361.021 103.269 343.025C104.062 331.242 103.887 319.477 102.741 307.704C101.027 290.092 95.8591 273.831 87.3033 258.809C86.5533 257.491 86.4785 257.371 85.1567 257.818C83.278 258.453 81.4068 259.154 79.6015 260C76.7011 261.362 73.8569 262.864 70.7874 264.41ZM69.1722 265.261C67.0891 266.429 65.1087 267.473 63.1873 268.633C60.8266 270.057 58.5962 271.692 56.7325 273.86C53.7251 277.357 52.5844 281.467 53.663 286.107C54.2161 288.485 55.0439 290.83 56.0364 293.037C60.0677 301.999 63.5257 311.212 66.6056 320.607C72.5381 338.695 77.0252 357.154 78.9488 376.301C80.2833 389.586 81.0842 402.907 81.3215 416.265C81.4255 422.122 81.3394 427.985 81.3394 433.977C81.4667 434.017 81.7893 434.117 82.1919 434.242C82.3446 433.709 82.4973 433.294 82.5841 432.862C84.4875 423.374 85.8819 413.793 86.7809 404.134C87.4201 397.267 87.9388 390.384 88.3998 383.498C89.1266 372.643 89.7351 361.777 88.9417 350.894C88.4679 344.402 87.8197 337.927 87.2883 331.44C86.4807 321.564 85.0167 311.812 82.8401 302.18C80.0528 289.845 76.0926 278.019 70.1624 267.034C69.8682 266.489 69.5591 265.953 69.1722 265.261ZM12.2459 325.253C13.7002 324.341 14.8214 323.602 15.9719 322.923C19.0698 321.093 22.3077 319.906 25.9154 320.204C29.3 320.483 31.9436 322.15 33.981 325.036C35.3103 326.92 36.1972 329.066 36.805 331.327C38.6844 338.327 40.5773 345.325 42.3535 352.357C46.0599 367.031 51.1256 381.145 56.6973 395.08C61.2907 406.572 67.0555 417.252 74.1675 427.08C75.5365 428.974 77.0192 430.767 78.4593 432.598C78.606 432.786 78.8126 432.92 79.2519 433.309C79.3709 432.427 79.5348 431.771 79.5356 431.115C79.5416 424.467 79.582 417.818 79.4869 411.171C79.4248 406.872 79.1509 402.577 78.9772 398.279C77.8957 371.527 73.3906 345.525 64.7951 320.385C61.6612 311.219 58.2871 302.18 54.3987 293.36C53.3464 290.973 52.4684 288.421 51.9587 285.84C50.9737 280.863 52.2438 276.445 55.4601 272.696C57.4503 270.377 59.8154 268.629 62.3386 267.111C64.2165 265.982 66.1311 264.926 68.2111 263.733C67.6498 262.594 67.1131 261.53 66.5974 260.452C66.2943 259.818 65.941 259.189 65.7771 258.51C65.6977 258.183 66.0039 257.747 66.1356 257.362C66.4342 257.505 66.8519 257.558 67.0113 257.807C67.8309 259.089 68.5816 260.424 69.3608 261.737C69.5509 262.058 69.759 262.366 70.0426 262.811C70.7806 262.446 71.473 262.099 72.1698 261.759C75.3351 260.219 78.4787 258.62 81.6792 257.172C82.9337 256.604 84.3041 256.304 85.6447 256.005C86.8827 255.729 87.822 256.269 88.5053 257.481C95.7192 270.265 100.922 283.891 103.241 298.753C105.204 311.336 105.825 324.002 105.309 336.736C104.53 355.959 101.515 374.783 96.7423 393.299C93.491 405.911 89.6992 418.331 85.831 430.728C85.2345 432.64 84.6657 434.564 84.1619 436.507C83.254 440.008 81.9629 440.835 78.7257 440.92C76.2535 440.986 73.7094 440.49 71.2881 439.841C62.6065 437.511 54.2131 434.303 46.4948 429.28C40.2787 425.234 34.9495 420.03 30.0664 414.233C18.6709 400.706 10.8373 384.968 5.32701 367.715C2.97155 360.34 1.85931 352.722 0.59962 345.091C-0.26113 339.871 1.40798 335.881 4.47973 332.32C6.02608 330.527 7.81046 328.955 9.60007 327.441C10.5484 326.639 10.8867 325.873 10.5192 324.634C10.2827 323.834 10.1457 322.985 10.0753 322.145C10.02 321.501 9.64198 320.54 10.5978 320.373C11.4189 320.229 11.3979 321.199 11.5461 321.768C11.8163 322.813 11.9795 323.889 12.2459 325.253Z" fill="black"/>
<path fill-rule="evenodd" clip-rule="evenodd" d="M471.609 372.209L477.141 370.661L481.76 360.936L540.303 294.244C550.63 286.163 558.684 283.035 564.464 284.858C573.135 287.594 580.804 294.287 580.804 304.016C580.804 310.502 581.645 338.667 583.327 388.513L584.187 397.562L565.292 399.163L562.22 402.005L529.276 403.016L531.426 390.979L542.028 347.219L520.355 413.645C515.157 424.445 511.349 430.856 508.931 432.878C506.513 434.899 500.406 436.738 490.611 438.393L459.153 435.91L447.215 426.641L471.609 372.209Z" fill="white"/>
<path fill-rule="evenodd" clip-rule="evenodd" d="M533.664 414.229L525.888 436.916L581.754 439.251L580.988 434.758L602.513 433.77C602.513 433.77 602.308 426.663 599.977 424.531C593.583 418.683 579.546 416.525 579.546 416.525L583.083 403.497L562.597 407.282L562.836 409.586L533.664 414.229Z" fill="#F4F1ED"/>
<path fill-rule="evenodd" clip-rule="evenodd" d="M453.193 344.867C453.193 344.867 458.135 303.01 464.457 299.338C470.779 295.666 492.602 294.178 492.602 294.178C492.602 294.178 501.152 315.906 508.141 312.931C515.131 309.958 516.522 295.703 516.522 295.703L527.982 305.52L481.602 360.891L473.321 370.62L447.102 359.577L453.193 344.867Z" fill="#009DE9"/>
<path fill-rule="evenodd" clip-rule="evenodd" d="M392.351 425.659C393.418 426.333 394.386 427.091 395.762 426.236C396.556 425.743 397.55 425.58 398.477 425.39C399.663 425.148 400.87 425.028 402.067 424.854C398.779 424.463 395.508 424.15 392.351 425.659ZM559.996 403.336C559.496 405.014 558.921 406.369 558.892 408.038C559.609 407.992 560.15 407.959 560.805 407.917C560.794 405.021 562.975 405.321 564.645 404.839C564.781 403.631 564.905 402.534 565.028 401.436C563.607 403.011 561.983 403.574 559.996 403.336ZM559.598 439.78C561.918 441.086 563.434 441.213 565.765 440.909C566.56 440.806 567.386 441 568.199 441.048C569.578 441.128 570.958 441.23 572.339 441.268C573.663 441.305 574.991 441.288 576.318 441.266C577.409 441.25 578.5 441.193 579.591 441.153C579.588 440.976 579.584 440.798 579.58 440.622C572.919 440.342 566.259 440.061 559.598 439.78ZM583.065 435.89C582.874 437.101 583.784 437.392 584.443 437.287C586.858 436.901 589.158 437.551 591.495 437.922C591.864 437.981 592.253 437.899 592.632 437.867C595.328 437.636 598.022 437.394 600.719 437.176C601.506 437.112 602.228 436.997 602.445 435.89H583.065ZM525.479 437.917C525.952 439.235 526.159 439.657 526.954 439.475C528.993 439.009 530.883 439.675 532.848 439.89C534.382 440.058 535.968 439.682 537.482 440.354C537.704 440.453 537.985 440.429 538.236 440.415C540.496 440.277 542.741 440.185 545.007 440.558C545.957 440.714 546.986 440.206 547.988 440.099C548.92 440 549.921 439.8 550.791 440.053C552.866 440.657 554.928 440.558 557.01 440.335C557.383 440.296 557.742 440.085 558.107 439.953L558.046 439.669C547.206 439.086 536.364 438.502 525.479 437.917ZM579.564 399.131C575.306 399.516 571.122 399.894 566.789 400.285C566.587 401.704 566.391 403.081 566.156 404.728C570.827 403.845 575.167 403.026 579.564 402.195V399.131ZM556.645 408.325C557.231 406.712 557.965 405.201 557.735 403.267C551.391 402.429 545.192 403.724 538.892 403.794C538.31 406.448 537.765 408.923 537.158 411.686C543.878 410.528 550.238 409.43 556.645 408.325ZM566.001 398.318C567.09 398.318 567.774 398.37 568.45 398.309C571.538 398.032 574.625 397.743 577.709 397.417C579.282 397.252 580.852 397.038 582.412 396.769C583.09 396.653 583.875 396.438 583.889 395.461C583.919 393.489 583.868 391.517 583.849 389.442C583.033 389.375 582.474 389.253 581.924 389.297C577.573 389.636 573.219 389.967 568.874 390.39C567.1 390.562 567.108 390.663 566.626 392.725C567.922 394.161 567.923 394.162 567.136 395.882C566.83 396.548 566.517 397.21 566.001 398.318ZM529.057 401.732C530.209 401.837 531.022 401.988 531.832 401.973C535.823 401.895 539.819 401.894 543.802 401.638C548.863 401.311 553.913 400.88 558.984 401.384C559.802 401.465 560.647 401.508 561.448 401.367C562.028 401.264 562.764 400.988 563.073 400.513C564.224 398.739 565.001 396.736 565.953 394.442C565.085 394.37 564.548 394.268 564.016 394.291C558.32 394.53 552.627 394.888 546.929 395.011C541.798 395.121 536.703 394.66 531.72 392.594C530.529 395.482 529.787 398.441 529.057 401.732ZM581.737 387.401C581.555 377.859 581.305 368.426 581.216 358.992C581.127 349.538 581.196 340.081 581.196 330.625C580.892 330.894 580.789 331.195 580.725 331.505C580.024 334.868 579.455 338.269 578.613 341.59C575.614 353.43 573.093 365.39 570.73 377.396C570.127 380.462 569.877 383.66 568.394 386.481C568.109 387.024 568.105 387.743 567.952 388.477C572.587 388.116 576.993 387.772 581.737 387.401ZM448.507 358.442C449.536 360.117 451.002 360.85 452.445 361.504C455.195 362.75 458.024 363.784 460.782 365.008C464.305 366.571 467.799 368.216 471.29 369.863C473.6 370.954 473.657 371.047 475.285 368.925C476.457 367.397 477.469 365.71 478.453 364.025C479.343 362.502 479.202 361.97 477.755 361.034C476.448 360.191 475.008 359.576 473.756 358.653C468.136 354.507 462.543 350.318 456.986 346.074C455.8 345.167 454.67 344.457 453.193 344.867C452.015 346.205 451.044 347.666 451.129 349.609C451.244 352.2 450.546 354.505 449.296 356.666C448.996 357.187 448.798 357.78 448.507 358.442ZM590.389 419.866C587.88 418.535 587.81 418.552 586.343 420.657C585.959 421.207 585.606 421.794 585.161 422.276C584.89 422.569 584.467 422.693 584.034 422.936C583.316 420.772 585.557 420.082 585.599 418.279C584.338 418.044 583.103 417.738 581.853 417.629C581.481 417.596 580.981 418.036 580.695 418.402C580.302 418.909 580.106 419.817 579.303 419.344C578.526 418.885 579.066 418.125 579.219 417.496C579.299 417.164 579.449 416.854 579.546 416.526C580.649 412.782 581.756 409.039 582.838 405.288C582.978 404.801 582.982 404.27 583.083 403.497C576.483 404.139 570.268 405.865 563.936 406.7C563.516 406.757 563.112 406.967 562.704 407.117C562.655 407.135 562.608 407.22 562.597 407.282C562.587 407.343 562.627 407.413 562.645 407.479C564.325 408.466 564.546 408.914 564.288 410.816C564.269 410.952 564.249 411.09 564.213 411.222C563.639 413.339 563.099 415.468 562.473 417.565C562.069 418.919 561.537 420.228 560.992 421.759C562.266 422.147 563.388 422.488 564.542 422.84C565.019 421.964 565.34 421.198 565.82 420.579C566.035 420.301 566.569 420.317 566.958 420.2C567.012 420.575 567.186 420.988 567.098 421.317C566.91 422.02 566.585 422.679 566.245 423.536C567.172 423.844 567.924 424.093 568.676 424.342C569.144 423.625 569.471 423.029 569.893 422.526C570.066 422.319 570.574 422.142 570.698 422.253C570.938 422.47 571.17 422.932 571.123 423.24C571.036 423.811 570.746 424.346 570.515 424.962C575.068 427.224 580.145 428.409 582.635 433.687C588.664 434.352 594.62 434.394 600.581 434.116C601.244 434.085 601.901 433.884 602.514 433.77C602.654 427.565 597.705 422.211 592.193 420.47C591.93 420.803 591.633 421.152 591.365 421.527C590.819 422.289 590.331 423.107 589.731 423.813C589.542 424.036 588.968 424.147 588.757 423.997C588.548 423.848 588.443 423.267 588.527 422.948C588.643 422.504 588.973 422.126 589.22 421.725C589.601 421.11 589.99 420.5 590.389 419.866ZM580.948 438.281C581.012 438.114 581.119 437.934 581.149 437.74C581.635 434.543 580.166 432.334 577.821 430.891C575.569 429.504 573.122 428.49 570.745 427.348C570.304 427.136 569.792 427.096 569.28 426.968C568.753 427.808 568.352 428.61 567.798 429.254C567.524 429.572 566.967 429.599 566.538 429.757C566.526 429.315 566.396 428.824 566.529 428.441C566.768 427.752 567.167 427.13 567.593 426.294C566.691 425.974 565.947 425.709 565.227 425.452C564.896 425.975 564.667 426.305 564.469 426.657C564.005 427.481 563.6 428.352 563.074 429.127C562.906 429.373 562.362 429.549 562.12 429.435C561.909 429.335 561.749 428.751 561.805 428.429C561.885 427.976 562.182 427.567 562.387 427.137C562.751 426.373 563.114 425.609 563.562 424.67C562.228 424.226 561.173 423.875 560.186 423.544C558.387 426.521 558.387 426.521 557.061 426.295C557.326 425.575 557.518 424.88 557.82 424.249C559.706 420.319 561.372 416.296 562.353 411.972C562.512 411.273 562.639 410.564 562.835 409.586C560.591 409.809 558.634 409.908 556.704 410.211C549.422 411.354 542.15 412.582 534.867 413.728C533.859 413.887 533.317 414.343 532.951 415.384C530.707 421.772 528.403 428.135 526.135 434.514C525.987 434.93 525.967 435.4 525.888 435.837C528.981 436.656 578.806 438.849 580.948 438.281ZM399.639 427.214C399.63 427.28 399.62 427.346 399.609 427.411C399.909 427.466 400.206 427.547 400.507 427.571C405.505 427.963 410.5 428.428 415.504 428.695C417.579 428.805 419.672 428.418 421.758 428.379C426.136 428.298 430.516 428.289 434.895 428.28C435.407 428.278 435.92 428.466 436.498 428.58C436.095 430.04 435.165 429.887 434.394 429.889C429.254 429.914 424.115 429.894 418.975 429.889H417.143C416.975 431.347 417.729 431.579 418.491 431.692C421.377 432.124 424.264 432.779 427.161 432.847C430.376 432.924 433.607 432.506 436.822 432.193C438.264 432.052 439.723 431.788 441.104 431.325C444.202 430.287 446.197 427.814 447.606 424.772C449.749 420.147 451.777 415.458 453.906 410.825C458.904 399.955 463.945 389.106 468.94 378.233C469.841 376.273 470.606 374.241 471.464 372.168C464.363 368.076 456.762 365.799 449.495 362.204C448.94 364.198 448.441 366.037 447.917 367.867C445.764 375.382 443.473 382.853 441.486 390.419C439.812 396.787 438.524 403.276 436.997 409.692C436.051 413.666 434.532 417.372 432.297 420.716C430.583 423.28 428.321 424.91 425.546 425.788C420.981 427.233 416.339 427.505 411.607 427.257C407.626 427.047 403.629 427.214 399.639 427.214ZM533.356 391.196C534.223 391.502 534.742 391.777 535.285 391.86C538.108 392.291 540.93 392.919 543.766 393.015C548.395 393.173 553.037 393.015 557.671 392.904C559.698 392.854 561.72 392.563 563.747 392.43C564.643 392.372 565.111 391.908 565.355 390.99C566.286 387.476 567.434 384.016 568.167 380.454C570.848 367.445 573.368 354.396 576.679 341.55C578.968 332.663 580.311 323.619 580.506 314.374C580.645 307.71 579.74 301.325 577.056 295.244C574.883 290.322 571.341 287.234 566.794 285.325C565.545 284.801 564.239 284.671 562.87 284.896C557.795 285.732 553.021 287.45 548.56 290.244C544.633 292.704 540.894 295.477 537.679 298.927C532.754 304.214 527.996 309.688 523.23 315.148C518.42 320.66 513.773 326.345 508.897 331.785C502.823 338.565 496.608 345.198 490.409 351.842C488.011 354.412 485.461 356.812 483.031 359.346C481.912 360.513 480.587 361.605 480.705 363.61C480.716 363.79 480.554 363.983 480.471 364.169C479.376 366.606 478.051 368.882 476.297 370.816C475.686 371.49 474.951 372.32 474.177 372.462C472.992 372.681 472.66 373.461 472.251 374.421C470.246 379.119 468.288 383.845 466.167 388.482C461.443 398.811 456.62 409.087 451.864 419.398C450.679 421.971 449.592 424.597 448.454 427.209C451.941 430.704 455.524 433.693 460.126 434.602C464.364 435.438 468.642 436.071 472.922 436.601C475.563 436.926 478.24 436.963 480.902 436.991C483.183 437.017 485.464 436.816 487.746 436.77C490.918 436.705 494.103 436.868 497.26 436.615C502.976 436.158 507.816 433.766 511.08 428.356C511.881 427.028 512.695 425.705 513.43 424.332C520.016 412.021 524.443 398.678 528.839 385.351C531.667 376.775 533.893 367.966 536.491 359.297C539.562 349.053 542.742 338.846 545.872 328.623C546.134 327.772 546.32 326.881 546.681 326.083C546.825 325.767 547.35 325.656 547.702 325.45C547.861 325.794 548.152 326.139 548.149 326.481C548.144 327.019 547.964 327.563 547.819 328.092C547.167 330.475 546.515 332.86 545.837 335.234C544.613 339.52 543.158 343.744 542.176 348.093C540.04 357.549 538.113 367.06 536.159 376.563C535.175 381.341 534.317 386.15 533.356 391.196ZM583.462 387.491C585.099 387.342 585.28 388.515 585.299 389.889C585.321 391.409 585.459 392.927 585.478 394.446C585.511 397.148 585.064 397.756 582.627 398.535C582.268 398.649 581.913 398.774 581.457 398.927C581.411 399.845 581.366 400.718 581.314 401.745C582.04 401.781 582.654 401.779 583.261 401.848C584.62 402.001 585.028 402.556 584.874 404.048C584.825 404.526 584.706 404.999 584.579 405.462C583.854 408.109 583.117 410.752 582.385 413.397C582.187 414.11 581.989 414.823 581.761 415.644C583.397 415.992 584.871 416.366 586.364 416.58C586.763 416.638 587.256 416.267 587.644 415.988C588.003 415.728 588.234 415.245 588.603 415.015C589.096 414.709 589.524 414.952 589.492 415.592C589.466 416.107 589.237 416.609 589.071 417.216C590.383 417.64 591.587 418.588 592.693 416.928C592.808 416.755 593.33 416.724 593.542 416.856C593.741 416.982 593.863 417.408 593.869 417.706C593.875 418.011 593.697 418.321 593.583 418.683C594.772 419.405 595.892 420.041 596.973 420.751C600.743 423.219 603.348 426.64 604.101 431.469C604.301 432.747 604.342 434.079 604.275 435.376C604.158 437.611 602.701 438.93 600.642 439.053C597.874 439.22 595.113 439.525 592.347 439.735C591.591 439.792 590.725 439.969 590.087 439.659C587.76 438.533 585.338 439.362 583.049 438.969C582.891 439.124 582.729 439.204 582.719 439.303C582.414 442.537 580.141 443.168 577.893 443.054C575.041 442.908 572.184 443.406 569.391 443.056C567.427 442.81 565.512 442.801 563.561 442.794C562.369 442.789 561.14 442.623 559.997 442.266C558.79 441.889 557.633 441.846 556.434 442.098C554.468 442.511 552.535 442.398 550.584 441.882C549.83 441.682 548.96 441.684 548.204 441.876C546.259 442.368 544.346 442.631 542.374 442.054C541.846 441.901 541.229 441.932 540.686 442.052C539.025 442.419 537.415 442.34 535.805 441.754C535.341 441.585 534.799 441.485 534.324 441.568C532.847 441.821 531.435 441.842 530.059 441.04C529.729 440.847 529.218 441.002 528.792 441.025C528.035 441.063 527.267 441.241 526.525 441.152C524.527 440.912 523.35 439.155 523.912 437.035C524.735 433.925 525.641 430.832 526.697 427.809C528.277 423.289 530.051 418.851 531.666 414.346C532.128 413.054 532.758 412.201 534.085 412.168C534.967 412.147 535.454 411.723 535.653 410.74C536.1 408.525 536.629 406.329 537.19 403.831C535.975 403.831 534.986 403.849 533.999 403.827C532.349 403.79 530.692 403.819 529.053 403.648C527.669 403.502 527.187 402.816 527.548 401.4C528.326 398.342 529.22 395.319 530.142 392.308C530.305 391.774 530.749 391.206 531.205 390.945C531.87 390.564 532.041 390.015 532.175 389.316C533.481 382.488 534.802 375.664 536.115 368.837C536.139 368.712 536.092 368.571 536.035 367.997C535.71 368.831 535.478 369.303 535.339 369.804C532.446 380.331 529.014 390.658 525.401 400.909C522.055 410.401 518.281 419.698 513.207 428.279C512.048 430.237 510.642 432.075 509.115 433.709C505.788 437.268 501.626 438.707 497.019 438.923C486.532 439.417 476.065 439.313 465.652 437.724C461.308 437.061 456.974 436.204 453.217 433.492C451.581 432.311 450.061 430.94 448.487 429.655C448.192 429.415 447.897 429.174 447.489 428.84C445.454 432.015 442.443 433.32 439.22 433.951C436.682 434.448 434.065 434.643 431.481 434.665C427.295 434.701 423.097 434.578 418.973 433.618C417.399 433.251 415.845 432.795 415.323 430.702C413.895 430.58 412.509 430.446 411.12 430.344C406.686 430.02 402.24 429.845 397.826 429.328C395.783 429.088 393.776 428.284 391.816 427.54C391.206 427.308 390.524 426.51 390.37 425.837C390.131 424.805 391.053 424.213 391.819 423.953C393.14 423.505 394.509 423.146 395.882 422.982C400.014 422.488 404.126 423.094 408.23 423.521C411.385 423.849 414.515 424.448 417.665 424.858C421.319 425.335 424.724 424.305 427.938 422.52C429.681 421.553 430.816 419.832 431.826 418.055C433.34 415.397 434.501 412.559 435.224 409.531C436.851 402.715 438.279 395.837 440.081 389.076C442.184 381.186 444.602 373.394 446.878 365.558C447.107 364.768 447.279 363.956 447.529 363.174C447.939 361.892 448.213 360.722 447.102 359.578C446.771 359.236 446.913 358.314 446.903 357.657C446.898 357.401 447.035 357.118 447.165 356.887C448.628 354.314 449.476 351.606 449.477 348.495C449.478 346.075 451.102 344.36 452.596 342.748C452.958 342.356 453.597 342.272 454.182 342.016C454.715 336.829 455.26 331.617 455.783 326.402C456.363 320.621 457.22 314.902 458.826 309.337C459.614 306.609 460.741 304.08 462.353 301.806C465.117 297.906 468.722 295.749 473.258 295.545C478.587 295.308 483.919 295.141 489.247 294.877C490.264 294.827 491.267 294.465 492.602 294.178C492.847 294.533 493.328 295.145 493.719 295.819C495.649 299.145 497.477 302.543 499.494 305.804C501.031 308.289 503.078 310.289 505.429 311.867C508.629 314.015 511.919 312.986 513.506 309.282C514.008 308.109 514.313 306.805 514.535 305.527C515.091 302.33 515.438 299.108 514.97 295.851C514.941 295.646 514.889 295.423 514.933 295.233C515.052 294.727 515.088 294.021 515.401 293.797C515.689 293.589 516.363 293.773 516.747 294.013C518.344 295.006 519.915 296.055 521.46 297.142C523.763 298.761 525.947 300.541 527.522 303.05C527.807 303.505 528.14 303.963 528.278 304.475C528.361 304.782 528.208 305.341 527.982 305.52C527.784 305.676 527.256 305.577 527.019 305.382C526.625 305.057 526.326 304.58 526.021 304.14C523.785 300.909 520.715 298.839 517.54 296.919C517.392 296.83 517.192 296.843 516.848 296.776C516.817 297.359 516.766 297.878 516.765 298.395C516.763 301.651 516.739 304.923 515.815 308.047C515.377 309.528 514.744 311.041 513.863 312.248C511.623 315.312 508.285 315.902 505.16 313.945C502.884 312.519 500.828 310.726 499.269 308.435C497.272 305.498 495.482 302.394 493.61 299.354C493.364 298.954 493.128 298.536 492.948 298.097C492.509 297.027 491.827 296.538 490.711 296.672C489.767 296.785 488.808 296.723 487.856 296.753C483.985 296.878 480.113 296.968 476.245 297.155C474.474 297.241 472.675 297.344 470.952 297.75C466.406 298.823 463.648 302.277 461.725 306.602C459.854 310.81 459.001 315.378 458.415 319.959C457.522 326.936 456.944 333.961 456.079 340.944C455.849 342.799 456.747 343.625 457.844 344.469C462.044 347.698 466.243 350.93 470.481 354.1C472.454 355.577 474.516 356.915 476.564 358.336C478.155 356.802 479.203 355.088 480.176 353.318C483.86 346.618 487.529 339.906 491.207 333.202C491.467 332.728 491.7 332.209 492.055 331.833C492.267 331.609 492.793 331.442 492.996 331.575C493.231 331.732 493.388 332.255 493.362 332.599C493.333 332.981 493.079 333.354 492.888 333.71C489.13 340.683 485.387 347.667 481.589 354.615C480.718 356.209 479.658 357.681 478.623 359.306C479.019 359.606 479.417 359.908 479.957 360.317C488.734 350.82 497.39 341.293 506.22 331.962C511.607 326.271 516.441 320.04 521.591 314.121C526.61 308.352 531.587 302.527 536.842 297.019C541.389 292.252 546.663 288.49 552.505 285.779C555.79 284.254 559.224 283.224 562.77 282.8C564.063 282.644 565.486 282.717 566.711 283.15C571.384 284.804 575.19 287.744 577.691 292.497C581.103 298.983 582.362 306.011 582.341 313.4C582.335 314.978 582.6 316.557 582.623 318.136C582.763 327.675 582.867 337.213 582.989 346.752C583.144 358.918 583.305 371.085 583.46 383.252C583.477 384.552 583.462 385.855 583.462 387.491Z" fill="black"/>
<path fill-rule="evenodd" clip-rule="evenodd" d="M516.837 256.106C516.286 253.766 514.828 252.381 512.709 252.086C511.027 251.853 509.242 251.743 507.596 252.095C504.136 252.836 501.091 254.608 498.617 257.427C498.359 257.723 498.051 257.969 497.761 258.233C497.244 260.205 496.619 262.154 496.236 264.159C496.12 264.762 496.09 265.344 496.121 265.914C496.048 265.9 495.981 265.886 495.92 265.864C493.745 265.08 492.09 266.413 492.173 268.906C492.236 270.76 493.053 272.191 494.562 272.965C495.445 273.416 495.647 273.944 495.571 274.917C495.084 281.085 494.164 287.176 493.006 293.232C492.872 293.929 492.988 294.682 492.988 295.462C494.165 295.417 494.119 294.622 494.253 293.949C495.5 287.647 496.455 281.295 496.979 274.87C497.143 272.861 497.123 272.801 495.35 271.8C493.986 271.031 493.194 269.378 493.681 268.115C493.846 267.684 494.251 267.153 494.614 267.084C494.936 267.023 495.386 267.496 495.712 267.815C495.871 267.971 496.474 268.654 496.918 269.08C497.21 269.777 497.557 270.477 497.945 271.191C498.344 269.323 498.555 267.769 499.013 266.306C500.119 262.766 502.421 260.257 505.221 258.228C506.934 256.988 508.835 256.952 509.882 255.213C509.885 255.213 509.888 255.213 509.891 255.212C510.843 256.279 511.525 256.21 512.495 257.117C513.751 258.288 514.883 259.528 515.609 261.094C515.6 262.106 515.558 263.117 515.474 264.12C515.024 269.443 514.382 274.734 512.176 279.621C511.16 281.871 510.095 282.372 507.832 281.612C506.168 281.053 504.581 280.314 503.236 279.054C502.85 278.694 502.368 278.086 501.884 278.784C501.443 279.42 502.008 279.882 502.426 280.218C503.145 280.794 503.879 281.371 504.672 281.808C506.657 282.902 508.725 283.698 510.989 283.243C511.197 283.902 511.37 284.384 511.501 284.881C512.293 287.882 513.058 290.893 513.872 293.887C514.074 294.63 514.027 295.609 515.446 295.996C515.337 295.105 515.326 294.477 515.179 293.89C514.356 290.629 513.483 287.383 512.67 284.118C512.492 283.406 512.112 282.712 512.588 281.889C514.47 278.641 515.367 275.004 516.008 271.271C516.435 268.788 516.763 266.293 516.914 263.785C516.929 263.804 516.939 263.815 516.953 263.835C517.232 260.969 517.41 258.537 516.837 256.106Z" fill="black"/>
<path fill-rule="evenodd" clip-rule="evenodd" d="M487.224 252.563C487.178 249.915 487.437 248.858 487.916 248.299C487.669 249.646 487.739 251.007 487.981 251.902C488.464 253.696 489.347 255.345 490.549 256.315C491.157 256.804 491.76 257.231 492.377 257.584C489.801 256.997 487.277 255.66 487.224 252.563ZM492.27 243.028C492.552 241.871 492.795 240.874 494.09 240.004C495.011 239.385 496.159 239.39 497.397 239.531C495.251 239.778 494.148 241.513 492.252 243.106C492.258 243.08 492.264 243.053 492.27 243.028ZM505.326 238.552C506.928 237.722 508.583 236.863 510.704 237.39C512.413 237.815 513.699 239.349 514.144 241.493C514.283 242.168 514.323 242.839 514.276 243.459C514.198 242.187 513.269 238.186 509.481 238.186C507.219 238.186 505.519 239.173 503.047 239.574C503.84 239.317 504.593 238.931 505.326 238.552ZM497.762 258.221C497.743 258.228 497.725 258.229 497.707 258.235L497.722 258.083C497.719 258.083 497.713 258.083 497.71 258.083C497.707 257.48 497.384 256.842 497.951 256.299C500.425 253.931 502.941 251.627 506.199 250.628C507.908 250.104 509.663 249.518 510.985 251.452C512.559 249.912 513.711 247.703 514.118 245.486C514.66 244.457 514.826 242.931 514.509 241.403C514.032 239.102 512.641 237.453 510.787 236.993C508.539 236.434 506.824 237.324 505.165 238.183C504.136 238.716 503.165 239.219 502.077 239.4C500.876 239.598 499.642 239.424 498.45 239.257C496.765 239.022 495.173 238.799 493.893 239.658C492.472 240.612 492.198 241.734 491.909 242.922C491.862 243.112 491.815 243.301 491.764 243.493C491.335 243.819 490.868 244.134 490.339 244.42C489.124 245.076 488.421 246.315 488.063 247.647C487.218 248.226 486.793 249.2 486.85 252.57C486.918 256.593 490.733 257.85 493.856 258.259C494.752 258.546 495.702 258.636 496.754 258.46C496.872 258.462 496.984 258.465 497.085 258.467C497.372 258.472 497.578 258.476 497.68 258.489L497.701 258.286C497.72 258.268 497.741 258.251 497.76 258.233C497.761 258.229 497.763 258.224 497.763 258.22L497.762 258.221Z" fill="black"/>
<path fill-rule="evenodd" clip-rule="evenodd" d="M509.806 264.346L510.95 269.273L509.282 269.455L509.806 264.346Z" fill="black"/>
<path fill-rule="evenodd" clip-rule="evenodd" d="M509.809 264.394L509.291 269.445L510.94 269.265L509.809 264.394ZM509.282 269.463C509.28 269.463 509.278 269.462 509.276 269.461C509.275 269.458 509.274 269.456 509.274 269.453L509.798 264.345C509.799 264.341 509.802 264.338 509.806 264.338C509.809 264.338 509.813 264.34 509.814 264.343L510.957 269.27C510.958 269.273 510.957 269.276 510.957 269.277C510.955 269.28 510.953 269.281 510.951 269.282L509.283 269.463H509.282Z" fill="black"/>
<path fill-rule="evenodd" clip-rule="evenodd" d="M508.489 260.729C508.489 260.729 508.558 262.237 508.251 262.553C506.964 262.399 504.066 262.919 502.612 263.618C503.184 262.173 508.489 260.729 508.489 260.729Z" fill="black"/>
<path fill-rule="evenodd" clip-rule="evenodd" d="M508.48 260.739C508.358 260.773 507.086 261.127 505.766 261.638C503.96 262.339 502.876 263.016 502.626 263.6C504.044 262.927 506.921 262.386 508.247 262.545C508.532 262.242 508.485 260.873 508.48 260.739ZM502.611 263.626C502.608 263.626 502.607 263.624 502.605 263.623C502.602 263.62 502.602 263.617 502.603 263.613C502.841 263.012 503.904 262.342 505.761 261.623C507.143 261.087 508.473 260.723 508.485 260.72C508.488 260.719 508.491 260.72 508.492 260.721C508.494 260.722 508.496 260.725 508.496 260.727C508.498 260.789 508.562 262.244 508.255 262.559C508.253 262.561 508.25 262.563 508.248 262.562C506.92 262.401 504.024 262.948 502.614 263.625C502.613 263.625 502.612 263.626 502.611 263.626Z" fill="black"/>
<path fill-rule="evenodd" clip-rule="evenodd" d="M506.27 267.481C505.855 267.508 505.442 267.424 505.057 267.286C505.199 267.331 505.351 267.357 505.509 267.357C506.297 267.357 506.938 266.744 506.938 265.991C506.938 265.688 506.722 265.326 506.518 265.075C507.528 265.176 508.415 265.749 508.742 265.984C508.45 266.362 507.538 267.396 506.27 267.481ZM504.117 265.617C504.094 265.746 504.08 265.888 504.08 265.991C504.08 266.538 504.417 267.009 504.903 267.227C504.16 266.927 503.545 266.445 503.282 266.22C503.435 266.078 503.72 265.84 504.117 265.617ZM509.068 265.809C509.015 265.766 507.747 264.734 506.258 264.713C504.212 264.687 502.977 266.049 502.925 266.106C502.895 266.14 502.879 266.186 502.881 266.234C502.882 266.28 502.902 266.325 502.934 266.356C502.999 266.419 504.486 267.832 506.107 267.832C506.167 267.832 506.229 267.829 506.289 267.825C507.989 267.71 509.057 266.115 509.101 266.048C509.152 265.971 509.137 265.866 509.068 265.809Z" fill="black"/>
<path fill-rule="evenodd" clip-rule="evenodd" d="M513.247 267.133C512.883 267.16 512.519 267.063 512.185 266.912C512.242 266.924 512.301 266.932 512.359 266.932C512.995 266.932 513.51 266.37 513.51 265.679C513.51 265.376 513.413 265.093 513.238 264.869C513.308 264.864 513.38 264.861 513.452 264.861H513.453C514.254 264.861 514.987 265.477 515.244 265.719C515.016 266.063 514.275 267.052 513.247 267.133ZM510.85 265.958C510.933 265.881 511.058 265.772 511.219 265.653C511.25 265.944 511.364 266.235 511.546 266.472C511.594 266.538 511.647 266.594 511.701 266.645C511.316 266.397 511.009 266.115 510.85 265.958ZM515.565 265.569C515.525 265.525 514.576 264.516 513.453 264.516H513.452C511.713 264.516 510.552 265.781 510.503 265.834C510.442 265.901 510.442 266.009 510.502 266.076C510.516 266.092 510.846 266.458 511.348 266.814C511.973 267.258 512.567 267.483 513.116 267.483C513.168 267.483 513.218 267.481 513.269 267.477C514.675 267.367 515.551 265.847 515.588 265.782C515.627 265.714 515.617 265.625 515.565 265.569Z" fill="black"/>
<path fill-rule="evenodd" clip-rule="evenodd" d="M510.695 260.728C510.695 260.728 510.625 262.236 510.933 262.552C512.219 262.397 514.292 262.769 515.745 263.467C515.174 262.023 510.695 260.728 510.695 260.728Z" fill="black"/>
<path fill-rule="evenodd" clip-rule="evenodd" d="M511.575 262.51C512.858 262.51 514.524 262.876 515.73 263.451C515.483 262.867 514.541 262.216 513.002 261.564C511.883 261.091 510.814 260.772 510.701 260.739C510.697 260.875 510.651 262.242 510.936 262.545C511.133 262.521 511.348 262.51 511.575 262.51ZM515.745 263.477C515.744 263.477 515.742 263.477 515.742 263.476C514.323 262.796 512.257 262.402 510.933 262.562C510.931 262.563 510.929 262.561 510.927 262.56C510.798 262.426 510.719 262.078 510.69 261.523C510.669 261.11 510.686 260.731 510.686 260.727C510.686 260.726 510.688 260.723 510.689 260.721C510.692 260.72 510.694 260.719 510.697 260.72C510.707 260.723 511.83 261.049 513.008 261.548C514.097 262.009 515.456 262.716 515.752 263.465C515.754 263.468 515.753 263.472 515.751 263.475C515.749 263.476 515.747 263.477 515.745 263.477Z" fill="black"/>
<path fill-rule="evenodd" clip-rule="evenodd" d="M507.074 271.286C507.865 272.101 508.508 272.554 509.58 272.631C510.652 272.71 511.403 272.283 511.403 272.283C511.403 272.283 510.545 273.868 509.508 274.162C507.365 274.773 507.466 272.941 507.074 271.286Z" fill="black"/>
<path fill-rule="evenodd" clip-rule="evenodd" d="M507.088 271.313C507.15 271.574 507.198 271.839 507.246 272.096C507.401 272.937 507.548 273.733 508.062 274.081C508.399 274.311 508.871 274.335 509.506 274.154C510.457 273.883 511.266 272.507 511.382 272.303C511.243 272.375 510.534 272.709 509.579 272.641C508.501 272.561 507.868 272.113 507.088 271.313ZM508.758 274.291C508.478 274.291 508.244 274.226 508.054 274.096C507.534 273.742 507.386 272.945 507.23 272.099C507.181 271.834 507.13 271.558 507.067 271.288C507.065 271.284 507.067 271.281 507.07 271.279C507.073 271.277 507.077 271.277 507.079 271.28C507.867 272.09 508.498 272.544 509.581 272.623C510.638 272.7 511.391 272.279 511.399 272.275C511.403 272.273 511.406 272.274 511.408 272.277C511.411 272.279 511.411 272.284 511.409 272.287C511.401 272.303 510.538 273.878 509.51 274.171C509.229 274.25 508.979 274.291 508.758 274.291Z" fill="black"/>
<path fill-rule="evenodd" clip-rule="evenodd" d="M554.143 122.492C554.143 129.628 554.195 136.549 554.121 143.469C554.085 146.791 553.788 150.108 553.653 153.431C553.491 157.408 553.373 161.387 553.241 165.366C553.063 170.812 552.801 176.258 552.748 181.705C552.72 184.639 553.026 187.578 553.231 190.512C553.342 192.101 554.184 193.214 555.423 194.03C556.856 194.977 558.445 195.246 560.071 195.263C564.263 195.308 568.455 195.297 572.648 195.318C573.034 195.321 573.42 195.396 573.81 195.438C574.285 200.742 572.923 205.743 572.203 211.114C574.876 209.712 577.064 208.166 579.058 206.343C582.054 203.603 583.985 200.026 585.455 196.156C585.798 195.255 586.228 194.933 587.117 194.897C593.275 194.644 599.428 194.219 605.588 194.069C615.485 193.827 625.386 193.738 635.285 193.614C643.671 193.51 652.054 193.575 660.43 194.119C661.304 194.176 662.191 194.013 663.097 193.951C663.219 192.914 663.396 192.053 663.411 191.19C663.454 188.628 663.495 186.064 663.425 183.503C663.303 179.038 663.004 174.576 662.946 170.11C662.86 163.566 662.833 157.018 662.942 150.476C663.044 144.309 663.11 138.158 662.36 132.028C662.181 130.572 662.187 129.079 661.902 127.651C661.355 124.906 660.442 122.307 658.469 120.326C655.085 116.929 651.001 115.412 646.453 115.376C643.932 115.356 641.403 115.545 638.888 115.77C633.756 116.231 628.634 116.821 623.503 117.281C617.866 117.787 612.221 118.199 606.582 118.665C601.698 119.067 596.817 119.503 591.934 119.895C587.4 120.26 582.856 120.502 578.329 120.947C570.732 121.693 563.126 122.215 555.499 122.4C555.055 122.411 554.611 122.459 554.143 122.492ZM586.832 197.08C586.298 199.494 585.074 201.436 583.973 203.448C581.859 207.311 578.507 209.638 575.07 211.864C574.465 212.256 573.838 212.613 573.201 212.939C572.749 213.171 572.277 213.409 571.791 213.497C570.644 213.707 570.073 213.083 570.259 211.825C570.53 209.997 570.873 208.18 571.151 206.353C571.545 203.774 571.912 201.191 572.277 198.607C572.321 198.298 572.283 197.975 572.283 197.515C571.757 197.482 571.268 197.426 570.78 197.426C567.749 197.427 564.717 197.512 561.688 197.423C560.034 197.375 558.358 197.181 556.742 196.806C553.881 196.139 551.422 193.944 551.164 189.836C550.764 183.462 550.716 177.104 551.075 170.726C551.441 164.251 551.533 157.757 551.957 151.288C552.34 145.456 552.192 139.628 552.237 133.797C552.266 130.147 552.366 126.496 552.433 122.845C552.45 121.905 553.122 121.03 554.06 120.793C554.401 120.706 554.761 120.687 555.113 120.68C564.107 120.488 573.054 119.547 582.012 118.751C587.798 118.237 593.589 117.778 599.378 117.296C606.777 116.68 614.178 116.092 621.574 115.445C628.569 114.833 635.559 114.156 642.552 113.52C646.834 113.129 650.988 113.511 654.988 115.469C660.112 117.976 663.177 122.177 663.935 128.113C664.755 134.532 665.223 140.99 665.081 147.501C664.92 154.911 664.948 162.329 665.02 169.742C665.063 174.208 665.391 178.671 665.505 183.137C665.578 186.023 665.544 188.917 665.451 191.803C665.421 192.742 665.179 193.733 664.807 194.584C664.236 195.891 663.153 196.302 661.806 196.245C657.467 196.06 653.125 195.847 648.783 195.845C636.056 195.842 623.328 195.523 610.603 196.091C603.235 196.42 595.864 196.643 588.495 196.921C587.949 196.941 587.406 197.023 586.832 197.08Z" fill="black"/>
<path fill-rule="evenodd" clip-rule="evenodd" d="M609.927 172.524C610.32 171.956 610.548 171.673 610.728 171.358C613.196 167.038 615.643 162.704 618.123 158.393C619.859 155.375 621.712 152.432 623.369 149.365C624.339 147.571 625.186 145.657 625.78 143.69C626.121 142.559 625.948 141.204 625.822 139.972C625.696 138.739 624.856 138.055 623.717 138.094C622.484 138.135 621.19 138.159 620.041 138.569C615.736 140.104 612.026 142.575 609.562 146.82C608.977 147.829 608.334 147.913 607.542 147.127C607.326 146.914 607.168 146.635 606.962 146.408C604.986 144.228 603.089 141.955 601.003 139.902C598.442 137.381 595.355 135.966 591.829 135.916C587.895 135.861 585.084 138.786 585.495 142.575C585.649 143.992 586.002 145.472 586.619 146.725C587.579 148.671 588.666 150.611 590.016 152.259C592.427 155.206 594.977 158.044 597.646 160.724C601.61 164.704 605.728 168.506 609.927 172.524ZM607.95 144.345C610.076 142.471 611.965 140.658 613.997 139.052C616.367 137.18 619.101 136.121 622.027 135.742C622.887 135.631 623.795 135.743 624.658 135.894C626.29 136.181 627.243 137.34 627.713 138.965C628.424 141.423 628.285 143.893 627.295 146.193C626.185 148.77 624.953 151.303 623.579 153.73C619.726 160.546 615.773 167.299 611.857 174.076C611.671 174.398 611.504 174.739 611.28 175.029C610.52 176.011 609.924 176.035 609.045 175.189C605.576 171.845 602.048 168.568 598.642 165.153C594.762 161.261 590.782 157.454 587.644 152.804C586.222 150.698 584.888 148.528 584.14 146.029C583.515 143.945 583.32 141.797 583.871 139.674C584.696 136.494 586.806 134.724 589.748 134.03C593.037 133.255 596.102 134.115 599.002 135.715C601.559 137.126 603.628 139.218 605.547 141.479C606.378 142.46 607.2 143.45 607.95 144.345Z" fill="black"/>
<path fill-rule="evenodd" clip-rule="evenodd" d="M609.927 172.524C610.32 171.956 610.548 171.673 610.728 171.358C613.196 167.038 615.643 162.704 618.123 158.393C619.859 155.375 621.712 152.432 623.369 149.365C624.339 147.571 625.186 145.657 625.78 143.69C626.121 142.559 625.948 141.204 625.822 139.972C625.696 138.739 624.856 138.055 623.717 138.094C622.484 138.135 621.19 138.159 620.041 138.569C615.736 140.104 612.026 142.575 609.562 146.82C608.977 147.829 608.334 147.913 607.542 147.127C607.326 146.914 607.168 146.635 606.962 146.408C604.986 144.228 603.089 141.955 601.003 139.902C598.442 137.381 595.355 135.966 591.829 135.916C587.895 135.861 585.084 138.786 585.495 142.575C585.649 143.992 586.002 145.472 586.619 146.725C587.579 148.671 588.666 150.611 590.016 152.259C592.427 155.206 594.977 158.044 597.646 160.724C601.61 164.704 605.728 168.506 609.927 172.524ZM607.95 144.345C610.076 142.471 611.965 140.658 613.997 139.052C616.367 137.18 619.101 136.121 622.027 135.742C622.887 135.631 623.795 135.743 624.658 135.894C626.29 136.181 627.243 137.34 627.713 138.965C628.424 141.423 628.285 143.893 627.295 146.193C626.185 148.77 624.953 151.303 623.579 153.73C619.726 160.546 615.773 167.299 611.857 174.076C611.671 174.398 611.504 174.739 611.28 175.029C610.52 176.011 609.924 176.035 609.045 175.189C605.576 171.845 602.048 168.568 598.642 165.153C594.762 161.261 590.782 157.454 587.644 152.804C586.222 150.698 584.888 148.528 584.14 146.029C583.515 143.945 583.32 141.797 583.871 139.674C584.696 136.494 586.806 134.724 589.748 134.03C593.037 133.255 596.102 134.115 599.002 135.715C601.559 137.126 603.628 139.218 605.547 141.479C606.378 142.46 607.2 143.45 607.95 144.345Z" fill="#FF7590"/>
</svg>
