<svg width="58" height="58" viewBox="0 0 58 58" fill="none" xmlns="http://www.w3.org/2000/svg">
<path d="M28.9922 19.3292C23.6672 19.3292 19.3216 23.6749 19.3216 29C19.3216 34.3251 23.6672 38.6708 28.9922 38.6708C34.3172 38.6708 38.6628 34.3251 38.6628 29C38.6628 23.6749 34.3172 19.3292 28.9922 19.3292ZM57.9968 29C57.9968 24.9953 58.033 21.0269 57.8081 17.0294C57.5832 12.3863 56.524 8.26549 53.1288 4.8702C49.7263 1.46765 45.6129 0.415687 40.9698 0.190785C36.9652 -0.0341167 32.9968 0.00215793 28.9995 0.00215793C24.9948 0.00215793 21.0265 -0.0341167 17.0291 0.190785C12.386 0.415687 8.26534 1.4749 4.87011 4.8702C1.46762 8.27275 0.415679 12.3863 0.190782 17.0294C-0.0341161 21.0341 0.00215789 25.0025 0.00215789 29C0.00215789 32.9974 -0.0341161 36.9731 0.190782 40.9706C0.415679 45.6137 1.47488 49.7345 4.87011 53.1298C8.27259 56.5323 12.386 57.5843 17.0291 57.8092C21.0337 58.0341 25.0021 57.9978 28.9995 57.9978C33.0041 57.9978 36.9724 58.0341 40.9698 57.8092C45.6129 57.5843 49.7336 56.5251 53.1288 53.1298C56.5313 49.7273 57.5832 45.6137 57.8081 40.9706C58.0403 36.9731 57.9968 33.0047 57.9968 29V29ZM28.9922 43.8798C20.758 43.8798 14.1127 37.2343 14.1127 29C14.1127 20.7657 20.758 14.1202 28.9922 14.1202C37.2264 14.1202 43.8717 20.7657 43.8717 29C43.8717 37.2343 37.2264 43.8798 28.9922 43.8798ZM44.4811 16.9859C42.5586 16.9859 41.0061 15.4333 41.0061 13.5108C41.0061 11.5882 42.5586 10.0357 44.4811 10.0357C46.4036 10.0357 47.9562 11.5882 47.9562 13.5108C47.9567 13.9673 47.8672 14.4194 47.6928 14.8413C47.5184 15.2632 47.2624 15.6465 46.9396 15.9693C46.6168 16.2921 46.2335 16.5481 45.8117 16.7225C45.3898 16.897 44.9376 16.9865 44.4811 16.9859V16.9859Z" fill="#37A1C4"/>
</svg>
