<svg width="58" height="58" viewBox="0 0 58 58" fill="none" xmlns="http://www.w3.org/2000/svg">
<path d="M11.3658 0C5.11552 0 0 5.1154 0 11.3658V46.636C0 52.8863 5.1154 58 11.3658 58H46.636C52.8864 58 58 52.8864 58 46.636V11.3658C58 5.11552 52.8864 0 46.636 0H11.3658ZM14.2245 9.57117C17.2214 9.57117 19.0674 11.5386 19.1243 14.1247C19.1243 16.6537 17.2213 18.6764 14.1665 18.6764H14.1103C11.1705 18.6764 9.27031 16.6539 9.27031 14.1247C9.27031 11.5386 11.228 9.57117 14.2245 9.57117H14.2245ZM40.0504 21.6584C45.814 21.6584 50.1347 25.4255 50.1347 33.5209V48.6335H41.3756V34.5341C41.3756 30.9911 40.1079 28.5739 36.938 28.5739C34.5181 28.5739 33.0757 30.2031 32.4424 31.777C32.2111 32.3401 32.1542 33.1265 32.1542 33.9142V48.6335H23.3951C23.3951 48.6335 23.5101 24.7496 23.3951 22.2765H32.156V26.0089C33.32 24.2131 35.4021 21.6584 40.0504 21.6584V21.6584ZM9.78696 22.2784H18.5461V48.6337H9.78696V22.2784V22.2784Z" fill="#37A1C4"/>
</svg>
