<svg width="276" height="193" viewBox="0 0 276 193" fill="none" xmlns="http://www.w3.org/2000/svg">
<path fill-rule="evenodd" clip-rule="evenodd" d="M71.8787 76.3332C73.3289 70.2705 74.6956 64.0759 76.8474 58.2496C78.1941 54.6035 79.621 50.9905 81.0504 47.3813C81.2486 46.8803 81.3323 46.3974 81.7181 46.1479C82.2331 45.8146 83.2989 45.8218 83.8801 45.7073C92.136 44.0792 100.478 42.8365 108.847 42.1375C118.398 41.3399 127.709 41.7047 137.16 43.3781C145.242 44.8092 153.244 46.7816 161.159 49.0401C162.323 49.3719 163.485 49.7111 164.644 50.0596C165.184 50.222 166.081 50.3049 166.552 50.6438C167.559 51.3681 167.9 54.3367 168.277 55.5943C168.783 57.2799 169.077 59.5957 170.052 61.0298C171.503 63.1643 173.712 65.016 175.51 66.7905C181.787 72.9837 188.668 78.6332 196.774 81.695C209.316 86.4318 222.54 89.4007 235.532 92.3359C235.835 92.4041 236.137 92.4721 236.439 92.5394C233.076 96.5438 229.713 100.548 226.35 104.553C224.454 106.81 222.558 109.067 220.662 111.325C219.687 112.485 219.794 112.693 218.415 112.369C211.507 110.749 204.611 108.982 197.828 106.828C194.502 105.773 191.12 104.677 188.026 102.967C183.768 100.614 179.771 97.7046 175.881 94.7166C172.404 92.0455 169.008 89.2513 165.673 86.3778C165.016 85.8115 162.644 83.0808 161.875 83.2587C161.211 83.4123 160.063 85.0356 159.577 85.5083C158.292 86.7591 157.001 88.0039 155.703 89.2385C153.637 91.2029 151.527 93.609 149.114 95.0874C146.571 96.6458 143.656 97.7072 140.972 98.9481C139.474 99.64 137.976 100.329 136.477 101.017C136.085 101.197 135.539 101.587 135.117 101.597C133.867 101.625 132.053 100.533 130.894 100.108C127.917 99.0152 124.962 97.8533 122.037 96.6073C115.792 93.947 108.929 91.0565 103.789 86.2691C102.893 85.4341 102.016 84.4993 101.423 83.3836C101.217 82.9967 100.911 82.4581 100.89 82.0014C100.857 81.2732 101.238 81.1302 101.804 80.675C104.727 78.3258 107.879 76.2783 110.979 74.2138C111.708 73.7289 112.437 73.246 113.17 72.7678L76.9485 75.8953C75.2586 76.0414 73.5687 76.1871 71.8787 76.3332Z" fill="#FF5374"/>
<path fill-rule="evenodd" clip-rule="evenodd" d="M138.814 0.180739C142.641 0.368404 146.564 0.55965 150.358 1.13876C154.139 1.71577 157.668 3.19174 161.086 4.97888C167.248 8.20111 173.546 12.1179 177.51 18.3159C179.363 21.2139 180.874 24.2481 183.432 26.5293C184.031 27.0628 184.683 27.704 185.477 27.8672C186.108 27.997 186.665 27.7222 187.284 27.6894C188.464 27.6264 188.911 28.2953 188.911 29.5559C189.797 29.1758 190.761 28.8317 191.728 28.9714C192.535 29.0883 193.177 29.6119 193.953 29.8321C195.352 30.2295 196.722 29.6352 198.053 29.1925C201.414 28.0742 205.106 27.2275 208.638 27.6264C210.964 27.8892 213.783 28.9738 212.579 32.1954C211.58 34.8678 207.844 36.2205 205.485 36.8852C203.478 37.4509 200.779 36.9461 200.949 39.9234C201.067 42.0014 201.36 44.2307 203.414 44.905C204.541 45.2747 208.531 45.8254 206.201 47.7006C204.48 49.0853 203.879 51.5225 202.57 53.3529C200.902 55.6861 198.64 57.5723 195.996 58.4238C193.038 59.3767 189.907 59.1938 186.869 59.5635C189.009 62.7392 192.099 64.9234 194.912 67.3383C197.87 69.8776 200.723 72.6526 204.146 74.4627C207.214 76.0852 210.529 77.2118 213.698 78.5875C217.026 80.0324 220.377 81.4606 223.813 82.5863C230.742 84.8568 238.031 86.4429 245.155 87.8356C248.671 88.523 252.118 88.4221 255.669 88.4833C259.312 88.5463 262.953 89.2331 266.529 89.9384C268.262 90.2806 270.012 90.4963 271.746 90.837C272.577 91.0005 275.87 91.361 275.988 92.6707C276.18 94.804 274.034 95.9998 272.463 96.5947C271.792 96.8489 270.711 96.8119 270.13 97.1613C269.501 97.5393 269.746 98.0957 269.675 98.8276C269.57 99.8912 269.04 100.656 268.229 101.247C267.561 101.732 266.757 101.713 267.217 102.632C267.429 103.056 267.96 103.323 268.205 103.77C268.484 104.28 268.613 104.84 268.556 105.427C268.457 106.454 267.826 107.238 266.945 107.602C265.537 108.182 263.885 107.771 262.443 107.583C260.031 107.267 257.583 107.236 255.202 106.668C252.72 106.077 250.305 105.165 247.82 104.559C246.546 104.248 245.27 103.988 244.024 103.557C243.214 103.277 242.043 102.549 241.18 102.777C240.372 102.991 239.74 104.04 239.212 104.649C238.483 105.489 237.777 106.352 237.036 107.18C236.545 107.729 236.041 108.266 235.505 108.764C235.33 108.926 234.254 109.634 234.239 109.824C234.197 110.36 235.372 110.351 235.624 110.565C237.086 111.808 234.888 112.594 233.94 112.532C231.754 112.388 229.557 112.1 227.392 111.755C222.237 110.932 217.096 110.045 212.167 108.188C207.292 106.352 202.534 104.399 198.025 101.662C193.697 99.0346 189.51 96.0645 185.422 93.0288C183.438 91.5555 181.44 90.0291 179.765 88.1524C178.127 86.317 176.791 84.2097 175.433 82.1358C172.179 85.5141 169.048 89.0666 165.553 92.1635C162.229 95.1095 158.232 96.6833 154.365 98.5967C154.491 99.4661 158.27 99.9867 158.961 100.213C162.113 101.244 165.138 102.899 168.205 104.197C173.306 106.356 178.146 109.166 179.845 115.162C181.515 121.058 179.578 126.993 177.215 132.319C174.426 138.607 171.114 144.431 167.11 149.912C165.406 152.244 163.571 154.39 161.702 156.562C160.107 158.415 158.74 160.609 159.408 163.243C160.692 162.812 160.927 163.888 160.088 164.8C159.342 165.61 158.053 165.767 157.057 165.901C154.038 166.308 150.919 166.164 147.897 165.862C142.394 165.311 136.878 163.817 131.896 161.248C129.417 159.969 128.52 162.031 126.816 163.627C125.474 164.883 123.627 165.697 122.608 167.322C121.769 168.659 122.317 170.772 124.059 170.271C125.414 169.881 126.503 168.255 127.938 168.193C130.486 168.082 125.679 171.99 125.064 172.467C126.282 173.637 127.662 172.032 128.89 171.764C130.068 171.507 130.396 172.162 129.769 173.218C129.28 174.04 127.743 174.623 128.765 175.624C129.612 176.453 131.49 176.89 132.53 177.253C135.774 178.387 139.002 179.194 142.379 179.712C143.47 179.879 145.218 179.772 146.103 180.603C147.269 181.7 146.707 183.517 146.116 184.773C143.88 189.531 139.231 191.87 134.455 192.212C131.515 192.423 128.546 192.219 125.596 192.389C122.363 192.576 119.123 192.854 115.883 192.739C110.674 192.555 107.36 188.507 104.763 184.056C103.113 181.228 101.592 178.318 100.164 175.354C99.6061 174.197 98.4377 172.997 98.2389 171.697C98.0596 170.526 98.7546 169.586 99.4299 168.758C101.207 166.577 103.345 164.913 105.434 163.111C106.626 162.083 107.085 161.231 107.616 159.734C108.063 158.474 108.922 157.935 109.679 156.929C110.512 155.823 110.25 155.627 109.601 154.723C108.921 153.777 109.188 152.382 109.474 151.311C109.883 149.774 110.761 149.436 112.072 148.94C113.267 148.489 114.28 147.697 115.34 146.962C120.576 143.333 125.509 139.226 130.809 135.698C136.038 132.217 141.503 129.142 146.493 125.258C142.441 124.672 138.868 122.319 135.045 120.926C133.083 120.212 131.14 119.448 129.242 118.553C128.517 118.212 127.672 117.908 127.026 117.406C126.376 116.901 125.877 116.237 125.195 115.759C123.579 114.625 121.658 113.98 119.92 113.096C118.043 112.142 116.19 111.099 114.446 109.884C112.818 108.75 111.254 107.454 109.9 105.956C108.822 104.763 107.773 103.208 106.246 102.66C106.406 104.946 109.041 106.839 110.484 108.215C112.827 110.448 115.263 112.345 117.882 114.189C114.944 116.894 111.364 118.656 107.924 120.484C104.057 122.538 100.297 124.816 96.4452 126.902C93.182 128.67 89.749 130.032 86.4323 131.674C82.8539 133.446 79.1709 134.931 75.4373 136.279C72.0584 137.499 68.8775 138.8 65.6893 140.513C62.5899 142.177 59.2738 143.45 55.9582 144.519C52.2329 145.719 48.6789 146.861 45.0961 148.507C41.8654 149.99 38.6214 150.939 35.2023 151.746C34.073 152.012 32.6228 152.501 31.8318 151.325C31.2323 150.435 31.1421 149.061 30.97 148.013C30.3108 144.004 30.2586 139.93 29.6658 135.915C27.4152 136.645 25.2836 137.543 22.9092 137.659C21.4165 137.732 20.5095 137.897 20.1376 139.649C21.001 139.754 24.0863 139.8 24.1695 141.115C24.245 142.301 22.3782 142.313 21.7163 142.346C20.5317 142.403 19.4582 142.195 18.8259 143.441C19.7574 143.811 21.8226 143.137 22.235 144.484C22.7665 146.221 20.353 146.217 19.4845 146.357C17.9694 146.601 18.1251 147.88 18.2289 149.247C18.3655 151.046 18.469 152.848 18.6949 154.638C19.1778 158.462 20.0049 162.229 20.3965 166.068C20.7352 169.387 20.925 172.575 18.7182 175.22C17.8309 176.283 16.5975 177.507 15.2031 177.634C13.7879 177.762 13.8137 176.697 12.9327 175.912C12.3929 175.432 11.6779 175.334 11.0421 175.075C10.2686 174.759 9.51807 174.298 8.82309 173.82C7.54221 172.938 6.42258 171.844 5.51695 170.529C1.97516 165.385 0.708989 157.698 0.358169 151.46C0.13502 147.494 0.357613 143.522 0.696222 139.571C0.87857 137.442 1.06203 135.313 1.30155 133.192C1.37566 132.535 1.49972 131.876 1.5458 131.217C1.57216 130.839 1.40286 130.076 1.58215 129.714C1.35318 130.176 0.94768 129.835 0.544958 129.471C-0.286297 128.721 -0.030398 127.279 0.414233 126.293C1.75396 123.318 5.76896 123.203 8.38096 122.971C15.4021 122.35 22.0724 120.326 28.794 118.164C27.8454 116.637 29.3375 115.629 30.494 115.104C32.2775 114.295 34.1193 113.583 35.9195 112.811C39.9848 111.065 43.9653 109.438 48.2224 108.324C52.0783 107.316 55.8094 105.641 59.6138 104.414C63.5444 103.146 67.404 101.696 71.2702 100.219C78.9275 97.2934 86.5917 94.3042 94.0227 90.7553C95.9012 89.8581 97.6955 88.8181 99.5082 87.7804C100.981 86.9375 102.709 86.3193 103.958 85.1018C105.15 83.9391 105.863 82.3223 107.159 81.2664C108.326 80.3156 109.923 80.3024 110.889 79.1212C112.197 77.5245 113.757 76.8227 115.532 75.8862C116.102 75.5854 119.855 74.0656 119.779 73.2031C117.097 73.2031 114.344 74.0609 111.691 74.4604C108.886 74.8828 106.082 75.3527 103.256 75.5863C98.6772 75.9647 94.1002 75.8623 89.5403 75.3289C88.8589 75.2492 86.1254 74.6459 85.6541 75.4315C85.295 76.0303 86.1878 76.7431 86.1967 77.3863C86.21 78.3303 85.5023 78.8366 84.7007 78.5087C83.1404 77.8708 83.369 75.1677 83.5148 73.7959C83.7937 71.1719 84.4143 68.572 84.9566 66.0011C81.7374 67.7626 78.6804 70.0241 75.9083 72.5097C73.7609 74.4347 71.822 77.045 69.3021 78.4174C66.8827 79.7356 65.4442 78.6111 65.5433 75.7093C65.5888 74.3798 65.8394 73.118 66.2677 71.8799C66.47 71.2948 67.3013 69.6389 66.9119 69.0157C64.7006 70.9111 62.5041 72.8116 60.183 74.5516C58.5421 75.7818 56.1633 77.7002 54.0209 77.2121C52.1288 76.781 52.314 74.5427 52.9137 73.0348C53.4339 71.7268 54.3687 70.5647 55.2951 69.5658C56.0611 68.7403 57.1502 68.0004 57.5338 66.8559C54.9926 68.0836 52.3761 69.0127 49.7139 69.8755C47.8208 70.4889 46.4974 73.0369 44.2959 72.6604C42.0922 72.2836 42.9698 69.3558 43.8493 68.0827C44.4649 67.1921 45.3164 66.4077 46.1424 65.7496C46.9479 65.1075 48.1732 64.5481 48.5696 63.4797C45.995 63.9991 43.4066 64.9023 40.7574 64.7358C39.1843 64.6367 36.5582 63.8983 36.8687 61.6248C37.1832 59.3227 40.0347 59.1464 41.6381 58.7171C43.8243 58.1314 45.9165 57.0319 48.0261 56.1936C52.2818 54.5019 56.6203 53.145 60.9746 51.7966L62.3501 51.3707C67.2649 49.8479 72.2075 48.5509 77.1833 47.2859C79.6427 46.6605 82.0934 45.9785 84.5722 45.445C86.9702 44.9289 89.4068 44.6299 91.7865 44.0129C89.781 40.7585 92.2095 38.084 94.832 36.5353C93.1687 36.1737 91.4773 35.9562 89.8284 35.5179C88.4201 35.1437 87.0629 34.5688 85.6444 34.2376C83.2064 33.6687 80.7715 33.3694 78.6904 31.7464C74.7573 28.6793 74.4229 23.7985 77.7368 20.1052C81.0812 16.3775 85.9899 14.6322 90.7141 14.4588C96.0016 14.2649 102.018 15.3667 106.966 17.3794C109.396 18.3681 111.927 19.6251 114.01 21.309C115.427 22.4544 117.669 24.6491 119.571 24.6491C117.293 21.687 114.497 18.6238 114.085 14.6122C113.696 10.8141 115.298 6.77707 117.987 4.32041C123.36 -0.586928 132.227 -0.142678 138.814 0.180739ZM108.182 162.967C106.779 165.311 104.84 167.215 103.008 169.161C102.377 169.833 101.109 170.687 101.048 171.738C100.998 172.596 101.978 173.562 102.406 174.237C104.668 177.804 106.531 181.744 109.294 184.913C112.418 188.494 115.983 189.19 120.406 189.2C125.316 189.212 130.293 189.872 135.195 189.594C139.348 189.358 143.441 187.37 145.506 183.329C144.161 182.583 142.247 182.939 140.789 182.956C138.801 182.978 136.86 182.939 134.896 182.568C133.116 182.231 131.357 181.726 129.682 180.988C128.816 180.606 127.959 180.169 127.161 179.638C126.577 179.25 126.138 178.655 125.564 178.274C123.448 176.869 121.004 181.336 118.741 181.251C117.356 181.198 117.857 179.733 118.434 178.914C119.475 177.434 121.29 176.52 122.661 175.441C121.385 174.178 119.943 175.503 118.728 176.163C117.209 176.988 115.63 178 113.933 178.31C114.06 175.959 117.036 174.698 118.677 173.741C119.408 173.316 120.323 172.921 120.503 171.985C120.639 171.281 120.407 170.279 120.338 169.568C120.251 168.665 120.187 168.376 119.292 168.121C118.206 167.812 117.113 167.901 116.025 167.515C113.048 166.459 110.733 164.89 108.182 162.967ZM11.4427 125.908C10.7158 126.124 9.98137 126.312 9.24309 126.479C7.7818 126.811 6.31856 127.155 4.85227 127.456C4.11677 127.606 3.30012 127.511 3.08339 128.265C2.97196 128.652 3.25233 129.348 3.3004 129.749C3.38681 130.474 3.39237 131.209 3.40043 131.939C3.47712 138.662 2.16949 145.348 2.74522 152.071C3.23149 157.753 4.36962 164.938 8.25222 169.17C9.92802 170.997 11.9898 172.981 14.0999 174.229C15.754 175.207 18.0647 172.752 18.4026 171.052C18.6446 169.834 18.2409 168.548 17.978 167.374C17.641 165.87 17.2995 164.366 16.9658 162.86C16.2531 159.647 15.6051 156.404 15.4003 153.1C15.333 152.015 15.3475 150.97 15.4045 149.889C15.4353 149.302 15.6923 147.888 15.3105 147.386C14.8168 146.736 13.6886 147.161 13.0207 147.216C12.2882 147.277 11.5733 147.23 10.8578 147.029C9.15445 146.551 8.85602 145.095 10.7158 144.421C12.0142 143.95 14.3878 144.632 15.4786 143.727C16.7604 142.662 14.1699 142.516 13.565 142.488C12.7595 142.452 10.0878 142.678 10.2242 141.064C10.3251 139.868 12.625 139.788 13.4297 139.737C15.1488 139.629 17.3239 140.321 18.067 138.093C18.3648 137.2 16.5718 136.747 16.1219 136.304C15.0285 135.228 14.6701 133.383 14.5761 131.872C14.4836 130.386 15.8443 125.234 13.7712 125.098C13.1346 125.056 12.0765 125.719 11.4427 125.908ZM113.407 155.639C112.187 157.201 111.132 158.911 109.996 160.544C112.661 162.125 115.387 163.396 118.143 164.756C119.397 165.374 120.275 165.865 121.488 164.927C122.358 164.255 123.011 163.299 123.86 162.599C125.08 161.595 126.356 160.674 127.607 159.716C123.915 158.268 120.167 156.998 116.476 155.547C115.096 155.004 114.403 154.363 113.407 155.639ZM83.0096 150.678C83.7989 151.538 82.2791 153.923 81.9799 154.739C84.4277 154.53 86.8551 154.115 89.2588 153.581C90.0774 153.399 89.7757 154.471 89.4694 154.824C89.0907 155.261 88.3331 155.393 87.8266 155.549C85.9635 156.123 84.0524 156.4 82.1405 156.706C83.0155 157.864 85.1208 159.674 84.4429 161.415C83.2201 160.282 82.3409 158.774 80.9884 157.795C80.5977 158.422 79.787 160.633 78.8985 160.497C77.5036 160.285 78.9167 157.701 79.2084 157.079C78.2691 157.079 74.7397 157.965 74.2473 156.722C73.7434 155.451 77.1493 155.492 77.779 155.191L77.6616 155.037L77.5437 154.885C77.0729 154.274 76.6208 153.673 76.557 152.835C77.6103 153.225 78.3135 154.999 79.4709 155.025C80.5685 155.049 81.0583 153.277 81.4493 152.437C81.6717 151.96 82.4268 150.042 83.0096 150.678ZM201.774 133.956C204.134 136.096 202.531 140.412 200.745 142.352C198.744 144.526 194.29 146.522 191.754 144.307C190.366 143.094 190.867 141.244 191.209 139.631C191.589 137.838 191.825 136.327 193.206 135.097C195.355 133.183 199.38 131.785 201.774 133.956ZM196.984 135.199C194.681 135.726 192.348 138.199 191.801 140.747C191.083 144.089 194.311 144.334 196.437 143.831C199.111 143.199 201.953 141.091 202.089 137.784C202.207 134.93 198.772 134.791 196.984 135.199ZM29.4477 120.75C26 122.13 22.7593 124.017 19.142 124.836C18.0381 125.086 17.5847 125.359 17.3118 126.464C16.9294 128.012 16.5671 129.58 16.84 131.196C17.4067 134.553 21.7517 134.142 24.1645 134.01C25.4032 133.942 27.7857 134.186 28.8604 133.355C29.6454 132.748 29.316 131.61 29.1937 130.724C28.7362 127.412 29.2352 124.06 29.4477 120.75ZM217.421 88.7655C216.152 89.0228 213.957 90.135 215.777 91.5294C216.991 92.4591 218.798 92.5721 220.225 92.8018C223.011 93.2505 225.985 93.6381 228.403 95.3278C232.883 98.4586 232.334 104.367 230.994 109.202C231.96 109.813 234.795 105.818 235.329 105.168C237.495 102.532 239.67 99.9048 241.854 97.2859C242.789 96.1659 235.126 92.2971 234.437 91.9487C230.797 90.1078 227.399 88.8955 223.316 88.5795C221.38 88.4297 219.337 88.3773 217.421 88.7655ZM201.617 78.9658C201.269 79.9085 201.878 80.3358 202.438 80.9871C205.568 84.6273 207.772 89.7797 209.515 94.2987C210.384 96.5522 210.993 98.8245 211.531 101.185C212.059 103.502 213.736 104.121 215.746 104.779C220.375 106.293 225.247 106.801 229.892 108.297C231.137 108.697 231.381 105.756 231.459 105.01C231.682 102.888 231.475 100.672 230.438 98.8016C228.476 95.2649 224.545 94.5131 221.037 93.9106C219.032 93.5662 216.389 93.2106 214.802 91.7365C214.005 90.9966 213.893 90.1479 214.514 89.2287C215.647 87.552 217.641 87.3367 219.424 87.1999C220.292 87.1333 225.666 87.7174 225.842 87.0337C223.166 86.0964 220.419 85.4781 217.782 84.4061C215.725 83.5697 213.652 82.7798 211.577 81.9969L209.501 81.2149C207.39 80.4191 205.457 79.4511 203.432 78.493C202.671 78.1334 201.973 77.9999 201.617 78.9658ZM247.008 94.3036C246.338 95.2726 245.673 96.086 245.171 97.1746C244.585 98.4446 243.612 99.2546 242.799 100.345C247.021 101.146 251.049 102.163 255.117 103.63C257.205 104.384 259.363 104.756 261.499 105.295C263.291 105.748 265.201 106.45 267.057 106.035C264.943 102.904 259.306 103.769 257.822 99.9771C256.812 97.3975 259.294 95.3399 261.324 94.892C264.868 94.1101 268.647 94.0499 272.247 93.7713C272.285 92.2905 259.216 91.5238 257.924 91.4039C255.629 91.1904 253.235 90.728 250.944 90.6426C248.819 90.5633 248.124 92.6908 247.008 94.3036ZM197.138 83.4734C195.879 84.7815 194.647 86.1182 193.389 87.428C192.563 88.2892 191.443 89.2063 190.791 90.2323C189.959 91.5422 191.416 92.1719 192.387 92.7918C194.839 94.3569 197.372 95.818 199.867 97.3067C202.108 98.6443 204.438 100.347 206.912 101.129C208.235 101.548 209.477 102.197 210.753 102.747C210.138 96.8076 206.966 91.4134 204.04 86.4623C203.369 85.3253 202.675 84.2042 202.003 83.0676C201.665 82.4954 201.037 81.145 200.328 81.0284C199.279 80.8558 197.774 82.8127 197.138 83.4734ZM261.276 98.5889C262.81 99.5333 264.347 100.013 266.076 99.2997C266.501 99.1131 266.923 98.9157 267.339 98.7079C266.187 97.0183 262.778 98.048 261.276 98.5889ZM134.277 77.9208C131.559 79.2382 128.652 80.5505 126.288 82.5381C125.415 83.2718 123.465 84.8132 123.922 86.2112C124.312 87.4082 126.471 88.4276 127.496 88.7924C132.888 90.7111 139.024 89.3153 143.989 92.8365C145.333 93.7895 145.771 95.035 146.769 96.288C147.672 97.4212 148.814 97.2805 150.027 96.8103C151.62 96.1928 153.088 95.247 154.687 94.6409C155.505 94.3309 156.894 94.1255 156.979 92.9392C157.379 87.3477 156.269 80.2241 151.685 76.8028C146.538 72.9624 139.438 75.4199 134.277 77.9208ZM131.362 90.9509C131.231 91.6598 136.332 92.9434 136.886 93.1075C139.967 94.0198 142.845 96.1886 146.036 96.5383C146.59 95.2081 142.171 93.0901 141.472 92.8171C138.282 91.5716 134.712 91.3458 131.362 90.9509ZM231.54 88.4676C235.407 90.1715 239.156 92.2578 242.398 95.1588C243.516 96.1592 246.233 91.4114 246.841 90.6835C241.69 90.4533 236.613 89.3967 231.54 88.4676ZM159.254 55.0693C155.668 57.6158 152.546 60.9453 148.609 62.8975C149.841 63.1059 151.186 62.2486 152.362 61.9479C153.508 61.6552 154.666 61.462 155.781 61.0475C156.466 60.7929 159.295 59.1489 159.826 60.2632C160.656 62.0036 154.813 63.2077 153.983 63.5046C151.177 64.5069 148.39 65.5568 145.614 66.6475C142.924 67.7039 140.237 68.8408 137.458 69.5995C134.635 70.3701 131.643 70.5687 128.929 71.7654C126.529 72.8236 124.467 74.5751 122.153 75.8111C119.831 77.0506 117.193 77.8174 115.192 79.662C117.368 82.1581 119.941 84.2484 122.756 85.8396C123.207 82.0331 127.357 79.8657 130.196 78.4025C136.386 75.2126 145.682 70.4025 151.991 75.8081C156.602 79.7588 157.227 87.2552 157.227 93.1238C158.475 92.6962 159.616 92.0161 160.776 91.3741C161.58 90.9293 161.589 89.6906 161.69 88.8634C161.855 87.5086 162.196 86.1966 162.587 84.8969C163.453 82.022 164.537 79.2171 165.569 76.4087C167.241 71.8654 169.301 67.3847 170.328 62.6051C170.998 59.4857 171.796 54.1242 168.298 52.5759C165.271 51.2365 161.711 53.3241 159.254 55.0693ZM143.596 42.3729C143.011 42.7941 143.23 44.0577 143.269 44.6917C143.414 46.9971 143.324 49.3121 143.395 51.6217C143.483 54.4358 143.502 59.5962 146.201 61.1742C148.047 62.2533 150.343 60.6363 151.816 59.535C154.309 57.6726 156.596 55.5096 159.124 53.6913C162.12 51.5358 167.797 48.5539 170.664 52.6089C172.216 54.8036 171.998 58.0738 171.611 60.6273C171.1 63.9963 169.907 67.1916 168.721 70.3401C166.271 76.8414 163.715 83.4484 162.353 90.3301C165.458 88.3458 167.874 85.4861 170.584 82.9738C172.593 81.1116 175.576 78.9731 176.04 75.9384C176.145 75.253 176.762 74.7646 177.187 74.3061C177.739 73.7094 178.128 73.1049 178.478 72.3437C179.251 70.6622 179.753 68.846 180.069 67.006C180.733 63.1456 180.417 59.3031 179.805 55.4654C179.528 53.7298 179.934 51.8677 179.558 50.176C179.296 49.0014 178.525 49.0709 177.5 48.8037C173.806 47.8416 170.105 46.9088 166.408 45.9556C164.907 45.5682 163.275 44.8416 161.716 44.8658C160.436 44.8858 159.362 45.7058 158.257 46.2998C156.445 47.2751 153.563 48.9814 151.481 48.0115C149.055 46.8813 151.882 44.3296 150.666 43.1224C149.831 42.2947 147.339 42.7911 146.208 42.5854C145.588 42.4729 144.165 41.9633 143.596 42.3729ZM181.769 75.7104C180.005 76.0094 178.983 76.8321 178.012 78.4463C177.024 80.0869 176.907 80.8993 178.315 82.1833C179.833 83.5678 181.422 84.9353 183.034 86.1822C185.077 87.7626 187.344 88.9591 189.363 90.5781C190.247 91.2872 194.261 85.7282 194.958 84.966C195.919 83.9144 196.905 82.8599 197.936 81.8919C198.312 81.5383 199.493 80.718 199.494 80.1164C199.495 78.5958 196.359 77.2353 195.349 76.8166C193.088 75.879 190.717 75.5005 188.308 75.4613C186.172 75.4266 183.885 75.3516 181.769 75.7104ZM189.631 69.0213C187.975 69.9667 186.244 70.7635 184.578 71.6893C183.986 72.0176 180.258 73.7014 180.446 74.7079C184.642 74.4221 188.819 73.6587 193.002 74.5319C194.88 74.9243 196.67 75.5817 198.239 76.795C199.428 77.7133 200.334 79.4781 201.515 77.9074C199.105 76.4393 196.935 74.4934 194.798 72.6041C193.863 71.7769 192.9 70.9991 191.951 70.1945C191.386 69.716 190.455 68.551 189.631 69.0213ZM90.3869 47.0399C89.0744 47.2381 87.795 47.6119 86.506 47.9328C81.284 49.2332 76.0422 50.4007 70.834 51.7768C60.4456 54.5213 49.7466 57.1677 39.841 61.5647C40.6738 62.5545 42.8808 61.8375 43.9144 61.6434C45.9378 61.2634 47.9012 60.5992 49.9002 60.0979C51.8554 59.6079 53.8177 59.0234 55.789 58.6148C56.697 58.4267 58.2985 58.1789 58.3351 59.6424C58.387 61.7171 54.6378 63.2685 53.2617 64.0269C51.7902 64.8378 50.3656 65.734 48.9648 66.6769C47.8574 67.4224 45.8152 68.4161 45.456 69.8977C49.0497 68.261 52.6455 66.6308 56.2169 64.9388C57.5622 64.3014 58.9253 63.7009 60.206 62.9232C61.0599 62.4047 62.1589 61.4948 63.17 61.4131C64.5392 61.3023 64.7661 62.6389 64.1892 63.7172C63.4673 65.0672 61.9775 65.8288 60.8818 66.7735C59.4849 67.9781 58.2486 69.3991 56.9909 70.7627C55.9468 71.8946 54.6023 73.0089 54.0574 74.5392C55.9343 75.2141 58.0669 73.0508 59.4461 71.9816C61.6134 70.3012 63.6321 68.4735 65.6998 66.6576C66.7576 65.7287 68.0186 64.2242 69.4107 63.9469C71.1751 63.5951 71.0289 65.7637 70.601 66.9592C69.6448 69.6312 67.4059 71.8589 67.2459 74.8711C67.1475 76.7257 68.6084 76.0196 69.5832 75.2759C71.2247 74.0231 72.3357 72.1142 73.8255 70.6774C77.413 67.2171 81.5197 64.2652 85.9575 62.2154C86.7517 61.8484 87.0374 60.5315 87.2789 59.7399C87.6392 58.5584 88.0538 57.4129 88.487 56.2581C89.436 53.7288 90.2142 50.995 91.544 48.6585C91.9147 48.0068 92.8715 47.3427 92.08 46.9594C91.6499 46.7513 90.8312 46.9727 90.3869 47.0399ZM128.271 42.7611C126.926 42.9299 125.566 42.9144 124.219 43.0671C122.021 43.3162 122.98 46.1909 122.626 47.923C121.583 53.022 116.556 53.9848 112.747 51.5793C110.603 50.2256 109.317 48.2856 108.164 46.0162C107.507 44.7224 107.018 44.5143 105.659 44.8381C104.726 45.0605 103.877 45.0133 102.928 45.0872C101.734 45.1803 101.63 45.4525 101.605 46.6742C101.584 47.7593 101.439 48.511 100.767 49.3899C99.4861 51.0642 97.3388 52.1664 95.5095 53.0077C93.6768 53.8508 91.6009 54.4774 90.5943 56.4698C90.087 57.4745 89.5433 58.6737 89.3964 59.8157C89.2359 61.0632 89.6297 61.8372 88.953 62.988C87.5463 65.3805 86.9015 67.9951 86.1904 70.7141C85.9585 71.5998 85.8669 71.9643 86.7663 72.2077C88.0566 72.5573 89.8893 72.0268 91.2135 71.9711C92.1582 71.9313 92.7099 70.1406 93.0171 69.4149C93.6141 68.004 94.346 66.6681 95.0791 65.3328C96.7404 62.3078 98.5167 59.3029 100.687 56.6599C102.325 54.6651 104.743 52.1819 106.84 54.985C108.884 57.7168 110.357 60.9164 112.815 63.2976C114.977 65.3921 117.205 65.4256 119.447 63.4406C121.655 61.4864 123.333 58.8202 124.705 56.1599C126.189 53.2832 127.308 50.212 128.754 47.318C129.207 46.4109 131.3 43.9571 130.663 42.9061C130.232 42.1962 128.875 42.6855 128.271 42.7611ZM139.528 42.1337C138.345 42.1938 137.155 42.0509 135.971 42.0254C133.83 41.98 132.039 42.0604 130.963 44.2668C130.014 46.2138 129.205 48.2853 128.339 50.279C126.457 54.6104 124.61 59.0422 121.721 62.7279C119.161 65.9931 115.854 67.6382 112.523 64.5189C111.047 63.1358 109.925 61.3514 108.866 59.5975C108.016 58.1914 107.047 55.7168 105.624 54.8971C104.037 53.9833 102.22 56.0796 101.251 57.2171C99.6197 59.1295 98.2567 61.3786 96.9476 63.5503C95.9982 65.1253 95.0891 66.7336 94.1664 68.3272C93.7925 68.9734 92.2688 71.087 92.776 71.892C93.2845 72.6992 95.7664 72.1474 96.4846 72.0736C98.1992 71.8977 99.9117 71.8343 101.627 71.6755C106.963 71.1821 112.22 69.9217 117.57 69.5852C121.094 69.3633 124.566 68.631 128.035 67.9656C131.408 67.3188 134.803 66.8774 138.14 66.0224C140.102 65.5197 142.067 65.0165 144.025 64.4949C144.703 64.3146 147.906 63.8227 148.105 62.8759C145.899 62.462 144.742 61.5425 143.96 59.2294C142.98 56.3326 142.866 53.1041 142.783 50.0517C142.751 48.8776 142.746 47.7028 142.745 46.5282L142.745 45.1187C142.745 44.2763 143.083 42.7476 142.377 42.1633C141.723 41.6226 140.286 42.0948 139.528 42.1337ZM183.306 60.8409C183.398 64.658 182.764 68.5052 181.305 71.9927C182.831 72.2554 184.645 70.1976 185.925 69.5084C186.418 69.2427 189.682 67.9675 188.589 66.9926C186.578 65.1996 185.26 62.6945 183.306 60.8409ZM227.054 63.945C227.501 64.8942 226.949 66.0989 226.649 66.9993C228.977 67.6006 231.296 68.1914 233.641 68.7019C235.409 69.0866 234.792 70.2264 233.258 70.1479C231.124 70.0386 229.138 69.0667 227.015 68.9405C224.992 68.8202 224.754 70.7188 223.03 71.0845C223.088 70.0398 223.874 69.3143 224.439 68.5308C223.508 68.0173 222.557 67.5401 221.655 66.9744C221.187 66.6815 219.895 65.4529 220.392 64.8001C220.895 64.1412 222.211 65.376 222.68 65.6479C223.346 66.0346 224.675 66.8868 225.459 66.6424C226.532 66.3074 226.309 64.6509 227.054 63.945ZM193.512 39.0738C192.567 39.1443 191.54 38.8027 190.645 39.2496C189.754 39.6952 188.689 40.6708 187.943 41.3473C187.221 42.0023 186.862 42.7976 185.964 43.1842C185.067 43.5708 184.149 43.5366 183.803 44.7155C184.617 44.9554 186.214 44.6372 186.851 45.2802C187.778 46.2159 186.161 47.2454 185.49 47.5399C184.527 47.9621 183.74 47.8251 182.757 47.7459C182.329 47.7117 182.333 47.5702 181.982 47.7981C180.681 48.6432 181.581 51.6497 182.003 52.7464C184.067 58.1145 191.119 56.3068 195.186 55.7571C193.892 54.3553 191.773 52.8091 191.666 50.6075C191.634 49.952 191.785 48.7803 192.568 48.7257C193.194 48.6822 193.945 49.6988 194.335 50.0995C195.49 51.2871 196.985 53.2565 198.657 53.4269C200.89 53.6548 202.609 49.7648 203.536 48.0683C202.397 47.8383 201.149 47.8518 200.488 46.6507C199.701 45.2232 199.687 43.0361 199.701 41.4289C199.713 40.0605 200.118 38.5634 198.417 38.4962C196.849 38.4344 195.094 38.956 193.512 39.0738ZM43.5097 42.5837C43.1842 43.347 41.7699 43.6462 41.149 43.8503C38.7871 44.6259 36.4808 45.6111 34.1781 46.5773C29.5294 48.5283 24.9315 50.6832 20.6865 53.5502C19.8932 54.0864 20.2818 53.0523 20.4879 52.6795C20.9498 51.8434 21.9204 51.252 22.6454 50.7399C24.607 49.3538 26.6848 48.3801 28.8539 47.4529C33.1943 45.5978 37.6008 43.6308 42.052 42.1281C42.5685 41.9539 43.947 41.5581 43.5097 42.5837ZM97.4247 46.3636C96.5618 46.4595 95.551 46.2486 94.7211 46.5513C93.6396 46.9459 93.818 47.7441 93.4979 48.7256C92.9551 50.3917 92.374 52.0439 91.8075 53.7014C93.9044 53.5962 95.9127 51.8116 97.6898 50.7843C98.6959 50.2028 102.193 48.2728 101.139 46.5059C100.471 45.3876 98.3829 46.2567 97.4247 46.3636ZM121.289 43.4588C119.991 43.4337 118.563 43.8562 117.249 43.9264C115.487 44.0206 113.752 44.381 111.992 44.468C110.834 44.5255 109.698 44.7813 108.552 44.9489C109.692 47.7873 111.916 50.27 114.711 51.2982C116.916 52.1093 120.001 52.247 121.508 50.0026C122.375 48.7115 123.79 43.5074 121.289 43.4588ZM188.901 31.7344C187.485 32.7457 186.35 34.1947 185.168 35.4875C182.205 38.7255 179.139 42.1921 177.857 46.6306C177.681 47.2387 179.017 47.7759 179.378 47.7995C180.142 47.8491 180.297 47.4349 180.597 46.7408C181.34 45.0224 181.624 43.1027 182.812 41.6376C184.259 39.8511 186.001 38.1094 187.681 36.5746C188.823 35.5317 191.62 34.0633 191.948 32.3392C192.336 30.3009 189.758 31.1222 188.901 31.7344ZM152.379 43.5289C151.578 43.7793 151.514 44.5758 151.331 45.434C150.595 48.8822 158.039 45.1201 159.075 44.5564C158.731 43.4494 155.338 43.6513 154.553 43.6078C153.941 43.5743 152.97 43.3439 152.379 43.5289ZM196.347 45.3199C195.244 45.3657 195.753 40.5218 197.007 41.0089C198.082 41.4271 197.054 45.2902 196.347 45.3199ZM41.2845 39.7505C39.5956 41.3178 36.944 41.528 34.8441 42.0311C31.7498 42.7725 28.6825 43.7173 25.6132 44.5699C23.6751 45.1083 24.7662 43.8245 25.7366 43.3421C27.4051 42.5126 29.2941 42.0705 31.0774 41.6142C33.0081 41.1201 34.981 40.7902 36.9007 40.2512C38.2299 39.8778 39.9442 38.9227 41.2845 39.7505ZM93.8282 6.06375C95.7051 6.43433 97.5787 7.07972 99.2241 8.13691C100.586 9.01206 100.532 10.3737 98.8054 9.58364C90.7505 5.89744 80.7555 8.13039 72.8898 11.3944C72.022 11.7543 72.0865 10.969 72.3489 10.3636C72.71 9.52969 73.4818 9.04556 74.2227 8.65838C76.4489 7.49447 79.0151 6.83633 81.4357 6.3528C85.4698 5.54702 89.775 5.2639 93.8282 6.06375ZM95.0053 0.769126C96.0286 1.06761 97.2046 1.80794 97.8305 2.74705C98.5632 3.8461 97.9806 4.40783 96.964 3.76147C95.8293 3.04011 94.7919 2.32087 93.4898 1.93986C92.8023 1.73896 92.8301 1.27543 93.3239 0.868519C93.786 0.487511 94.5036 0.622746 95.0053 0.769126Z" fill="black"/>
</svg>
