<svg width="232" height="293" viewBox="0 0 232 293" fill="none" xmlns="http://www.w3.org/2000/svg">
<rect x="2.5" y="2.5" width="207" height="262" rx="17.5" fill="url(#paint0_linear)" stroke="white" stroke-width="5"/>
<g filter="url(#filter0_d)">
<rect x="27" y="24" width="201" height="261" rx="20" fill="#FFC1C7"/>
</g>
<path d="M74.92 48.12C77.48 48.12 78.76 49.352 78.76 51.816C78.76 53.592 78.704 56.088 78.592 59.304L80.296 59.424V60H74.944V59.424L76.24 59.328C76.352 55.104 76.408 52.544 76.408 51.648C76.408 50.736 76.24 50.056 75.904 49.608C75.568 49.16 75.024 48.936 74.272 48.936C73.52 48.936 72.824 49.256 72.184 49.896C71.544 50.52 71.112 51.192 70.888 51.912C70.888 53.64 70.832 56.104 70.72 59.304L72.424 59.424V60H67.072V59.424L68.368 59.328C68.48 55.104 68.536 52.544 68.536 51.648C68.536 50.736 68.368 50.056 68.032 49.608C67.696 49.16 67.112 48.936 66.28 48.936C65.464 48.936 64.696 49.376 63.976 50.256C63.256 51.12 62.896 51.888 62.896 52.56V59.304L64.696 59.424V60H58.984V59.424L60.544 59.328V49.152L58.504 49.056V48.504L62.8 48.216L62.68 50.688H62.92C63.352 49.84 63.928 49.2 64.648 48.768C65.384 48.336 66.184 48.12 67.048 48.12C69.208 48.12 70.456 48.984 70.792 50.712V50.688C71.224 49.84 71.8 49.2 72.52 48.768C73.256 48.336 74.056 48.12 74.92 48.12ZM85.8681 44.376C85.8681 44.76 85.7321 45.096 85.4601 45.384C85.1881 45.656 84.8441 45.792 84.4281 45.792C84.0281 45.792 83.6921 45.656 83.4201 45.384C83.1481 45.112 83.0121 44.776 83.0121 44.376C83.0121 43.96 83.1481 43.616 83.4201 43.344C83.6921 43.056 84.0281 42.912 84.4281 42.912C84.8281 42.912 85.1641 43.056 85.4361 43.344C85.7241 43.632 85.8681 43.976 85.8681 44.376ZM81.7881 60V59.424L83.3721 59.304V49.104L81.2601 49.032V48.48L85.7241 48.168V59.304L87.3081 59.424V60H81.7881ZM92.7788 50.832C93.4988 48.976 94.9468 48.048 97.1228 48.048C98.2108 48.048 99.0908 48.376 99.7628 49.032C100.435 49.672 100.771 50.592 100.771 51.792C100.771 53.856 100.707 56.36 100.579 59.304L102.235 59.424V60H96.9308V59.424L98.2268 59.328C98.3548 55.712 98.4188 53.64 98.4188 53.112C98.4188 52.584 98.4108 52.184 98.3948 51.912C98.3788 51.624 98.3308 51.28 98.2508 50.88C98.1868 50.464 98.0828 50.136 97.9388 49.896C97.5868 49.304 97.0348 49.008 96.2828 49.008C95.2588 49.008 94.4188 49.432 93.7628 50.28C93.1068 51.128 92.7788 52.048 92.7788 53.04V59.304L94.5788 59.424V60H88.8428V59.424L90.4268 59.304V49.152L88.3868 49.056V48.504L92.6828 48.216L92.5628 50.808L92.7788 50.832ZM112.989 56.328V49.728C112.221 49.136 111.269 48.84 110.133 48.84C108.709 48.84 107.733 49.424 107.205 50.592C106.773 51.584 106.557 52.936 106.557 54.648C106.557 57.96 107.453 59.616 109.245 59.616C110.253 59.616 111.125 59.232 111.861 58.464C112.613 57.696 112.989 56.984 112.989 56.328ZM108.789 60.36C107.413 60.36 106.253 59.872 105.309 58.896C104.365 57.904 103.893 56.432 103.893 54.48C103.893 52.512 104.461 50.96 105.597 49.824C106.749 48.688 108.277 48.12 110.181 48.12C111.173 48.12 112.109 48.352 112.989 48.816V42.768L110.877 42.672L110.853 42.12L115.293 41.616V59.448L117.333 59.544L117.357 60.096L113.109 60.384L113.157 58.08H113.013C112.629 58.8 112.045 59.36 111.261 59.76C110.477 60.16 109.653 60.36 108.789 60.36ZM119.908 48.912H118.228V48.288H119.908V47.928C119.908 45.8 120.356 44.2 121.252 43.128C122.148 42.056 123.428 41.52 125.092 41.52C126.084 41.52 126.908 41.712 127.564 42.096C128.236 42.464 128.572 42.968 128.572 43.608C128.572 44.232 128.356 44.688 127.924 44.976C127.668 45.152 127.412 45.24 127.156 45.24C126.916 45.24 126.684 45.192 126.46 45.096C126.556 44.648 126.604 44.216 126.604 43.8C126.604 43.384 126.46 43.016 126.172 42.696C125.884 42.376 125.484 42.216 124.972 42.216C124.46 42.216 124.02 42.36 123.652 42.648C123.3 42.92 123.036 43.248 122.86 43.632C122.684 44 122.548 44.496 122.452 45.12C122.324 45.952 122.26 47.008 122.26 48.288H125.884V48.912H122.26V59.304L124.948 59.424L124.972 60H118.3L118.276 59.424L119.908 59.328V48.912ZM132.201 60.288C129.641 60.288 128.361 59.056 128.361 56.592C128.361 54.784 128.417 52.272 128.529 49.056L126.609 48.96V48.408L130.881 48.144C130.769 52.368 130.713 55.24 130.713 56.76C130.713 57.672 130.881 58.352 131.217 58.8C131.553 59.248 132.113 59.472 132.897 59.472C133.697 59.472 134.449 59.032 135.153 58.152C135.857 57.256 136.209 56.472 136.209 55.8V49.056L134.217 48.96V48.408L138.561 48.144V59.256L140.601 59.352L140.625 59.904L136.305 60.192L136.473 57.6H136.185C135.353 59.392 134.025 60.288 132.201 60.288ZM147.066 60H141.546V59.424L143.13 59.304V42.768L140.994 42.672V42.12L145.482 41.616V59.304L147.066 59.424V60ZM152.615 50.832C153.335 48.976 154.783 48.048 156.959 48.048C158.047 48.048 158.927 48.376 159.599 49.032C160.271 49.672 160.607 50.592 160.607 51.792C160.607 53.856 160.543 56.36 160.415 59.304L162.071 59.424V60H156.767V59.424L158.063 59.328C158.191 55.712 158.255 53.64 158.255 53.112C158.255 52.584 158.247 52.184 158.231 51.912C158.215 51.624 158.167 51.28 158.087 50.88C158.023 50.464 157.919 50.136 157.775 49.896C157.423 49.304 156.871 49.008 156.119 49.008C155.095 49.008 154.255 49.432 153.599 50.28C152.943 51.128 152.615 52.048 152.615 53.04V59.304L154.415 59.424V60H148.679V59.424L150.263 59.304V49.152L148.223 49.056V48.504L152.519 48.216L152.399 50.808L152.615 50.832ZM169.225 60.264C167.577 60.264 166.249 59.704 165.241 58.584C164.233 57.464 163.729 55.984 163.729 54.144C163.729 52.304 164.257 50.824 165.313 49.704C166.385 48.584 167.729 48.024 169.345 48.024C170.961 48.024 172.169 48.392 172.969 49.128C173.769 49.848 174.169 50.856 174.169 52.152C174.169 52.536 174.137 52.92 174.073 53.304H166.321V54.144C166.321 55.936 166.577 57.296 167.089 58.224C167.601 59.136 168.441 59.592 169.609 59.592C171.257 59.592 172.529 58.872 173.425 57.432C173.777 57.544 173.953 57.712 173.953 57.936C173.953 58.336 173.585 58.8 172.849 59.328C172.497 59.584 172.001 59.808 171.361 60C170.721 60.176 170.009 60.264 169.225 60.264ZM171.889 51.648C171.889 50.912 171.737 50.28 171.433 49.752C171.017 49.048 170.345 48.696 169.417 48.696C167.689 48.696 166.681 49.944 166.393 52.44H171.841C171.873 52.168 171.889 51.904 171.889 51.648ZM180.682 59.664C181.322 59.664 181.874 59.488 182.338 59.136C182.818 58.784 183.058 58.192 183.058 57.36C183.058 56.8 182.802 56.336 182.29 55.968C181.794 55.6 181.17 55.272 180.418 54.984C179.666 54.68 179.154 54.472 178.882 54.36C178.626 54.232 178.282 54.032 177.85 53.76C177.066 53.232 176.674 52.472 176.674 51.48C176.674 50.488 177.066 49.664 177.85 49.008C178.634 48.352 179.778 48.024 181.282 48.024C182.242 48.024 183.058 48.24 183.73 48.672C184.418 49.088 184.762 49.592 184.762 50.184C184.762 50.776 184.538 51.184 184.09 51.408C183.85 51.52 183.61 51.576 183.37 51.576C183.146 51.576 182.922 51.528 182.698 51.432C182.762 51.144 182.794 50.832 182.794 50.496C182.794 50.16 182.714 49.824 182.554 49.488C182.282 48.912 181.762 48.624 180.994 48.624C180.226 48.624 179.642 48.832 179.242 49.248C178.842 49.664 178.642 50.208 178.642 50.88C178.642 51.568 178.93 52.08 179.506 52.416C179.938 52.688 180.474 52.936 181.114 53.16C181.754 53.384 182.186 53.544 182.41 53.64C182.65 53.72 182.962 53.864 183.346 54.072C183.73 54.28 184.018 54.496 184.21 54.72C184.706 55.264 184.954 56 184.954 56.928C184.954 57.856 184.538 58.648 183.706 59.304C182.874 59.944 181.858 60.264 180.658 60.264C179.458 60.264 178.402 60.08 177.49 59.712C176.594 59.344 176.146 58.808 176.146 58.104C176.146 57.448 176.634 57.016 177.61 56.808C177.898 58.712 178.922 59.664 180.682 59.664ZM191.487 59.664C192.127 59.664 192.679 59.488 193.143 59.136C193.623 58.784 193.863 58.192 193.863 57.36C193.863 56.8 193.607 56.336 193.095 55.968C192.599 55.6 191.975 55.272 191.223 54.984C190.471 54.68 189.959 54.472 189.687 54.36C189.431 54.232 189.087 54.032 188.655 53.76C187.871 53.232 187.479 52.472 187.479 51.48C187.479 50.488 187.871 49.664 188.655 49.008C189.439 48.352 190.583 48.024 192.087 48.024C193.047 48.024 193.863 48.24 194.535 48.672C195.223 49.088 195.567 49.592 195.567 50.184C195.567 50.776 195.343 51.184 194.895 51.408C194.655 51.52 194.415 51.576 194.175 51.576C193.951 51.576 193.727 51.528 193.503 51.432C193.567 51.144 193.599 50.832 193.599 50.496C193.599 50.16 193.519 49.824 193.359 49.488C193.087 48.912 192.567 48.624 191.799 48.624C191.031 48.624 190.447 48.832 190.047 49.248C189.647 49.664 189.447 50.208 189.447 50.88C189.447 51.568 189.735 52.08 190.311 52.416C190.743 52.688 191.279 52.936 191.919 53.16C192.559 53.384 192.991 53.544 193.215 53.64C193.455 53.72 193.767 53.864 194.151 54.072C194.535 54.28 194.823 54.496 195.015 54.72C195.511 55.264 195.759 56 195.759 56.928C195.759 57.856 195.343 58.648 194.511 59.304C193.679 59.944 192.663 60.264 191.463 60.264C190.263 60.264 189.207 60.08 188.295 59.712C187.399 59.344 186.951 58.808 186.951 58.104C186.951 57.448 187.439 57.016 188.415 56.808C188.703 58.712 189.727 59.664 191.487 59.664Z" fill="#FF5374"/>
<mask id="mask0" mask-type="alpha" maskUnits="userSpaceOnUse" x="27" y="24" width="201" height="261">
<rect x="27" y="24" width="201" height="261" rx="20" fill="#FFC1C7"/>
</mask>
<g mask="url(#mask0)">
<path d="M135.303 304.48C236.538 304.48 318.605 287.632 318.605 266.849C318.605 246.065 236.538 229.217 135.303 229.217C34.0674 229.217 -48 246.065 -48 266.849C-48 287.632 34.0674 304.48 135.303 304.48Z" fill="#C3DFE9" stroke="#DBECF2" stroke-width="12"/>
<path d="M-46.3028 266.849H322" stroke="#DBECF2" stroke-width="10"/>
<path fill-rule="evenodd" clip-rule="evenodd" d="M141.057 150.972L139.341 150.274C134.518 155.59 127.455 156.185 118.152 152.06C127.056 157.758 133.41 159.821 137.212 158.248C141.015 156.675 142.296 154.25 141.057 150.972Z" fill="#E85D5D"/>
<path fill-rule="evenodd" clip-rule="evenodd" d="M166.445 209.431C166.407 204.901 166.203 198.893 165.587 193.118C163.626 174.726 156.576 154.509 145.29 152.233C132.394 149.633 147.698 177.041 150.999 187.145C154.224 197.014 156.105 202.778 158.874 212.194C158.984 212.566 158.972 212.974 159.028 213.376C160.705 210.815 166.445 209.431 166.445 209.431Z" fill="#894730"/>
<g style="mix-blend-mode:overlay">
<path fill-rule="evenodd" clip-rule="evenodd" d="M160.51 199.489C160.164 183.938 157.359 166.079 140.431 158.76C141.786 166.985 148.876 180.645 150.999 187.146C154.054 196.495 155.905 202.166 158.446 210.744C160.328 209.843 160.518 204.457 160.51 199.489Z" fill="black" fill-opacity="0.15"/>
</g>
<path fill-rule="evenodd" clip-rule="evenodd" d="M197.832 228.002C185.527 223.537 173.635 223.27 153.106 222.889C139.781 222.642 137.862 247.291 141.131 251.979C158.239 250.458 186.563 251.721 201.73 249.437C209.324 242.113 211.543 232.977 197.832 228.002Z" fill="#894730"/>
<path fill-rule="evenodd" clip-rule="evenodd" d="M140.053 239.963C139.365 245.235 139.849 250.141 141.131 251.98C158.238 250.458 186.562 251.72 201.73 249.437C203.424 247.803 203.426 246.054 203.27 243.873C203.297 237.339 198.753 236.395 192.834 235.616C169.16 234.837 156.987 242.566 140.053 239.963Z" fill="black"/>
<path fill-rule="evenodd" clip-rule="evenodd" d="M203.423 235.727C201.162 231.544 194.843 232.997 188.571 233.295C187.261 235.682 185.431 236.128 179.404 238.151C169.705 241.406 159.394 253.456 155.7 255.304C146.992 259.66 136.743 265.705 131.148 267.923C129.248 272.041 128.488 273.473 133.47 279.855C149.306 270.246 186.415 257.99 200.389 250.505C200.531 250.429 200.67 250.36 200.807 250.298C206.389 246.781 204.412 237.949 203.423 235.727Z" fill="#894730"/>
<g style="mix-blend-mode:overlay">
<path fill-rule="evenodd" clip-rule="evenodd" d="M203.423 235.727C201.162 231.544 194.843 232.997 188.571 233.295C187.261 235.682 185.431 236.128 179.404 238.151C169.705 241.406 159.394 253.456 155.7 255.304C146.992 259.66 136.743 265.705 131.148 267.923C129.248 272.041 128.488 273.473 133.47 279.855C149.306 270.246 186.415 257.99 200.389 250.505C200.531 250.429 200.67 250.36 200.807 250.298C206.389 246.781 204.412 237.949 203.423 235.727Z" fill="black" fill-opacity="0.15"/>
</g>
<path fill-rule="evenodd" clip-rule="evenodd" d="M125.869 229.375C138.861 234.484 139.443 246.686 139.057 251.773C137.331 253.398 115.571 257.94 104.736 258.362C87.3832 259.039 76.9292 261.085 72.6856 261.571C72.07 261.641 66.21 258.961 64.4313 255.518C62.2628 250.22 64.3832 246.886 67.4897 244.357C70.5957 241.827 100.007 231.498 105.753 230.205C110.006 229.25 117.052 227.189 125.869 229.375Z" fill="#894730"/>
<path fill-rule="evenodd" clip-rule="evenodd" d="M82.9217 248.856C78.4257 251.854 77.4051 256.341 77.8843 260.837C83.492 260.025 92.3573 258.845 104.736 258.362C115.571 257.939 137.331 253.398 139.057 251.773C139.234 249.44 139.204 245.61 137.87 241.654C135.831 242.83 133.705 243.748 131.576 244.329C115.735 249.422 98.7627 239.236 82.9217 248.856Z" fill="black"/>
<path fill-rule="evenodd" clip-rule="evenodd" d="M154.272 224.33C153.79 222.4 151.809 215.748 151.717 213.753C151.37 206.098 153.112 198.86 152.439 190.143C152.439 190.143 154.591 188.242 155.036 184.663C155.296 182.571 147.166 167.296 144.984 152.179C143.468 151.763 141.61 151.237 140.214 150.629C136.936 154.79 130.273 155.168 130.273 155.168C119.874 155.543 115.645 149.136 115.594 149.059C114.109 149.681 112.255 150.397 108.87 151.711C113.14 161.917 106.266 170.57 104.24 173.701C104.487 177.019 108.441 191.05 109.303 196.018C110.418 202.453 111.604 208.146 111.143 212.444C110.791 215.738 107.311 223.919 104.521 232.034C108.613 227.063 135.769 224.53 137.07 251.507C136.587 253.276 143.179 252.15 143.34 251.346C147.842 249.095 146.394 227.707 154.272 224.33Z" fill="#894730"/>
<path fill-rule="evenodd" clip-rule="evenodd" d="M140.139 150.596C140.166 150.608 140.186 150.617 140.198 150.622C140.178 150.613 140.158 150.605 140.139 150.596Z" fill="#894730"/>
<g style="mix-blend-mode:overlay">
<path fill-rule="evenodd" clip-rule="evenodd" d="M109.328 175.569C107.391 173.801 105.188 173.559 104.24 173.7C104.486 177.019 108.441 191.05 109.302 196.018C110.418 202.453 111.603 208.147 111.143 212.444C110.79 215.739 107.311 223.92 104.52 232.035C107.037 229.256 113.49 228.735 115.98 228.891C117.391 220.877 116.341 216.797 117.076 208.339C117.076 206.826 118.384 202.962 119.313 199.136C112.452 192.803 115.497 184.135 111.823 178.305C111.148 177.372 110.335 176.452 109.328 175.569Z" fill="black" fill-opacity="0.15"/>
</g>
<path fill-rule="evenodd" clip-rule="evenodd" d="M127.472 159.607C127.412 159.607 127.351 159.588 127.299 159.548C124.317 157.238 120.601 155.845 116.835 155.625C116.679 155.616 116.56 155.482 116.569 155.326C116.578 155.17 116.702 155.053 116.868 155.06C120.746 155.286 124.574 156.721 127.646 159.1C127.769 159.197 127.791 159.374 127.696 159.498C127.64 159.57 127.557 159.607 127.472 159.607Z" fill="black"/>
<g style="mix-blend-mode:overlay">
<path fill-rule="evenodd" clip-rule="evenodd" d="M137.787 159.031C137.783 159.031 137.78 159.031 137.776 159.031C137.652 159.026 137.545 158.941 137.514 158.821C137.464 158.636 137.52 158.435 137.651 158.3C138.469 156.214 140.014 154.384 141.934 153.238C142.068 153.158 142.243 153.201 142.322 153.336C142.402 153.47 142.358 153.643 142.225 153.723C140.405 154.809 138.943 156.544 138.172 158.521C138.166 158.55 138.155 158.579 138.14 158.605C138.11 158.683 138.082 158.762 138.054 158.841C138.014 158.955 137.907 159.031 137.787 159.031Z" fill="black" fill-opacity="0.25"/>
</g>
<path fill-rule="evenodd" clip-rule="evenodd" d="M126.929 192.3C125.772 192.3 124.481 192.216 123.269 191.99C121.706 191.697 119.56 190.94 118.288 189.907C116.71 188.627 115.294 185.771 114.878 184.201C114.838 184.05 114.928 183.895 115.08 183.856C115.231 183.816 115.385 183.905 115.425 184.056C115.872 185.743 117.303 188.38 118.644 189.468C119.84 190.438 121.88 191.154 123.373 191.433C125.513 191.834 127.911 191.774 129.313 191.603C129.472 191.579 129.61 191.694 129.628 191.849C129.648 192.004 129.537 192.145 129.382 192.164C128.733 192.244 127.876 192.3 126.929 192.3Z" fill="black"/>
<g style="mix-blend-mode:overlay">
<path fill-rule="evenodd" clip-rule="evenodd" d="M140.122 217.729C140.02 217.741 139.915 217.696 139.853 217.605C139.333 216.826 139.123 215.85 139.279 214.926L139.294 214.836C139.325 214.664 139.354 214.502 139.31 214.385C139.255 214.239 139.329 214.076 139.475 214.021C139.621 213.967 139.784 214.04 139.839 214.187C139.938 214.449 139.892 214.708 139.851 214.935L139.836 215.02C139.705 215.803 139.882 216.631 140.323 217.291C140.41 217.421 140.375 217.597 140.245 217.683C140.207 217.709 140.165 217.723 140.122 217.729Z" fill="black" fill-opacity="0.25"/>
</g>
<path fill-rule="evenodd" clip-rule="evenodd" d="M199.859 227.576C187.566 223.08 170.339 222.815 152.049 216.949C139.358 212.88 137.862 247.291 141.131 251.98C158.239 250.459 188.566 250.448 203.733 248.165C209.511 242.815 212.072 232.042 199.859 227.576Z" fill="#323C84"/>
<g style="mix-blend-mode:overlay">
<path fill-rule="evenodd" clip-rule="evenodd" d="M140.053 239.963C139.365 245.235 139.849 250.141 141.131 251.98C158.238 250.458 186.562 251.72 201.73 249.437C203.424 247.803 203.426 246.054 203.27 243.873C203.297 237.339 198.753 236.395 192.834 235.616C178.697 235.151 171.364 234.928 161.946 236.393C157.22 237.128 154.7 230.09 162.798 219.873C152.185 217.616 154.288 218.723 152.405 221.831C148.216 228.657 148.828 233.459 140.053 239.963Z" fill="black" fill-opacity="0.25"/>
</g>
<path fill-rule="evenodd" clip-rule="evenodd" d="M118.96 293.505C118.93 293.678 117.211 296.286 114.005 296.285L110.475 292.867C110.475 292.867 109.477 287.592 109.479 287.468C109.48 287.345 114.25 274.87 114.25 274.87L124.247 274.1L117.127 287.159L118.96 293.505Z" fill="#F9A8AC"/>
<path fill-rule="evenodd" clip-rule="evenodd" d="M133.034 264.076C133.034 264.076 132.98 263.944 132.722 263.76C132.295 263.457 131.392 263.13 130.26 263.077C130.26 263.077 126.213 263.797 124.564 268.89C123.169 273.192 122.447 273.634 120.851 274.726C120.851 274.726 121.176 276.722 118.156 279.201C115.136 281.68 114.035 289.632 115.287 292.343C116.539 295.054 118.193 294.022 118.961 293.505C119.729 292.988 120.98 291.365 122.112 289.915C123.244 288.466 124.607 287.312 125.373 286.971L133.034 264.076Z" fill="white"/>
<path fill-rule="evenodd" clip-rule="evenodd" d="M133.373 279.931C133.373 279.931 136.996 280.507 138.758 280.179C140.519 279.851 141.238 278.689 140.732 277.101C140.226 275.512 141.173 274.763 140.191 273.754C139.208 272.745 138.986 271.863 136.518 272.475C134.05 273.086 131.361 272.699 130.957 272.284C130.957 272.284 130.456 270.344 132.121 268.433C133.786 266.522 136.019 266.024 135.108 264.021C135.108 264.021 133.697 264.471 132.711 263.754C132.711 263.754 133.115 264.17 132.282 265.155C131.449 266.139 127.865 267.029 127.889 269.607C127.913 272.184 129.648 272.01 129.474 273.729C129.26 275.839 126.462 275.563 124.627 277.003C122.793 278.443 119.796 282.606 121.882 286.738C121.882 286.738 122.857 289.428 126.557 286.05C129.647 283.228 129.642 283.045 130.761 282.591C131.88 282.137 133.184 280.924 133.373 279.931Z" fill="#E85D5D"/>
<path fill-rule="evenodd" clip-rule="evenodd" d="M133.365 279.502C133.365 279.502 137.45 279.824 137.58 279.108C137.678 278.45 137.205 278.206 136.99 277.507C136.768 276.782 137.305 276.121 136.46 275.553C135.811 275.118 133.464 276.69 131.972 276.476C133 277.333 133.611 279 133.365 279.502Z" fill="#F9A8AC"/>
<path fill-rule="evenodd" clip-rule="evenodd" d="M130.26 263.077C130.26 263.077 128.969 262.159 126.498 262.496C126.498 262.496 122.065 263.928 120.65 269.509C119.555 273.829 116.39 274.611 115.082 277.184C115.082 277.184 118.609 276.136 121.193 274.522C123.778 272.908 123.485 271.928 124.938 268.346C126.918 263.458 130.26 263.077 130.26 263.077Z" fill="#E44E46"/>
<path fill-rule="evenodd" clip-rule="evenodd" d="M126.497 262.496C126.497 262.496 123.791 262.049 121.94 262.189C120.089 262.328 118.494 265.607 117.796 268.433C116.892 272.084 113.872 272.399 111.644 276.069C109.418 279.739 106.758 288.007 109.39 294.086C109.39 294.086 110.589 296.65 114.005 296.285C114.005 296.285 114.711 295.76 113.911 294.064C113.112 292.368 111.665 292.965 111.156 291.108C110.646 289.251 109.907 283.344 115.082 277.184C115.082 277.184 119.642 274.924 120.566 271.217C121.856 266.046 124.459 262.967 126.497 262.496Z" fill="#10145F"/>
<path fill-rule="evenodd" clip-rule="evenodd" d="M134.17 264.883C134.161 264.876 135.47 263.027 136.266 262.713C137.72 262.139 138.273 263.245 138.212 264.597C138.212 264.597 135.801 265.812 133.656 266.868C133.656 266.868 134.868 265.389 134.17 264.883Z" fill="#E85D5D"/>
<path fill-rule="evenodd" clip-rule="evenodd" d="M128.549 277.577C128.549 277.543 128.555 277.509 128.566 277.476C128.624 277.306 128.809 277.216 128.979 277.274C130.829 277.909 132.284 280.388 131.916 282.281C131.882 282.456 131.712 282.571 131.536 282.537C131.36 282.503 131.248 282.333 131.279 282.156C131.586 280.603 130.29 278.41 128.768 277.888C128.632 277.841 128.547 277.713 128.549 277.577Z" fill="white"/>
<path fill-rule="evenodd" clip-rule="evenodd" d="M127.266 278.963C127.266 278.918 127.276 278.872 127.297 278.829C127.374 278.667 127.567 278.598 127.729 278.675C128.402 278.996 129.412 279.802 130.041 280.724C130.464 281.345 130.697 282.559 130.366 283.191C130.283 283.35 130.087 283.411 129.929 283.328C129.77 283.244 129.709 283.047 129.792 282.89C129.987 282.519 129.836 281.577 129.504 281.089C128.946 280.272 128.03 279.537 127.45 279.261C127.332 279.205 127.264 279.086 127.266 278.963Z" fill="white"/>
<path fill-rule="evenodd" clip-rule="evenodd" d="M125.954 280.463C125.954 280.421 125.963 280.377 125.982 280.336C126.055 280.172 126.247 280.098 126.41 280.171C127.294 280.566 128.097 281.198 128.559 281.862C129.028 282.537 129.248 283.422 129.136 284.172C129.11 284.35 128.945 284.471 128.767 284.445C128.59 284.418 128.471 284.253 128.494 284.076C128.583 283.493 128.399 282.769 128.026 282.232C127.635 281.67 126.914 281.107 126.146 280.764C126.024 280.71 125.952 280.589 125.954 280.463Z" fill="white"/>
<path fill-rule="evenodd" clip-rule="evenodd" d="M124.467 281.798C124.468 281.745 124.481 281.691 124.51 281.641C124.599 281.486 124.797 281.432 124.952 281.521C125.386 281.769 126.455 282.434 127.044 283.261C127.646 284.11 127.638 284.861 127.554 285.484C127.529 285.661 127.365 285.785 127.188 285.761C127.01 285.736 126.885 285.575 126.91 285.395C126.996 284.792 126.959 284.262 126.515 283.637C126.001 282.915 125.025 282.311 124.63 282.084C124.525 282.023 124.466 281.912 124.467 281.798Z" fill="white"/>
<path fill-rule="evenodd" clip-rule="evenodd" d="M123.244 283.354C123.244 283.329 123.248 283.304 123.254 283.279C123.298 283.105 123.473 283 123.647 283.043C124.372 283.226 125.058 283.82 125.531 284.675C125.976 285.477 126.13 286.348 125.936 286.948C125.88 287.118 125.697 287.212 125.526 287.156C125.356 287.101 125.262 286.916 125.318 286.748C125.457 286.32 125.318 285.63 124.963 284.989C124.583 284.301 124.032 283.809 123.489 283.673C123.34 283.635 123.242 283.501 123.244 283.354Z" fill="white"/>
<path fill-rule="evenodd" clip-rule="evenodd" d="M203.423 235.727C201.162 231.544 194.843 232.997 188.571 233.294C187.261 235.682 185.43 236.128 179.404 238.151C169.705 241.406 158.622 249.598 154.926 251.447C150.82 253.501 145.829 256.048 141.221 258.472C140.248 264.93 147.091 274.879 150.911 278.143C168.167 268.995 188.931 256.17 197.827 252.018C199.111 251.419 201.979 249.621 203.733 248.208C210.238 240.674 204.412 237.949 203.423 235.727Z" fill="#323C84"/>
<g style="mix-blend-mode:overlay">
<path fill-rule="evenodd" clip-rule="evenodd" d="M158.546 262.731C151.973 264.14 145.026 263.014 144.273 256.878C143.247 257.411 142.223 257.944 141.22 258.472C140.248 264.93 147.091 274.879 150.911 278.142C168.166 268.995 188.931 256.17 197.827 252.017C198.541 251.684 199.745 250.98 200.974 250.178C186.934 248.666 175.936 256.805 158.546 262.731Z" fill="black" fill-opacity="0.25"/>
</g>
<path fill-rule="evenodd" clip-rule="evenodd" d="M125.803 226.347C138.795 231.456 139.443 246.686 139.057 251.773C137.332 253.398 115.571 257.939 104.737 258.362C87.3833 259.039 76.5175 261.61 72.2733 262.096C71.6583 262.166 65.7117 259.058 63.933 255.615C61.7645 250.316 63.1885 244.954 66.1779 242.287C71.0365 237.952 100.479 227.944 107.027 221.602C115.654 222.018 118.772 223.266 125.803 226.347Z" fill="#323C84"/>
<g style="mix-blend-mode:overlay">
<path fill-rule="evenodd" clip-rule="evenodd" d="M82.9217 248.856C78.4257 251.854 77.4051 256.341 77.8843 260.837C83.492 260.025 92.3573 258.845 104.736 258.362C115.571 257.939 137.331 253.398 139.057 251.773C139.234 249.44 139.204 245.61 137.87 241.654C135.831 242.83 133.705 243.748 131.576 244.329C115.735 249.422 98.7627 239.236 82.9217 248.856Z" fill="black" fill-opacity="0.25"/>
</g>
<path fill-rule="evenodd" clip-rule="evenodd" d="M111.131 211.34C111.114 211.695 111.092 212.045 111.055 212.383C110.702 215.677 107.311 223.919 104.52 232.034C108.613 227.064 135.769 224.531 137.07 251.507C136.587 253.276 143.179 252.15 143.34 251.346C147.842 249.095 146.394 227.706 154.272 224.33C153.886 222.786 151.643 216.205 151.785 211.09C150.209 217.518 125.997 219.428 111.131 211.34Z" fill="#323C84"/>
<g style="mix-blend-mode:overlay">
<path fill-rule="evenodd" clip-rule="evenodd" d="M143.241 234.042C137.018 235.74 135.063 229.768 125.265 225.199C119.527 222.524 118.973 218.256 119.689 214.714C116.663 213.88 113.752 212.765 111.13 211.34C111.114 211.695 111.091 212.044 111.055 212.383C110.827 214.516 109.325 218.722 107.537 223.625C106.563 226.296 108.297 229.576 111.7 229.103C121.166 227.787 128.064 233.084 137.07 251.507C136.587 253.276 143.179 252.15 143.34 251.346C146.663 249.683 151.125 234.705 152.819 223.651C151.67 225.173 147.515 232.569 143.241 234.042Z" fill="black" fill-opacity="0.25"/>
</g>
<path fill-rule="evenodd" clip-rule="evenodd" d="M154.273 224.33C154.065 223.498 153.319 221.202 152.697 218.465C152.438 221.522 152.131 224.499 151.291 226.97C152.108 225.766 153.082 224.84 154.273 224.33Z" fill="#323C84"/>
<mask id="mask1" mask-type="alpha" maskUnits="userSpaceOnUse" x="108" y="149" width="48" height="57">
<path fill-rule="evenodd" clip-rule="evenodd" d="M113.824 149.78C120.136 160.017 118.181 187.587 108.329 191.53C108.757 193.335 109.107 194.907 109.3 196.022C109.792 198.867 109.995 200.542 110.341 202.759C122.948 206.068 140.166 208.15 152.847 201.755C152.865 197.796 152.728 193.934 152.436 190.147C152.436 190.147 155.63 187.645 155.076 182.103C154.062 171.964 143.151 165.365 141.057 150.972C140.762 150.862 140.477 150.749 140.211 150.633C136.933 154.794 130.27 155.172 130.27 155.172C119.871 155.548 115.641 149.141 115.59 149.063C115.065 149.283 114.493 149.515 113.824 149.78Z" fill="white"/>
</mask>
<g mask="url(#mask1)">
<path fill-rule="evenodd" clip-rule="evenodd" d="M152.847 201.755C152.865 197.796 152.728 193.935 152.436 190.147C152.436 190.147 155.63 187.645 155.076 182.103C154.062 171.964 143.151 165.366 141.057 150.973C140.762 150.863 140.478 150.749 140.211 150.633C136.934 154.794 130.27 155.172 130.27 155.172C119.871 155.548 115.641 149.141 115.59 149.064C115.065 149.283 114.493 149.515 113.825 149.781C120.137 160.018 118.182 187.587 108.33 191.531C108.757 193.335 109.107 194.907 109.3 196.022C109.793 198.867 109.995 200.543 110.341 202.76C122.948 206.069 140.167 208.151 152.847 201.755Z" fill="#323C84"/>
</g>
<mask id="mask2" mask-type="alpha" maskUnits="userSpaceOnUse" x="108" y="149" width="48" height="57">
<path fill-rule="evenodd" clip-rule="evenodd" d="M113.824 149.78C120.136 160.017 118.181 187.587 108.329 191.53C108.757 193.335 109.107 194.907 109.3 196.022C109.792 198.867 109.995 200.542 110.341 202.759C122.948 206.068 140.166 208.15 152.847 201.755C152.865 197.796 152.728 193.934 152.436 190.147C152.436 190.147 155.63 187.645 155.076 182.103C154.062 171.964 143.151 165.365 141.057 150.972C140.762 150.862 140.477 150.749 140.211 150.633C136.933 154.794 130.27 155.172 130.27 155.172C119.871 155.548 115.641 149.141 115.59 149.063C115.065 149.283 114.493 149.515 113.824 149.78Z" fill="white"/>
</mask>
<g mask="url(#mask2)">
</g>
<mask id="mask3" mask-type="alpha" maskUnits="userSpaceOnUse" x="108" y="149" width="48" height="57">
<path fill-rule="evenodd" clip-rule="evenodd" d="M113.824 149.78C120.136 160.017 118.181 187.587 108.329 191.53C108.757 193.335 109.107 194.907 109.3 196.022C109.792 198.867 109.995 200.542 110.341 202.759C122.948 206.068 140.166 208.15 152.847 201.755C152.865 197.796 152.728 193.934 152.436 190.147C152.436 190.147 155.63 187.645 155.076 182.103C154.062 171.964 143.151 165.365 141.057 150.972C140.762 150.862 140.477 150.749 140.211 150.633C136.933 154.794 130.27 155.172 130.27 155.172C119.871 155.548 115.641 149.141 115.59 149.063C115.065 149.283 114.493 149.515 113.824 149.78Z" fill="white"/>
</mask>
<g mask="url(#mask3)">
</g>
<mask id="mask4" mask-type="alpha" maskUnits="userSpaceOnUse" x="108" y="149" width="48" height="57">
<path fill-rule="evenodd" clip-rule="evenodd" d="M113.824 149.78C120.136 160.017 118.181 187.587 108.329 191.53C108.757 193.335 109.107 194.907 109.3 196.022C109.792 198.867 109.995 200.542 110.341 202.759C122.948 206.068 140.166 208.15 152.847 201.755C152.865 197.796 152.728 193.934 152.436 190.147C152.436 190.147 155.63 187.645 155.076 182.103C154.062 171.964 143.151 165.365 141.057 150.972C140.762 150.862 140.477 150.749 140.211 150.633C136.933 154.794 130.27 155.172 130.27 155.172C119.871 155.548 115.641 149.141 115.59 149.063C115.065 149.283 114.493 149.515 113.824 149.78Z" fill="white"/>
</mask>
<g mask="url(#mask4)">
</g>
<mask id="mask5" mask-type="alpha" maskUnits="userSpaceOnUse" x="108" y="149" width="48" height="57">
<path fill-rule="evenodd" clip-rule="evenodd" d="M113.824 149.78C120.136 160.017 118.181 187.587 108.329 191.53C108.757 193.335 109.107 194.907 109.3 196.022C109.792 198.867 109.995 200.542 110.341 202.759C122.948 206.068 140.166 208.15 152.847 201.755C152.865 197.796 152.728 193.934 152.436 190.147C152.436 190.147 155.63 187.645 155.076 182.103C154.062 171.964 143.151 165.365 141.057 150.972C140.762 150.862 140.477 150.749 140.211 150.633C136.933 154.794 130.27 155.172 130.27 155.172C119.871 155.548 115.641 149.141 115.59 149.063C115.065 149.283 114.493 149.515 113.824 149.78Z" fill="white"/>
</mask>
<g mask="url(#mask5)">
<path fill-rule="evenodd" clip-rule="evenodd" d="M111.853 206.044L111.864 206.274C111.899 206.985 112.491 207.547 113.21 207.539C113.947 207.532 114.557 207.3 115.04 207.03C113.954 206.569 112.885 206.079 111.844 205.546C111.843 205.705 111.845 205.869 111.853 206.044Z" fill="#FD868F"/>
</g>
<mask id="mask6" mask-type="alpha" maskUnits="userSpaceOnUse" x="108" y="149" width="48" height="57">
<path fill-rule="evenodd" clip-rule="evenodd" d="M113.824 149.78C120.136 160.017 118.181 187.587 108.329 191.53C108.757 193.335 109.107 194.907 109.3 196.022C109.792 198.867 109.995 200.542 110.341 202.759C122.948 206.068 140.166 208.15 152.847 201.755C152.865 197.796 152.728 193.934 152.436 190.147C152.436 190.147 155.63 187.645 155.076 182.103C154.062 171.964 143.151 165.365 141.057 150.972C140.762 150.862 140.477 150.749 140.211 150.633C136.933 154.794 130.27 155.172 130.27 155.172C119.871 155.548 115.641 149.141 115.59 149.063C115.065 149.283 114.493 149.515 113.824 149.78Z" fill="white"/>
</mask>
<g mask="url(#mask6)">
<path fill-rule="evenodd" clip-rule="evenodd" d="M114.143 204.627C113.798 204.705 113.54 204.694 113.414 204.627L114.77 206.123C114.85 205.693 115.023 205.116 115.143 204.394C115.149 204.353 115.152 204.304 115.157 204.261C114.792 204.419 114.448 204.558 114.143 204.627Z" fill="#FD868F"/>
</g>
<mask id="mask7" mask-type="alpha" maskUnits="userSpaceOnUse" x="108" y="149" width="48" height="57">
<path fill-rule="evenodd" clip-rule="evenodd" d="M113.824 149.78C120.136 160.017 118.181 187.587 108.329 191.53C108.757 193.335 109.107 194.907 109.3 196.022C109.792 198.867 109.995 200.542 110.341 202.759C122.948 206.068 140.166 208.15 152.847 201.755C152.865 197.796 152.728 193.934 152.436 190.147C152.436 190.147 155.63 187.645 155.076 182.103C154.062 171.964 143.151 165.365 141.057 150.972C140.762 150.862 140.477 150.749 140.211 150.633C136.933 154.794 130.27 155.172 130.27 155.172C119.871 155.548 115.641 149.141 115.59 149.063C115.065 149.283 114.493 149.515 113.824 149.78Z" fill="white"/>
</mask>
<g mask="url(#mask7)">
<path fill-rule="evenodd" clip-rule="evenodd" d="M114.77 206.123L113.414 204.627C113.539 204.694 113.797 204.706 114.143 204.627C114.448 204.558 114.792 204.419 115.157 204.261C115.202 203.93 115.234 203.566 115.21 203.145C115.171 202.649 115.043 202.131 114.852 201.703C114.469 200.826 113.951 200.208 113.515 199.715C113.075 199.218 112.69 198.8 112.438 198.457C111.989 197.734 111.984 197.624 112.236 197.021C112.536 196.454 113.322 195.844 114.122 195.591L114.426 195.509C114.548 195.489 114.665 195.459 114.792 195.444C115.042 195.408 115.3 195.379 115.571 195.368C116.11 195.337 116.685 195.353 117.294 195.364C118.502 195.384 119.868 195.435 121.237 195.149C123.934 194.6 126.075 193.253 128.409 192.633C129.559 192.319 130.766 192.171 131.917 192.324C133.066 192.467 134.127 192.962 134.827 193.72C135.507 194.472 135.841 195.428 135.894 196.405C135.966 197.378 135.78 198.362 135.437 199.237C134.754 200.901 133.151 202.414 131.011 203.239C129.942 203.632 128.75 203.858 127.548 203.755C126.335 203.664 125.126 203.328 123.891 203.121C122.02 202.81 120.09 202.815 118.136 203.164C117.899 203.204 117.637 203.26 117.373 203.341C117.116 203.422 116.87 203.514 116.633 203.612C116.16 203.805 115.719 204.016 115.3 204.2C115.251 204.221 115.205 204.24 115.157 204.261C115.151 204.304 115.149 204.353 115.142 204.394C115.022 205.116 114.85 205.693 114.77 206.123ZM116.462 205.98C117.197 205.319 117.76 204.717 118.526 204.338C120.117 203.512 122.016 203.172 123.836 203.456C125.047 203.647 126.199 204.092 127.422 204.444C128.653 204.798 129.978 205.007 131.339 204.942C132.695 204.875 134.111 204.537 135.367 203.769C135.995 203.39 136.582 202.913 137.076 202.34C137.576 201.76 137.999 201.079 138.275 200.367C138.825 198.937 138.926 197.367 138.525 195.907C138.156 194.446 137.207 193.108 135.964 192.296C134.727 191.486 133.313 191.219 132.005 191.185C130.684 191.155 129.405 191.331 128.156 191.605C126.913 191.886 125.707 192.229 124.51 192.494C123.314 192.757 122.129 192.941 121.01 192.925C119.911 192.91 118.798 192.678 117.546 192.484C116.923 192.386 116.261 192.311 115.563 192.284C115.216 192.268 114.854 192.274 114.489 192.294C114.307 192.3 114.12 192.326 113.935 192.341C113.74 192.367 113.529 192.405 113.329 192.444C112.531 192.622 111.785 192.928 111.091 193.362C110.405 193.803 109.749 194.357 109.242 195.135C108.736 195.897 108.381 196.926 108.463 197.986C108.537 199.047 109.016 199.967 109.501 200.612C109.983 201.266 110.477 201.726 110.873 202.14C111.273 202.553 111.569 202.893 111.707 203.144C111.787 203.274 111.807 203.363 111.847 203.48C111.881 203.621 111.896 203.832 111.889 204.084C111.893 204.484 111.846 204.968 111.844 205.546C112.885 206.079 113.954 206.569 115.04 207.03C115.089 207.002 115.144 206.976 115.19 206.948C115.699 206.639 116.097 206.307 116.462 205.98Z" fill="#FD868F"/>
</g>
<mask id="mask8" mask-type="alpha" maskUnits="userSpaceOnUse" x="108" y="149" width="48" height="57">
<path fill-rule="evenodd" clip-rule="evenodd" d="M113.824 149.78C120.136 160.017 118.181 187.587 108.329 191.53C108.757 193.335 109.107 194.907 109.3 196.022C109.792 198.867 109.995 200.542 110.341 202.759C122.948 206.068 140.166 208.15 152.847 201.755C152.865 197.796 152.728 193.934 152.436 190.147C152.436 190.147 155.63 187.645 155.076 182.103C154.062 171.964 143.151 165.365 141.057 150.972C140.762 150.862 140.477 150.749 140.211 150.633C136.933 154.794 130.27 155.172 130.27 155.172C119.871 155.548 115.641 149.141 115.59 149.063C115.065 149.283 114.493 149.515 113.824 149.78Z" fill="white"/>
</mask>
<g mask="url(#mask8)">
<path fill-rule="evenodd" clip-rule="evenodd" d="M141.656 200.155C141.772 198.797 142.125 197.445 142.642 196.172C143.162 194.904 143.933 193.732 144.91 192.798C145.887 191.864 147.057 191.191 148.235 190.806C150.597 190.044 153.076 190.002 155.781 189.817C156.451 189.777 157.15 189.725 157.819 189.671C158.487 189.618 159.132 189.587 159.758 189.621C161.003 189.688 162.215 190.091 162.879 191.134C163.207 191.631 163.395 192.231 163.329 192.786C163.27 193.337 162.957 193.828 162.49 194.151C162.027 194.482 161.42 194.652 160.794 194.741C160.169 194.841 159.504 194.825 158.809 194.834C157.434 194.847 156.002 194.778 154.507 195C153.758 195.1 152.999 195.265 152.242 195.542C151.471 195.821 150.736 196.2 150.046 196.674C149.362 197.154 148.719 197.735 148.174 198.444C147.628 199.148 147.194 200.007 146.975 200.949C146.867 201.413 146.807 201.932 146.807 202.34C146.803 202.746 146.814 203.086 146.801 203.334C146.765 203.867 146.741 203.86 146.583 204.096C146.43 204.305 146.106 204.511 145.776 204.62L145.712 204.641L145.606 204.663L145.395 204.709C145.253 204.743 145.113 204.77 144.979 204.786C144.704 204.831 144.446 204.863 144.201 204.873C143.708 204.898 143.326 204.849 143.016 204.741C142.726 204.622 142.393 204.372 142.161 203.883C141.913 203.416 141.757 202.797 141.683 202.156C141.606 201.512 141.597 200.832 141.656 200.155ZM140.367 205.804C140.576 206.261 140.909 206.685 141.303 207.049C142.123 207.755 143.138 208.064 144.022 208.158C144.467 208.199 144.903 208.215 145.317 208.182C145.529 208.174 145.732 208.152 145.931 208.124L146.232 208.086L146.382 208.066L146.572 208.03C147.586 207.824 148.532 207.326 149.3 206.497C149.684 206.085 149.992 205.561 150.19 204.986C150.384 204.412 150.439 203.871 150.442 203.433C150.448 202.988 150.424 202.635 150.42 202.348C150.415 202.063 150.423 201.889 150.456 201.675C150.572 200.852 151.134 199.952 151.975 199.238C153.627 197.827 156.282 197.293 159.016 196.682C160.362 196.369 161.928 196.097 163.202 195.045C163.829 194.517 164.273 193.724 164.349 192.889C164.424 192.056 164.189 191.265 163.821 190.574C163.442 189.889 162.909 189.268 162.237 188.807C161.594 188.34 160.859 188.032 160.13 187.785C159.397 187.545 158.659 187.395 157.944 187.269C157.23 187.147 156.544 187.053 155.83 186.986C154.41 186.853 152.932 186.851 151.441 187.12C149.956 187.388 148.456 187.966 147.203 188.903C145.936 189.83 144.995 191.038 144.24 192.261C143.482 193.49 142.879 194.755 142.329 196.041C141.79 197.327 141.245 198.61 140.762 199.958C140.31 201.313 139.793 202.718 139.98 204.463C140.029 204.895 140.164 205.353 140.367 205.804Z" fill="#FD868F"/>
</g>
<mask id="mask9" mask-type="alpha" maskUnits="userSpaceOnUse" x="108" y="149" width="48" height="57">
<path fill-rule="evenodd" clip-rule="evenodd" d="M113.824 149.78C120.136 160.017 118.181 187.587 108.329 191.53C108.757 193.335 109.107 194.907 109.3 196.022C109.792 198.867 109.995 200.542 110.341 202.759C122.948 206.068 140.166 208.15 152.847 201.755C152.865 197.796 152.728 193.934 152.436 190.147C152.436 190.147 155.63 187.645 155.076 182.103C154.062 171.964 143.151 165.365 141.057 150.972C140.762 150.862 140.477 150.749 140.211 150.633C136.933 154.794 130.27 155.172 130.27 155.172C119.871 155.548 115.641 149.141 115.59 149.063C115.065 149.283 114.493 149.515 113.824 149.78Z" fill="white"/>
</mask>
<g mask="url(#mask9)">
<path fill-rule="evenodd" clip-rule="evenodd" d="M112.878 176.629C112.468 177.652 112.176 178.716 111.838 179.811C111.752 180.084 111.666 180.362 111.569 180.639C111.467 180.925 111.393 181.179 111.218 181.512C110.894 182.105 110.531 182.594 110.186 183.054C109.838 183.505 109.508 183.948 109.285 184.313C109.173 184.493 109.108 184.66 109.138 184.694C109.16 184.747 109.088 184.991 109.13 185.025C109.151 185.045 109.121 185.103 109.153 185.084C109.183 185.069 109.158 185.068 109.171 185.045C109.174 184.993 109.165 184.974 109.21 185C109.298 185.055 109.641 185.232 110.052 185.342C110.454 185.47 110.932 185.582 111.435 185.689L113.026 186.039C113.304 186.103 113.596 186.173 113.895 186.257L114.618 186.46C115.05 186.572 115.394 186.622 115.643 186.602C115.829 186.607 116.055 186.496 116.129 186.441C116.173 186.412 116.179 186.423 116.209 186.424C116.233 186.414 116.264 186.32 116.243 186.132C116.224 185.945 116.159 185.689 116.088 185.371C116.02 185.056 115.963 184.642 115.973 184.275C115.975 183.521 116.196 182.83 116.486 182.24C117.076 181.057 117.938 180.205 118.776 179.425C119.607 178.66 120.439 177.943 121.037 177.089C121.654 176.242 121.914 175.264 121.805 174.346C121.712 173.426 121.276 172.641 120.771 172.16C120.284 171.684 119.601 171.369 118.956 171.257C118.631 171.212 118.321 171.196 117.999 171.257C117.659 171.323 117.259 171.489 116.842 171.732C115.999 172.225 115.165 172.924 114.49 173.776C113.809 174.627 113.286 175.609 112.878 176.629ZM112.564 176.5C112.993 175.481 113.342 174.431 113.739 173.356C114.136 172.284 114.599 171.166 115.366 170.147C115.753 169.64 116.252 169.138 116.927 168.766C117.619 168.383 118.434 168.226 119.207 168.258C120.753 168.35 122.184 169.157 123.027 170.449C123.867 171.731 123.957 173.24 123.671 174.508C123.397 175.804 122.666 176.905 121.897 177.767C121.126 178.646 120.297 179.398 119.599 180.219C118.908 181.016 118.399 181.96 118.238 182.861C118.163 183.31 118.18 183.728 118.289 184.075C118.341 184.258 118.406 184.387 118.51 184.595C118.607 184.802 118.74 185.061 118.869 185.406C118.995 185.747 119.119 186.209 119.079 186.748C119.043 187.296 118.833 187.836 118.541 188.244C117.95 189.075 117.146 189.533 116.256 189.752C115.418 189.947 114.642 189.89 113.994 189.802L112.351 189.531C111.294 189.368 110.154 189.222 108.88 188.773C108.253 188.529 107.551 188.267 106.826 187.566C106.471 187.214 106.136 186.741 105.948 186.167C105.845 185.893 105.835 185.604 105.807 185.321C105.778 185.03 105.844 184.813 105.875 184.558C105.907 184.296 105.992 184.11 106.07 183.917L106.191 183.628C106.229 183.536 106.272 183.44 106.347 183.315C106.626 182.857 106.908 182.587 107.172 182.365C107.701 181.924 108.214 181.651 108.688 181.368C109.166 181.095 109.627 180.845 109.986 180.568C110.14 180.459 110.341 180.233 110.516 180.043C110.688 179.838 110.862 179.63 111.018 179.407C111.654 178.521 112.138 177.518 112.564 176.5Z" fill="#FD868F"/>
</g>
<mask id="mask10" mask-type="alpha" maskUnits="userSpaceOnUse" x="108" y="149" width="48" height="57">
<path fill-rule="evenodd" clip-rule="evenodd" d="M113.824 149.78C120.136 160.017 118.181 187.587 108.329 191.53C108.757 193.335 109.107 194.907 109.3 196.022C109.792 198.867 109.995 200.542 110.341 202.759C122.948 206.068 140.166 208.15 152.847 201.755C152.865 197.796 152.728 193.934 152.436 190.147C152.436 190.147 155.63 187.645 155.076 182.103C154.062 171.964 143.151 165.365 141.057 150.972C140.762 150.862 140.477 150.749 140.211 150.633C136.933 154.794 130.27 155.172 130.27 155.172C119.871 155.548 115.641 149.141 115.59 149.063C115.065 149.283 114.493 149.515 113.824 149.78Z" fill="white"/>
</mask>
<g mask="url(#mask10)">
<path fill-rule="evenodd" clip-rule="evenodd" d="M117.663 154.882C118.65 154.395 119.614 153.849 120.662 153.398C121.702 152.941 122.803 152.468 124.012 152.26C125.208 152.043 126.513 151.991 127.762 152.35C128.079 152.416 128.382 152.531 128.685 152.652C128.987 152.775 129.297 152.883 129.578 153.051C129.865 153.208 130.157 153.361 130.435 153.535L131.224 154.12C132.219 154.958 133.091 155.958 133.673 157.074C134.013 157.611 134.22 158.196 134.467 158.761C134.709 159.342 134.891 160.015 134.998 160.658C135.209 161.958 135.166 163.331 134.683 164.601C134.227 165.873 133.304 166.984 132.22 167.661C131.142 168.361 129.916 168.715 128.702 168.755C127.484 168.796 126.308 168.497 125.235 167.963C124.701 167.69 124.183 167.356 123.717 166.947C123.244 166.551 122.858 166.11 122.466 165.74C122.081 165.363 121.712 165.044 121.359 164.855C121.019 164.668 120.685 164.576 120.256 164.474L118.799 164.178C118.528 164.126 118.237 164.04 117.918 163.946C117.609 163.85 117.312 163.721 117.015 163.588C115.86 163.034 114.731 162.115 114.158 160.732C113.874 160.049 113.824 159.261 113.974 158.584C114.118 157.892 114.486 157.315 114.887 156.861C115.717 155.96 116.692 155.414 117.663 154.882ZM117.82 155.183C116.874 155.666 116.003 156.415 115.603 157.335C115.408 157.79 115.357 158.263 115.458 158.666C115.552 159.075 115.753 159.398 116.034 159.652C116.584 160.163 117.373 160.514 118.2 160.822C118.407 160.9 118.62 160.961 118.832 161.03L119.531 161.226C120.043 161.369 120.62 161.535 121.223 161.813C121.819 162.081 122.471 162.502 122.944 163.046C123.414 163.577 123.717 164.128 123.975 164.631C124.23 165.139 124.468 165.597 124.738 166.002C125.007 166.4 125.365 166.738 125.775 167.011C126.601 167.545 127.643 167.774 128.603 167.617C129.565 167.472 130.436 166.925 131.034 166.231C131.645 165.527 131.936 164.704 132.058 163.873C132.159 163.035 132.106 162.163 131.861 161.333C131.733 160.912 131.585 160.536 131.357 160.132C131.118 159.721 130.914 159.288 130.635 158.922C130.138 158.138 129.529 157.488 128.89 156.895C128.255 156.286 127.495 155.855 126.692 155.46C125.889 155.06 124.99 154.752 124.014 154.516C123.037 154.269 121.969 154.187 120.903 154.28C119.829 154.364 118.794 154.721 117.82 155.183Z" fill="#FD868F"/>
</g>
<mask id="mask11" mask-type="alpha" maskUnits="userSpaceOnUse" x="108" y="149" width="48" height="57">
<path fill-rule="evenodd" clip-rule="evenodd" d="M113.824 149.78C120.136 160.017 118.181 187.587 108.329 191.53C108.757 193.335 109.107 194.907 109.3 196.022C109.792 198.867 109.995 200.542 110.341 202.759C122.948 206.068 140.166 208.15 152.847 201.755C152.865 197.796 152.728 193.934 152.436 190.147C152.436 190.147 155.63 187.645 155.076 182.103C154.062 171.964 143.151 165.365 141.057 150.972C140.762 150.862 140.477 150.749 140.211 150.633C136.933 154.794 130.27 155.172 130.27 155.172C119.871 155.548 115.641 149.141 115.59 149.063C115.065 149.283 114.493 149.515 113.824 149.78Z" fill="white"/>
</mask>
<g mask="url(#mask11)">
<path fill-rule="evenodd" clip-rule="evenodd" d="M145.342 168.048C145.677 167.577 145.83 166.968 145.902 166.345C145.974 165.717 145.952 165.052 146.009 164.368C146.042 164.03 146.081 163.674 146.181 163.311C146.291 162.942 146.408 162.574 146.764 162.115L146.898 161.95C146.96 161.886 147.031 161.822 147.101 161.761C147.171 161.699 147.244 161.639 147.319 161.581C147.391 161.527 147.42 161.514 147.472 161.478L147.759 161.298C147.857 161.239 147.988 161.18 148.104 161.124L148.288 161.043L148.521 160.968C148.672 160.921 148.829 160.881 149.055 160.866C149.16 160.857 149.265 160.852 149.369 160.85C149.489 160.855 149.629 160.874 149.757 160.896C150.005 160.928 150.303 161.046 150.568 161.196C151.098 161.508 151.443 162.031 151.582 162.401C151.622 162.498 151.658 162.598 151.69 162.695L151.748 162.945C151.79 163.121 151.803 163.267 151.808 163.408C151.835 163.976 151.759 164.421 151.648 164.831C151.588 165.031 151.533 165.234 151.455 165.416L151.345 165.686L151.249 165.896L150.855 166.734C150.591 167.292 150.338 167.853 150.022 168.393C149.713 168.934 149.352 169.459 149.003 169.987C148.658 170.516 148.318 171.047 148.058 171.606C147.785 172.167 147.596 172.724 147.397 173.363C147.178 173.976 146.999 174.738 146.239 175.396C145.875 175.707 145.329 175.933 144.787 175.959C144.241 175.996 143.712 175.865 143.262 175.626C142.807 175.391 142.417 175.048 142.125 174.612C141.969 174.401 141.861 174.15 141.764 173.895C141.678 173.651 141.629 173.413 141.605 173.171C141.505 172.194 141.865 171.346 142.342 170.732C142.832 170.099 143.44 169.692 143.965 169.307C144.494 168.92 144.972 168.532 145.342 168.048ZM145.608 168.259C145.216 168.736 144.871 169.26 144.641 169.838C144.411 170.416 144.318 171.033 144.35 171.543C144.37 172.061 144.488 172.464 144.579 172.705C144.6 172.766 144.628 172.826 144.643 172.873L144.689 172.978C144.722 173.063 144.774 173.165 144.83 173.268C144.887 173.373 144.947 173.473 145.013 173.565C145.083 173.66 145.162 173.743 145.333 173.755C145.663 173.805 146.132 173.433 146.39 172.933C146.659 172.438 146.835 171.821 146.98 171.229C147.123 170.629 147.189 170.002 147.249 169.373C147.305 168.742 147.35 168.108 147.444 167.491C147.534 166.872 147.686 166.275 147.827 165.675C147.96 165.087 148.149 164.4 148.173 164.078C148.189 163.89 148.188 163.719 148.175 163.675C148.172 163.662 148.172 163.655 148.175 163.683C148.177 163.691 148.181 163.7 148.186 163.707C148.191 163.733 148.199 163.761 148.211 163.786C148.248 163.866 148.39 164.14 148.667 164.284C148.793 164.369 148.959 164.404 149.05 164.427C149.102 164.438 149.167 164.438 149.211 164.435C149.239 164.439 149.267 164.438 149.294 164.434C149.317 164.432 149.36 164.417 149.364 164.416C149.369 164.417 149.374 164.414 149.378 164.409C149.382 164.405 149.385 164.398 149.387 164.391C149.382 164.389 149.368 164.394 149.358 164.394C149.334 164.4 149.317 164.39 149.281 164.402L149.163 164.442C149.15 164.445 149.107 164.462 149.118 164.453C149.131 164.443 149.144 164.43 149.153 164.415C149.163 164.401 149.173 164.383 149.176 164.367L149.154 164.373C149.087 164.358 148.89 164.526 148.702 164.691C148.511 164.869 148.281 165.066 148.068 165.289C147.625 165.725 147.151 166.202 146.744 166.703C146.331 167.205 146.001 167.737 145.608 168.259Z" fill="#FD868F"/>
</g>
<mask id="mask12" mask-type="alpha" maskUnits="userSpaceOnUse" x="108" y="149" width="48" height="57">
<path fill-rule="evenodd" clip-rule="evenodd" d="M113.824 149.78C120.136 160.017 118.181 187.587 108.329 191.53C108.757 193.335 109.107 194.907 109.3 196.022C109.792 198.867 109.995 200.542 110.341 202.759C122.948 206.068 140.166 208.15 152.847 201.755C152.865 197.796 152.728 193.934 152.436 190.147C152.436 190.147 155.63 187.645 155.076 182.103C154.062 171.964 143.151 165.365 141.057 150.972C140.762 150.862 140.477 150.749 140.211 150.633C136.933 154.794 130.27 155.172 130.27 155.172C119.871 155.548 115.641 149.141 115.59 149.063C115.065 149.283 114.493 149.515 113.824 149.78Z" fill="white"/>
</mask>
<g mask="url(#mask12)">
<path fill-rule="evenodd" clip-rule="evenodd" d="M151.06 156.88C150.353 157.695 149.327 158.201 148.303 158.536C147.284 158.888 146.246 159.204 145.497 159.653L145.232 159.82L145.007 160.002C144.927 160.056 144.882 160.136 144.816 160.191C144.791 160.218 144.742 160.254 144.737 160.273C144.75 160.285 144.762 160.291 144.771 160.293C144.757 160.374 144.671 160.516 144.588 160.71C144.496 160.884 144.404 161.099 144.302 161.312C144.097 161.74 143.872 162.196 143.612 162.68C143.481 162.925 143.35 163.172 143.165 163.445C142.98 163.713 142.811 163.998 142.343 164.412C142.275 164.468 142.206 164.522 142.134 164.573C142.096 164.6 142.069 164.621 142.02 164.651C141.955 164.688 141.888 164.722 141.818 164.755C141.536 164.883 141.254 164.973 140.908 164.975C140.585 164.995 140.231 164.919 139.896 164.766C139.716 164.688 139.624 164.614 139.5 164.524C139.388 164.439 139.262 164.33 139.185 164.244C139.058 164.099 138.912 163.906 138.837 163.771C138.768 163.645 138.696 163.506 138.644 163.385C138.557 163.171 138.485 162.954 138.447 162.782C138.273 162.06 138.238 161.513 138.209 160.948C138.157 159.844 138.199 158.818 138.211 157.802C138.228 156.791 138.221 155.801 138.212 154.865C138.198 154.403 138.174 153.943 138.118 153.571C138.089 153.387 138.048 153.226 138.023 153.122C137.934 152.938 137.791 152.713 137.655 152.484C137.371 152.028 137.043 151.476 136.886 150.807C136.737 150.137 136.853 149.438 137.103 148.885C137.622 147.765 138.473 147.018 139.384 146.38C139.848 146.068 140.348 145.776 140.954 145.587C141.546 145.389 142.322 145.359 143.032 145.661C143.741 145.958 144.247 146.482 144.63 146.895C145.02 147.322 145.326 147.687 145.584 147.902C145.832 148.094 145.997 148.164 146.331 148.292C146.656 148.406 147.082 148.52 147.583 148.661C148.073 148.804 148.682 149.004 149.232 149.322C149.779 149.631 150.277 150.027 150.695 150.494C151.537 151.42 152.043 152.645 152.063 153.803C152.094 154.947 151.773 156.052 151.06 156.88ZM150.806 156.655C151.466 155.932 151.569 154.817 151.219 153.96C150.877 153.085 150.124 152.525 149.357 152.196C148.971 152.03 148.573 151.908 148.176 151.821C147.785 151.73 147.395 151.681 146.889 151.589C146.393 151.494 145.817 151.377 145.189 151.11C144.571 150.86 143.86 150.347 143.443 149.755C143.033 149.189 142.822 148.664 142.639 148.243C142.456 147.81 142.305 147.506 142.115 147.295C141.932 147.074 141.621 146.956 141.214 146.956C140.811 146.961 140.364 147.102 139.951 147.317C139.13 147.742 138.408 148.483 138.173 149.285C138.051 149.683 138.097 150.066 138.26 150.375C138.412 150.691 138.723 150.972 139.088 151.301C139.276 151.469 139.471 151.631 139.691 151.854C139.97 152.164 140.147 152.471 140.298 152.767C140.597 153.357 140.762 153.911 140.907 154.461C141.194 155.553 141.298 156.613 141.416 157.649C141.53 158.68 141.63 159.704 141.751 160.641C141.816 161.097 141.883 161.574 141.969 161.845C141.99 161.923 142.005 161.947 142.009 161.973C142.008 161.968 141.998 161.942 141.986 161.931C141.972 161.908 141.914 161.81 141.861 161.77C141.826 161.732 141.755 161.657 141.692 161.613C141.62 161.56 141.57 161.54 141.456 161.475C141.241 161.367 141.006 161.338 140.814 161.336C140.601 161.353 140.435 161.383 140.271 161.462C140.231 161.482 140.193 161.505 140.158 161.529L140.121 161.549C140.1 161.562 140.081 161.577 140.064 161.592C139.985 161.675 140.131 161.548 140.235 161.396C140.347 161.25 140.483 161.059 140.618 160.866C140.889 160.474 141.168 160.037 141.498 159.591C141.664 159.368 141.842 159.147 142.051 158.906C142.259 158.679 142.499 158.422 142.856 158.15C142.965 158.072 143.079 157.999 143.192 157.932C143.291 157.879 143.36 157.859 143.445 157.822C143.607 157.76 143.771 157.688 143.934 157.655C144.097 157.615 144.259 157.575 144.419 157.542L144.888 157.481C146.12 157.384 147.148 157.629 148.147 157.634C149.138 157.669 150.135 157.392 150.806 156.655Z" fill="#FD868F"/>
</g>
<mask id="mask13" mask-type="alpha" maskUnits="userSpaceOnUse" x="108" y="149" width="48" height="57">
<path fill-rule="evenodd" clip-rule="evenodd" d="M113.824 149.78C120.136 160.017 118.181 187.587 108.329 191.53C108.757 193.335 109.107 194.907 109.3 196.022C109.792 198.867 109.995 200.542 110.341 202.759C122.948 206.068 140.166 208.15 152.847 201.755C152.865 197.796 152.728 193.934 152.436 190.147C152.436 190.147 155.63 187.645 155.076 182.103C154.062 171.964 143.151 165.365 141.057 150.972C140.762 150.862 140.477 150.749 140.211 150.633C136.933 154.794 130.27 155.172 130.27 155.172C119.871 155.548 115.641 149.141 115.59 149.063C115.065 149.283 114.493 149.515 113.824 149.78Z" fill="white"/>
</mask>
<g mask="url(#mask13)">
<path fill-rule="evenodd" clip-rule="evenodd" d="M152.612 183.411C151.986 183.39 151.363 183.432 150.657 183.378C150.306 183.341 149.924 183.29 149.532 183.135C149.146 182.978 148.731 182.729 148.415 182.352C147.741 181.599 147.544 180.554 147.626 179.71C147.711 178.85 147.997 178.102 148.349 177.432C149.075 176.095 150.172 175.106 151.396 174.349C152.01 173.971 152.662 173.637 153.38 173.447C154.093 173.252 154.867 173.203 155.614 173.293C156.379 173.388 157.021 173.6 157.694 173.878C158.351 174.158 159.006 174.652 159.356 175.361C159.723 176.055 159.838 176.825 159.867 177.576C159.882 178.329 159.788 179.084 159.536 179.765C159.043 181.128 157.992 182.216 156.63 182.732C155.954 182.995 155.24 183.141 154.566 183.243C153.891 183.345 153.254 183.411 152.612 183.411ZM152.62 183.072C153.204 183.093 153.779 182.844 154.222 182.456C154.67 182.064 154.994 181.543 155.274 181.043C155.557 180.542 155.808 180.06 156.103 179.633C156.396 179.204 156.71 178.804 157.049 178.411C157.38 178.017 157.762 177.631 158.035 177.186C158.315 176.751 158.488 176.232 158.351 175.797C158.24 175.351 157.822 175.05 157.323 174.959C156.833 174.862 156.232 174.953 155.78 175.145C155.307 175.343 154.887 175.639 154.485 175.946C154.085 176.256 153.687 176.562 153.32 176.917C152.586 177.625 152.001 178.482 151.484 179.253C151.224 179.64 151.011 180.028 150.848 180.367C150.694 180.708 150.483 180.972 150.412 181.303C150.317 181.636 150.5 182.172 150.965 182.517C151.418 182.868 152.024 183.039 152.62 183.072Z" fill="#FD868F"/>
</g>
<mask id="mask14" mask-type="alpha" maskUnits="userSpaceOnUse" x="108" y="149" width="48" height="57">
<path fill-rule="evenodd" clip-rule="evenodd" d="M113.824 149.78C120.136 160.017 118.181 187.587 108.329 191.53C108.757 193.335 109.107 194.907 109.3 196.022C109.792 198.867 109.995 200.542 110.341 202.759C122.948 206.068 140.166 208.15 152.847 201.755C152.865 197.796 152.728 193.934 152.436 190.147C152.436 190.147 155.63 187.645 155.076 182.103C154.062 171.964 143.151 165.365 141.057 150.972C140.762 150.862 140.477 150.749 140.211 150.633C136.933 154.794 130.27 155.172 130.27 155.172C119.871 155.548 115.641 149.141 115.59 149.063C115.065 149.283 114.493 149.515 113.824 149.78Z" fill="white"/>
</mask>
<g mask="url(#mask14)">
<path fill-rule="evenodd" clip-rule="evenodd" d="M109.334 153.422C108.549 152.882 108.029 152.032 107.514 151.281C107.255 150.905 106.974 150.559 106.675 150.297C106.389 150.045 106.09 149.908 105.737 149.767C105.392 149.624 105.001 149.515 104.577 149.347C104.154 149.181 103.67 148.976 103.129 148.556C102.994 148.439 102.859 148.325 102.722 148.17L102.523 147.936L102.371 147.7C102.272 147.541 102.177 147.377 102.086 147.211C102.003 147.042 101.948 146.852 101.885 146.669C101.744 146.298 101.722 145.923 101.696 145.542C101.694 145.179 101.732 144.815 101.796 144.48C102.105 143.155 102.767 142.199 103.479 141.406C104.201 140.613 105.006 139.98 105.87 139.426C106.309 139.155 106.753 138.896 107.254 138.679C107.745 138.446 108.296 138.296 108.828 138.205C109.901 138.017 110.986 138.117 111.985 138.407C112.987 138.698 113.905 139.193 114.674 139.846C115.449 140.499 116.023 141.334 116.437 142.218C117.247 143.995 117.746 145.952 117.787 147.884C117.788 148.866 117.627 149.893 117.204 150.879C116.781 151.869 116.074 152.763 115.107 153.388C114.145 153.993 113.075 154.219 112.075 154.218C111.075 154.217 110.113 153.97 109.334 153.422ZM109.533 153.147C110.221 153.659 111.171 153.695 111.924 153.371C112.69 153.057 113.283 152.434 113.624 151.809C114.278 150.541 114.564 149.182 114.973 147.579C115.343 145.971 115.937 144.218 115.422 142.629C115.178 141.848 114.665 141.174 113.992 140.762C113.32 140.341 112.503 140.206 111.733 140.248C111.344 140.275 110.965 140.353 110.601 140.444C110.239 140.557 109.89 140.676 109.563 140.829C109.239 140.996 108.939 141.145 108.646 141.35C108.35 141.543 108.044 141.778 107.752 142.025C107.169 142.528 106.637 143.109 106.206 143.689C105.78 144.268 105.452 144.863 105.33 145.288C105.303 145.389 105.286 145.476 105.27 145.557C105.285 145.621 105.241 145.703 105.265 145.755C105.271 145.783 105.255 145.819 105.265 145.852C105.282 145.883 105.294 145.916 105.302 145.953L105.318 146.044C105.318 146.068 105.348 146.107 105.37 146.148C105.628 146.534 106.478 147.18 107.162 148.018C107.509 148.437 107.823 148.972 108 149.488C108.171 149.99 108.251 150.468 108.352 150.913C108.531 151.794 108.829 152.634 109.533 153.147Z" fill="#FD868F"/>
</g>
<mask id="mask15" mask-type="alpha" maskUnits="userSpaceOnUse" x="108" y="149" width="48" height="57">
<path fill-rule="evenodd" clip-rule="evenodd" d="M113.824 149.78C120.136 160.017 118.181 187.587 108.329 191.53C108.757 193.335 109.107 194.907 109.3 196.022C109.792 198.867 109.995 200.542 110.341 202.759C122.948 206.068 140.166 208.15 152.847 201.755C152.865 197.796 152.728 193.934 152.436 190.147C152.436 190.147 155.63 187.645 155.076 182.103C154.062 171.964 143.151 165.365 141.057 150.972C140.762 150.862 140.477 150.749 140.211 150.633C136.933 154.794 130.27 155.172 130.27 155.172C119.871 155.548 115.641 149.141 115.59 149.063C115.065 149.283 114.493 149.515 113.824 149.78Z" fill="white"/>
</mask>
<g mask="url(#mask15)">
<path fill-rule="evenodd" clip-rule="evenodd" d="M136.719 180.047C135.325 179.203 134.167 178.302 133.009 177.425C132.436 176.993 131.849 176.515 131.366 176.186C130.875 175.86 130.446 175.658 130.166 175.54C129.86 175.421 129.365 175.385 129.071 175.551C128.915 175.622 128.788 175.798 128.753 176.065C128.723 176.334 128.789 176.671 128.909 177.013C129.025 177.358 129.192 177.714 129.327 178.113C129.469 178.509 129.563 178.905 129.657 179.296C129.83 180.076 129.994 180.845 130.229 181.518C130.462 182.195 130.785 182.727 131.121 183.019C131.459 183.319 131.808 183.487 132.286 183.6C133.254 183.81 134.552 183.602 135.809 183.377C136.413 183.267 136.913 183.131 137.294 182.945C137.397 182.895 137.476 182.845 137.548 182.806C137.625 182.762 137.698 182.701 137.771 182.637C137.915 182.505 138.042 182.342 138.134 182.181C138.305 181.852 138.418 181.575 138.145 181.082C137.859 180.612 137.214 180.164 136.568 179.696C136.486 179.639 136.467 179.526 136.524 179.444C136.555 179.4 136.605 179.374 136.653 179.368C137.454 179.283 138.301 179.258 139.219 179.718C139.673 179.95 140.121 180.339 140.413 180.881C140.703 181.421 140.817 182.043 140.78 182.621C140.753 183.207 140.581 183.752 140.329 184.26C140.195 184.51 140.043 184.754 139.859 184.982C139.673 185.218 139.466 185.417 139.266 185.591C138.434 186.312 137.476 186.685 136.617 186.911C135.766 187.124 134.92 187.234 134.006 187.207C133.101 187.179 132.154 187.023 131.207 186.622C130.274 186.228 129.306 185.501 128.841 184.511C128.596 184.035 128.452 183.531 128.405 183.063C128.345 182.595 128.351 182.149 128.384 181.739C128.439 180.915 128.568 180.172 128.526 179.459C128.503 178.729 128.296 178.142 127.906 177.451C127.725 177.104 127.514 176.731 127.376 176.251C127.243 175.775 127.219 175.159 127.465 174.586C127.7 174.015 128.134 173.564 128.615 173.25C129.101 172.932 129.657 172.746 130.259 172.71C131.5 172.657 132.471 173.195 133.175 173.767C133.895 174.349 134.385 174.933 134.884 175.561C135.852 176.823 136.644 178.236 136.996 179.85C137.018 179.95 136.955 180.048 136.855 180.07C136.807 180.081 136.758 180.071 136.719 180.047Z" fill="#FD868F"/>
</g>
<mask id="mask16" mask-type="alpha" maskUnits="userSpaceOnUse" x="108" y="149" width="48" height="57">
<path fill-rule="evenodd" clip-rule="evenodd" d="M108.329 191.53C108.757 193.335 109.107 194.907 109.3 196.022C109.792 198.867 109.995 200.542 110.341 202.759C122.948 206.068 140.166 208.15 152.847 201.755C152.865 197.796 152.728 193.934 152.436 190.147C152.436 190.147 155.63 187.645 155.076 182.103C154.062 171.964 143.151 164.799 141.057 150.406C140.762 150.296 140.477 150.183 140.211 150.067C136.933 154.228 130.27 155.172 130.27 155.172C119.871 155.548 115.641 149.141 115.59 149.063C115.065 149.283 114.493 149.515 113.824 149.78C120.136 160.017 118.181 187.587 108.329 191.53Z" fill="white"/>
</mask>
<g mask="url(#mask16)">
<g style="mix-blend-mode:overlay">
<path fill-rule="evenodd" clip-rule="evenodd" d="M118.564 199.058C116.911 194.648 113.657 190.77 114.012 185.343C114.007 185.324 114.002 185.308 113.997 185.289C112.554 188.333 110.664 190.596 108.329 191.531C108.757 193.335 109.106 194.907 109.299 196.022C109.787 198.832 109.995 200.602 110.344 202.789C110.889 202.919 114.921 203.886 118.026 204.483C118.645 202.675 119.166 200.866 118.564 199.058Z" fill="black" fill-opacity="0.25"/>
</g>
</g>
<path fill-rule="evenodd" clip-rule="evenodd" d="M89.8881 211.42C89.9435 211.487 89.9984 211.554 90.055 211.622C92.9256 215.112 96.2233 218.633 107.604 227.975C113.42 232.749 117.777 235.807 121.03 237.882C126.158 241.154 127.163 234.706 127.163 234.706C127.163 234.706 114.365 219.176 108.73 214.23C103.094 209.286 99.8034 206.426 97.8674 204.291C97.6581 204.06 89.0485 210.403 89.8881 211.42Z" fill="#894730"/>
<path fill-rule="evenodd" clip-rule="evenodd" d="M108.876 151.707C105.461 153.235 103.309 154.713 101.179 156.898C95.6548 162.565 92.9635 170.455 92.073 178.041C91.2872 184.732 90.8131 191.469 90.3707 198.19C90.2168 200.532 90.0754 202.876 89.9566 205.221C89.9045 206.245 89.5017 210.968 89.8604 211.344C93.6617 216.816 97.9127 215.344 100.076 215.45C107.652 193.16 108.209 178.864 108.355 176.427C111.789 171.042 111.242 155.898 108.876 151.707Z" fill="#894730"/>
<g style="mix-blend-mode:overlay">
<path fill-rule="evenodd" clip-rule="evenodd" d="M95.487 191.781C96.3254 178.214 104.185 173.946 105.823 162.243C106.049 158.335 105.721 154.427 104.427 154.141C103.247 154.952 102.209 155.842 101.18 156.898C95.655 162.565 92.9638 170.455 92.0733 178.041C91.2874 184.732 90.8133 191.469 90.3709 198.19C90.217 200.532 90.0756 202.876 89.9568 205.221C89.9047 206.245 89.8012 207.424 89.761 208.448C90.053 208.758 92.1129 209.06 93.5725 206.21C95.0321 203.36 95.044 196.615 95.487 191.781Z" fill="black" fill-opacity="0.15"/>
</g>
<path fill-rule="evenodd" clip-rule="evenodd" d="M131.507 234.692C134.112 235.02 137.808 235.908 138.258 236.818C138.492 237.599 136.735 237.76 134.728 237.748C133.74 237.743 131.964 237.416 131.884 237.92C131.8 238.453 132.774 239.56 133.997 240.347C137.496 242.599 140.252 242.532 144.189 243.979C144.546 244.111 144.956 244.318 145 244.696C145.073 245.322 144.178 245.515 143.55 245.456C141.52 245.265 139.348 244.852 137.319 244.661C139.528 245.512 141.88 246.585 144.088 247.436C144.33 247.529 144.725 247.71 144.806 247.956C144.982 248.493 144.044 248.703 143.48 248.668C141.342 248.535 138.705 248.113 136.124 247.449C138.22 248.525 142.999 250.021 142.642 251.1C142.601 252.059 133.664 249.426 130.157 246.694C127.014 244.245 125.481 242.146 124.656 240.848C123.862 239.596 121.548 238.274 119.933 237.069C118.745 236.182 122.232 231.675 123.377 232.617C125.177 234.098 126.132 234.025 127.211 234.206C128.633 234.445 130.078 234.513 131.507 234.692Z" fill="#894730"/>
<g style="mix-blend-mode:overlay">
<path fill-rule="evenodd" clip-rule="evenodd" d="M133.439 242.926C130.874 239.982 123.708 238.973 123.005 239.122C123.721 239.703 124.32 240.319 124.656 240.848C125.481 242.147 127.014 244.245 130.157 246.694C131.2 247.507 132.725 248.31 134.353 249.014C131.806 246.804 135.97 246.046 133.439 242.926Z" fill="black" fill-opacity="0.15"/>
</g>
<path fill-rule="evenodd" clip-rule="evenodd" d="M165.582 193.03C153.791 207.739 149.451 225.785 147.002 231.224C146.255 232.882 151.158 235.177 152.222 233.708C153.278 232.251 154.796 228.669 157.623 224.956C160.877 220.682 163.799 216.144 166.223 212.016C166.969 205.784 166.282 199.416 165.582 193.03Z" fill="#894730"/>
<path fill-rule="evenodd" clip-rule="evenodd" d="M150.66 241.474C150.675 238.767 151.501 235.393 152.929 232.567C153.816 230.808 147.913 229.017 147.451 230.197C146.394 232.899 145.564 233.555 144.313 234.675C143.931 235.017 143.614 235.333 143.328 235.638C143.315 235.649 143.301 235.656 143.287 235.669C143.151 235.793 142.958 236.025 142.751 236.291C142.566 236.519 142.401 236.739 142.26 236.949C142.018 237.284 141.799 237.597 141.672 237.776C141.055 238.65 140.32 239.441 139.49 240.118C138.19 241.179 136.675 241.953 135.114 242.57C134.599 242.773 134.058 242.974 133.689 243.385C133.637 243.443 133.587 243.509 133.583 243.586C133.58 243.661 133.621 243.731 133.669 243.789C133.953 244.136 134.457 244.181 134.905 244.193C135.62 244.213 136.543 244.048 137.465 243.825C135.051 245.703 132.45 247.173 133.051 248.014C133.841 249.12 138.913 246.172 139.842 245.389C139.26 246.692 137.69 248.141 136.37 249.4C135.826 249.919 134.767 250.743 135.38 251.255C136.006 251.778 137.063 251.33 137.931 250.612C139.484 249.327 140.64 248.577 142.118 246.61C141.806 248.318 140.255 250.029 139.296 251.476C138.942 252.011 138.519 252.636 138.973 252.923C139.856 253.483 140.724 252.641 141.596 251.767C143.78 249.576 144.382 248.782 146.398 245.725C146.658 245.329 146.774 245.148 147.024 244.826C147.3 244.471 147.412 244.86 147.333 245.698C147.175 247.4 145.352 250.281 146.301 250.718C147.3 251.145 150.641 244.894 150.66 241.474Z" fill="#894730"/>
<g style="mix-blend-mode:overlay">
<path fill-rule="evenodd" clip-rule="evenodd" d="M144.583 244.685C147.729 243.598 146.088 242.532 147.434 240.343C148.03 239.373 146.936 237.46 145.734 236.634C144.89 236.056 143.096 235.861 142.874 236.135C142.59 236.485 142.332 236.842 142.26 236.949C142.018 237.284 141.799 237.598 141.672 237.776C141.055 238.65 140.319 239.441 139.49 240.117C138.578 242.017 141.976 245.587 144.583 244.685Z" fill="black" fill-opacity="0.15"/>
</g>
<path fill-rule="evenodd" clip-rule="evenodd" d="M149.78 281.602C149.78 281.602 119.197 273.817 117.157 273.419C111.548 272.326 81.4964 266.422 70.8376 260.854C70.961 255.284 75.4485 251.005 77.8756 250.704C79.6707 249.691 90.7763 248.136 95.9603 248.91C108.306 250.751 114.689 254.737 120.608 258.039C125.917 261 133.234 265.52 137.99 267.68C143.011 269.691 147.974 269.065 149.714 269.103C149.714 269.103 156.696 276.049 149.78 281.602Z" fill="#894730"/>
<g style="mix-blend-mode:overlay">
<path fill-rule="evenodd" clip-rule="evenodd" d="M75.6284 262.937C88.5914 267.816 112.246 272.462 117.157 273.419C118.066 273.596 124.634 275.238 131.64 277.005C129.276 275.056 127.312 272.827 120.471 271.958C104.43 269.92 85.1732 257.291 75.6284 262.937Z" fill="black" fill-opacity="0.15"/>
</g>
<path fill-rule="evenodd" clip-rule="evenodd" d="M163.376 296.868C163.4 297.043 165.027 299.71 168.231 299.821L171.879 296.529C171.879 296.529 173.063 291.293 173.065 291.17C173.068 291.046 168.741 278.411 168.741 278.411L158.778 277.288L165.432 290.591L163.376 296.868Z" fill="#F9A8AC"/>
<path fill-rule="evenodd" clip-rule="evenodd" d="M150.35 266.961C150.35 266.961 150.407 266.831 150.672 266.656C151.11 266.368 152.024 266.073 153.157 266.061C153.157 266.061 157.175 266.923 158.645 272.071C159.886 276.419 160.592 276.887 162.148 278.034C162.148 278.034 161.754 280.017 164.685 282.601C167.615 285.185 168.436 293.171 167.089 295.836C165.742 298.502 164.126 297.412 163.376 296.868C162.626 296.325 161.433 294.658 160.353 293.169C159.272 291.681 157.952 290.48 157.198 290.112L150.35 266.961Z" fill="white"/>
<path fill-rule="evenodd" clip-rule="evenodd" d="M149.451 282.794C149.451 282.794 145.809 283.242 144.061 282.852C142.312 282.462 141.635 281.275 142.197 279.706C142.758 278.136 141.839 277.354 142.856 276.381C143.873 275.407 144.126 274.533 146.57 275.232C149.015 275.93 151.717 275.638 152.135 275.237C152.135 275.237 152.704 273.316 151.108 271.347C149.511 269.379 147.297 268.803 148.278 266.832C148.278 266.832 149.673 267.332 150.683 266.651C150.683 266.651 150.264 267.052 151.063 268.065C151.86 269.079 155.411 270.094 155.296 272.669C155.181 275.245 153.453 275.009 153.567 276.733C153.706 278.85 156.511 278.672 158.294 280.176C160.077 281.68 162.926 285.946 160.696 290.003C160.696 290.003 159.626 292.657 156.047 289.149C153.059 286.221 153.07 286.037 151.968 285.544C150.866 285.052 149.605 283.794 149.451 282.794Z" fill="#E85D5D"/>
<path fill-rule="evenodd" clip-rule="evenodd" d="M149.38 282.406C149.38 282.406 145.303 282.814 145.157 282.1C145.045 281.444 145.513 281.191 145.714 280.487C145.921 279.757 145.369 279.108 146.202 278.523C146.841 278.074 149.221 279.596 150.708 279.351C149.698 280.229 149.123 281.908 149.38 282.406Z" fill="#F9A8AC"/>
<path fill-rule="evenodd" clip-rule="evenodd" d="M153.157 266.061C153.157 266.061 154.48 265.189 156.937 265.613C156.937 265.613 161.317 267.2 162.534 272.828C163.476 277.183 166.611 278.077 167.828 280.693C167.828 280.693 164.341 279.522 161.815 277.818C159.289 276.114 159.615 275.145 158.291 271.514C156.484 266.559 153.157 266.061 153.157 266.061Z" fill="#E44E46"/>
<path fill-rule="evenodd" clip-rule="evenodd" d="M156.937 265.613C156.937 265.613 159.658 265.261 161.503 265.466C163.348 265.671 164.825 269.004 165.425 271.853C166.199 275.533 169.207 275.955 171.303 279.701C173.399 283.448 175.764 291.805 172.92 297.786C172.92 297.786 171.632 300.307 168.231 299.821C168.231 299.821 167.544 299.271 168.403 297.605C169.261 295.937 170.686 296.585 171.26 294.748C171.835 292.91 172.782 287.034 167.828 280.694C167.828 280.694 163.351 278.274 162.558 274.538C161.451 269.324 158.957 266.156 156.937 265.613Z" fill="#10145F"/>
<path fill-rule="evenodd" clip-rule="evenodd" d="M148.278 266.832C148.284 266.823 145.558 266.314 144.704 266.278C143.879 266.243 143.186 267.054 143.067 268.955C144.321 269.204 147.217 269.785 149.175 269.325C149.175 269.325 147.572 268.138 148.278 266.832Z" fill="#E85D5D"/>
<path fill-rule="evenodd" clip-rule="evenodd" d="M154.356 280.593C154.355 280.565 154.351 280.537 154.342 280.509C154.29 280.338 154.108 280.241 153.938 280.293C152.066 280.864 150.529 283.291 150.824 285.193C150.853 285.37 151.019 285.491 151.195 285.463C151.372 285.435 151.494 285.271 151.466 285.092C151.221 283.527 152.586 281.383 154.126 280.914C154.27 280.87 154.361 280.736 154.356 280.593Z" fill="white"/>
<path fill-rule="evenodd" clip-rule="evenodd" d="M155.589 282.025C155.587 281.985 155.579 281.945 155.562 281.907C155.491 281.742 155.3 281.667 155.135 281.738C154.451 282.036 153.414 282.806 152.754 283.704C152.309 284.31 152.033 285.515 152.342 286.159C152.419 286.32 152.613 286.388 152.774 286.31C152.936 286.233 153.003 286.039 152.927 285.877C152.745 285.499 152.928 284.563 153.277 284.088C153.862 283.291 154.804 282.59 155.394 282.334C155.519 282.279 155.594 282.154 155.589 282.025Z" fill="white"/>
<path fill-rule="evenodd" clip-rule="evenodd" d="M156.847 283.57C156.846 283.533 156.839 283.496 156.824 283.46C156.757 283.293 156.568 283.213 156.402 283.28C155.504 283.643 154.68 284.246 154.195 284.894C153.703 285.551 153.448 286.432 153.536 287.182C153.556 287.36 153.717 287.488 153.894 287.468C154.073 287.447 154.212 287.283 154.18 287.109C154.116 286.522 154.323 285.805 154.714 285.283C155.125 284.735 155.864 284.197 156.645 283.882C156.774 283.829 156.852 283.702 156.847 283.57Z" fill="white"/>
<path fill-rule="evenodd" clip-rule="evenodd" d="M158.286 284.956C158.284 284.909 158.272 284.861 158.249 284.816C158.166 284.658 157.969 284.597 157.811 284.68C157.37 284.912 156.277 285.54 155.659 286.346C155.027 287.172 155.011 287.924 155.072 288.549C155.09 288.727 155.25 288.857 155.428 288.839C155.606 288.82 155.738 288.66 155.718 288.482C155.655 287.878 155.709 287.349 156.175 286.74C156.713 286.036 157.71 285.467 158.113 285.254C158.227 285.195 158.29 285.076 158.286 284.956Z" fill="white"/>
<path fill-rule="evenodd" clip-rule="evenodd" d="M138.569 262.91C130.486 260.39 126.182 258.08 120.619 255.77C114.358 253.172 108.191 250.157 95.8455 248.316C90.6615 247.543 79.6713 249.691 77.8762 250.704C75.4491 251.005 67.0488 256.714 71.0544 261.582C81.7131 267.151 101.919 271.46 107.512 272.629C116.962 274.604 123.538 276.155 133.269 280.387C136.125 277.803 140.353 271.415 138.569 262.91Z" fill="#323C84"/>
<g style="mix-blend-mode:overlay">
<path fill-rule="evenodd" clip-rule="evenodd" d="M120.261 273.189C105.552 266.964 90.2764 263.569 75.0012 262.437C74.8066 262.437 74.5446 262.44 74.2629 262.486C85.3912 267.379 102.472 271.576 107.512 272.629C113.403 273.861 119.292 275.42 125.25 277.446C123.994 275.446 122.224 273.843 120.261 273.189Z" fill="black" fill-opacity="0.25"/>
</g>
<path fill-rule="evenodd" clip-rule="evenodd" d="M132.065 100.233C140.534 99.137 146.097 109.267 145.521 118.225C145.478 118.893 145.768 120.202 145.871 120.812C146.776 126.169 141.996 139.92 136.579 140.35C136.366 140.367 136.152 140.377 135.937 140.38C133.571 147.964 139.631 150.419 139.631 150.419C136.353 154.58 129.69 154.958 129.69 154.958C119.226 155.336 115.007 148.846 115.007 148.846C124.075 145.795 120.398 131.653 119.174 127.705C119.045 127.336 118.956 127.051 118.906 126.88C118.876 126.79 118.854 126.73 118.844 126.7C116.258 127.34 115.823 124.737 115.823 123.441C115.823 122.143 114.515 120.928 115.498 119.223C116.948 116.708 119.716 118.249 119.716 118.249C121.013 109.163 122.978 101.408 132.065 100.233Z" fill="#894730"/>
<g style="mix-blend-mode:overlay">
<path fill-rule="evenodd" clip-rule="evenodd" d="M120.862 131.421C123.253 135.606 130.095 140.463 135.935 140.38C133.384 147.988 127.197 152.044 120.097 151.084C116.516 150.6 115.007 148.845 115.007 148.845C124.079 145.794 120.396 131.642 119.173 127.701C119.483 128.59 120.031 129.967 120.862 131.421Z" fill="black" fill-opacity="0.25"/>
</g>
<path fill-rule="evenodd" clip-rule="evenodd" d="M143.852 102.808C144.131 103.078 144.4 103.386 144.655 103.763C145.316 104.738 145.536 106.763 145.101 108.411C144.956 106.747 144.603 104.737 143.852 102.808ZM134.508 103.629C134.22 103.78 133.939 103.926 133.669 104.065C131.358 105.252 129.343 105.776 127.526 105.651C128.744 105.389 130.276 104.731 132.839 103.405C134.67 102.457 136.341 101.882 137.795 102.014C136.68 102.499 135.548 103.087 134.508 103.629ZM145.241 103.366C144.663 102.511 144.009 101.898 143.277 101.518C142.794 100.556 142.196 99.6398 141.453 98.8317C138.698 95.8336 134.179 94.0511 129.76 93.3482C129.481 93.3035 129.191 93.2622 128.897 93.2237C128.79 93.209 128.68 93.1971 128.571 93.1835C128.384 93.1609 128.197 93.1383 128.005 93.1185C127.862 93.1038 127.716 93.0902 127.571 93.0772C127.414 93.0624 127.258 93.0494 127.1 93.037C126.927 93.024 126.753 93.0121 126.579 93.0019C126.452 92.994 126.326 92.9883 126.199 92.9827C125.993 92.973 125.787 92.964 125.579 92.9583C125.518 92.9566 125.456 92.9572 125.396 92.9555C122.145 92.8916 118.665 93.3867 116.014 95.0844C114.656 93.5808 112.579 92.2708 109.23 92.0325C102.789 91.5747 97.9082 95.9988 96.2946 102.154C94.5844 108.68 96.9922 115.374 98.1322 121.782C98.8173 125.635 99.2903 129.526 99.5483 133.431C99.6744 135.339 99.9149 141.556 99.2394 144.652C99.1194 146.25 107.351 138.502 107.766 127.079C107.797 126.213 107.821 125.426 107.84 124.691C109.998 130.235 114.077 135.32 121.029 137.956C120.96 134.002 119.936 130.067 119.325 128.059C119.324 128.056 119.323 128.053 119.323 128.051C119.28 127.913 119.241 127.784 119.204 127.665C119.081 127.317 118.996 127.049 118.947 126.885C118.909 126.776 118.89 126.72 118.881 126.698C116.299 127.346 115.853 124.747 115.849 123.451C115.844 122.153 114.532 120.942 115.508 119.234C116.948 116.714 119.722 118.244 119.722 118.244C119.723 118.238 119.724 118.232 119.725 118.226C119.755 118.212 122.354 116.811 124.176 114.232C125.031 113.023 126.211 110.933 125.883 106.08C128.242 106.734 130.918 106.274 133.991 104.694C134.263 104.555 134.546 104.408 134.835 104.257C136.145 103.574 137.6 102.817 138.962 102.301C139.388 102.478 139.792 102.734 140.169 103.087C142.907 105.652 144.505 109.724 145.037 112.177C145.11 112.06 145.203 111.245 145.185 110.039C146.393 108.079 146.206 104.793 145.241 103.366Z" fill="#50271B"/>
<g style="mix-blend-mode:overlay">
<path fill-rule="evenodd" clip-rule="evenodd" d="M102.949 97.8805C104.846 95.9378 108.47 94.8439 111.383 96.3011C111.799 96.5094 112.2 96.7419 112.588 96.996C112.74 97.0951 112.67 97.5104 112.48 97.6298C111.153 98.4622 109.618 99.89 107.59 104.011C105.585 108.085 104.788 116.85 107.84 124.691C107.821 125.426 107.797 126.215 107.766 127.079C107.35 138.502 99.1188 146.25 99.2388 144.652C99.9149 141.556 99.6744 135.339 99.5483 133.431C99.5194 132.996 99.4781 132.562 99.4442 132.126C99.4628 132.068 99.4849 132.01 99.5024 131.952C99.7712 131.081 99.9228 130.154 100.058 129.255C101.199 121.63 99.0934 114.002 99.4747 106.361C99.4775 106.3 99.4815 106.239 99.4849 106.179C99.6625 103.285 100.874 100.006 102.949 97.8805ZM108.105 125.344C109.489 126.056 112.235 127.995 114.379 130.07C116.641 132.26 119.414 132.406 120.341 132.089C120.699 133.863 120.992 135.906 121.029 137.956C114.351 135.423 110.325 130.632 108.105 125.344Z" fill="black" fill-opacity="0.25"/>
</g>
<path fill-rule="evenodd" clip-rule="evenodd" d="M112.028 98.023C111.954 98.023 111.879 97.9998 111.816 97.9523C111.66 97.8351 111.628 97.6133 111.745 97.4571C113.418 95.2252 115.042 94.7278 115.823 94.4885C116.009 94.4313 116.207 94.5366 116.264 94.7233C116.321 94.91 116.216 95.1081 116.029 95.1653C115.32 95.382 113.846 95.8341 112.311 97.8815C112.241 97.9743 112.135 98.023 112.028 98.023Z" fill="#EAA4AB"/>
<path fill-rule="evenodd" clip-rule="evenodd" d="M134.441 130.095C134.15 130.056 133.713 130.052 133.422 130.013C133.335 130.001 133.568 130.302 133.529 130.381C133.5 130.437 133.527 130.506 133.555 130.563C133.846 131.147 134.368 131.598 134.956 131.883C135.544 132.169 136.196 132.3 136.847 132.358C137.234 132.393 137.625 132.402 138.009 132.35C139.316 132.175 139.952 131.939 140.624 130.805C140.934 130.281 137.66 129.014 136.54 129.443C136.087 129.615 134.922 130.159 134.441 130.095Z" fill="#AA614D"/>
<path fill-rule="evenodd" clip-rule="evenodd" d="M138.074 128.842C137.747 128.945 137.466 129.264 137.511 129.603C137.552 129.916 137.832 130.132 138.074 130.333C138.517 130.699 138.906 131.129 139.227 131.606C139.31 131.73 139.399 131.865 139.54 131.911C139.775 131.988 140.001 131.785 140.157 131.595C140.646 130.996 141.048 130.331 141.447 129.67C141.486 129.605 141.523 129.517 141.472 129.462C141.443 129.432 141.396 129.426 141.355 129.422C140.775 129.368 140.202 129.262 139.642 129.104C139.13 128.96 138.62 128.671 138.074 128.842Z" fill="#300D07"/>
<path fill-rule="evenodd" clip-rule="evenodd" d="M139.524 131.357C139.639 131.377 139.756 131.4 139.855 131.463C139.953 131.526 140.029 131.636 140.018 131.752C140.005 131.881 139.895 131.977 139.787 132.048C139.38 132.319 138.895 132.451 138.409 132.512C137.772 132.591 137.122 132.552 136.499 132.398C136.344 132.36 136.185 132.312 136.065 132.205C135.729 131.904 136.015 131.743 136.3 131.642C136.64 131.522 136.99 131.43 137.346 131.368C138.064 131.242 138.805 131.237 139.524 131.357ZM137.884 128.77C138.999 128.632 139.211 128.717 140.288 129.035C140.332 129.048 140.264 129.337 140.716 129.3C140.79 129.294 141.12 129.391 141.103 129.463C141.042 129.72 140.041 130.169 139.249 130.339C138.108 130.583 136.763 130.72 135.195 130.522C134.53 130.439 134.013 130.278 134.033 130.013C134.047 129.842 135.052 129.483 135.339 129.294C135.998 128.857 137.099 128.867 137.884 128.77Z" fill="#F4F0E9"/>
<path fill-rule="evenodd" clip-rule="evenodd" d="M141.617 129.314C141.704 129.297 141.841 129.227 141.861 129.251C141.879 129.273 141.759 129.374 141.649 129.456L141.609 129.483C141.615 129.492 141.61 129.515 141.59 129.554C140.934 130.926 140.838 131.195 140.067 132.277C139.834 132.605 139.376 132.955 139.018 133.137C138.004 133.653 136.151 133.67 135.098 132.965C134.527 132.583 134.012 132.053 133.689 131.448C133.542 131.174 132.782 129.493 133.434 130.074C133.644 130.262 134.09 130.672 134.34 130.839C134.615 131.022 135 131.22 135.304 131.349C135.934 131.618 136.92 131.744 138.038 131.607C139.064 131.48 140.239 130.867 140.944 130.058C141.092 129.889 141.288 129.697 141.43 129.582C140.941 129.798 140.315 129.679 139.691 129.589C138.9 129.476 138.567 129.462 137.779 129.596C136.369 129.837 134.716 130.858 133.394 130.021C133.32 129.974 133.236 129.906 133.243 129.87C133.251 129.835 133.35 129.876 133.43 129.874C134.638 129.842 135.969 128.365 137.191 128.512C137.482 128.547 137.769 128.646 138.061 128.617C138.34 128.589 138.591 128.439 138.863 128.373C139.792 128.149 140.579 129.509 141.617 129.314ZM137.95 114.729C138.118 114.812 138.187 115.015 138.104 115.183C138.099 115.194 137.574 116.266 137.42 117.067C137.239 118.004 137.18 119.163 138.104 120.651C138.401 121.129 138.779 121.541 139.146 121.939C139.782 122.631 140.383 123.284 140.263 124.082C140.158 124.78 139.535 125.427 138.244 126.181C138.19 126.212 138.132 126.227 138.073 126.227C137.956 126.227 137.843 126.167 137.779 126.058C137.685 125.896 137.74 125.689 137.901 125.594C138.955 124.98 139.523 124.437 139.592 123.981C139.664 123.504 139.192 122.992 138.646 122.399C138.276 121.997 137.858 121.542 137.527 121.009C136.474 119.313 136.56 117.942 136.753 116.938C136.925 116.047 137.472 114.93 137.496 114.883C137.578 114.714 137.782 114.646 137.95 114.729ZM118.831 120.034C118.958 120.172 118.948 120.387 118.81 120.513C118.671 120.64 118.456 120.631 118.331 120.493C118.243 120.396 117.846 120.306 117.548 120.519C117.464 120.579 117.355 120.735 117.322 120.976C117.284 121.252 117.357 121.561 117.529 121.871C118.115 121.271 118.722 121.447 118.917 121.527C119.218 121.652 119.357 121.836 119.309 122.045C119.267 122.229 119.082 122.342 118.903 122.301C118.825 122.284 118.76 122.241 118.714 122.183C118.665 122.153 118.543 122.1 118.393 122.124C118.231 122.151 118.069 122.265 117.917 122.457C118.125 122.877 118.01 123.306 117.915 123.662C117.793 124.12 117.77 124.296 117.994 124.478C118.139 124.596 118.161 124.81 118.043 124.955C117.976 125.038 117.878 125.081 117.779 125.081C117.703 125.081 117.628 125.056 117.565 125.005C116.981 124.53 117.142 123.927 117.259 123.487C117.363 123.098 117.414 122.868 117.245 122.659C116.653 121.923 116.594 121.288 116.649 120.884C116.703 120.497 116.891 120.154 117.154 119.967C117.714 119.567 118.501 119.673 118.831 120.034ZM133.756 118.678C133.801 118.74 133.795 118.826 133.742 118.883C133.69 118.938 132.458 120.238 130.536 120.705C129.918 120.855 129.378 120.915 128.903 120.915C128.024 120.915 127.371 120.711 126.863 120.503C126.786 120.472 126.745 120.387 126.768 120.307C126.851 120.027 127.209 119.506 128.012 119.559L128.221 119.573C129.202 119.644 131.026 119.774 133.557 118.624C133.627 118.593 133.711 118.615 133.756 118.678ZM146.062 118.486C146.085 118.528 146.089 118.577 146.073 118.623C146.056 118.667 146.02 118.703 145.976 118.718C145.765 118.793 145.567 118.884 145.356 118.979C144.759 119.251 144.081 119.559 142.92 119.593C142.866 119.595 142.813 119.595 142.762 119.595C141.048 119.595 140.301 118.751 140.269 118.714C140.223 118.661 140.216 118.584 140.254 118.524C140.29 118.463 140.361 118.433 140.43 118.451C142.088 118.858 143.089 118.52 143.894 118.249C144.272 118.121 144.597 118.012 144.931 117.996C145.759 117.961 146.05 118.464 146.062 118.486Z" fill="#3F1B13"/>
<path fill-rule="evenodd" clip-rule="evenodd" d="M132.913 113.356C133.115 113.361 133.301 113.599 133.468 114.063C133.624 114.5 133.802 115.314 133.477 115.595C133.281 115.766 132.582 115.853 131.262 116.006C130.095 116.142 128.771 116.295 128.317 116.53C127.309 117.051 124.573 118.976 124.545 118.996C124.517 119.015 124.485 119.025 124.452 119.025C124.418 119.025 124.382 119.014 124.353 118.992C124.297 118.949 124.276 118.873 124.3 118.807C124.349 118.673 125.541 115.522 128.15 114.412C130.631 113.356 132.554 113.349 132.913 113.356Z" fill="#50271B"/>
<path fill-rule="evenodd" clip-rule="evenodd" d="M143.207 113.211C144.887 113.661 145.585 114.459 145.707 114.615C145.881 114.832 145.913 115.272 145.913 115.734L145.913 115.93C145.913 116.006 145.859 116.072 145.784 116.089C145.773 116.091 145.761 116.092 145.751 116.092C145.688 116.092 145.629 116.056 145.603 115.997C145.481 115.73 145.129 115.491 144.494 115.247C144.015 115.062 142.774 115.135 141.777 115.194C140.625 115.26 140.013 115.288 139.797 115.136C139.464 114.902 139.544 114.257 139.594 113.991C139.62 113.851 139.766 113.152 140.098 113.069C140.464 112.978 141.433 112.737 143.207 113.211Z" fill="#50271B"/>
<path fill-rule="evenodd" clip-rule="evenodd" d="M117.836 125.905C118.266 125.905 118.614 126.253 118.614 126.683C118.614 127.113 118.266 127.461 117.836 127.461C117.406 127.461 117.058 127.113 117.058 126.683C117.058 126.253 117.406 125.905 117.836 125.905ZM116.265 125.278C116.58 125.278 116.836 125.534 116.836 125.85C116.836 126.165 116.58 126.421 116.265 126.421C115.949 126.421 115.693 126.165 115.693 125.85C115.693 125.534 115.949 125.278 116.265 125.278ZM116.039 122.83C116.335 122.83 116.576 123.07 116.576 123.367C116.576 123.663 116.335 123.904 116.039 123.904C115.742 123.904 115.502 123.663 115.502 123.367C115.502 123.07 115.742 122.83 116.039 122.83Z" fill="white"/>
</g>
<defs>
<filter id="filter0_d" x="23" y="24" width="209" height="269" filterUnits="userSpaceOnUse" color-interpolation-filters="sRGB">
<feFlood flood-opacity="0" result="BackgroundImageFix"/>
<feColorMatrix in="SourceAlpha" type="matrix" values="0 0 0 0 0 0 0 0 0 0 0 0 0 0 0 0 0 0 127 0"/>
<feOffset dy="4"/>
<feGaussianBlur stdDeviation="2"/>
<feColorMatrix type="matrix" values="0 0 0 0 1 0 0 0 0 0.458824 0 0 0 0 0.564706 0 0 0 1 0"/>
<feBlend mode="normal" in2="BackgroundImageFix" result="effect1_dropShadow"/>
<feBlend mode="normal" in="SourceGraphic" in2="effect1_dropShadow" result="shape"/>
</filter>
<linearGradient id="paint0_linear" x1="-246" y1="-405.5" x2="106" y2="267" gradientUnits="userSpaceOnUse">
<stop stop-color="white"/>
<stop offset="1" stop-color="white" stop-opacity="0"/>
</linearGradient>
</defs>
</svg>
