<svg width="233" height="293" viewBox="0 0 233 293" fill="none" xmlns="http://www.w3.org/2000/svg">
<rect x="2.5" y="2.5" width="207" height="262" rx="17.5" fill="url(#paint0_linear)" stroke="white" stroke-width="5"/>
<g filter="url(#filter0_d)">
<rect x="28" y="24" width="201" height="261" rx="20" fill="#FFC1C7"/>
</g>
<mask id="mask0" mask-type="alpha" maskUnits="userSpaceOnUse" x="27" y="24" width="201" height="261">
<rect x="27" y="24" width="201" height="261" rx="20" fill="#FFC1C7"/>
</mask>
<g mask="url(#mask0)">
<path d="M103.92 48.12C106.48 48.12 107.76 49.352 107.76 51.816C107.76 53.592 107.704 56.088 107.592 59.304L109.296 59.424V60H103.944V59.424L105.24 59.328C105.352 55.104 105.408 52.544 105.408 51.648C105.408 50.736 105.24 50.056 104.904 49.608C104.568 49.16 104.024 48.936 103.272 48.936C102.52 48.936 101.824 49.256 101.184 49.896C100.544 50.52 100.112 51.192 99.888 51.912C99.888 53.64 99.832 56.104 99.72 59.304L101.424 59.424V60H96.072V59.424L97.368 59.328C97.48 55.104 97.536 52.544 97.536 51.648C97.536 50.736 97.368 50.056 97.032 49.608C96.696 49.16 96.112 48.936 95.28 48.936C94.464 48.936 93.696 49.376 92.976 50.256C92.256 51.12 91.896 51.888 91.896 52.56V59.304L93.696 59.424V60H87.984V59.424L89.544 59.328V49.152L87.504 49.056V48.504L91.8 48.216L91.68 50.688H91.92C92.352 49.84 92.928 49.2 93.648 48.768C94.384 48.336 95.184 48.12 96.048 48.12C98.208 48.12 99.456 48.984 99.792 50.712V50.688C100.224 49.84 100.8 49.2 101.52 48.768C102.256 48.336 103.056 48.12 103.92 48.12ZM114.868 44.376C114.868 44.76 114.732 45.096 114.46 45.384C114.188 45.656 113.844 45.792 113.428 45.792C113.028 45.792 112.692 45.656 112.42 45.384C112.148 45.112 112.012 44.776 112.012 44.376C112.012 43.96 112.148 43.616 112.42 43.344C112.692 43.056 113.028 42.912 113.428 42.912C113.828 42.912 114.164 43.056 114.436 43.344C114.724 43.632 114.868 43.976 114.868 44.376ZM110.788 60V59.424L112.372 59.304V49.104L110.26 49.032V48.48L114.724 48.168V59.304L116.308 59.424V60H110.788ZM121.779 50.832C122.499 48.976 123.947 48.048 126.123 48.048C127.211 48.048 128.091 48.376 128.763 49.032C129.435 49.672 129.771 50.592 129.771 51.792C129.771 53.856 129.707 56.36 129.579 59.304L131.235 59.424V60H125.931V59.424L127.227 59.328C127.355 55.712 127.419 53.64 127.419 53.112C127.419 52.584 127.411 52.184 127.395 51.912C127.379 51.624 127.331 51.28 127.251 50.88C127.187 50.464 127.083 50.136 126.939 49.896C126.587 49.304 126.035 49.008 125.283 49.008C124.259 49.008 123.419 49.432 122.763 50.28C122.107 51.128 121.779 52.048 121.779 53.04V59.304L123.579 59.424V60H117.843V59.424L119.427 59.304V49.152L117.387 49.056V48.504L121.683 48.216L121.563 50.808L121.779 50.832ZM141.989 56.328V49.728C141.221 49.136 140.269 48.84 139.133 48.84C137.709 48.84 136.733 49.424 136.205 50.592C135.773 51.584 135.557 52.936 135.557 54.648C135.557 57.96 136.453 59.616 138.245 59.616C139.253 59.616 140.125 59.232 140.861 58.464C141.613 57.696 141.989 56.984 141.989 56.328ZM137.789 60.36C136.413 60.36 135.253 59.872 134.309 58.896C133.365 57.904 132.893 56.432 132.893 54.48C132.893 52.512 133.461 50.96 134.597 49.824C135.749 48.688 137.277 48.12 139.181 48.12C140.173 48.12 141.109 48.352 141.989 48.816V42.768L139.877 42.672L139.853 42.12L144.293 41.616V59.448L146.333 59.544L146.357 60.096L142.109 60.384L142.157 58.08H142.013C141.629 58.8 141.045 59.36 140.261 59.76C139.477 60.16 138.653 60.36 137.789 60.36ZM151.932 59.664C152.572 59.664 153.124 59.488 153.588 59.136C154.068 58.784 154.308 58.192 154.308 57.36C154.308 56.8 154.052 56.336 153.54 55.968C153.044 55.6 152.42 55.272 151.668 54.984C150.916 54.68 150.404 54.472 150.132 54.36C149.876 54.232 149.532 54.032 149.1 53.76C148.316 53.232 147.924 52.472 147.924 51.48C147.924 50.488 148.316 49.664 149.1 49.008C149.884 48.352 151.028 48.024 152.532 48.024C153.492 48.024 154.308 48.24 154.98 48.672C155.668 49.088 156.012 49.592 156.012 50.184C156.012 50.776 155.788 51.184 155.34 51.408C155.1 51.52 154.86 51.576 154.62 51.576C154.396 51.576 154.172 51.528 153.948 51.432C154.012 51.144 154.044 50.832 154.044 50.496C154.044 50.16 153.964 49.824 153.804 49.488C153.532 48.912 153.012 48.624 152.244 48.624C151.476 48.624 150.892 48.832 150.492 49.248C150.092 49.664 149.892 50.208 149.892 50.88C149.892 51.568 150.18 52.08 150.756 52.416C151.188 52.688 151.724 52.936 152.364 53.16C153.004 53.384 153.436 53.544 153.66 53.64C153.9 53.72 154.212 53.864 154.596 54.072C154.98 54.28 155.268 54.496 155.46 54.72C155.956 55.264 156.204 56 156.204 56.928C156.204 57.856 155.788 58.648 154.956 59.304C154.124 59.944 153.108 60.264 151.908 60.264C150.708 60.264 149.652 60.08 148.74 59.712C147.844 59.344 147.396 58.808 147.396 58.104C147.396 57.448 147.884 57.016 148.86 56.808C149.148 58.712 150.172 59.664 151.932 59.664ZM163.913 60.264C162.265 60.264 160.937 59.704 159.929 58.584C158.921 57.464 158.417 55.984 158.417 54.144C158.417 52.304 158.945 50.824 160.001 49.704C161.073 48.584 162.417 48.024 164.033 48.024C165.649 48.024 166.857 48.392 167.657 49.128C168.457 49.848 168.857 50.856 168.857 52.152C168.857 52.536 168.825 52.92 168.761 53.304H161.009V54.144C161.009 55.936 161.265 57.296 161.777 58.224C162.289 59.136 163.129 59.592 164.297 59.592C165.945 59.592 167.217 58.872 168.113 57.432C168.465 57.544 168.641 57.712 168.641 57.936C168.641 58.336 168.273 58.8 167.537 59.328C167.185 59.584 166.689 59.808 166.049 60C165.409 60.176 164.697 60.264 163.913 60.264ZM166.577 51.648C166.577 50.912 166.425 50.28 166.121 49.752C165.705 49.048 165.033 48.696 164.105 48.696C162.377 48.696 161.369 49.944 161.081 52.44H166.529C166.561 52.168 166.577 51.904 166.577 51.648ZM178.273 57.504C178.273 57.552 178.265 57.608 178.249 57.672C177.993 58.456 177.561 59.088 176.953 59.568C176.361 60.032 175.665 60.264 174.865 60.264C174.065 60.264 173.393 60.04 172.849 59.592C172.321 59.128 172.057 58.232 172.057 56.904C172.057 56.536 172.097 53.872 172.177 48.912H170.521V48.288H172.201L172.225 44.76H174.577L174.505 48.288H177.937V48.912H174.505C174.425 54.08 174.385 57.104 174.385 57.984C174.385 59.056 174.737 59.592 175.441 59.592C175.873 59.592 176.321 59.344 176.785 58.848C177.265 58.352 177.601 57.792 177.793 57.168C178.113 57.168 178.273 57.28 178.273 57.504Z" fill="#FF5374"/>
</g>
<mask id="mask1" mask-type="alpha" maskUnits="userSpaceOnUse" x="27" y="24" width="201" height="261">
<rect x="27" y="24" width="201" height="261" rx="20" fill="#FFC1C7"/>
</mask>
<g mask="url(#mask1)">
<path fill-rule="evenodd" clip-rule="evenodd" d="M123.892 137.361C123.751 137.361 123.637 137.243 123.637 137.097V124.942C123.637 120.625 120.259 117.112 116.105 117.112H66.3013C66.1608 117.112 66.0468 116.994 66.0468 116.847C66.0468 116.701 66.1608 116.582 66.3013 116.582H116.105C120.539 116.582 124.146 120.333 124.146 124.942V137.097C124.146 137.243 124.032 137.361 123.892 137.361Z" fill="#B5B6B7"/>
<path fill-rule="evenodd" clip-rule="evenodd" d="M123.892 205.294C123.751 205.294 123.637 205.175 123.637 205.029V192.875C123.637 188.557 120.259 185.044 116.105 185.044H66.3013C66.1608 185.044 66.0468 184.926 66.0468 184.779C66.0468 184.633 66.1608 184.515 66.3013 184.515H116.105C120.539 184.515 124.146 188.265 124.146 192.875V205.029C124.146 205.175 124.032 205.294 123.892 205.294Z" fill="#B5B6B7"/>
<path fill-rule="evenodd" clip-rule="evenodd" d="M52.9158 171.691C52.7753 171.691 52.6613 171.573 52.6613 171.427V159.273C52.6613 154.663 56.2685 150.912 60.7024 150.912H110.506C110.647 150.912 110.76 151.031 110.76 151.177C110.76 151.324 110.647 151.442 110.506 151.442H60.7024C56.549 151.442 53.1703 154.955 53.1703 159.273V171.427C53.1703 171.573 53.0563 171.691 52.9158 171.691Z" fill="#B5B6B7"/>
<path fill-rule="evenodd" clip-rule="evenodd" d="M242.077 173.076C240.985 188.588 235.188 202.181 224.846 213.478C220.298 218.446 215.985 223.435 213.207 229.824C211.231 234.368 209.907 239.072 209.269 243.814H192.792V234.037C192.792 230.518 190.038 227.655 186.653 227.655H178.844V167.83C178.844 167.622 178.681 167.453 178.481 167.453C178.28 167.453 178.118 167.622 178.118 167.83V227.655H170.181C166.796 227.655 164.042 230.518 164.042 234.037V243.814H147.553C147.264 241.405 146.84 239.205 146.26 237.101C143.965 228.778 140.439 222.318 135.479 217.353C126.658 208.522 120.861 199.145 117.755 188.688C111.25 166.78 114.346 146.568 126.958 128.614C138.255 112.532 153.643 103.514 172.694 101.813C194.183 99.8921 212.33 107.518 226.624 124.477C238.183 138.191 243.382 154.542 242.077 173.076ZM178.844 243.814V228.41H186.653C189.637 228.41 192.066 230.934 192.066 234.037V243.814H178.844ZM164.768 243.814V234.037C164.768 230.934 167.196 228.41 170.181 228.41H178.118V243.814H164.768ZM227.17 123.979C212.715 106.831 194.365 99.1194 172.632 101.061C153.363 102.782 137.799 111.902 126.372 128.168C113.617 146.327 110.485 166.763 117.062 188.911C120.204 199.493 126.064 208.974 134.976 217.897C139.841 222.768 143.304 229.117 145.562 237.308C146.158 239.47 146.586 241.736 146.871 244.236C146.893 244.426 147.047 244.569 147.232 244.569H178.118V254.186C178.118 254.394 178.28 254.563 178.481 254.563C178.681 254.563 178.844 254.394 178.844 254.186V244.569H209.586C209.768 244.569 209.922 244.429 209.945 244.241C210.556 239.462 211.876 234.716 213.868 230.135C216.599 223.854 220.868 218.918 225.373 213.997C235.832 202.571 241.696 188.821 242.801 173.131C244.121 154.388 238.862 137.851 227.17 123.979Z" fill="black"/>
<path fill-rule="evenodd" clip-rule="evenodd" d="M195.387 158.46C195.25 158.275 194.951 158.275 194.814 158.46L183.852 173.178L172.892 158.46C172.755 158.275 172.456 158.276 172.318 158.46L161.359 173.177L150.4 158.46C150.277 158.295 150.049 158.265 149.89 158.393C149.732 158.521 149.703 158.758 149.826 158.922L161.072 174.024C161.21 174.209 161.509 174.209 161.646 174.024L172.605 159.308L183.565 174.024C183.702 174.209 184.002 174.21 184.139 174.024L195.101 159.308L206.062 174.024C206.133 174.121 206.241 174.171 206.349 174.171C206.427 174.171 206.505 174.145 206.571 174.092C206.729 173.964 206.758 173.728 206.636 173.562L195.387 158.46Z" fill="black"/>
<path fill-rule="evenodd" clip-rule="evenodd" d="M147.233 244.192L147.991 267.127C148.34 277.666 155.867 286.236 165.586 287.838C166.701 294.247 172.084 299.112 178.57 299.112C185.098 299.112 190.506 294.182 191.572 287.712C200.953 285.824 208.13 277.413 208.47 267.127L209.228 244.192H147.233Z" fill="#F0BE91"/>
<path fill-rule="evenodd" clip-rule="evenodd" d="M53.9368 191.612H106.782C106.782 191.612 124.596 253.999 125.844 273.082C127.09 292.166 117.946 330.584 117.946 330.584H86.3574C86.3574 330.584 97.9953 281.609 96.7482 272.676C95.5011 263.743 86.7729 243.036 86.7729 243.036L73.4725 330.757L36.4797 328.321C36.4797 328.321 52.2743 267.804 52.2743 250.751C52.2743 233.697 53.9368 191.612 53.9368 191.612Z" fill="#94B1EB"/>
<path fill-rule="evenodd" clip-rule="evenodd" d="M52.2745 251.05C52.4438 251.05 52.5813 250.916 52.5813 250.75C52.5813 234.636 54.0861 195.665 54.2322 191.912H106.783C106.952 191.912 107.089 191.778 107.089 191.612C107.089 191.446 106.952 191.312 106.783 191.312H53.937C53.7719 191.312 53.6369 191.439 53.6302 191.601C53.6136 192.021 51.9676 233.886 51.9676 250.75C51.9676 250.916 52.1051 251.05 52.2745 251.05ZM90.4812 219.936L89.8742 219.85C89.8742 219.85 87.2039 237.873 85.3775 250.193L73.1689 330.713C73.1438 330.877 73.2598 331.029 73.4273 331.053C73.4427 331.056 73.458 331.057 73.4727 331.057C73.6225 331.057 73.7538 330.95 73.7759 330.801L84.2612 261.65C84.2888 261.611 84.3109 261.57 84.3183 261.521C84.3655 261.207 85.0615 256.509 85.9704 250.378L86.9118 244.168C88.6719 248.441 95.3743 265.051 96.4446 272.716C96.4673 272.881 96.6226 272.993 96.7901 272.972C96.9577 272.95 97.0755 272.799 97.0522 272.635C95.8303 263.881 87.3721 243.673 87.0702 242.954C88.7131 231.869 90.4812 219.936 90.4812 219.936ZM64.9587 345.775H40.76C40.5906 345.775 40.4531 345.909 40.4531 346.074C40.4531 346.24 40.5906 346.374 40.76 346.374H64.9587C65.1281 346.374 65.2655 346.24 65.2655 346.074C65.2655 345.909 65.1281 345.775 64.9587 345.775ZM122.567 339.716C122.397 339.716 122.26 339.85 122.26 340.016V345.775H99.3211C98.3919 345.775 97.6365 346.513 97.6365 347.42C97.6365 347.586 97.7733 347.719 97.9433 347.719C98.1127 347.719 98.2502 347.586 98.2502 347.42C98.2502 346.843 98.7307 346.374 99.3211 346.374H122.874V340.016C122.874 339.85 122.737 339.716 122.567 339.716ZM105.525 333.311C105.564 333.149 105.461 332.989 105.296 332.95C105.127 332.914 104.966 333.013 104.927 333.174L104.694 334.15C104.405 335.359 104.768 336.603 105.666 337.48C105.726 337.538 105.804 337.568 105.883 337.568C105.961 337.568 106.04 337.538 106.1 337.48C106.22 337.363 106.22 337.173 106.1 337.056C105.353 336.327 105.051 335.292 105.291 334.287L105.525 333.311ZM47.3157 337.568C47.3942 337.568 47.4728 337.538 47.5329 337.48C47.6526 337.363 47.6526 337.173 47.5329 337.056C46.786 336.326 46.4841 335.291 46.7253 334.287L46.9579 333.311C46.9965 333.149 46.894 332.989 46.7283 332.95C46.5639 332.914 46.3988 333.013 46.3601 333.174L46.1269 334.15C45.8378 335.358 46.2012 336.603 47.099 337.48C47.1592 337.538 47.2371 337.568 47.3157 337.568Z" fill="black"/>
<path fill-rule="evenodd" clip-rule="evenodd" d="M119.051 204.407C120.292 204.651 122.008 204.583 124.08 204.526C126.458 204.462 128.609 204.64 130.128 204.546C130.106 206.075 130.068 207.613 129.986 209.171C131.26 211.854 133.39 224.425 132.144 224.579C130.815 224.744 128.921 217.544 128.921 217.544C128.921 217.544 130.378 227.42 128.657 227.732C127.033 228.026 126.236 218.877 126.152 217.845L126.15 217.832L126.154 217.876C126.246 219.141 126.946 229.535 125.099 230.315L125.026 230.341C123.491 230.763 123.184 223.709 123.127 220.075L123.127 220.094L123.125 220.235C123.08 223.145 122.8 227.908 121.455 228.454L121.379 228.48C119.345 229.049 120.822 208.481 118.505 214.855C116.188 221.229 114.579 220.459 114.579 220.459C112.945 218.82 116.65 211.69 118.169 208.952C118.168 208.952 118.839 207.426 119.051 204.407ZM84.4353 115.892V121.478L89.9285 122.151C89.7377 122.196 89.6174 122.233 89.6174 122.233C79.2198 127.083 72.3831 123.456 70.4849 122.191L76.1982 121.478V115.892H84.4353ZM46.7632 89.19C51.2913 85.7073 56.5658 86.6443 56.83 86.694L56.8403 86.696C56.8403 86.696 58.2838 87.5875 53.7521 88.7847C48.6804 90.1247 49.2346 91.6043 49.2346 91.6043C49.2346 91.6043 52.2 89.9622 52.3977 92.7632C52.3977 92.7632 54.2511 93.6319 53.3244 95.3705C53.3244 95.3705 54.8445 96.6259 53.3244 99.4262C53.3244 99.4262 51.409 101.55 51.6066 98.5569C51.6066 98.5569 50.8137 100.696 48.6166 105.101C46.881 108.581 43.7873 115.023 41.6853 119.419C38.4903 118.817 32.2458 117.496 28.3162 115.724C33.4726 107.399 43.3847 91.7883 46.7632 89.19Z" fill="#F4D4B8"/>
<path fill-rule="evenodd" clip-rule="evenodd" d="M79.3574 130.164C70.4745 130.013 67.6717 127.766 66.1135 123.682C66.1129 123.682 58.3703 118.932 40.9666 128.318L41.8737 125.399L42.0891 124.531C38.9598 125.84 26.6137 120.734 23.8882 118.719C19.6278 124.35 9.33828 140.035 19.03 149.216C30.9956 160.55 51.4586 151.045 51.4586 151.045C51.4586 151.045 44.9551 180.705 53.2949 192.216L53.2924 192.253C53.4808 192.194 53.6778 192.166 53.8748 192.183C80.4167 194.422 103.072 191.472 106.87 192.428C110.126 192.428 109.337 190.193 109.423 188.885C109.844 182.545 108.516 171.789 107.321 163.738C107.321 163.738 113.304 191.19 118.018 199.337C118.977 199.538 129.33 199.266 131.808 199.49C131.919 199.25 133.224 196.331 132.703 192.429C132.159 188.356 141.859 133.799 92.9536 123.354C93.2875 125.439 88.9504 130.327 79.3574 130.164Z" fill="#E2A2B5"/>
<path fill-rule="evenodd" clip-rule="evenodd" d="M113.463 187.517C114.529 186.669 115.819 186.187 116.87 186.794C118.561 187.767 120.281 191.37 119.285 193.02C118.334 194.597 117.141 193.187 115.331 193.164C114.702 191.422 114.074 189.508 113.463 187.517ZM125.693 186.089C126.4 184.301 129.32 185.899 131.246 185.536C131.933 185.407 132.516 185.388 133.023 185.441C132.931 187.517 132.81 189.223 132.738 190.459C132.295 190.409 131.818 190.394 131.31 190.508C128.22 191.208 124.985 187.876 125.693 186.089ZM85.4105 183.544C87.3719 183.544 88.8633 182.19 89.9649 183.776C91.7471 186.34 87.5205 190.39 85.559 190.39C83.5976 190.39 80.8077 189.379 80.8077 187.461C80.8077 185.545 83.4491 183.544 85.4105 183.544ZM54.1616 181.41C56.123 181.41 55.3277 183.294 56.4293 184.88C58.2115 187.444 56.6097 189.532 54.6483 189.532C53.6148 189.532 52.3555 189.249 51.3913 188.703C50.9341 187.576 50.5554 186.365 50.2461 185.091C50.9611 183.33 52.6592 181.41 54.1616 181.41ZM100.854 180.595C102.816 180.595 102.02 182.479 103.122 184.065C104.904 186.629 103.302 188.718 101.341 188.718C99.3788 188.718 96.5888 187.706 96.5888 185.789C96.5888 183.873 98.8921 180.595 100.854 180.595ZM67.702 179.321C69.6635 179.321 71.1548 177.967 72.2564 179.553C74.0386 182.117 69.8132 186.167 67.8505 186.167C65.8891 186.167 63.0998 185.156 63.0998 183.239C63.0998 181.322 65.7406 179.321 67.702 179.321ZM109.637 173.554C110.79 172.223 112.594 171.129 113.982 171.928C115.672 172.901 117.392 176.505 116.396 178.155C115.399 179.806 114.141 178.18 112.184 178.301C111.675 178.333 111.227 178.291 110.829 178.202C110.404 176.59 110.003 175.024 109.637 173.554ZM124.032 175.849C123.611 172.777 129.244 170.999 130.998 171.855C131.654 172.175 132.349 172.671 132.916 173.258C133.016 174.705 133.079 176.107 133.113 177.451C131.767 178.457 129.4 178.728 128 178.045C126.246 177.188 124.292 177.749 124.032 175.849ZM81.5178 171.785C82.5145 170.134 84.8239 168.301 86.514 169.274C88.2036 170.247 89.9238 173.85 88.9278 175.501C87.9311 177.151 86.6736 175.525 84.7165 175.647C81.5503 175.844 80.5218 173.435 81.5178 171.785ZM49.9951 169.867C50.702 168.079 53.6221 169.678 55.5485 169.315C59.847 168.504 60.4509 171.684 59.7433 173.471C59.0363 175.259 57.5235 173.854 55.6124 174.287C52.5217 174.986 49.2874 171.654 49.9951 169.867ZM99.714 164.252C101.675 164.252 100.88 166.137 101.982 167.721C103.765 170.286 102.162 172.375 100.201 172.375C98.2393 172.375 95.4493 171.363 95.4493 169.446C95.4493 167.53 97.7526 164.252 99.714 164.252ZM65.1608 169.313C64.7392 166.241 70.3719 164.462 72.1271 165.319C73.8823 166.175 75.9155 168.298 75.0385 170.012C74.1622 171.726 70.8837 172.365 69.1291 171.508C67.3745 170.652 65.421 171.212 65.1608 169.313ZM107.29 160.591C107.998 158.803 110.917 160.401 112.844 160.038C117.143 159.228 117.746 162.407 117.039 164.195C116.332 165.982 114.819 164.578 112.908 165.011C109.817 165.71 106.583 162.378 107.29 160.591ZM51.3946 158.663C55.6931 157.852 56.297 161.032 55.5893 162.82C54.8824 164.607 53.3702 163.202 51.4591 163.635C50.819 163.78 50.1752 163.745 49.559 163.594C49.7339 161.836 49.9383 160.182 50.1469 158.687C50.5851 158.728 51.0104 158.735 51.3946 158.663ZM129.862 156.319C130.433 158.145 130.914 159.975 131.311 161.787C130.322 162.751 129.153 163.419 128.357 163.419C126.396 163.419 123.606 162.406 123.606 160.49C123.606 158.574 126.246 156.572 128.208 156.572C128.802 156.572 129.352 156.448 129.862 156.319ZM64.9475 154.734C66.9095 154.734 68.4002 153.38 69.5025 154.966C71.2841 157.53 67.0587 161.581 65.0966 161.581C63.1352 161.581 60.3453 160.569 60.3453 158.652C60.3453 156.736 62.9861 154.734 64.9475 154.734ZM80.5775 151.604C82.5389 151.604 81.7441 153.488 82.8458 155.073C84.628 157.637 83.0262 159.726 81.0648 159.726C79.1027 159.726 76.3134 158.714 76.3134 156.797C76.3134 154.881 78.6161 151.604 80.5775 151.604ZM94.1186 149.515C96.0801 149.515 97.5708 148.161 98.673 149.747C100.455 152.311 96.2292 156.361 94.2672 156.361C92.3057 156.361 89.5158 155.349 89.5158 153.433C89.5158 151.517 92.1566 149.515 94.1186 149.515ZM100.902 153.487C100.481 150.415 106.113 148.636 107.869 149.492C109.624 150.349 111.657 152.472 110.78 154.186C109.904 155.9 106.625 156.538 104.871 155.682C103.116 154.825 101.163 155.386 100.902 153.487ZM40.9128 148.766C42.8743 148.766 42.0789 150.65 43.1805 152.235C43.5052 152.703 43.7157 153.153 43.8335 153.58C41.7321 154.089 39.3319 154.518 36.7979 154.691C36.7034 154.463 36.6475 154.221 36.6475 153.96C36.6475 152.044 38.9502 148.766 40.9128 148.766ZM115.407 148.582C114.986 145.51 120.618 143.731 122.374 144.587C124.128 145.444 126.161 147.567 125.284 149.281C124.408 150.995 121.13 151.633 119.375 150.777C117.62 149.92 115.667 150.481 115.407 148.582ZM53.2163 140.875C55.1777 140.875 54.3823 142.759 55.4845 144.344C57.2668 146.909 55.665 148.997 53.7035 148.997C51.7415 148.997 48.9522 147.986 48.9522 146.069C48.9522 144.153 51.2548 140.875 53.2163 140.875ZM21.9681 140.178C23.9295 140.178 23.1341 142.063 24.2357 143.648C26.018 146.213 24.4162 148.301 22.4547 148.301C20.4927 148.301 17.7028 147.289 17.7028 145.373C17.7028 143.457 20.006 140.178 21.9681 140.178ZM61.6558 142.793C62.6519 141.142 64.9613 139.309 66.6515 140.282C68.341 141.256 70.0625 144.858 69.0658 146.509C68.0698 148.16 66.8116 146.534 64.8539 146.656C61.6878 146.853 60.6592 144.443 61.6558 142.793ZM35.5084 138.09C37.4698 138.09 38.9612 136.736 40.0628 138.322C41.845 140.886 37.6196 144.936 35.6575 144.936C33.6955 144.936 30.9062 143.924 30.9062 142.008C30.9062 140.092 33.547 138.09 35.5084 138.09ZM76.9096 135.933C78.0682 134.387 80.5526 132.786 82.1353 133.919C83.7181 135.05 83.8108 138.314 82.6515 139.861C81.4934 141.407 81.7297 143.382 79.7695 143.313C76.599 143.203 75.7503 137.479 76.9096 135.933ZM95.0676 133.332C97.029 133.332 98.5203 131.979 99.6219 133.564C101.404 136.129 97.1781 140.178 95.2161 140.178C93.2546 140.178 90.4653 139.167 90.4653 137.25C90.4653 135.334 93.1061 133.332 95.0676 133.332ZM104.877 135.092C105.585 133.305 108.504 134.903 110.431 134.54C114.73 133.73 115.333 136.909 114.626 138.697C113.919 140.484 112.406 139.08 110.495 139.512C107.404 140.212 104.17 136.88 104.877 135.092ZM48.091 126.354C50.0524 126.354 49.2571 128.238 50.3587 129.824C52.1409 132.388 50.5391 134.477 48.5777 134.477C46.6156 134.477 43.8257 133.464 43.8257 131.548C43.8257 129.632 46.129 126.354 48.091 126.354ZM61.7016 128.906C64.6996 125.789 67.0956 128.02 67.5945 129.873C68.0935 131.726 66.0258 131.454 64.7358 132.898C62.651 135.234 58.0316 134.385 57.5327 132.532C57.0343 130.678 60.3582 130.302 61.7016 128.906ZM19.0305 128.997C19.7375 127.21 22.6576 128.808 24.584 128.444C28.8831 127.635 29.4864 130.814 28.7787 132.601C28.0711 134.389 26.5596 132.984 24.6478 133.417C21.5572 134.116 18.3229 130.784 19.0305 128.997ZM98.3985 124.778C101.012 125.586 103.435 126.532 105.675 127.599C104.623 128.763 103.254 129.61 102.358 129.61C100.396 129.61 97.6062 128.598 97.6062 126.682C97.6062 126.029 97.9173 125.369 98.3985 124.778ZM32.3615 122.698C35.1398 123.717 37.9978 124.542 40.02 124.711C39.0706 126.565 36.906 128.207 35.6577 128.207C33.6957 128.207 30.9064 127.195 30.9064 125.278C30.9064 124.361 31.5146 123.426 32.3615 122.698ZM58.9527 122.507C60.3391 124.898 58.8055 126.788 56.9398 126.788C54.9783 126.788 52.1884 125.776 52.1884 123.86C52.1884 123.791 52.1982 123.716 52.2031 123.644C54.8464 122.913 57.0871 122.593 58.9527 122.507Z" fill="#F1EFEF"/>
<path fill-rule="evenodd" clip-rule="evenodd" d="M132.338 199.595C131.999 199.192 119.094 199.562 118.018 199.336C118.018 199.336 116.707 199.629 116.884 202.222C117.06 204.814 119.833 204.642 124.08 204.526C128.326 204.411 131.851 205.07 132.338 203.571C132.825 202.073 132.677 199.999 132.338 199.595ZM53.1495 192.293C52.4044 192.619 50.9996 193.326 51.6072 196.38C52.4136 200.429 107.649 198.067 109.606 196.38C109.606 196.38 110.633 193.743 109.606 191.881C108.582 190.026 82.5113 194.599 53.8749 192.183C53.6276 192.162 53.3759 192.194 53.1495 192.293ZM42.8422 119.631C39.9313 119.116 30.5292 117.31 26.5861 114.813C26.5861 114.813 22.6731 116.682 23.3684 118.21C24.0644 119.74 40.9335 126.96 42.6728 124.072C43.516 122.672 43.7867 121.621 43.8425 120.909C43.8904 120.293 43.4651 119.741 42.8422 119.631ZM79.3575 130.164C88.9504 130.327 93.2875 125.439 92.9537 123.354C92.6204 121.27 89.6175 122.233 89.6175 122.233C77.2721 127.991 69.9462 121.798 69.9462 121.798C68.5807 120.987 67.5969 121.081 66.9273 121.431C66.1185 121.854 65.7926 122.842 66.1135 123.682C67.6718 127.766 70.4746 130.013 79.3575 130.164Z" fill="#83BB9E"/>
<path fill-rule="evenodd" clip-rule="evenodd" d="M126.027 217.466C126.178 217.452 126.343 217.576 126.356 217.742C126.517 219.79 127.208 230.039 125.016 230.643C124.988 230.65 124.96 230.654 124.932 230.654C124.798 230.654 124.675 230.568 124.637 230.436C124.591 230.276 124.686 230.111 124.849 230.066C126.104 229.72 126.128 222.678 125.744 217.788C125.731 217.623 125.858 217.478 126.027 217.466ZM123.014 217.697C123.181 217.686 123.325 217.823 123.33 217.988C123.381 219.685 123.524 228.179 121.37 228.781C121.342 228.79 121.313 228.793 121.285 228.793C121.152 228.793 121.029 228.708 120.991 228.576C120.944 228.417 121.038 228.251 121.201 228.206C122.446 227.857 122.836 222.031 122.717 218.006C122.712 217.84 122.845 217.702 123.014 217.697ZM129.131 217.515C129.482 219.898 130.485 227.703 128.62 228.04C128.601 228.044 128.581 228.046 128.563 228.046C128.418 228.046 128.289 227.945 128.262 227.801C128.231 227.638 128.342 227.482 128.508 227.452C129.364 227.296 129.207 222.233 128.523 217.6C128.499 217.437 128.615 217.285 128.783 217.261C128.949 217.24 129.106 217.35 129.131 217.515ZM129.878 208.586C131.148 209.988 133.285 222.59 132.568 224.45C132.441 224.781 132.238 224.872 132.09 224.891C132.076 224.892 132.063 224.893 132.05 224.893C131.898 224.893 131.766 224.783 131.746 224.632C131.727 224.483 131.822 224.346 131.966 224.305C132.747 223.319 130.587 210.274 129.419 208.983C129.306 208.859 129.318 208.67 129.445 208.56C129.571 208.449 129.765 208.461 129.878 208.586ZM118.513 214.587C118.673 214.642 118.757 214.814 118.7 214.97C117.185 219.139 115.921 220.39 115.127 220.706C114.943 220.779 114.786 220.802 114.663 220.802C114.49 220.802 114.381 220.757 114.351 220.742C114.199 220.669 114.136 220.49 114.211 220.341C114.282 220.197 114.454 220.136 114.605 220.197C114.662 220.206 116.082 220.382 118.122 214.769C118.179 214.613 118.356 214.53 118.513 214.587ZM127.514 202.955C127.495 203.107 127.363 203.22 127.209 203.22C127.197 203.22 127.185 203.219 127.172 203.218C127.005 203.199 126.885 203.049 126.904 202.884C126.992 202.149 126.938 200.374 126.913 199.694C126.295 199.696 125.67 199.698 125.065 199.701L125.065 202.54C125.065 202.706 124.928 202.84 124.759 202.84C124.589 202.84 124.452 202.706 124.452 202.54L124.451 199.704C124.312 199.705 124.174 199.705 124.038 199.706C123.405 199.709 122.815 199.711 122.272 199.713C122.245 200.269 122.181 201.841 122.283 202.891C122.299 203.056 122.175 203.203 122.007 203.218C121.997 203.219 121.988 203.22 121.977 203.22C121.821 203.22 121.687 203.104 121.672 202.949C121.567 201.865 121.628 200.31 121.658 199.714C120.966 199.716 120.362 199.715 119.851 199.711C119.649 199.944 119.005 201.051 119.427 202.853C119.465 203.015 119.362 203.175 119.196 203.212C119.173 203.217 119.15 203.22 119.128 203.22C118.987 203.22 118.861 203.125 118.829 202.986C118.478 201.485 118.787 200.336 119.131 199.7C118.611 199.69 118.245 199.672 118.042 199.645C117.842 199.726 117.052 200.182 117.189 202.202C117.201 202.367 117.073 202.51 116.904 202.521C116.897 202.522 116.89 202.522 116.882 202.522C116.723 202.522 116.588 202.4 116.577 202.242C116.385 199.425 117.885 199.059 117.95 199.045C117.994 199.034 118.038 199.035 118.083 199.044C118.512 199.135 121.32 199.12 124.035 199.106C128.465 199.083 130.581 199.098 131.61 199.175C131.899 198.467 132.816 195.897 132.418 192.624C132.13 192.55 131.04 192.403 127.236 192.728C127.069 192.734 126.917 192.62 126.903 192.456C126.888 192.291 127.013 192.145 127.182 192.131C132.744 191.654 132.917 192.127 132.992 192.328L132.994 192.335C132.995 192.339 132.997 192.343 132.998 192.347L132.992 192.328C132.999 192.348 133.004 192.368 133.007 192.388C133.007 192.389 133.007 192.39 133.007 192.391C133.449 195.7 132.612 198.302 132.239 199.253C132.433 199.294 132.524 199.344 132.575 199.405C132.682 199.533 132.663 199.723 132.532 199.827C132.422 199.915 132.27 199.916 132.16 199.84C132.097 199.82 131.986 199.803 131.832 199.788L131.807 199.79C131.78 199.79 131.752 199.786 131.725 199.779C131.409 199.753 130.956 199.735 130.412 199.722C130.7 200.363 131.182 201.715 130.823 202.999C130.786 203.132 130.663 203.22 130.527 203.22C130.501 203.22 130.473 203.216 130.446 203.209C130.283 203.166 130.186 203.001 130.231 202.841C130.597 201.529 129.903 200.053 129.727 199.709C129.061 199.7 128.309 199.696 127.528 199.695C127.553 200.403 127.607 202.178 127.514 202.955ZM97.2905 192.291L97.2824 192.223C97.7519 196.324 97.639 196.434 97.5187 196.552C97.4586 196.61 97.38 196.639 97.3015 196.639C97.2229 196.639 97.1443 196.61 97.0842 196.552C96.9958 196.465 96.9725 196.339 97.0155 196.231C97.0471 195.916 96.8715 194.031 96.6769 192.328C96.2566 192.354 95.8317 192.38 95.405 192.407C95.0244 192.43 94.6362 192.455 94.2406 192.479L94.2401 195.96C94.2401 196.126 94.1027 196.26 93.9333 196.26C93.7639 196.26 93.6264 196.126 93.6264 195.96L93.6273 192.517C92.7169 192.573 91.7688 192.629 90.785 192.686C90.7995 192.72 90.8071 192.757 90.8071 192.797V196.713C90.8071 196.879 90.6697 197.013 90.5003 197.013C90.3309 197.013 90.1934 196.879 90.1934 196.713V192.797L90.1984 192.743L90.205 192.719C89.4953 192.758 88.7677 192.798 88.0228 192.836L88.0227 195.96C88.0227 196.126 87.8852 196.26 87.7158 196.26C87.5464 196.26 87.409 196.126 87.409 195.96L87.4095 192.867C86.5334 192.91 85.6343 192.952 84.713 192.991C84.7171 193.009 84.7192 193.029 84.7192 193.049V197.225C84.7192 197.391 84.5817 197.525 84.4123 197.525C84.2429 197.525 84.1055 197.391 84.1055 197.225V193.049L84.109 193.016C83.0657 193.058 81.9949 193.096 80.8981 193.129L80.8978 196.34C80.8978 196.505 80.7604 196.639 80.591 196.639C80.4216 196.639 80.2841 196.505 80.2841 196.34L80.2842 193.147C79.3207 193.173 78.3377 193.196 77.336 193.213L77.3354 195.96C77.3354 196.126 77.1979 196.26 77.0286 196.26C76.8592 196.26 76.7217 196.126 76.7217 195.96L76.7224 193.223C75.8188 193.237 74.9005 193.246 73.968 193.251L73.9678 197.225C73.9678 197.391 73.8303 197.525 73.6609 197.525C73.4915 197.525 73.3541 197.391 73.3541 197.225L73.3543 193.253C72.491 193.255 71.6158 193.252 70.7293 193.245L70.729 196.713C70.729 196.879 70.5916 197.013 70.4222 197.013C70.2528 197.013 70.1153 196.879 70.1153 196.713L70.1155 193.239C69.3129 193.23 68.5013 193.217 67.6809 193.2L67.685 193.059C67.6267 194.837 67.6028 196.817 67.6611 197.109C67.7175 197.239 67.6727 197.393 67.5482 197.475C67.496 197.509 67.4371 197.525 67.3782 197.525C67.2794 197.525 67.1824 197.478 67.1229 197.392C67.0592 197.299 66.9416 197.127 67.0666 193.187C66.2077 193.166 65.3396 193.141 64.4626 193.11C64.4659 193.927 64.4731 196.131 64.4612 197.229C64.4594 197.393 64.3219 197.525 64.1544 197.525H64.1507C63.9819 197.523 63.8457 197.388 63.8475 197.222C63.8595 196.114 63.852 193.877 63.8488 193.084C62.9117 193.052 61.9642 193.011 61.0074 192.963C60.9928 193.349 60.9627 194.458 61.0139 195.95C61.0194 196.116 60.8869 196.254 60.7175 196.26H60.707C60.542 196.26 60.4063 196.132 60.4002 195.971C60.3489 194.451 60.3801 193.322 60.3946 192.93C59.4861 192.882 58.569 192.828 57.644 192.767C57.6516 192.832 57.6365 192.899 57.5974 192.958C57.5814 192.985 57.1279 193.783 57.1279 196.713C57.1279 196.879 56.9904 197.013 56.821 197.013C56.6516 197.013 56.5142 196.879 56.5142 196.713C56.5142 194.028 56.8825 193.021 57.0304 192.725C56.3237 192.676 55.6121 192.624 54.8961 192.567C54.6194 192.896 53.7736 194.092 53.8249 196.333C53.8286 196.499 53.6942 196.636 53.5248 196.639H53.5181C53.3518 196.639 53.2149 196.509 53.2112 196.346C53.1662 194.364 53.7646 193.124 54.178 192.508C54.0683 192.5 53.9585 192.49 53.8486 192.481C53.6393 192.463 53.4417 192.493 53.2742 192.566C53.1189 192.635 52.9379 192.566 52.8691 192.415C52.7998 192.264 52.8691 192.087 53.0238 192.02C53.2865 191.904 53.5933 191.859 53.9008 191.884C70.9608 193.323 85.6481 192.412 95.3663 191.809C98.856 191.593 101.333 191.448 103.051 191.431L103.009 191.435C103.033 191.431 103.056 191.429 103.079 191.43C105.198 191.412 106.15 191.59 106.416 192.072C107.497 194.032 106.476 196.707 106.432 196.82C106.386 196.939 106.269 197.013 106.145 197.013C106.109 197.013 106.072 197.006 106.036 196.993C105.878 196.934 105.798 196.762 105.858 196.606C105.868 196.581 106.822 194.074 105.875 192.356C105.743 192.118 104.826 192.03 103.426 192.031C103.55 192.842 103.785 194.867 103.362 196.417C103.326 196.551 103.202 196.639 103.066 196.639C103.04 196.639 103.013 196.636 102.987 196.629C102.823 196.587 102.725 196.422 102.769 196.262C103.173 194.782 102.916 192.742 102.807 192.036C102.15 192.048 101.412 192.074 100.617 192.11C100.638 192.15 100.65 192.195 100.652 192.243C100.657 192.355 100.78 195.025 100.651 196.368C100.636 196.523 100.503 196.639 100.346 196.639L100.317 196.638C100.148 196.623 100.024 196.477 100.04 196.312C100.164 195.01 100.04 192.297 100.039 192.27C100.037 192.222 100.046 192.177 100.064 192.136C99.1895 192.18 98.2547 192.233 97.2905 192.291ZM104.284 145.165C104.448 145.156 104.602 145.268 104.62 145.434C105.509 154.212 107.879 164.877 108.904 169.248C109.657 172.413 110.69 176.588 111.857 180.856C111.901 181.016 111.804 181.18 111.64 181.223C111.613 181.229 111.586 181.233 111.561 181.233C111.424 181.233 111.301 181.145 111.264 181.01L111.118 180.475C110.247 177.265 109.455 174.129 108.805 171.459L108.792 171.404C108.784 171.373 108.603 170.649 108.314 169.419L108.298 169.35C107.511 166.043 107.03 163.844 107.021 163.801C107.01 163.749 107.013 163.697 107.028 163.65C105.933 158.477 104.621 151.54 104.009 145.492C103.992 145.328 104.116 145.181 104.284 145.165ZM53.3664 143.101C53.5278 143.153 53.615 143.322 53.5616 143.48C51.9475 148.27 50.6409 157.409 50.6274 157.501C50.6065 157.651 50.4746 157.76 50.3242 157.76C50.3101 157.76 50.296 157.758 50.2819 157.757C50.1137 157.734 49.9965 157.583 50.0198 157.419C50.0327 157.326 51.3473 148.134 52.9792 143.292C53.0319 143.134 53.2044 143.048 53.3664 143.101ZM66.2453 123.41L66.2582 123.417C66.3217 123.45 66.3736 123.506 66.4009 123.577C66.5261 123.905 66.6594 124.222 66.804 124.527C66.9656 123.995 67.3359 123.341 68.1522 122.742C68.2866 122.642 68.4806 122.668 68.5825 122.8C68.6843 122.933 68.6573 123.121 68.5217 123.22C67.2157 124.18 67.2831 125.256 67.3099 125.464C67.7354 126.155 68.2504 126.771 68.9026 127.308C68.932 126.532 69.273 125.197 70.8259 123.46C70.9388 123.335 71.1327 123.325 71.2592 123.431C71.3868 123.541 71.4003 123.731 71.2886 123.855C69.3599 126.012 69.4776 127.432 69.5465 127.781C70.249 128.243 71.0884 128.633 72.1053 128.946C72.1349 128.373 72.3096 127.237 73.0685 125.441C73.1329 125.288 73.3115 125.214 73.4687 125.278C73.6258 125.341 73.7 125.516 73.635 125.669C72.8198 127.601 72.7174 128.706 72.714 129.119C73.418 129.302 74.2003 129.453 75.0716 129.571L75.0718 126.761C75.0718 126.596 75.2093 126.461 75.3786 126.461C75.548 126.461 75.6855 126.596 75.6855 126.761L75.6847 129.646C76.3241 129.718 77.0084 129.773 77.7414 129.81C77.7475 128.403 77.7866 126.266 77.7866 126.266L78.4003 126.276C78.4003 126.276 78.3607 128.435 78.3555 129.838C78.6812 129.85 79.0171 129.859 79.3625 129.865C80.0954 129.878 80.7902 129.863 81.4483 129.822L81.4589 129.938C81.3073 128.249 81.0096 125.873 81.0072 125.849C80.9857 125.684 81.106 125.535 81.2742 125.515C81.4411 125.491 81.5951 125.611 81.616 125.776C81.619 125.8 81.9048 128.086 82.0602 129.776C83.0228 129.691 83.9024 129.552 84.7038 129.376C84.899 127.862 84.0651 125.282 84.0557 125.255C84.0041 125.097 84.0937 124.928 84.2545 124.878C84.4184 124.828 84.589 124.916 84.6406 125.073C84.6765 125.183 85.4491 127.571 85.3345 129.225C85.9675 129.061 86.5475 128.875 87.0769 128.674L87.0781 128.75C87.0781 127.735 86.3521 126.428 86.3453 126.414C86.2637 126.269 86.3183 126.088 86.4669 126.008C86.616 125.928 86.8025 125.981 86.8836 126.127C86.9132 126.18 87.559 127.342 87.6743 128.432C88.2379 128.19 88.7364 127.934 89.1741 127.678L89.1572 127.819C89.3647 126.421 88.2465 124.768 87.8783 124.226C87.7782 124.077 87.7475 124.032 87.7279 123.976C87.6745 123.818 87.761 123.649 87.9212 123.596C88.0734 123.547 88.2367 123.619 88.2993 123.758C88.3152 123.785 88.3471 123.831 88.3901 123.895C88.7398 124.411 89.7154 125.852 89.7915 127.292C90.7054 126.682 91.276 126.114 91.5662 125.788L91.6011 125.748L91.6071 125.698C91.6997 124.334 89.9593 123.246 89.9408 123.235C89.7978 123.147 89.7543 122.961 89.8445 122.822C89.9347 122.683 90.1213 122.638 90.2673 122.727C90.3419 122.773 91.8041 123.684 92.151 125.022C92.5385 124.415 92.7203 123.84 92.65 123.401C92.6236 123.237 92.7384 123.084 92.9059 123.058C93.0698 123.036 93.2293 123.144 93.2564 123.308C93.3852 124.114 92.9378 125.162 92.0283 126.182C91.675 126.578 90.9247 127.316 89.6821 128.068C89.6456 128.107 89.5995 128.134 89.5485 128.149C87.5891 129.304 84.4638 130.468 79.8289 130.468C79.6712 130.468 79.5129 130.467 79.3515 130.464C74.9578 130.39 71.5656 129.916 69.1368 128.231C69.109 128.218 69.0832 128.2 69.0608 128.178C68.1809 127.552 67.4293 126.764 66.8043 125.773C66.7634 125.737 66.733 125.689 66.7177 125.634C66.3996 125.109 66.1151 124.529 65.8646 123.888C64.9552 123.393 57.4921 119.907 41.6208 128.31L41.4647 128.393C42.3246 129.406 44.5265 133.147 42.5017 143.443C42.4734 143.586 42.3446 143.685 42.2009 143.685C42.1819 143.685 42.1623 143.684 42.142 143.68C41.9763 143.648 41.8671 143.492 41.899 143.329C43.7526 133.905 41.9708 130.144 41.1443 128.984C40.7283 130.466 39.9217 132.999 38.7187 135.35C38.6647 135.454 38.5567 135.515 38.4444 135.515C38.3983 135.515 38.3517 135.505 38.3069 135.483C38.1553 135.409 38.0945 135.229 38.17 135.081C39.4785 132.524 40.3099 129.743 40.6712 128.395C40.6555 128.343 40.6557 128.286 40.6724 128.23L41.5794 125.311C41.6285 125.154 41.7979 125.064 41.9624 125.112C42.1244 125.16 42.2159 125.328 42.1668 125.486L41.4776 127.704C57.9684 119.024 65.6429 123.063 66.2453 123.41ZM26.9419 116.199C27.0468 116.33 27.0241 116.518 26.891 116.62C25.4257 117.751 25.0623 118.725 24.9773 119.053C25.4672 119.332 26.0729 119.648 26.7621 119.984C26.9869 119.41 27.6302 118.054 29.0657 116.813C29.1909 116.702 29.3848 116.713 29.4984 116.838C29.6107 116.962 29.599 117.151 29.472 117.261C28.0962 118.451 27.498 119.777 27.3164 120.25C27.891 120.521 28.5122 120.802 29.1644 121.084C29.58 120.415 30.7391 118.556 31.1261 118.034C31.2261 117.9 31.4176 117.871 31.5544 117.968C31.6919 118.065 31.7214 118.253 31.622 118.387C31.2659 118.867 30.1752 120.614 29.7324 121.327C30.4502 121.63 31.1991 121.931 31.9595 122.22C32.3477 121.676 33.4281 120.108 33.7503 119.057C33.7988 118.899 33.9706 118.808 34.132 118.857C34.2947 118.905 34.3867 119.071 34.3376 119.23C34.0087 120.302 33.0098 121.79 32.5492 122.442C33.4004 122.755 34.2588 123.05 35.0989 123.313C35.4995 122.75 36.7641 120.896 36.8186 119.83C36.8259 119.665 36.9745 119.528 37.1395 119.546C37.3089 119.553 37.439 119.694 37.4311 119.859C37.3732 121.001 36.2244 122.767 35.7123 123.5C36.7761 123.815 37.7986 124.071 38.7248 124.237L38.7293 124.229C40.1617 122.391 40.4225 120.495 40.425 120.477C40.4459 120.311 40.6011 120.202 40.7681 120.216C40.9356 120.237 41.0553 120.387 41.0338 120.551C41.0238 120.631 40.7761 122.457 39.4033 124.344C39.7236 124.388 40.0296 124.419 40.3181 124.435C41.4504 124.498 42.1678 124.32 42.4084 123.92C43.2541 122.515 43.4885 121.495 43.5358 120.887C43.5487 120.721 43.7181 120.599 43.8653 120.611C44.0341 120.623 44.1605 120.767 44.1483 120.933C44.0715 121.909 43.664 123.016 42.9368 124.224C42.6048 124.777 41.8849 125.047 40.7434 125.047C40.5973 125.047 40.4439 125.043 40.2831 125.034C38.1961 124.918 35.0375 124.01 31.9927 122.881C31.9678 122.876 31.9437 122.867 31.9206 122.855C27.5695 121.235 23.4698 119.172 23.0875 118.332C23.0187 118.181 23.0887 118.004 23.2434 117.937C23.398 117.869 23.5797 117.937 23.649 118.089C23.7119 118.227 23.9893 118.449 24.4339 118.729C24.6095 118.21 25.1069 117.233 26.5111 116.15C26.6436 116.047 26.8363 116.069 26.9419 116.199ZM56.9608 86.4206C57.4855 86.6388 57.577 86.9356 57.5604 87.146C57.526 87.601 57.0007 88.2473 53.2178 89.2114C50.0413 90.0205 49.6151 90.8637 49.5587 91.0658C50.1246 90.8858 50.7535 90.8069 51.4403 90.8931L51.4564 90.8947C51.5911 90.9113 52.502 91.0844 52.6897 92.6098C52.9429 92.6704 53.1785 92.7828 53.3859 92.9609C53.9394 93.4376 54.2064 93.9376 54.1794 94.4484C54.1563 94.8814 53.9219 95.2112 53.735 95.408C54.1044 95.8466 54.254 96.5523 54.1801 97.513C54.1807 97.5873 54.158 99.8655 52.3979 100.42C52.3506 100.436 52.2905 100.446 52.2236 100.446C52.0971 100.446 51.9443 100.409 51.8038 100.304C51.6777 100.21 51.5767 100.074 51.5002 99.8952C51.1666 100.839 50.6507 101.992 49.8575 103.252C49.7992 103.345 49.6986 103.395 49.5961 103.395C49.5408 103.395 49.485 103.381 49.4353 103.351C49.2911 103.264 49.2463 103.079 49.3346 102.938C50.5715 100.973 51.1091 99.2567 51.3371 98.263C51.3393 98.2196 51.3424 98.1745 51.346 98.1287C51.3505 98.0737 51.3687 98.0232 51.3976 97.9808L51.4051 97.9444C51.478 97.574 51.4966 97.3632 51.4974 97.3562C51.5109 97.1907 51.6716 97.0672 51.8263 97.081C51.9951 97.0936 52.1215 97.2375 52.1092 97.4023C52.1061 97.4404 52.0763 97.7894 51.9458 98.3698L51.9416 98.4449C51.8914 99.5521 52.1269 99.7905 52.1781 99.8289C53.5437 99.4291 53.567 97.5088 53.567 97.4896C53.6437 96.4836 53.4719 95.8601 53.0576 95.6137C52.4733 95.2672 51.3644 95.5795 49.7626 96.5466C49.6067 96.6407 49.56 96.6689 49.5036 96.6863C49.344 96.7366 49.1697 96.6479 49.1188 96.4896C49.0715 96.3403 49.1489 96.1827 49.2937 96.1239C49.3213 96.1089 49.3716 96.0777 49.4404 96.0364C50.0924 95.642 52.0326 94.4709 53.2503 95.0352C53.3694 94.9204 53.5533 94.6973 53.5669 94.413C53.5816 94.0958 53.3846 93.7589 52.9802 93.4112C51.9375 92.5161 49.4366 94.148 48.5609 94.8524C48.4289 94.9573 48.2362 94.94 48.1288 94.8117C48.0208 94.684 48.0398 94.4951 48.1705 94.3896C48.2833 94.2995 50.3648 92.6415 52.0622 92.5583C51.9035 91.5681 51.3944 91.4918 51.3709 91.4885C48.5374 91.1269 46.7122 94.1659 46.6938 94.1965C46.6374 94.293 46.5336 94.347 46.4269 94.347C46.3753 94.347 46.3231 94.3344 46.2753 94.3074C46.128 94.2247 46.077 94.0424 46.1605 93.8985C46.2195 93.7991 47.228 92.1104 48.9748 91.2937C48.9637 91.2735 48.9552 91.251 48.9494 91.2275C48.8899 90.9841 48.8089 89.715 53.0631 88.631C56.6926 87.7066 56.9338 87.152 56.9479 87.1022C56.9406 87.1022 56.8933 87.0441 56.7196 86.9721C56.5637 86.9068 56.4913 86.7305 56.5576 86.5783C56.6245 86.426 56.8043 86.3552 56.9608 86.4206Z" fill="black"/>
<path fill-rule="evenodd" clip-rule="evenodd" d="M95.5064 105.8C95.7574 112.59 88.8666 118.224 82.1753 118.224C75.484 118.224 68.6963 113.353 68.4048 106.414C68.1194 99.6259 73.1463 92.0066 78.1714 91.3489C88.4051 90.0084 95.1995 97.4922 95.5064 105.8Z" fill="black"/>
<path fill-rule="evenodd" clip-rule="evenodd" d="M82.1753 117.624C76.0498 117.624 69.3008 113.11 69.0179 106.39C68.7491 99.992 73.4961 92.5657 78.253 91.9428C79.0183 91.8427 79.7824 91.7917 80.5238 91.7917C89.5202 91.7917 94.6416 99.0208 94.8932 105.822C94.9945 108.569 93.8395 111.308 91.6412 113.535C89.1127 116.095 85.574 117.624 82.1753 117.624Z" fill="#F4D4B8"/>
<path fill-rule="evenodd" clip-rule="evenodd" d="M78.7095 100.23C73.8502 100.366 74.2663 104.763 74.2663 104.763C74.2663 104.763 72.8602 100.755 74.2577 98.797C74.2577 98.797 69.2741 105.092 71.4951 109.161C73.7168 113.229 75.0538 117.027 72.2768 121.638C69.5003 126.249 72.2201 127.063 75.4139 132.352C78.6071 137.641 69.7211 144.286 63.6128 147.406C63.6128 147.406 68.1942 143.608 63.6128 140.353C59.0308 137.099 49.0353 131.131 52.0897 122.587C55.1436 114.042 60.2448 115.884 58.8559 106.119C57.4677 96.3545 66.528 82.7921 78.7451 84.4198C78.7451 84.4198 79.9585 81.707 82.0592 81.3005C82.0592 81.3005 80.6532 84.1483 82.0592 84.4198C83.4658 84.6908 92.3745 84.4198 98.1821 94.0379C103.99 103.656 96.9325 110.923 104.846 115.805C112.76 120.688 110.955 133.979 104.846 136.962C98.7375 139.946 99.4316 145.235 99.4316 145.235C99.4316 145.235 95.5443 140.082 98.1821 136.149C98.1821 136.149 93.8787 135.606 91.1016 132.081C88.3252 128.554 90.8242 124.214 89.9914 121.638C89.158 119.06 87.2675 117.076 87.2675 117.076C87.2675 117.076 94.5761 114.417 95.5126 106.957C95.5126 106.957 95.6419 100.387 92.79 98.574C92.79 98.574 87.1782 99.1663 86.0158 94.0308C86.0158 94.0308 83.5683 100.094 78.7095 100.23Z" fill="#372310"/>
<path fill-rule="evenodd" clip-rule="evenodd" d="M104.029 125.007C104.041 125.244 104.053 125.486 104.068 125.732C104.077 125.891 104.213 126.014 104.374 126.014C104.38 126.014 104.386 126.014 104.393 126.013C104.562 126.003 104.691 125.862 104.681 125.696C104.665 125.452 104.654 125.213 104.641 124.977C104.498 122.127 104.375 119.666 99.5581 114.96C94.6484 110.163 97.6488 100.484 98.0312 99.8341C98.1281 99.7178 98.1226 99.547 98.014 99.4373C97.8961 99.3168 97.7016 99.315 97.5801 99.4289C97.3125 99.6813 96.217 103.065 96.1808 106.825C96.1446 110.561 97.1351 113.441 99.1242 115.384C103.773 119.925 103.886 122.168 104.029 125.007ZM61.9 126.992C63.6338 128.309 65.5989 129.802 65.5473 133.983C65.5455 134.149 65.6811 134.285 65.8505 134.287H65.8542C66.0217 134.287 66.1592 134.155 66.161 133.99C66.2163 129.512 64.0321 127.852 62.2769 126.518C61.3231 125.793 60.4995 125.169 60.2448 124.233C59.517 121.567 62.7439 117.06 62.7764 117.015C62.874 116.88 62.8415 116.693 62.7028 116.597C62.5665 116.502 62.3744 116.533 62.2756 116.669C62.1351 116.863 58.8499 121.45 59.6514 124.388C59.9601 125.518 60.9027 126.233 61.9 126.992ZM78.7458 84.7196C78.8637 84.7196 78.9766 84.6519 79.0269 84.5398C79.0367 84.517 79.9567 82.4954 81.5143 81.7891C81.2516 82.4714 80.9429 83.5397 81.2725 84.1842C81.4167 84.4666 81.6677 84.6501 81.9998 84.7136C82.1618 84.746 82.3275 84.6399 82.36 84.4774C82.3931 84.3155 82.2851 84.1579 82.1188 84.1261C81.9727 84.0973 81.8807 84.0326 81.8212 83.9168C81.5579 83.4013 81.9973 82.1183 82.3354 81.43C82.3858 81.3281 82.3735 81.2064 82.3023 81.1171C82.2311 81.0272 82.1188 80.9828 81.9991 81.0062C79.7677 81.4384 78.5169 84.183 78.4648 84.2999C78.3966 84.4516 78.4678 84.6279 78.6231 84.6944C78.663 84.7112 78.7041 84.7196 78.7458 84.7196ZM86.7818 117.009C86.7793 117.01 86.7763 117.012 86.7744 117.012C86.7726 117.013 86.7701 117.014 86.7683 117.015C85.277 117.631 83.6924 117.943 82.0593 117.943C80.7355 117.943 77.9965 117.01 76.604 116.555C76.5966 116.485 75.0581 115.65 75.0495 115.58C75.0317 115.439 74.5953 115.54 74.5707 115.4C74.5474 115.266 73.981 115.055 73.9515 114.922C73.9251 114.802 73.6464 113.367 73.528 113.075C73.4813 112.959 73.0772 110.573 72.7839 110.049C72.5863 109.695 72.388 109.338 72.1929 108.98C71.7369 108.147 71.5386 107.195 71.5098 106.215C71.4693 104.602 73.2582 100.359 73.3251 101.853C73.392 103.347 73.8447 104.467 73.9515 104.786C73.9632 104.822 73.9724 104.849 73.9754 104.859C74.0129 104.967 74.1074 105.04 74.2185 105.058C74.2418 105.061 74.2663 105.059 74.2903 105.057C74.3038 105.057 74.3167 105.059 74.3302 105.057C74.4756 105.026 74.5738 104.899 74.5707 104.757C74.5701 104.75 74.5732 104.743 74.5726 104.736C74.5726 104.735 74.572 104.727 74.5707 104.714C74.5585 104.524 74.502 103.117 75.3422 101.997C75.3784 101.948 75.4207 101.901 75.4612 101.853C75.4858 101.823 75.5085 101.793 75.5349 101.763C75.5901 101.703 75.6521 101.648 75.7116 101.591C75.7479 101.558 75.7804 101.52 75.8178 101.488C75.8694 101.443 75.9264 101.405 75.9811 101.363C76.0326 101.325 76.0805 101.283 76.1345 101.247C76.1781 101.217 76.2266 101.193 76.2714 101.165C76.3419 101.123 76.41 101.079 76.4837 101.04C76.5224 101.021 76.5647 101.005 76.604 100.986C76.6905 100.946 76.7758 100.904 76.866 100.869C76.8967 100.858 76.9299 100.849 76.9606 100.838C77.0649 100.8 77.1704 100.763 77.2815 100.732C77.2956 100.728 77.3116 100.726 77.3257 100.721C77.6006 100.648 77.894 100.594 78.2082 100.563C78.3727 100.546 78.5433 100.535 78.7188 100.53C82.7239 100.418 85.0843 96.6333 85.9459 94.9073C86.8137 97.442 88.7193 98.4427 90.2346 98.8365C91.0637 99.056 91.7676 99.0907 92.1291 99.0865C92.1561 99.0865 92.1898 99.0871 92.2125 99.0871C93.468 99.0871 93.5992 100.303 93.8963 101.04C94.2621 102.152 94.5775 103.636 94.6984 104.708C94.7064 104.783 94.6965 104.964 94.6984 104.981C94.7579 105.612 94.8789 105.998 94.8992 106.425C94.8642 107.483 94.6796 108.779 94.385 109.734C94.2494 110.146 93.6871 111.061 93.5183 111.433C93.5017 111.471 93.4852 111.508 93.468 111.546C93.3931 111.707 93.3152 111.866 93.2342 112.02C91.5514 115.243 88.4462 116.188 87.2949 116.77C87.1261 116.853 86.9573 116.936 86.7818 117.009ZM104.709 136.695C100.15 138.922 99.2709 142.454 99.1303 144.209C98.1938 142.621 96.5662 139.106 98.4393 136.313C98.497 136.227 98.5056 136.117 98.4614 136.024C98.4166 135.93 98.3264 135.865 98.222 135.852C98.1803 135.846 94.0138 135.286 91.3454 131.898C89.6877 129.792 90.0032 127.344 90.2812 125.184C90.4536 123.843 90.6169 122.576 90.2843 121.547C89.6282 119.519 87.9644 117.703 87.2679 117.076C87.293 117.063 87.3268 117.046 87.3526 117.032C87.3722 117.023 87.3918 117.015 87.4102 117.006L87.5606 116.931C88.8813 116.247 92.5507 114.805 94.1715 110.859L94.4176 110.459C94.4724 110.321 94.6329 110.023 94.8992 109.567C94.909 109.538 95.408 107.56 95.5129 106.722C95.5136 106.607 95.475 105.516 95.2713 103.895C95.1627 102.949 95.1502 102.895 94.8992 102.051C94.8519 101.919 94.4691 100.913 94.4176 100.783C94.1083 99.8377 93.5494 99.1465 92.9836 98.5176C92.9578 98.4888 92.5464 98.535 92.5126 98.5176C92.509 98.5152 92.5065 98.5122 92.5022 98.511C92.4562 98.4894 92.4053 98.4768 92.3525 98.4816C92.3298 98.4834 92.2408 98.4882 92.1113 98.4888C92.099 98.4888 92.0923 98.4894 92.0788 98.4894C92.0481 98.4894 92.0045 98.4876 91.9689 98.4864C91.918 98.4858 91.8713 98.4852 91.8124 98.4828C90.8004 98.4367 88.6174 98.1015 87.2605 96.1711C87.2452 96.1501 87.2335 96.1243 87.2188 96.1033C87.1003 95.9289 86.9856 95.746 86.8818 95.5452C86.7953 95.3791 86.721 95.1932 86.6468 95.0074C86.6204 94.9414 86.5885 94.8845 86.5633 94.8161C86.4688 94.5542 86.3866 94.2736 86.3184 93.9738C86.3178 93.9708 86.3166 93.969 86.316 93.966C86.3148 93.9618 86.3111 93.9594 86.3099 93.9558C86.2957 93.9103 86.27 93.8701 86.2368 93.8365C86.2202 93.8191 86.2055 93.8048 86.1859 93.7922C86.1804 93.7886 86.1767 93.7826 86.1712 93.779C86.1521 93.7688 86.1313 93.7682 86.1116 93.7616C86.0871 93.7526 86.0668 93.7346 86.0398 93.7322C86.0337 93.7316 86.0282 93.737 86.0214 93.737C85.9625 93.7334 85.9073 93.7496 85.8575 93.7754C85.8545 93.7772 85.8526 93.7796 85.8496 93.7814C85.7992 93.8096 85.7637 93.8521 85.7428 93.9067C85.7397 93.9127 85.733 93.9151 85.7311 93.9205C85.7072 93.9798 83.3039 99.8018 78.7004 99.9307C77.1183 99.975 75.8982 100.458 75.074 101.367C74.9519 101.502 74.842 101.642 74.745 101.784C74.7174 101.825 74.6972 101.865 74.6714 101.907C74.6063 102.01 74.5401 102.112 74.4861 102.216C74.4597 102.267 74.4413 102.318 74.4173 102.369C74.3731 102.464 74.3265 102.558 74.2903 102.651C74.2713 102.7 74.2584 102.748 74.2418 102.796C74.2093 102.888 74.1749 102.982 74.1491 103.071C74.0963 102.796 74.0479 102.5 74.0123 102.193C74.027 102.148 74.0344 102.101 74.0252 102.051C73.9939 101.877 73.9724 101.708 73.9583 101.541C73.9527 101.431 73.9484 101.321 73.9478 101.211C73.9478 101.166 73.9484 101.121 73.9497 101.076C73.9509 100.978 73.9546 100.88 73.9607 100.783C73.9662 100.7 73.9724 100.62 73.9816 100.539C73.9883 100.477 73.9957 100.416 74.0043 100.356C74.0153 100.283 74.0288 100.21 74.043 100.138C74.0491 100.109 74.0528 100.079 74.0595 100.049C74.0681 100.011 74.0773 99.9732 74.0871 99.9355C74.1129 99.8341 74.1436 99.7358 74.1755 99.6375C74.1872 99.6051 74.2001 99.5745 74.2123 99.5428C74.3946 99.1753 74.5186 98.9558 74.5253 98.9439C74.5345 98.9271 74.537 98.9091 74.5431 98.8905C74.5493 98.8737 74.5579 98.8575 74.5603 98.8401C74.5634 98.8179 74.5603 98.7964 74.5585 98.7748C74.5579 98.7676 74.5585 98.7604 74.5579 98.7532C75.2342 97.5128 76.3419 96.5572 77.2582 95.7694L77.5865 95.4864C78.9797 94.2712 78.4187 92.4121 77.9278 91.5985C77.8412 91.4558 77.6528 91.4091 77.5074 91.493C77.3613 91.5769 77.3128 91.7604 77.3987 91.9031C77.4104 91.9223 78.547 93.8449 77.1778 95.0392L76.8525 95.3197C75.7945 96.2292 74.3872 97.4468 73.7152 99.1237C73.436 99.6429 70.0099 104.086 70.9544 107.808C70.9636 107.842 71.2035 108.578 71.2183 108.614C71.2993 108.816 71.8793 109.905 72.072 110.251C73.0171 111.945 72.6477 113.6 73.1178 115.263C73.1227 115.279 73.3479 116.694 73.3688 116.971C73.478 118.397 73.1859 119.863 72.2469 121.423C69.4244 126.109 71.9171 127.149 75.1495 132.504C75.8117 133.6 75.951 134.827 75.5644 136.15C74.4701 139.895 69.4868 143.783 64.9962 146.32C65.5136 145.584 65.9953 144.594 65.9536 143.495C65.9051 142.233 65.1785 141.095 63.7933 140.111C63.4184 139.844 63.0066 139.559 62.569 139.257C57.7372 135.913 49.6509 130.318 52.3795 122.685C52.436 122.529 52.3513 122.358 52.1911 122.304C52.0303 122.247 51.856 122.331 51.8002 122.488C48.9194 130.547 57.242 136.305 62.2143 139.745C62.65 140.047 63.0593 140.331 63.4331 140.596C64.6568 141.465 65.2988 142.448 65.3405 143.515C65.4178 145.487 63.4343 147.16 63.4141 147.177C63.2956 147.277 63.2717 147.447 63.3588 147.573C63.4177 147.659 63.5141 147.705 63.6135 147.705C63.662 147.705 63.7105 147.695 63.7553 147.672C68.6785 145.157 74.8807 140.674 76.1547 136.314C76.5893 134.828 76.4291 133.443 75.6785 132.199C72.5486 127.016 70.0652 126.229 72.7753 121.727C73.6922 120.206 74.4173 117.812 73.9478 115.611C76.1547 117.624 80.568 118.248 81.8887 118.248C83.5371 118.248 85.1346 117.937 86.6468 117.34C87.1261 117.747 89.0151 119.613 89.6988 121.727C89.9915 122.632 89.8362 123.835 89.6718 125.109C89.379 127.384 89.047 129.962 90.8587 132.263C93.1791 135.21 96.4871 136.124 97.6899 136.368C95.437 140.362 99.0266 145.203 99.1849 145.413C99.2672 145.523 99.4151 145.565 99.5458 145.513C99.6753 145.463 99.7539 145.333 99.7367 145.198C99.7103 144.99 99.1536 140.079 104.984 137.231C105.135 137.157 105.196 136.977 105.121 136.829C105.045 136.681 104.861 136.621 104.709 136.695Z" fill="black"/>
<path fill-rule="evenodd" clip-rule="evenodd" d="M76.9913 102.173C77.0545 102.173 77.1171 102.154 77.1717 102.116C78.4243 101.227 79.6744 101.398 79.6873 101.4C79.8518 101.426 80.0108 101.314 80.0365 101.149C80.0623 100.986 79.9488 100.834 79.7818 100.808C79.7205 100.798 78.2776 100.59 76.8109 101.63C76.6734 101.728 76.6439 101.915 76.7434 102.049C76.8029 102.13 76.8968 102.173 76.9913 102.173ZM91.459 103.649C91.3503 103.522 91.1576 103.504 91.0269 103.612C90.9287 103.691 88.6027 105.545 86.6413 103.63C86.521 103.512 86.3271 103.512 86.2074 103.63C86.0871 103.747 86.0871 103.936 86.2074 104.054C87.0022 104.831 87.8503 105.089 88.6261 105.089C90.1542 105.089 91.4025 104.087 91.4215 104.071C91.5516 103.965 91.5682 103.776 91.459 103.649ZM81.6733 103.63C81.5536 103.512 81.3591 103.512 81.2394 103.63C79.2786 105.546 76.9514 103.691 76.8532 103.612C76.7231 103.505 76.5298 103.523 76.4212 103.649C76.3125 103.776 76.3291 103.965 76.4592 104.071C76.4776 104.087 77.7259 105.089 79.2547 105.089C80.0298 105.089 80.8779 104.831 81.6733 104.054C81.793 103.936 81.793 103.747 81.6733 103.63ZM88.1934 101.4C88.2063 101.398 89.4564 101.227 90.709 102.116C90.763 102.154 90.8262 102.173 90.8894 102.173C90.984 102.173 91.0772 102.13 91.1374 102.049C91.2368 101.915 91.2067 101.728 91.0693 101.63C89.6019 100.59 88.159 100.798 88.0989 100.808C87.9313 100.834 87.8184 100.986 87.8442 101.149C87.87 101.314 88.0314 101.427 88.1934 101.4ZM87.576 112.038C84.1607 115.374 80.4496 112.166 80.2937 112.028C80.1691 111.917 79.9739 111.926 79.8604 112.049C79.7463 112.171 79.7561 112.361 79.8813 112.472C79.9095 112.497 81.7967 114.136 84.1846 114.136C85.3912 114.136 86.7242 113.718 88.0099 112.462C88.1296 112.345 88.1296 112.155 88.0099 112.038C87.8902 111.921 87.6957 111.921 87.576 112.038ZM83.6059 105.052C84.3135 105.974 85.4814 107.796 85.0549 108.673C84.8775 109.039 84.3902 109.224 83.6059 109.224C82.8222 109.224 82.3349 109.039 82.1575 108.673C81.731 107.796 82.8989 105.974 83.6059 105.052ZM81.6034 108.93C81.8906 109.523 82.5644 109.823 83.6059 109.823C84.648 109.823 85.3212 109.523 85.6091 108.93C86.3388 107.426 84.1012 104.682 83.8434 104.374C83.7274 104.235 83.485 104.235 83.369 104.374C83.1112 104.682 80.873 107.426 81.6034 108.93Z" fill="black"/>
<path fill-rule="evenodd" clip-rule="evenodd" d="M77.9051 106.18C79.0915 106.18 80.0533 106.717 80.0533 107.379C80.0533 108.041 79.0915 108.578 77.9051 108.578C76.7187 108.578 75.7573 108.041 75.7573 107.379C75.7573 106.717 76.7187 106.18 77.9051 106.18ZM88.9522 106.18C90.1384 106.18 91.1002 106.717 91.1002 107.379C91.1002 108.041 90.1384 108.578 88.9522 108.578C87.7659 108.578 86.8042 108.041 86.8042 107.379C86.8042 106.717 87.7659 106.18 88.9522 106.18Z" fill="#E2A2B5"/>
</g>
<defs>
<filter id="filter0_d" x="24" y="24" width="209" height="269" filterUnits="userSpaceOnUse" color-interpolation-filters="sRGB">
<feFlood flood-opacity="0" result="BackgroundImageFix"/>
<feColorMatrix in="SourceAlpha" type="matrix" values="0 0 0 0 0 0 0 0 0 0 0 0 0 0 0 0 0 0 127 0"/>
<feOffset dy="4"/>
<feGaussianBlur stdDeviation="2"/>
<feColorMatrix type="matrix" values="0 0 0 0 1 0 0 0 0 0.458824 0 0 0 0 0.564706 0 0 0 1 0"/>
<feBlend mode="normal" in2="BackgroundImageFix" result="effect1_dropShadow"/>
<feBlend mode="normal" in="SourceGraphic" in2="effect1_dropShadow" result="shape"/>
</filter>
<linearGradient id="paint0_linear" x1="-230.5" y1="-295.5" x2="106" y2="267" gradientUnits="userSpaceOnUse">
<stop stop-color="white"/>
<stop offset="1" stop-color="white" stop-opacity="0"/>
</linearGradient>
</defs>
</svg>
