<svg width="232" height="293" viewBox="0 0 232 293" fill="none" xmlns="http://www.w3.org/2000/svg">
<rect x="2.5" y="2.5" width="207" height="262" rx="17.5" fill="url(#paint0_linear)" stroke="white" stroke-width="5"/>
<g filter="url(#filter0_d)">
<rect x="27" y="24" width="201" height="261" rx="20" fill="#B7E8F8"/>
</g>
<path d="M185.924 138.58C180.781 125.514 172.793 114.615 161.197 107.391C149.014 99.8015 135.106 93.4815 121.095 91.2017C107.069 89.0027 92.7681 89.852 79.0611 93.698C72.4536 95.5141 65.1696 97.6233 59.5968 101.971C54.2695 106.128 50.6201 112.965 47.6494 119.107C44.8029 124.992 43.0284 131.472 44.5691 138.063C45.9888 144.137 49.9585 149.195 54.4988 153.001C58.5547 156.401 64.2271 160.902 69.6523 158.795C69.9605 158.675 70.2545 158.518 70.5284 158.326C79.8975 161.351 89.2125 156.952 98.83 153.507C104.675 151.414 110.552 150.355 116.422 152.968C122.206 155.542 126.913 160.6 130.363 166.051C133.646 171.237 135.807 177.124 139.408 182.095C141.199 184.654 143.476 186.786 146.091 188.354C148.707 189.921 151.604 190.889 154.594 191.195C166.215 192.574 181.639 191.304 188.333 179.628C195.467 167.186 190.799 150.964 185.924 138.58ZM67.301 119.472C69.0247 119.68 70.7485 119.887 72.4724 120.094C69.188 120.722 66.1157 122.25 63.5606 124.528C62.5888 125.398 61.6876 126.354 60.8665 127.384C60.89 127.301 60.9038 127.221 60.9292 127.137C61.4362 125.462 62.2639 123.917 63.3604 122.598C64.4569 121.279 65.7985 120.215 67.301 119.472ZM125.167 131.152C125.549 131.457 125.995 131.659 126.467 131.74C126.522 131.75 126.577 131.761 126.632 131.771C126.952 131.966 127.274 132.159 127.596 132.351C127.56 132.405 127.532 132.464 127.498 132.519C126.71 132.433 125.921 132.35 125.133 132.266C125.189 131.898 125.2 131.523 125.167 131.152ZM146.025 157.325C145.851 157.521 145.697 157.736 145.567 157.967C145.49 157.848 145.412 157.729 145.335 157.61C145.549 157.476 145.782 157.38 146.025 157.325ZM159.497 172.797C160.278 172.906 161.059 173.015 161.84 173.124C161.694 173.393 161.587 173.683 161.522 173.986C160.969 174.005 160.41 174.015 159.852 174.017L159.497 172.797ZM170.811 165.742C171.125 165.684 171.439 165.627 171.753 165.57C172.247 165.485 172.718 165.287 173.132 164.989C173.133 165.047 173.138 165.107 173.14 165.165C173.147 165.365 173.165 165.614 173.188 165.898C173.111 166.041 173.033 166.184 172.951 166.325C172.237 166.131 171.524 165.936 170.811 165.742V165.742ZM130.633 121.652C130.258 121.32 129.834 121.055 129.378 120.868C127.166 119.962 124.9 119.21 122.595 118.617C122.25 118.273 121.913 117.92 121.584 117.557C123.531 117.965 125.454 118.484 127.347 119.114C129.775 119.939 132.156 120.911 134.48 122.024C133.197 121.872 131.914 121.748 130.633 121.652ZM152.276 123.191C151.147 122.442 150.011 121.706 148.867 120.985C150.039 121.686 151.195 122.421 152.334 123.189L152.276 123.191ZM175.612 134.492C172.583 130.561 169.234 126.92 165.602 123.614C165.883 122.93 166.024 122.191 166.016 121.446C169.821 125.252 173.057 129.651 175.612 134.492V134.492ZM132.092 102.323C131.613 102.206 131.135 102.088 130.655 101.973C126.106 100.883 121.471 99.7091 116.795 98.7131C117.046 98.7446 117.296 98.77 117.547 98.8039C122.487 99.4982 127.356 100.676 132.092 102.323Z" fill="#FF7590"/>
<path d="M136.047 240.273C131.716 240.145 126.327 239.984 122.178 236.768C120.942 235.77 119.926 234.498 119.202 233.04C118.478 231.582 118.063 229.974 117.987 228.328C117.911 227.158 118.092 225.986 118.515 224.903C118.938 223.82 119.591 222.855 120.423 222.084C122.591 220.141 125.757 219.683 129.169 220.748L125.634 193.334L128.229 192.957L132.385 225.186L130.218 224.13C127.706 222.908 124.257 222.286 122.114 224.207C121.588 224.709 121.178 225.333 120.916 226.031C120.654 226.729 120.547 227.481 120.604 228.23C120.668 229.455 120.979 230.651 121.517 231.737C122.055 232.823 122.808 233.773 123.723 234.523C126.952 237.027 131.248 237.35 136.12 237.495L136.047 240.273Z" fill="#3F3D56"/>
<path d="M112.801 195.698H98.6931V198.478H112.801V195.698Z" fill="#3F3D56"/>
<path d="M157.33 195.698H143.222V198.478H157.33V195.698Z" fill="#3F3D56"/>
<path d="M74.1836 157.317C62.8232 155.942 54.0248 144.392 53.0584 132.673C51.9087 118.731 59.5604 105.489 70.0579 97.6655C81.0358 89.4838 94.7133 86.0671 107.947 85.315C133.762 83.9518 159.133 92.8254 179.125 110.21C189.041 118.95 198.302 130.082 201.812 143.528C204.861 155.206 202.38 168.436 193.529 176.614C191.34 178.619 188.782 180.119 186.019 181.022C183.255 181.925 180.345 182.211 177.472 181.86C170.605 181.103 164.268 177.272 158.783 173.04C148.113 164.808 139.354 153.34 126.355 149.038C116.823 145.884 104.454 148.66 98.6296 157.806C97.308 159.9 96.4515 162.285 96.1248 164.781C96.0044 165.313 96.0792 165.874 96.3339 166.351C96.5887 166.827 97.0044 167.182 97.4969 167.345C97.9992 167.489 98.5346 167.417 98.9869 167.144C99.4393 166.871 99.7722 166.421 99.9134 165.889C101.443 154.369 114.792 150.071 124.159 152.701C137.817 156.537 146.985 169.47 158.191 177.687C164.083 182.007 170.784 185.461 178.01 186.081C184.239 186.6 190.421 184.584 195.302 180.444C204.875 172.423 208.536 158.626 206.419 146.204C203.968 131.82 194.844 119.492 184.833 109.947C164.538 90.802 138.191 80.4737 111.041 81.0207C97.1928 81.3582 82.7438 84.3917 70.8139 92.1583C59.2419 99.6919 50.2977 112.296 49.1287 126.946C48.0998 139.841 54.6198 153.329 65.8119 158.979C68.4508 160.305 71.2806 161.153 74.1835 161.486C76.6915 161.79 76.6711 157.618 74.1835 157.317L74.1836 157.317Z" fill="#3F3D56"/>
<path d="M71.68 52.008V58.68C72.448 59.272 73.4 59.568 74.536 59.568C75.144 59.568 75.664 59.44 76.096 59.184C76.544 58.928 76.888 58.608 77.128 58.224C77.384 57.84 77.576 57.352 77.704 56.76C77.928 55.816 78.04 54.624 78.04 53.184C78.04 51.744 77.792 50.648 77.296 49.896C76.8 49.144 76.104 48.768 75.208 48.768C74.312 48.768 73.496 49.152 72.76 49.92C72.04 50.672 71.68 51.368 71.68 52.008ZM76 48.024C77.328 48.024 78.44 48.488 79.336 49.416C80.232 50.328 80.68 51.784 80.68 53.784C80.68 55.768 80.144 57.352 79.072 58.536C78 59.704 76.472 60.288 74.488 60.288C73.448 60.288 72.512 60.056 71.68 59.592V65.304L73.36 65.424V66H67.84V65.424L69.328 65.304V49.056L67.264 48.96V48.408L71.584 48.144L71.512 50.232H71.728C72.16 49.528 72.76 48.984 73.528 48.6C74.296 48.216 75.12 48.024 76 48.024ZM87.2365 59.664C87.8765 59.664 88.4285 59.488 88.8925 59.136C89.3725 58.784 89.6125 58.192 89.6125 57.36C89.6125 56.8 89.3565 56.336 88.8445 55.968C88.3485 55.6 87.7245 55.272 86.9725 54.984C86.2205 54.68 85.7085 54.472 85.4365 54.36C85.1805 54.232 84.8365 54.032 84.4045 53.76C83.6205 53.232 83.2285 52.472 83.2285 51.48C83.2285 50.488 83.6205 49.664 84.4045 49.008C85.1885 48.352 86.3325 48.024 87.8365 48.024C88.7965 48.024 89.6125 48.24 90.2845 48.672C90.9725 49.088 91.3165 49.592 91.3165 50.184C91.3165 50.776 91.0925 51.184 90.6445 51.408C90.4045 51.52 90.1645 51.576 89.9245 51.576C89.7005 51.576 89.4765 51.528 89.2525 51.432C89.3165 51.144 89.3485 50.832 89.3485 50.496C89.3485 50.16 89.2685 49.824 89.1085 49.488C88.8365 48.912 88.3165 48.624 87.5485 48.624C86.7805 48.624 86.1965 48.832 85.7965 49.248C85.3965 49.664 85.1965 50.208 85.1965 50.88C85.1965 51.568 85.4845 52.08 86.0605 52.416C86.4925 52.688 87.0285 52.936 87.6685 53.16C88.3085 53.384 88.7405 53.544 88.9645 53.64C89.2045 53.72 89.5165 53.864 89.9005 54.072C90.2845 54.28 90.5725 54.496 90.7645 54.72C91.2605 55.264 91.5085 56 91.5085 56.928C91.5085 57.856 91.0925 58.648 90.2605 59.304C89.4285 59.944 88.4125 60.264 87.2125 60.264C86.0125 60.264 84.9565 60.08 84.0445 59.712C83.1485 59.344 82.7005 58.808 82.7005 58.104C82.7005 57.448 83.1885 57.016 84.1645 56.808C84.4525 58.712 85.4765 59.664 87.2365 59.664ZM96.9372 64.896C96.6172 65.264 96.2092 65.592 95.7132 65.88C95.2172 66.184 94.7132 66.336 94.2012 66.336C93.7052 66.336 93.3132 66.2 93.0252 65.928C92.7532 65.672 92.6172 65.32 92.6172 64.872C92.6172 64.44 92.8172 64 93.2172 63.552C93.6652 64.064 94.1692 64.32 94.7292 64.32C95.5292 64.32 96.2172 63.968 96.7932 63.264C97.3692 62.576 97.9292 61.488 98.4732 60L93.8652 49.056L92.6412 48.912V48.288H97.7532V48.912L96.0972 49.056L99.5292 57.432L102.481 49.368L100.561 48.912V48.288H105.169V48.912L103.489 49.368L99.4332 60C99.1452 60.736 98.9212 61.304 98.7612 61.704C98.6012 62.104 98.3372 62.64 97.9692 63.312C97.6172 64 97.2732 64.528 96.9372 64.896ZM112.027 48.024C112.923 48.024 113.787 48.216 114.619 48.6C115.083 48.808 115.451 49.128 115.723 49.56C116.011 49.992 116.155 50.496 116.155 51.072C116.155 51.648 115.899 52.04 115.387 52.248C115.179 52.328 114.955 52.368 114.715 52.368C114.491 52.368 114.259 52.288 114.019 52.128C114.083 51.792 114.115 51.4 114.115 50.952C114.115 50.488 113.971 50.048 113.683 49.632C113.267 49.008 112.675 48.696 111.907 48.696C109.683 48.696 108.571 50.528 108.571 54.192C108.571 55.984 108.827 57.336 109.339 58.248C109.867 59.144 110.715 59.592 111.883 59.592C113.371 59.592 114.563 58.872 115.459 57.432C115.811 57.544 115.987 57.72 115.987 57.96C115.987 58.184 115.835 58.472 115.531 58.824C115.243 59.16 114.731 59.488 113.995 59.808C113.275 60.112 112.443 60.264 111.499 60.264C109.851 60.264 108.515 59.704 107.491 58.584C106.483 57.464 105.979 55.984 105.979 54.144C105.979 52.304 106.523 50.824 107.611 49.704C108.715 48.584 110.187 48.024 112.027 48.024ZM125.751 48.12C128.311 48.12 129.591 49.352 129.591 51.816C129.591 53.592 129.535 56.088 129.423 59.304L131.127 59.424V60H125.775V59.424L127.071 59.328C127.183 55.104 127.239 52.544 127.239 51.648C127.239 50.736 127.071 50.056 126.735 49.608C126.399 49.16 125.815 48.936 124.983 48.936C124.167 48.936 123.399 49.328 122.679 50.112C121.959 50.896 121.599 51.616 121.599 52.272V59.304L123.183 59.424V60H117.663V59.424L119.247 59.304V42.768L117.135 42.672L117.111 42.12L121.599 41.616C121.503 47.104 121.447 50.032 121.431 50.4H121.623C122.055 49.664 122.631 49.104 123.351 48.72C124.087 48.32 124.887 48.12 125.751 48.12ZM144.673 54.144C144.673 55.92 144.137 57.384 143.065 58.536C141.993 59.688 140.529 60.264 138.673 60.264C136.833 60.264 135.377 59.688 134.305 58.536C133.233 57.384 132.697 55.92 132.697 54.144C132.697 52.368 133.233 50.904 134.305 49.752C135.377 48.6 136.833 48.024 138.673 48.024C140.529 48.024 141.993 48.6 143.065 49.752C144.137 50.904 144.673 52.368 144.673 54.144ZM135.313 54.144C135.313 57.84 136.433 59.688 138.673 59.688C140.929 59.688 142.057 57.84 142.057 54.144C142.057 52.352 141.801 50.984 141.289 50.04C140.777 49.096 139.913 48.624 138.697 48.624C137.481 48.624 136.609 49.096 136.081 50.04C135.569 50.984 135.313 52.352 135.313 54.144ZM151.918 60H146.398V59.424L147.982 59.304V42.768L145.846 42.672V42.12L150.334 41.616V59.304L151.918 59.424V60ZM165.626 54.144C165.626 55.92 165.09 57.384 164.018 58.536C162.946 59.688 161.482 60.264 159.626 60.264C157.786 60.264 156.33 59.688 155.258 58.536C154.186 57.384 153.65 55.92 153.65 54.144C153.65 52.368 154.186 50.904 155.258 49.752C156.33 48.6 157.786 48.024 159.626 48.024C161.482 48.024 162.946 48.6 164.018 49.752C165.09 50.904 165.626 52.368 165.626 54.144ZM156.266 54.144C156.266 57.84 157.386 59.688 159.626 59.688C161.882 59.688 163.01 57.84 163.01 54.144C163.01 52.352 162.754 50.984 162.242 50.04C161.73 49.096 160.866 48.624 159.65 48.624C158.434 48.624 157.562 49.096 157.034 50.04C156.522 50.984 156.266 52.352 156.266 54.144ZM170.687 57.6C170.687 57.968 170.943 58.216 171.455 58.344C171.983 58.456 173.071 58.584 174.719 58.728C176.367 58.872 177.551 59.168 178.271 59.616C178.991 60.048 179.351 60.752 179.351 61.728C179.351 62.976 178.759 64.04 177.575 64.92C176.407 65.8 174.887 66.24 173.015 66.24C171.143 66.24 169.767 65.936 168.887 65.328C168.007 64.736 167.567 63.944 167.567 62.952C167.567 62.296 167.783 61.672 168.215 61.08C168.647 60.504 169.279 60.096 170.111 59.856C169.135 59.504 168.647 58.92 168.647 58.104C168.647 57.624 168.895 57.224 169.391 56.904C169.887 56.568 170.447 56.36 171.071 56.28C170.063 55.992 169.287 55.496 168.743 54.792C168.199 54.072 167.927 53.232 167.927 52.272C167.927 51.04 168.383 50.024 169.295 49.224C170.223 48.424 171.471 48.024 173.039 48.024C173.487 48.024 173.975 48.08 174.503 48.192C174.967 48.08 175.335 47.84 175.607 47.472C175.895 47.072 176.039 46.648 176.039 46.2C176.039 45.752 176.015 45.368 175.967 45.048C176.191 44.952 176.415 44.904 176.639 44.904C176.863 44.904 177.087 44.96 177.311 45.072C177.743 45.296 177.959 45.688 177.959 46.248C177.959 46.792 177.695 47.272 177.167 47.688C176.639 48.104 176.007 48.344 175.271 48.408C176.135 48.728 176.799 49.232 177.263 49.92C177.727 50.592 177.959 51.376 177.959 52.272C177.959 53.616 177.439 54.656 176.399 55.392C175.375 56.128 174.111 56.496 172.607 56.496C172.047 56.512 171.583 56.64 171.215 56.88C170.863 57.104 170.687 57.344 170.687 57.6ZM169.415 62.688C169.415 63.536 169.759 64.208 170.447 64.704C171.151 65.216 172.055 65.472 173.159 65.472C174.279 65.472 175.279 65.192 176.159 64.632C177.039 64.072 177.487 63.368 177.503 62.52C177.503 61.976 177.327 61.568 176.975 61.296C176.671 61.056 176.247 60.896 175.703 60.816C175.159 60.736 174.399 60.64 173.423 60.528C172.463 60.432 171.639 60.312 170.951 60.168C170.519 60.392 170.151 60.736 169.847 61.2C169.559 61.68 169.415 62.176 169.415 62.688ZM172.871 55.992C173.767 55.992 174.431 55.648 174.863 54.96C175.295 54.272 175.511 53.376 175.511 52.272C175.511 49.792 174.687 48.552 173.039 48.552C172.143 48.552 171.471 48.888 171.023 49.56C170.591 50.216 170.375 51.12 170.375 52.272C170.375 54.752 171.207 55.992 172.871 55.992ZM183.258 64.896C182.938 65.264 182.53 65.592 182.034 65.88C181.538 66.184 181.034 66.336 180.521 66.336C180.025 66.336 179.634 66.2 179.346 65.928C179.074 65.672 178.938 65.32 178.938 64.872C178.938 64.44 179.138 64 179.538 63.552C179.986 64.064 180.49 64.32 181.05 64.32C181.85 64.32 182.538 63.968 183.114 63.264C183.69 62.576 184.25 61.488 184.794 60L180.186 49.056L178.962 48.912V48.288H184.074V48.912L182.418 49.056L185.85 57.432L188.802 49.368L186.882 48.912V48.288H191.49V48.912L189.81 49.368L185.754 60C185.466 60.736 185.242 61.304 185.082 61.704C184.922 62.104 184.658 62.64 184.29 63.312C183.938 64 183.594 64.528 183.258 64.896Z" fill="#4AB8DC"/>
<defs>
<filter id="filter0_d" x="23" y="24" width="209" height="269" filterUnits="userSpaceOnUse" color-interpolation-filters="sRGB">
<feFlood flood-opacity="0" result="BackgroundImageFix"/>
<feColorMatrix in="SourceAlpha" type="matrix" values="0 0 0 0 0 0 0 0 0 0 0 0 0 0 0 0 0 0 127 0"/>
<feOffset dy="4"/>
<feGaussianBlur stdDeviation="2"/>
<feColorMatrix type="matrix" values="0 0 0 0 0.475278 0 0 0 0 0.845709 0 0 0 0 0.966667 0 0 0 1 0"/>
<feBlend mode="normal" in2="BackgroundImageFix" result="effect1_dropShadow"/>
<feBlend mode="normal" in="SourceGraphic" in2="effect1_dropShadow" result="shape"/>
</filter>
<linearGradient id="paint0_linear" x1="-105.5" y1="-172" x2="106" y2="267" gradientUnits="userSpaceOnUse">
<stop stop-color="white"/>
<stop offset="1" stop-color="white" stop-opacity="0"/>
</linearGradient>
</defs>
</svg>
