<svg width="170" height="392" viewBox="0 0 170 392" fill="none" xmlns="http://www.w3.org/2000/svg">
<path fill-rule="evenodd" clip-rule="evenodd" d="M99.951 247.569L104.234 235.936L119.749 242.173C119.749 242.173 108.868 242.173 99.951 247.569ZM160.8 225.478C144.223 193.766 115.418 175.515 115.418 175.515L89.1324 171.945C89.1324 171.945 56.6457 185.233 54.8043 220.083C52.9629 254.933 53.9666 273.069 47.4368 285.772C40.9051 298.477 46.935 343.438 37.0544 351.63C27.1739 359.819 32.1981 365.502 35.5469 366.672C38.8958 367.843 41.9107 372.857 41.9107 372.857C49.1103 386.062 70.8788 387.791 70.8788 381.883C70.8788 375.974 64.349 376.7 60.6643 375.028C56.9815 373.358 55.9759 359.819 55.9759 359.819C55.9759 359.819 70.5448 313.353 77.2425 304.995C83.9402 296.637 90.304 278.42 90.304 278.42C90.304 278.42 103.867 274.239 113.914 273.069C123.96 271.9 139.031 270.227 146.233 267.05C153.432 263.877 177.378 257.189 160.8 225.478Z" fill="#FFD4AA"/>
<path fill-rule="evenodd" clip-rule="evenodd" d="M56.4805 274.536C60.6188 273.287 64.6934 271.846 68.6541 270.18C72.5878 268.446 76.4636 266.581 79.4322 263.43C82.698 260.575 86.0527 257.849 89.4806 255.215C92.9067 252.579 96.4003 250.032 99.9499 247.57L89.942 255.793C86.6182 258.542 83.2616 261.257 80.0788 264.145C77.0175 267.284 72.9294 269.286 68.9359 270.864C64.8825 272.426 60.7095 273.628 56.4805 274.536Z" fill="black"/>
<path fill-rule="evenodd" clip-rule="evenodd" d="M61.4775 293.301C63.3421 291.285 65.4633 289.518 67.6773 287.886C69.8892 286.251 72.2595 284.833 74.6838 283.524C77.1332 282.266 79.6598 281.139 82.2809 280.288C84.8828 279.378 87.5928 278.81 90.3047 278.419C87.6719 279.203 85.0507 279.941 82.5338 280.983C80.0014 281.968 77.5134 283.07 75.1316 284.376C72.7054 285.596 70.3756 287.004 68.1 288.493C65.8204 289.983 63.6104 291.578 61.4775 293.301Z" fill="black"/>
<path fill-rule="evenodd" clip-rule="evenodd" d="M45.237 274.536C45.237 274.536 50.5508 269.838 59.5879 273.555C59.5879 273.555 61.5952 272.732 59.5879 276.532C57.5805 280.329 54.6099 283.015 57.208 284.591C59.806 286.165 61.1996 283.2 64.726 288.204C68.2524 293.205 64.0755 293.483 62.8692 297.652C61.6628 301.82 57.5805 310.621 58.9721 315.715C60.3638 320.811 55.4457 318.403 52.8458 317.199C50.2478 315.994 45.3297 309.324 46.4434 301.172C47.5571 293.02 46.3507 293.113 44.0307 288.574C41.7106 284.036 41.8032 274.216 42.7317 274.029C43.6601 273.846 44.6792 273.281 45.237 274.536Z" fill="#B7E8F8"/>
<path fill-rule="evenodd" clip-rule="evenodd" d="M44.8658 275.328C44.777 277.17 44.7577 279.014 44.914 280.838C45.0665 282.653 45.3174 284.495 46.1165 286.081C46.8712 287.67 48.1992 289.088 48.7628 290.996C49.3264 292.855 49.3592 294.766 49.3032 296.626C49.089 300.325 48.6335 303.999 49.2434 307.565C49.5484 309.332 50.2297 311.043 51.4129 312.403C52.573 313.794 54.2117 314.723 55.9102 315.436C54.1403 314.927 52.4089 314.076 51.0655 312.723C49.7395 311.355 48.9249 309.552 48.5157 307.712C47.7224 303.991 48.2088 300.229 48.3401 296.587C48.425 294.776 48.4096 292.94 47.9232 291.25C47.4889 289.555 46.1822 288.175 45.4448 286.389C44.0126 282.782 44.3794 278.954 44.8658 275.328Z" fill="#FF676F"/>
<path fill-rule="evenodd" clip-rule="evenodd" d="M52.7539 304.23C53.9796 304.184 55.1377 304.477 56.2456 304.908C56.7918 305.141 57.3342 305.403 57.8225 305.77C58.307 306.122 58.7973 306.533 59.0636 307.101C57.9827 306.577 56.9424 306.24 55.8789 305.798C54.8288 305.35 53.7711 304.904 52.7539 304.23Z" fill="#FF676F"/>
<path fill-rule="evenodd" clip-rule="evenodd" d="M52.7539 301.728C54.0317 301.788 55.2284 302.127 56.4019 302.527C57.56 302.963 58.6988 303.462 59.7141 304.231C58.4093 304.161 57.228 303.83 56.0661 303.431C54.9196 302.996 53.7962 302.5 52.7539 301.728Z" fill="#FF676F"/>
<path fill-rule="evenodd" clip-rule="evenodd" d="M54.1147 299.598C55.3057 299.55 56.4194 299.795 57.508 300.12C58.0465 300.303 58.5812 300.496 59.0927 300.768C59.6022 301.03 60.1118 301.315 60.548 301.727C59.3687 301.629 58.2916 301.371 57.2127 301.037C56.1472 300.677 55.0972 300.271 54.1147 299.598Z" fill="#FF676F"/>
<path fill-rule="evenodd" clip-rule="evenodd" d="M60.5494 295.383C59.3681 295.281 58.2177 295.256 57.0963 295.426C56.5404 295.52 55.9845 295.611 55.4788 295.799C55.2221 295.888 54.9828 295.986 54.7724 296.106C54.5678 296.219 54.4616 296.414 54.4983 296.339C54.4906 296.302 54.4828 296.35 54.699 296.406C54.9229 296.435 55.1816 296.426 55.4518 296.408C55.998 296.375 56.5578 296.241 57.1253 296.146L60.5494 295.383ZM60.5494 295.383C59.5302 295.994 58.4474 296.47 57.3183 296.861C56.7547 297.063 56.1737 297.212 55.556 297.314C55.2433 297.358 54.9171 297.37 54.5581 297.337C54.2184 297.298 53.5679 297.032 53.5332 296.37C53.5795 295.69 54.0293 295.485 54.2956 295.295C54.5987 295.133 54.9017 295.011 55.2067 294.928C55.8185 294.769 56.4285 294.678 57.0403 294.688C58.2563 294.665 59.4666 294.894 60.5494 295.383Z" fill="#FF676F"/>
<path d="M60.6434 295.162L60.3105 295.419L60.4025 295.969C60.4304 296.124 60.4632 296.3 60.5009 296.493C60.658 297.297 60.8443 298.101 61.0596 298.853C61.7022 301.098 62.4471 302.431 63.4251 302.431C64.0363 302.431 64.3087 301.957 64.2607 301.222C64.2221 300.631 63.9836 299.84 63.5992 298.983C62.7949 297.19 61.5836 295.56 60.6434 295.162ZM61.0079 295.978C61.7255 296.612 62.5631 297.852 63.1588 299.18C63.5218 299.989 63.745 300.729 63.7792 301.253C63.8114 301.746 63.6946 301.949 63.4251 301.949C62.7801 301.949 62.0987 300.73 61.5235 298.721C61.3125 297.983 61.1291 297.192 60.9745 296.401L60.8755 295.869L61.0079 295.978Z" fill="#FF676F"/>
<path fill-rule="evenodd" clip-rule="evenodd" d="M28.4554 362.507C28.4554 362.507 33.4681 349.198 37.5349 352.594C41.6018 355.995 37.0601 358.637 43.0186 360.432C48.977 362.226 48.5041 356.005 53.0439 357.274C57.5837 358.542 56.163 359.581 58.2457 362.885C60.3245 366.189 60.9866 372.985 69.5932 375.63C78.1979 378.273 73.3744 385.069 69.5932 386.013C65.8101 386.955 55.1246 389.506 47.6529 384.221C40.1831 378.932 39.994 374.025 36.0217 372.042C32.0494 370.06 25.84 366.661 26.2492 364.773C26.6584 362.885 28.4554 362.507 28.4554 362.507Z" fill="#B7E8F8"/>
<path fill-rule="evenodd" clip-rule="evenodd" d="M29.5898 363.167C33.3363 365.243 37.1291 367.408 40.0224 370.78C42.3676 374.385 45.3632 377.425 48.7816 379.934C52.1574 382.475 56.122 384.246 60.297 384.847C64.4835 385.483 68.8187 384.596 72.7138 382.802L69.7992 384.195C68.7917 384.571 67.7436 384.856 66.709 385.194C65.6436 385.384 64.5607 385.531 63.4818 385.66C62.3951 385.629 61.2929 385.727 60.2101 385.585C55.8499 385.118 51.7231 383.261 48.2122 380.71C44.7629 378.092 41.6361 374.909 39.4318 371.225C38.1868 369.562 36.5211 368.179 34.8457 366.869C33.1645 365.549 31.4081 364.312 29.5898 363.167Z" fill="#FF676F"/>
<path fill-rule="evenodd" clip-rule="evenodd" d="M55.5908 378.547C57.1292 377.647 58.7293 376.983 60.3294 376.322L62.7383 375.382C63.5335 375.054 64.3461 374.788 65.0641 374.276C64.6221 375.083 63.8037 375.578 63.0683 376.048C62.3098 376.52 61.501 376.873 60.6903 377.216C59.0497 377.852 57.3666 378.36 55.5908 378.547Z" fill="#FF676F"/>
<path fill-rule="evenodd" clip-rule="evenodd" d="M54.8564 376.963C55.9875 375.821 57.3116 374.955 58.7013 374.212C59.4039 373.859 60.12 373.518 60.8824 373.281C61.6371 373.037 62.4189 372.823 63.2295 372.815C61.8398 373.597 60.5215 374.341 59.1472 375.067C57.7633 375.763 56.3813 376.458 54.8564 376.963Z" fill="#FF676F"/>
<path fill-rule="evenodd" clip-rule="evenodd" d="M52.9009 374.888C54.1478 373.805 55.5838 373.029 57.0836 372.404C57.8441 372.113 58.6142 371.836 59.4249 371.686C60.2297 371.528 61.0617 371.412 61.8858 371.533C60.3436 372.09 58.9211 372.695 57.4445 373.296C55.966 373.872 54.4952 374.472 52.9009 374.888Z" fill="#FF676F"/>
<path fill-rule="evenodd" clip-rule="evenodd" d="M55.5907 364.456C55.8725 365.601 55.7548 366.903 55.0599 368.005C54.3303 369.073 53.0545 369.801 51.6107 369.61C51.4196 369.554 51.2266 369.508 51.0143 369.346C50.7923 369.2 50.6147 368.845 50.6842 368.502C50.8232 368.042 51.0374 367.799 51.2459 367.56C51.6744 367.098 52.1164 366.701 52.597 366.344C53.5428 365.628 54.5272 364.98 55.5907 364.456ZM55.5907 364.456L53.0854 366.901C52.6935 367.319 52.2728 367.714 51.9466 368.142C51.7786 368.344 51.6377 368.585 51.6068 368.683C51.5818 368.533 51.5644 368.612 51.8037 368.666C52.6993 368.809 53.7841 368.325 54.4654 367.56C55.1429 366.751 55.4749 365.628 55.5907 364.456Z" fill="#FF676F"/>
<path fill-rule="evenodd" clip-rule="evenodd" d="M55.5908 364.456C56.0714 365.034 56.3706 365.414 56.8454 365.868C57.2546 366.329 57.7159 366.745 58.2081 367.069C58.6907 367.419 59.2253 367.643 59.7349 367.724C60.2464 367.807 60.7174 367.62 60.8911 367.285C61.364 366.56 60.2174 365.701 59.1597 365.196C58.0846 364.67 56.8609 364.383 55.5908 364.456ZM55.5908 364.456C56.7972 363.986 58.1927 364.077 59.4434 364.514C60.0901 364.745 60.644 364.996 61.2346 365.493C61.7925 365.957 62.2171 366.942 61.7346 367.753C61.2771 368.549 60.3101 368.78 59.5998 368.626C58.8818 368.454 58.2294 368.132 57.7545 367.656C57.2508 367.209 56.8281 366.705 56.4748 366.163C56.1178 365.66 55.8147 364.924 55.5908 364.456Z" fill="#FF676F"/>
<path fill-rule="evenodd" clip-rule="evenodd" d="M56.3854 365.677C56.3719 366.504 56.1886 367.306 55.9396 368.09C55.6828 368.872 55.32 369.633 54.7699 370.315C54.1194 371.024 53.6214 371.369 53.1273 372.012C52.6448 372.608 52.222 373.269 51.8013 373.974C51.8399 373.143 52.114 372.346 52.5077 371.604C52.693 371.224 52.9517 370.883 53.2277 370.554C53.5346 370.209 53.8202 369.989 54.0248 369.704C54.9494 368.56 55.596 367.101 56.3854 365.677Z" fill="#FF676F"/>
<path fill-rule="evenodd" clip-rule="evenodd" d="M56.8525 366.272C57.7346 366.715 58.5704 367.199 59.4158 367.65C60.2767 368.095 61.0719 368.522 61.9771 368.865C62.8901 369.274 63.7877 369.782 64.5095 370.52C65.2334 371.237 65.7873 372.206 65.797 373.212C64.9708 371.397 63.2897 370.501 61.595 369.75C60.6936 369.386 59.7864 368.871 59.0163 368.27C58.2307 367.677 57.4895 367.029 56.8525 366.272Z" fill="#FF676F"/>
<path fill-rule="evenodd" clip-rule="evenodd" d="M83.1264 134.625C83.1264 134.625 67.1715 132.018 62.3712 136.911L61.8462 139.809C61.8462 139.809 60.2075 141.536 59.1169 143.441C59.1169 143.441 16.1764 184.314 52.0081 213.376L52.6895 221.23L66.4072 222.551L71.7055 225.478C71.7055 225.478 87.4287 191.092 115.418 175.515C115.418 175.515 111.382 171.397 103.528 165.367C103.528 165.367 109.076 151.693 103.382 138.526C103.382 138.526 99.1893 134.625 83.1264 134.625Z" fill="#FF676F"/>
<path fill-rule="evenodd" clip-rule="evenodd" d="M59.1167 143.441C60.9755 144.297 62.8323 145.121 64.7489 145.794C66.6328 146.535 68.5495 147.187 70.4893 147.73C74.3651 148.826 78.2968 149.661 82.273 150C86.2511 150.364 90.2388 150.056 94.1435 149.296L97.0485 148.562C98.0039 148.273 98.9091 147.834 99.8511 147.485L101.274 146.957L102.605 146.241C103.489 145.751 104.391 145.277 105.312 144.813C102.179 147.412 98.5617 149.634 94.5122 150.732C90.5032 151.878 86.2684 152.256 82.1147 151.917C77.9668 151.516 73.8864 150.593 70.0222 149.129C66.1657 147.67 62.4327 145.859 59.1167 143.441Z" fill="#9E360B"/>
<path fill-rule="evenodd" clip-rule="evenodd" d="M89.9399 159.47C91.1926 159.576 92.4106 159.886 93.6073 160.237C94.8098 160.584 95.9717 161.048 97.1183 161.538C98.2513 162.062 99.3746 162.603 100.44 163.254C101.513 163.89 102.556 164.576 103.528 165.368C101.199 164.447 98.9789 163.406 96.7284 162.418C94.4816 161.418 92.2388 160.447 89.9399 159.47Z" fill="#9E360B"/>
<path fill-rule="evenodd" clip-rule="evenodd" d="M65.2608 146.54C63.8441 149.11 62.5663 151.742 61.5182 154.459C60.4122 157.147 59.5494 159.925 58.9588 162.738C58.3527 165.545 58.0999 168.414 58.3296 171.213C58.4666 174.03 59.3699 176.735 60.7886 179.09L61.9216 180.831L63.2863 182.538L66.0657 185.916C67.9187 188.172 69.8643 190.347 71.7674 192.571C73.688 194.773 75.6587 196.937 77.6545 199.079C79.6078 201.262 81.6403 203.372 83.6496 205.516C79.0654 201.829 74.7978 197.775 70.6769 193.576C68.6 191.49 66.6313 189.301 64.6741 187.101C63.709 185.989 62.7555 184.868 61.8232 183.725L60.4238 182.012L59.1383 180.084C57.5768 177.433 56.5982 174.39 56.5114 171.342C56.3762 168.308 56.6793 165.268 57.5208 162.399C59.0727 156.63 61.7691 151.268 65.2608 146.54Z" fill="#9E360B"/>
<path fill-rule="evenodd" clip-rule="evenodd" d="M52.0078 213.376C54.6097 214.59 57.0571 216.047 59.4679 217.559C61.8594 219.102 64.2104 220.705 66.4069 222.551C63.805 221.341 61.3576 219.885 58.9487 218.37C56.5592 216.825 54.2063 215.222 52.0078 213.376Z" fill="#9E360B"/>
<path fill-rule="evenodd" clip-rule="evenodd" d="M72.4263 223.99C77.8713 225.61 83.1793 227.576 88.5008 229.514C93.7798 231.556 99.0723 233.57 104.234 235.936C98.7944 234.321 93.4806 232.352 88.1591 230.414C82.8782 228.367 77.5818 226.352 72.4263 223.99Z" fill="black"/>
<path fill-rule="evenodd" clip-rule="evenodd" d="M119.75 242.173C120.637 242.162 121.504 242.35 122.349 242.587C123.199 242.815 124.009 243.16 124.801 243.537C125.575 243.946 126.345 244.371 127.036 244.911C127.74 245.429 128.404 246.005 128.983 246.672C127.372 245.953 125.893 245.146 124.37 244.398C122.853 243.637 121.338 242.919 119.75 242.173Z" fill="black"/>
<path fill-rule="evenodd" clip-rule="evenodd" d="M92.3157 38.5719C92.3157 38.5719 78.6443 29.6802 79.3817 40.9745C80.1209 52.2688 81.9102 65.2855 60.7014 71.3354C60.7014 71.3354 52.7974 75.2812 46.7386 80.1442C40.6798 85.0111 10.6733 102.498 8.68327 111.178C6.69326 119.855 12.0939 143.39 14.4661 150.887C16.8363 158.382 17.6277 157.066 15.9137 161.669C14.2016 166.27 13.5434 171.66 14.2016 178.762C14.8618 185.862 15.5199 188.754 18.5503 182.18C18.5503 182.18 18.9441 185.6 18.4171 188.097C17.8902 190.596 18.6816 193.752 21.71 188.097C21.71 188.097 20.9206 193.226 22.6326 193.358C24.3447 193.488 30.9324 182.444 25.9255 159.17C25.9255 159.17 24.6091 119.006 24.2134 114.303C24.2134 114.303 50.4271 102.76 52.0079 102.498C52.0079 102.498 61.7553 130.554 62.151 136.184C62.5467 141.814 90.7349 147.993 103.381 138.527C103.381 138.527 101.669 129.19 106.016 123.273C106.016 123.273 115.237 137.656 118.267 136.184C121.295 134.712 132.23 123.273 136.445 115.647C140.659 108.022 144.349 90.4 148.827 87.903C153.305 85.406 154.979 83.279 157.254 79.0518C159.528 74.8227 162.588 70.5955 159.605 70.3605C159.605 70.3605 162.273 67.0716 161.254 65.3491C160.235 63.6267 158.822 65.4262 158.822 65.4262C158.822 65.4262 161.646 61.5921 160.235 60.5748C158.822 59.5575 156.861 62.2953 156.861 62.2953C156.861 62.2953 157.959 60.3397 156.94 59.7906C155.921 59.2434 146.507 69.4222 146.507 69.4222C146.507 69.4222 147.291 67.0716 146.666 64.0178C146.038 60.9659 144.234 66.0543 143.683 67.1506C143.135 68.2449 138.273 75.1367 139.057 81.0864C139.057 81.0864 128.485 98.7465 125.6 101.829C122.712 104.91 118.73 108.686 117.634 112.463C117.634 112.463 108.276 98.523 106.881 88.4984C105.487 78.4738 101.405 74.2004 98.8166 73.3064C96.2282 72.4105 92.3466 71.5184 92.0474 65.852C92.0474 65.852 103.652 47.0147 92.3157 38.5719Z" fill="#FFD4AA"/>
<path fill-rule="evenodd" clip-rule="evenodd" d="M22.5814 175.514C23.0794 177.607 23.2068 179.739 23.1547 181.874C23.1122 182.94 23.0196 184.011 22.8034 185.065C22.5911 186.113 22.3132 187.192 21.7109 188.097C21.9368 187.051 22.0101 186.017 22.0661 184.972L22.1896 181.84C22.2803 179.745 22.3286 177.645 22.5814 175.514Z" fill="#703312"/>
<path fill-rule="evenodd" clip-rule="evenodd" d="M18.4227 173.945C18.7392 174.592 18.9071 175.276 19.0423 175.964C19.187 176.652 19.2353 177.353 19.2546 178.051C19.2584 179.446 19.0924 180.858 18.5501 182.18C18.4285 181.471 18.4053 180.787 18.359 180.103C18.3126 179.421 18.3069 178.743 18.2895 178.066C18.2856 176.706 18.2798 175.359 18.4227 173.945Z" fill="#703312"/>
<path fill-rule="evenodd" clip-rule="evenodd" d="M115.417 123.01C115.417 123.01 116.17 115.538 117.633 112.461L115.417 123.01Z" fill="#FFD4AA"/>
<path fill-rule="evenodd" clip-rule="evenodd" d="M146.508 69.4219C145.966 70.5413 145.923 71.7705 146.114 72.913C146.309 74.0402 146.842 75.1692 147.095 76.4389C147.338 77.6816 147.446 78.9744 147.234 80.2422C147.041 81.5042 146.547 82.745 145.705 83.6756C146.201 82.533 146.46 81.3558 146.496 80.1709C146.523 78.986 146.398 77.803 146.149 76.6335C145.954 75.4794 145.433 74.3292 145.379 72.994C145.317 71.7127 145.616 70.3351 146.508 69.4219Z" fill="black"/>
<path fill-rule="evenodd" clip-rule="evenodd" d="M150.47 70.8873C151.234 69.2322 152.228 67.7468 153.278 66.3056C154.357 64.8837 155.492 63.5023 156.861 62.2961C156.1 63.9531 155.104 65.4367 154.052 66.8778C152.971 68.2997 151.836 69.6792 150.47 70.8873Z" fill="black"/>
<path fill-rule="evenodd" clip-rule="evenodd" d="M152.861 72.5922C153.643 71.1972 154.612 69.9873 155.604 68.8004C156.617 67.6251 157.68 66.5308 158.821 65.4287C158.586 66.1994 158.175 66.8891 157.75 67.5481C157.329 68.2166 156.839 68.8293 156.337 69.4266C155.304 70.6 154.195 71.7059 152.861 72.5922Z" fill="black"/>
<path fill-rule="evenodd" clip-rule="evenodd" d="M153.666 76.5489C154.445 75.2927 155.405 74.2349 156.395 73.2119C157.402 72.1946 158.466 71.2794 159.607 70.3604C159.356 71.0655 158.927 71.6724 158.499 72.2543C158.072 72.8419 157.578 73.3699 157.082 73.8881C156.053 74.8939 154.963 75.836 153.666 76.5489Z" fill="black"/>
<path fill-rule="evenodd" clip-rule="evenodd" d="M52.0073 102.499C53.5148 101.006 55.5685 100.097 57.6878 99.7633C59.8091 99.4203 62.0712 99.7864 63.901 100.831C62.8472 100.7 61.8473 100.517 60.8301 100.522C59.8226 100.499 58.8208 100.546 57.8326 100.713C55.8445 100.998 53.9259 101.642 52.0073 102.499Z" fill="black"/>
<path fill-rule="evenodd" clip-rule="evenodd" d="M102.98 84.6659C103.076 77.4331 99.5423 73.0499 99.3744 72.8456C99.1196 72.5374 98.6641 72.4969 98.3552 72.7493C98.0483 73.0036 98.0039 73.4603 98.2587 73.7685C98.2915 73.8051 100.67 76.753 101.357 81.7296C98.0483 74.728 94.2961 70.1213 94.1166 69.9016C93.8618 69.5953 93.4063 69.5529 93.0974 69.8015C92.7886 70.0558 92.7423 70.5105 92.9971 70.8188C93.0434 70.8746 97.2782 76.0825 100.654 83.6756H68.092C68.177 77.5641 68.7348 68.3507 68.7406 68.2524C68.7638 67.8555 68.4607 67.5145 68.0631 67.4894C67.6693 67.4316 67.32 67.7669 67.2949 68.1676C67.291 68.2543 66.8394 75.7222 66.6849 81.6988C63.8688 76.3233 60.3694 71.707 60.1841 71.4642C59.9429 71.1482 59.4912 71.0866 59.1689 71.3293C58.8523 71.5702 58.7905 72.0229 59.0318 72.3428C59.0878 72.4141 64.5019 79.5486 67.2215 86.2574C70.2674 112.239 54.6445 110.266 54.6445 110.266L61.2554 131.712C87.3282 137.511 103.094 132.662 103.094 132.662C103.733 128.676 108.631 120.662 113.094 112.462C116.972 105.336 105.933 88.8565 102.98 84.6659Z" fill="#FF676F"/>
<path fill-rule="evenodd" clip-rule="evenodd" d="M79.3828 40.9745C79.3828 40.9745 68.4754 28.3893 68.8016 21.7229C69.1259 15.0565 71.7663 6.3787 89.6803 8.97974C107.596 11.5808 108.249 25.7247 108.249 30.6011C108.249 35.4776 113.852 36.7704 113.973 39.6181C114.095 42.4619 109.546 42.7046 110.636 44.0976C111.729 45.4906 110.879 46.639 109.727 47.0031C109.727 47.0031 110.941 48.0936 110.395 49.1225C109.849 50.1533 108.15 50.4557 108.94 53.1204C109.727 55.7831 107.467 60.0642 98.92 57.309C90.3694 54.5538 85.7389 47.7083 84.048 44.1516C84.048 44.1516 81.6952 44.1497 79.3828 40.9745Z" fill="#FFD4AA"/>
<path fill-rule="evenodd" clip-rule="evenodd" d="M52.1603 63.1541C49.7244 67.6356 42.0751 75.5138 32.3181 75.431C22.5611 75.3501 16.0004 76.1689 13.8695 78.0494C13.8695 78.0494 17.2299 73.8762 27.6432 73.223C38.0565 72.5679 43.6328 69.0479 46.8311 62.8265C50.0294 56.6091 51.6681 39.6657 51.6681 39.6657C51.6681 39.6657 54.8548 58.1986 52.1603 63.1541ZM105.56 13.1813C102.771 9.89054 100.098 12.7421 100.098 12.7421C100.098 12.7421 96.3169 5.09114 84.842 3.70585C73.3652 2.31862 65.4109 14.1813 65.4109 14.1813C58.6322 7.15463 44.0265 5.09114 32.8122 18.998C21.5979 32.9049 30.4651 44.1858 28.1161 56.2893C25.769 68.3966 14.5547 59.0232 7.66207 67.3562C0.767492 75.6853 8.94757 84.5385 8.94757 84.5385C9.59996 87.4016 12.0764 88.4979 12.0764 88.4979L11.9027 85.2533C12.8021 84.8429 13.4584 82.1417 13.4584 82.1417C16.9018 76.1689 25.9215 76.9878 33.3836 77.3153C40.8456 77.6429 48.1185 72.7471 53.1447 66.0191C58.9854 58.1986 54.3742 41.4653 53.5539 34.3461C52.7335 27.225 61.8362 19.7745 61.8362 19.7745C61.8362 19.7745 57.7366 28.2866 62.8187 40.893C67.9028 53.4956 80.1208 52.2702 80.1208 52.2702C82.4987 48.5844 79.3834 40.9739 79.3834 40.9739C76.5943 37.5367 77.0865 33.8529 80.2848 33.4637C83.4831 33.0726 85.1218 36.9645 85.45 38.9297C85.7781 40.893 87.3724 39.974 87.0906 36.3903C86.8069 32.8067 88.0731 23.3755 89.2215 21.1675C90.37 18.9595 91.0243 19.7745 91.0243 19.7745C91.0243 19.7745 87.909 25.0132 87.909 34.6736C87.909 44.3283 83.4831 47.1143 81.9236 48.4226C80.3659 49.7327 81.6784 49.8136 81.6784 49.8136C89.2215 47.359 90.1229 39.2573 90.6962 33.4637C91.2714 27.6701 91.5165 22.233 93.8945 17.894C96.2725 13.5551 101.038 13.426 101.038 13.426C103.933 11.0138 106.765 18.3083 107.462 20.1444C108.16 21.9786 108.35 16.4721 105.56 13.1813Z" fill="#110B05"/>
<path fill-rule="evenodd" clip-rule="evenodd" d="M8.6847 79.296C8.64417 76.4715 8.75998 73.5255 10.0223 70.8667C10.6438 69.5469 11.6456 68.3601 12.9369 67.6048C14.2166 66.8283 15.6739 66.4411 17.1022 66.2176C19.9685 65.7706 22.8425 65.8072 25.5313 65.1425C28.2296 64.5433 30.5478 62.9422 31.9491 60.6186L31.9259 60.6591C33.2288 58.1177 33.9835 55.3394 34.0028 52.4976C34.0202 49.6538 33.4894 46.7984 32.8157 43.97L31.7773 39.7081C31.453 38.1803 31.3527 36.6543 31.4048 35.1438C31.4974 32.1227 32.173 29.1653 33.2114 26.3561C33.6689 24.9265 34.4062 23.6087 35.0605 22.26C35.8751 20.9961 36.6336 19.6917 37.6759 18.5935C38.585 17.3835 39.8068 16.4683 40.9205 15.4626C42.2137 14.6958 43.4027 13.7247 44.8504 13.2623C47.5873 11.9406 50.666 11.7633 53.6133 11.7744C55.0861 11.9599 56.5569 12.1545 58.0064 12.4165L62.2354 13.6977L57.9504 12.6882C56.5028 12.5013 55.0436 12.3818 53.5979 12.2701C50.7104 12.4242 47.7707 12.7132 45.1978 14.0407C43.8312 14.5147 42.7291 15.4857 41.5266 16.241C40.4959 17.2371 39.3667 18.1253 38.5387 19.3083C37.5736 20.3718 36.9154 21.6589 36.1376 22.8573C35.5296 24.1539 34.8347 25.4159 34.412 26.7935C33.445 29.4851 32.8273 32.3366 32.7713 35.1862C32.7327 36.6081 32.8505 38.0184 33.1458 39.3652C33.4951 40.7775 33.9005 42.2032 34.219 43.6463C34.8714 46.5229 35.4041 49.4881 35.3558 52.5226C35.3076 55.561 34.4525 58.5802 33.0473 61.2409L33.0338 61.2679L33.0223 61.2814C32.2212 62.5472 31.177 63.6878 29.9166 64.5375C28.6543 65.3833 27.2144 65.9035 25.7764 66.206C22.8869 66.8187 19.9994 66.6896 17.2238 67.0422C14.4752 67.3312 11.7209 68.52 10.4508 71.0863C9.12092 73.5544 8.84684 76.4792 8.6847 79.296Z" fill="#6F3C00"/>
<path fill-rule="evenodd" clip-rule="evenodd" d="M63.4236 14.6237C59.1637 13.8415 54.6568 14.04 50.6478 15.6044C46.606 17.1227 43.4019 20.3981 41.7922 24.3478C40.2075 28.2956 39.5204 32.6596 39.4895 36.9156C39.4277 41.2295 40.746 45.3546 41.4833 49.6993C42.2265 54.0767 41.3598 58.7181 39.1227 62.558C36.932 66.423 32.925 69.3651 28.4508 69.8776C27.3468 70.024 26.233 70.0548 25.1271 69.9912C24.0153 69.9411 22.9267 69.7022 21.8863 69.6521C19.7727 69.4999 17.6283 70.1049 15.9394 71.3939C14.2254 72.6578 12.9863 74.4978 12.0849 76.4476C11.1873 78.4071 10.5832 80.5149 10.2705 82.6612C10.5041 80.5033 11.0291 78.3685 11.8648 76.3493C12.7064 74.3456 13.8934 72.4112 15.646 71.0143C17.389 69.6175 19.682 68.9238 21.9114 69.0356C23.0444 69.0741 24.0963 69.2861 25.1618 69.3111C26.2273 69.3477 27.2946 69.2976 28.3427 69.1358C32.5659 68.5327 36.295 65.818 38.3584 62.113C40.4681 58.433 41.2517 54.0305 40.5356 49.838C39.8562 45.6397 38.5263 41.3528 38.617 36.9195C38.6904 32.5247 39.3775 28.1337 41.1282 24.0568C42.875 19.9992 46.2972 16.6256 50.4857 15.1786C54.6548 13.7201 59.1908 13.6951 63.4236 14.6237Z" fill="#6F3C00"/>
<path fill-rule="evenodd" clip-rule="evenodd" d="M63.4238 16.0086C59.2971 16.0433 54.9117 16.9315 51.9836 19.8119C49.0633 22.7058 48.0982 26.933 47.6562 30.9732C46.859 39.1848 47.772 47.5987 46.3224 55.9991C45.5195 60.1299 43.929 64.3879 40.777 67.4514C37.6347 70.5014 33.3922 72.1333 29.1941 72.6438C27.0979 72.9136 24.9496 72.9271 22.9461 73.191C20.9156 73.4762 18.9043 73.981 17.0996 74.9116C15.3065 75.8402 13.7585 77.3026 12.9362 79.1869C12.0812 81.0558 11.8766 83.1752 11.9017 85.2522C11.7241 83.1848 11.7839 81.0269 12.5849 79.0366C13.3319 77.0348 14.9031 75.372 16.7541 74.2931C18.6322 73.2334 20.7206 72.6516 22.8091 72.2893C24.94 71.9425 26.9917 71.8712 29.0242 71.5437C33.0564 70.8809 37.0016 69.3646 39.8467 66.5208C42.7053 63.6866 44.1626 59.7196 44.9018 55.7313C46.4325 47.6449 45.5137 39.2176 46.556 30.8403C47.1408 26.7268 48.2661 22.2935 51.4992 19.2994C54.7959 16.419 59.3106 15.7292 63.4238 16.0086Z" fill="#6F3C00"/>
<path fill-rule="evenodd" clip-rule="evenodd" d="M80.0884 7.07507C83.2153 6.17338 86.5892 6.14255 89.7894 6.83424C91.3876 7.19453 92.9433 7.77832 94.3659 8.58753C95.827 9.34472 97.0565 10.4584 98.1953 11.6028C96.9311 10.5855 95.6494 9.59712 94.1922 8.91314C92.7638 8.19063 91.2544 7.6184 89.6833 7.30242C88.1256 6.9325 86.5216 6.76295 84.9138 6.72441C83.306 6.70707 81.6866 6.79377 80.0884 7.07507Z" fill="#782001"/>
<path fill-rule="evenodd" clip-rule="evenodd" d="M65.7983 15.3084C67.4409 13.4279 69.4888 11.9212 71.6854 10.6881C73.8858 9.44927 76.3294 8.61115 78.8502 8.2027C80.1125 7.98112 81.3961 7.97535 82.6758 7.97727C83.942 8.14682 85.2371 8.17572 86.4454 8.61694C87.0496 8.81346 87.6769 8.93484 88.2559 9.19302L89.9834 9.96948C91.1106 10.5244 92.1182 11.3008 93.1315 12.0002C90.8346 11.0369 88.6014 10.035 86.2003 9.70167C83.8416 9.28165 81.427 9.20843 79.0702 9.63038C76.7077 9.97911 74.405 10.7209 72.1795 11.6785C71.0677 12.164 69.9772 12.7112 68.9252 13.3373C67.8366 13.9076 66.8213 14.6013 65.7983 15.3084Z" fill="#6F3C00"/>
<path fill-rule="evenodd" clip-rule="evenodd" d="M64.9351 16.7438C68.8417 15.004 73.1769 14.1871 77.4831 14.3566C79.6391 14.4741 81.7758 14.9423 83.7813 15.7284C85.8118 16.4952 87.5663 17.8054 89.1414 19.2331C87.4467 17.9364 85.6555 16.765 83.6462 16.0733C81.6562 15.3778 79.5754 14.9173 77.458 14.8364C75.3445 14.715 73.2213 14.871 71.1251 15.1986C69.0309 15.5435 66.9463 16.0271 64.9351 16.7438Z" fill="#6F3C00"/>
<path fill-rule="evenodd" clip-rule="evenodd" d="M64.9351 18.3716C68.3244 16.1829 72.5998 15.4546 76.6493 15.9151C78.6721 16.1944 80.6911 16.6665 82.5247 17.5624C83.4744 17.9304 84.3217 18.5084 85.1903 19.0151C86.0203 19.5874 86.8116 20.2174 87.5702 20.8609C85.7423 20.0228 83.9666 19.2001 82.1117 18.6124C80.2838 17.967 78.3826 17.5913 76.4814 17.3485C74.5763 17.0846 72.6403 17.1115 70.7121 17.2695C68.7838 17.4564 66.8459 17.7763 64.9351 18.3716Z" fill="#6F3C00"/>
<path fill-rule="evenodd" clip-rule="evenodd" d="M64.9351 19.999C67.8573 22.2802 70.9823 24.1973 74.2732 25.7849C75.9139 26.5825 77.5989 27.2973 79.3226 27.9139C81.0366 28.569 82.8123 29.0391 84.5958 29.5728C82.7448 29.4341 80.8918 29.1373 79.0967 28.6229C77.2824 28.1567 75.5433 27.4476 73.8525 26.65C72.1674 25.835 70.5519 24.8755 69.0521 23.7638C67.5504 22.6559 66.1202 21.4383 64.9351 19.999Z" fill="#6F3C00"/>
<path fill-rule="evenodd" clip-rule="evenodd" d="M64.9351 20.8608C65.9909 22.3328 67.4211 23.4715 68.8784 24.5062C70.3531 25.5292 71.9242 26.4174 73.5591 27.1631C75.1688 27.9665 76.8655 28.5811 78.5563 29.2054C80.2626 29.7892 81.9901 30.3151 83.733 30.818L81.0674 30.2747L78.4405 29.5599C76.711 29.0031 74.9971 28.3769 73.3525 27.5946C71.7138 26.8047 70.1137 25.9088 68.6622 24.8029C67.2185 23.7046 65.848 22.435 64.9351 20.8608Z" fill="#6F3C00"/>
<path fill-rule="evenodd" clip-rule="evenodd" d="M64.0718 21.7227C65.3708 25.6762 67.0134 29.4661 69.0458 33.0401C70.036 34.8415 71.1555 36.5659 72.3561 38.2364C73.5296 39.9357 74.902 41.4771 76.2531 43.0724C72.9718 40.4906 70.2445 37.1748 68.2043 33.5102C67.1813 31.6798 66.2818 29.7762 65.5966 27.7937C64.8979 25.8227 64.3285 23.7958 64.0718 21.7227Z" fill="#6F3C00"/>
<path fill-rule="evenodd" clip-rule="evenodd" d="M63.4237 23.207C63.4353 25.6443 63.802 28.0604 64.3579 30.4167C64.935 32.7692 65.763 35.0639 66.8787 37.2122C67.9422 39.3797 69.1987 41.4721 70.7603 43.3295C72.2639 45.2388 74.0493 46.8977 75.8694 48.5238C74.9294 47.7474 73.9257 47.0383 73.034 46.2041C72.1693 45.3371 71.266 44.5028 70.5132 43.5356C68.8938 41.6918 67.5716 39.6032 66.4463 37.4241C65.3616 35.2181 64.576 32.879 64.0471 30.488C63.5028 28.1028 63.248 25.6424 63.4237 23.207Z" fill="#6F3C00"/>
<path fill-rule="evenodd" clip-rule="evenodd" d="M97.9082 28.8537C97.9082 28.8537 99.0026 28.0156 100.28 28.162C101.558 28.3085 105.608 27.7247 105.828 27.3971C106.046 27.0677 106.447 26.3047 106.447 26.3047C106.447 26.3047 101.375 23.827 97.9082 28.8537Z" fill="black"/>
<path fill-rule="evenodd" clip-rule="evenodd" d="M105.645 34.6826C105.645 34.6826 103.455 32.2415 101.631 32.3879C99.8067 32.5344 98.9304 33.2626 99.0038 34.172C99.0771 35.0834 100.573 34.7924 101.339 34.6826C102.106 34.5728 104.551 34.3647 105.061 34.8136C105.061 34.8136 105.211 34.8618 105.134 34.621C105.134 34.621 105.632 34.8079 105.645 34.6826Z" fill="black"/>
<path fill-rule="evenodd" clip-rule="evenodd" d="M112.147 41.2492C112.147 41.2492 111.738 41.2241 111.314 41.2492C110.887 41.2761 109.824 41.6673 109.866 42.0488C109.908 42.4302 110.64 42.253 111.117 42.0488C111.593 41.8464 112.512 41.4284 112.147 41.2492Z" fill="black"/>
<path fill-rule="evenodd" clip-rule="evenodd" d="M104.767 46.2729C104.767 46.2729 106.156 48.3556 107.903 48.3691C109.65 48.3845 110.215 47.5965 110.215 47.5965C110.215 47.5965 109.928 47.1476 109.727 47.0031C109.727 47.0031 110.563 46.7777 110.824 46.2729C110.824 46.2729 110.609 46.0648 110.144 46.2729C109.681 46.479 107.419 46.6756 106.359 46.1785C105.299 45.6833 104.767 46.2729 104.767 46.2729Z" fill="#F83C1F"/>
<path fill-rule="evenodd" clip-rule="evenodd" d="M83.4465 41.0932C83.3751 41.0932 83.3036 41.0777 83.2361 41.045C83.1087 40.9814 80.1555 39.5094 80.6863 37.2648C80.8523 36.5596 81.1727 36.157 81.6379 36.0683C82.4582 35.9142 83.1975 36.8968 83.3384 37.0972C83.4928 37.3149 83.4407 37.6135 83.2245 37.7677C83.0064 37.918 82.7053 37.8698 82.5509 37.654C82.3019 37.3014 81.9332 36.97 81.8193 37.0143C81.8232 37.0163 81.717 37.101 81.6263 37.4864C81.2731 38.9834 83.6376 40.1683 83.6607 40.178C83.8981 40.2974 83.9985 40.5845 83.8808 40.8234C83.7958 40.993 83.624 41.0932 83.4465 41.0932Z" fill="black"/>
</svg>
