<svg width="462" height="346" viewBox="0 0 462 346" fill="none" xmlns="http://www.w3.org/2000/svg">
<path d="M72.9526 19.413C54.7167 24.9758 20.9455 53.1746 3.67018 132.362C3.22252 134.414 3.10824 136.546 3.35925 138.631C6.28024 162.897 15.0729 211.066 30 232.5C49.5 260.5 141 244.5 190.5 250.5C240 256.5 280 361.5 328.5 340C377 318.5 358.5 262.5 415.5 266C459.419 268.697 457.08 186.575 449.849 140.611C449.32 137.244 447.903 134.104 445.649 131.548C425.408 108.605 378.69 70.4716 328.5 75C264.571 80.768 321.246 50.9556 220.444 5.55244C212.78 2.10024 203.762 4.28439 196.729 8.88886C176.903 21.8697 137.708 34.484 81.0488 19.6022C78.389 18.9036 75.583 18.6106 72.9526 19.413Z" stroke="white" stroke-width="5" stroke-linecap="round" stroke-linejoin="round"/>
<path d="M77.9526 19.413C59.7167 24.9758 25.9455 53.1746 8.67018 132.362C8.22252 134.414 8.10824 136.546 8.35925 138.631C11.2802 162.897 20.0729 211.066 35 232.5C54.5 260.5 146 244.5 195.5 250.5C245 256.5 285 361.5 333.5 340C382 318.5 363.5 262.5 420.5 266C464.419 268.697 462.08 186.575 454.849 140.611C454.32 137.244 452.903 134.104 450.649 131.548C430.408 108.605 383.69 70.4716 333.5 75C269.571 80.768 326.246 50.9556 225.444 5.55244C217.78 2.10024 208.762 4.28439 201.729 8.88886C181.903 21.8697 142.708 34.484 86.0488 19.6022C83.389 18.9036 80.583 18.6106 77.9526 19.413Z" fill="url(#paint0_linear)" stroke="white" stroke-width="5" stroke-linecap="round" stroke-linejoin="round"/>
<path d="M330.058 167.941H308.486V188.765H330.058V167.941Z" fill="#FF7590"/>
<path d="M434.511 247.261C434.511 247.261 432.69 248.255 430.017 249.495C425.891 251.411 419.742 253.933 415.189 254.307C407.689 254.927 405.341 255.631 396.764 249.643C390.181 245.049 379.162 238.645 374.364 235.911L372.276 234.706L372.066 234.587V234.502L376.048 223.835L390.138 216.529L393.635 219.453L404.047 228.154C404.047 228.154 405.673 230.705 408.296 230.529C410.919 230.352 424.915 231.494 424.915 231.494L427.56 231.916L433.131 232.818L434.511 247.261Z" fill="#8E5362"/>
<path opacity="0.1" d="M434.511 247.724C434.511 247.724 432.608 248.771 429.815 250.078C426.862 248.593 423.193 245.808 424.605 241.225C425.881 237.102 426.228 233.886 427.278 231.569L433.099 232.519L434.511 247.724Z" fill="black"/>
<path d="M432.527 228.552C432.527 228.552 448.098 224.189 446.938 242.515C445.779 260.841 433.78 250.809 433.78 250.809C433.78 250.809 423.578 248.191 425.725 241.293C427.873 234.395 427.25 230.214 432.527 228.552Z" fill="#8E5362"/>
<path d="M269.884 167.998L253.593 174.776L253.341 174.882L253.161 174.797L252.148 174.291C247.935 172.213 233.455 165.101 224.346 160.879C213.562 155.896 215.237 150.912 215.237 150.912L213.684 98.7081L210.923 89.3323C210.923 89.3323 208.975 57.5527 224.583 49.5864C240.191 41.6201 230.097 95.6184 230.097 95.6184L231.305 106.838C232.085 114.016 233.517 121.109 235.583 128.032C236.258 130.308 236.682 132.649 236.848 135.015C237.33 142.604 240.925 142.099 240.925 142.099C246.603 142.982 252.084 144.827 257.13 147.552C259.004 148.532 260.797 149.655 262.493 150.912L269.884 167.998Z" fill="#8E5362"/>
<path d="M327.956 192.235L314.163 190.82C314.163 190.82 318.228 184.818 320.018 178.979C320.271 178.178 320.474 177.363 320.624 176.537C321.038 174.223 320.931 172.078 319.868 170.528C315.832 164.632 343.881 156.373 343.881 156.373C343.54 159.636 343.438 162.919 343.575 166.196C343.655 168.477 343.893 170.75 344.288 172.998C345.137 177.577 346.827 181.888 350.05 184.096C358.858 190.112 327.956 192.235 327.956 192.235Z" fill="#8E5362"/>
<path opacity="0.1" d="M327.952 192.235L314.163 190.873C314.163 190.873 318.227 185.098 320.017 179.48C321.607 181.639 322.156 181.591 324.387 182.02C324.387 182.02 338.305 183.988 344.294 173.725C345.143 178.132 346.833 182.279 350.055 184.404C358.847 190.192 327.952 192.235 327.952 192.235Z" fill="black"/>
<path opacity="0.1" d="M374.357 236.087C374.341 236.51 374.36 236.933 374.415 237.353L372.247 234.872L372.066 234.666L376.048 223.902L390.14 216.529L393.638 219.48C388.63 221.364 374.581 227.343 374.357 236.087Z" fill="black"/>
<path opacity="0.1" d="M269.884 167.91L253.425 174.796H252.989L251.718 174.882C251.718 174.882 251.813 174.673 251.965 174.282C253.338 170.962 259.708 154.755 256.955 147.118C258.848 148.113 260.66 149.254 262.374 150.531L269.884 167.91Z" fill="black"/>
<path opacity="0.1" d="M344.482 166.454C343.706 167.55 342.842 168.583 341.899 169.541C339.525 171.965 336.688 173.891 333.555 175.206C330.421 176.52 327.055 177.197 323.654 177.196C322.775 177.197 321.895 177.153 321.02 177.065C321.443 174.69 321.334 172.49 320.246 170.899C316.116 164.849 344.818 156.373 344.818 156.373C344.462 159.721 344.349 163.09 344.482 166.454Z" fill="black"/>
<path d="M348.224 151.167C348.224 156.086 346.759 160.895 344.014 164.985C341.269 169.075 337.368 172.263 332.804 174.146C328.24 176.028 323.218 176.521 318.373 175.561C313.528 174.602 309.077 172.233 305.584 168.754C302.091 165.276 299.712 160.844 298.748 156.019C297.784 151.194 298.279 146.193 300.169 141.648C302.06 137.104 305.261 133.219 309.369 130.486C313.476 127.753 318.306 126.294 323.246 126.294C326.529 126.282 329.783 126.917 332.819 128.163C335.855 129.408 338.613 131.24 340.935 133.552C343.257 135.864 345.096 138.611 346.347 141.634C347.598 144.657 348.236 147.897 348.224 151.167Z" fill="#8E5362"/>
<path opacity="0.1" d="M360.713 208.459L361.281 224.627C361.281 224.627 369.53 218.815 369.79 213.292C370.051 207.769 360.713 208.459 360.713 208.459Z" fill="black"/>
<path opacity="0.1" d="M300.539 224.627C300.539 224.627 320.022 251.736 331.357 254.486C342.693 257.237 304.79 233.417 300.539 224.627Z" fill="black"/>
<path opacity="0.1" d="M320.975 228.098C320.975 228.098 332.213 240.441 340.276 241.98L320.975 228.098Z" fill="black"/>
<path opacity="0.1" d="M282.373 258.176C282.373 258.176 302.603 277.808 314.163 279L282.373 258.176Z" fill="black"/>
<path opacity="0.1" d="M348.224 151.491C348.227 158.077 345.696 164.401 341.175 169.098L338.469 167.378C337.422 166.821 336.519 166.019 335.833 165.038C334.938 163.512 335.198 161.597 335.269 159.82C335.417 156.055 334.402 151.981 331.519 149.627C326.846 145.804 319.354 147.921 314.603 144.17C313.459 143.178 312.451 142.033 311.607 140.766L307.153 134.669C306.885 134.309 306.561 133.949 306.215 133.524C309.684 130.041 314.083 127.683 318.86 126.746C323.636 125.809 328.578 126.336 333.063 128.259C337.548 130.182 341.376 133.416 344.066 137.555C346.756 141.694 348.188 146.552 348.181 151.52L348.224 151.491Z" fill="black"/>
<path d="M307.856 120.236C310.121 118.537 312.884 117.642 315.43 116.391C317.977 115.14 320.226 113.548 322.773 112.482C325.319 111.415 328.263 110.79 330.904 111.678C336.568 113.59 338.709 121.366 344.533 122.731C345.516 122.958 346.529 122.98 347.52 123.129C349.412 123.481 351.206 124.224 352.783 125.309C354.361 126.393 355.686 127.794 356.671 129.419C358.615 132.699 359.615 136.436 359.565 140.23C359.645 142.336 359.334 144.439 358.646 146.435C356.924 151.077 352.606 154.254 349.69 158.27C346.931 162.113 345.466 166.709 345.502 171.412L338.442 167.097C337.365 166.55 336.438 165.758 335.736 164.787C334.817 163.281 335.085 161.39 335.157 159.634C335.309 155.917 334.268 151.894 331.316 149.57C326.513 145.796 318.823 147.885 313.955 144.182C312.78 143.202 311.746 142.072 310.88 140.82L306.308 134.8C305.317 133.492 303.415 131.864 302.981 130.272C302.018 126.846 305.31 122.162 307.856 120.236Z" fill="#362133"/>
<path opacity="0.1" d="M339.586 166.284C338.499 165.733 337.563 164.935 336.855 163.957C335.927 162.439 336.198 160.534 336.271 158.765C336.424 155.02 335.372 150.966 332.386 148.625C327.545 144.822 319.783 146.928 314.861 143.197C313.676 142.21 312.632 141.07 311.758 139.809L307.143 133.744C306.136 132.426 304.222 130.786 303.784 129.182C302.988 126.418 305.004 122.816 307.158 120.51C304.741 122.701 302.09 126.862 302.988 129.963C303.456 131.567 305.347 133.207 306.347 134.524L310.962 140.59C311.836 141.851 312.88 142.99 314.065 143.977C318.965 147.708 326.727 145.603 331.59 149.405C334.569 151.747 335.621 155.8 335.467 159.546C335.394 161.314 335.124 163.219 336.052 164.738C336.76 165.715 337.696 166.513 338.783 167.065L345.909 171.412C345.909 170.996 345.909 170.581 345.953 170.173L339.586 166.284Z" fill="black"/>
<path d="M174.872 176.916C174.872 176.916 171.764 146.628 183.851 154.083C195.938 161.538 187.616 174.786 187.616 174.786L184.777 184.137L174.872 176.916Z" fill="#FFC1C7"/>
<path d="M194.95 80.4576L202.232 73.5366C202.232 73.5366 216.192 34.6533 230.029 44.6402C243.865 54.627 212.493 79.8797 212.493 79.8797L204.177 89.2745L194.95 80.4576Z" fill="#FFC1C7"/>
<path d="M138.72 188.396L148.995 200.064C148.995 200.064 153.472 205.599 158.79 197.178C164.109 188.757 174.028 173.725 174.028 173.725C174.028 173.725 185.036 183.344 187.938 181.425C190.84 179.506 161.214 221.481 161.214 221.481C161.214 221.481 151.781 235.307 137.748 218.956L133.641 217.029L138.72 188.396Z" fill="#FF5374"/>
<path opacity="0.1" d="M138.72 188.396L148.995 200.064C148.995 200.064 153.472 205.599 158.79 197.178C164.109 188.757 174.028 173.725 174.028 173.725C174.028 173.725 185.036 183.344 187.938 181.425C190.84 179.506 161.214 221.481 161.214 221.481C161.214 221.481 151.781 235.307 137.748 218.956L133.641 217.029L138.72 188.396Z" fill="black"/>
<path d="M108.095 142.49C119.696 142.49 129.099 133.167 129.099 121.667C129.099 110.166 119.696 100.843 108.095 100.843C96.4951 100.843 87.0912 110.166 87.0912 121.667C87.0912 133.167 96.4951 142.49 108.095 142.49Z" fill="#FFC1C7"/>
<path opacity="0.1" d="M123.423 220C123.423 220 137.816 240.721 138.182 244.294C138.19 244.294 135.993 222.022 123.423 220Z" fill="black"/>
<path opacity="0.1" d="M105.257 150.588C105.257 150.588 115.009 162.237 129.099 152.473C125.205 153.786 121.082 154.295 116.982 153.971C112.883 153.647 108.893 152.496 105.257 150.588Z" fill="black"/>
<path opacity="0.1" d="M112.022 99.657C111.765 98.5973 111.231 97.6224 110.473 96.8288C107.231 92.8198 103.709 88.7048 98.8823 86.8028C95.6781 85.6228 92.1749 85.4844 88.8853 86.4081C85.5956 87.3317 82.6921 89.2688 80.5995 91.936C78.8637 94.241 77.8309 96.9843 76.3318 99.4519C73.5632 104.019 69.2812 107.541 64.6764 110.326C61.9007 112.002 58.9743 113.451 56.3563 115.353C46.8383 122.261 42.4416 135.031 44.8372 146.464C45.8916 151.469 48.1222 156.405 47.5197 161.488C47.0535 165.434 44.9233 168.969 42.7643 172.32C40.6054 175.672 38.303 179.066 37.4423 182.926C36.5816 186.786 37.4853 191.361 40.7345 193.701C41.9323 194.564 43.374 195.116 44.3997 196.148C45.0784 196.951 45.6453 197.841 46.0852 198.792C47.7938 201.899 50.1271 204.63 52.9425 206.819C55.758 209.007 58.9965 210.606 62.4601 211.519C65.5443 212.318 69.6829 212.028 70.809 209.087C70.9383 208.567 71.1335 208.066 71.3899 207.595C72.4085 206.181 74.6535 206.973 76.2314 207.786C79.8236 209.637 83.7594 210.751 87.8007 211.059C89.4036 211.268 91.0339 211.076 92.5418 210.501C93.8149 209.864 94.9106 208.929 95.7335 207.779C99.5063 202.935 100.589 196.607 101.235 190.534C101.658 186.581 101.952 182.558 101.185 178.655C99.9653 172.391 96.0993 166.537 96.6731 160.187C97.2828 153.4 102.87 147.849 103.724 141.097C104.158 137.562 103.262 133.992 101.206 131.064C100.448 130.16 99.8045 129.167 99.2911 128.109C99.0463 127.573 98.9701 126.978 99.0724 126.399C99.1747 125.82 99.4508 125.285 99.8649 124.863C100.319 124.548 100.823 124.309 101.357 124.156C105.969 122.41 108.429 117.856 108.759 113.197C108.888 111.429 108.759 109.803 109.254 108.078C110.043 105.412 112.431 102.499 112.022 99.657Z" fill="black"/>
<path d="M110.887 99.657C110.629 98.5973 110.095 97.6224 109.338 96.8288C106.096 92.8198 102.574 88.7048 97.7469 86.8028C94.5427 85.6228 91.0396 85.4844 87.7499 86.4081C84.4602 87.3317 81.5567 89.2688 79.4641 91.936C77.7284 94.241 76.6955 96.9843 75.1964 99.4519C72.4278 104.019 68.1458 107.541 63.5411 110.326C60.7653 112.002 57.8389 113.451 55.2209 115.353C45.703 122.261 41.3062 135.031 43.7018 146.464C44.7562 151.469 46.9869 156.405 46.3844 161.488C45.9181 165.434 43.7879 168.969 41.629 172.32C39.47 175.672 37.1676 179.066 36.3069 182.926C35.4462 186.786 36.35 191.361 39.5991 193.701C40.7969 194.564 42.2386 195.116 43.2643 196.148C43.9431 196.951 44.5099 197.841 44.9499 198.792C46.6584 201.899 48.9917 204.63 51.8072 206.819C54.6226 209.007 57.8611 210.606 61.3248 211.519C64.4089 212.318 68.5475 212.028 69.6736 209.087C69.8029 208.567 69.9981 208.066 70.2546 207.595C71.2731 206.181 73.5181 206.973 75.096 207.786C78.6883 209.637 82.624 210.751 86.6653 211.059C88.2682 211.268 89.8985 211.076 91.4064 210.501C92.6795 209.864 93.7753 208.929 94.5982 207.779C98.3709 202.935 99.454 196.607 100.099 190.534C100.523 186.581 100.817 182.558 100.049 178.655C98.83 172.391 94.964 166.537 95.5378 160.187C96.1474 153.4 101.735 147.849 102.588 141.097C103.022 137.562 102.127 133.992 100.071 131.064C99.3122 130.16 98.6691 129.167 98.1557 128.109C97.9109 127.573 97.8347 126.978 97.937 126.399C98.0393 125.82 98.3154 125.285 98.7295 124.863C99.1837 124.548 99.6879 124.309 100.221 124.156C104.833 122.41 107.294 117.856 107.623 113.197C107.753 111.429 107.623 109.803 108.118 108.078C108.907 105.412 111.296 102.499 110.887 99.657Z" fill="#BB7684"/>
<g opacity="0.1">
<path opacity="0.1" d="M68.2219 207.542C67.965 208.016 67.7669 208.518 67.6319 209.038C66.9626 210.797 65.214 211.606 63.2639 211.804C65.9768 212.074 68.8768 211.428 69.7907 209.038C69.9257 208.518 70.1238 208.016 70.3807 207.542C70.5618 207.282 70.8103 207.074 71.1003 206.939C70.0065 206.627 68.884 206.641 68.2219 207.542Z" fill="black"/>
<path opacity="0.1" d="M111.167 99.3116C110.916 98.2462 110.379 97.2667 109.613 96.475C106.361 92.4542 102.827 88.3269 97.9844 86.4193C95.8796 85.6094 93.6174 85.275 91.3641 85.4407C92.894 85.5356 94.3994 85.8657 95.8256 86.4193C100.668 88.3269 104.202 92.4542 107.454 96.475C108.22 97.2667 108.757 98.2462 109.009 99.3116C109.419 102.148 107.03 105.091 106.238 107.715C105.713 109.445 105.864 111.069 105.742 112.849C105.403 117.516 102.942 122.068 98.3082 123.841C97.7729 123.994 97.2672 124.234 96.8115 124.55C96.3957 124.975 96.1192 125.513 96.0178 126.095C95.9164 126.677 95.9949 127.275 96.243 127.812C96.7554 128.874 97.3983 129.87 98.1571 130.777C100.222 133.71 101.123 137.288 100.69 140.832C99.8266 147.619 94.2137 153.179 93.6093 159.979C93.0336 166.362 96.9194 172.219 98.1355 178.495C98.8983 182.41 98.6105 186.445 98.1859 190.409C97.5383 196.501 96.4589 202.855 92.6666 207.705C91.8439 208.859 90.7469 209.796 89.4716 210.435C88.7261 210.757 87.9303 210.952 87.1185 211.01C88.6475 211.189 90.1978 210.992 91.6304 210.435C92.9079 209.813 94.0121 208.893 94.847 207.755C98.6392 202.904 99.7187 196.55 100.366 190.459C100.791 186.495 101.086 182.459 100.316 178.545C99.0998 172.269 95.214 166.39 95.7896 160.029C96.4085 153.214 102.007 147.654 102.87 140.882C103.303 137.338 102.402 133.76 100.337 130.826C99.5787 129.919 98.9358 128.924 98.4234 127.862C98.1753 127.325 98.0968 126.726 98.1982 126.145C98.2995 125.563 98.5761 125.025 98.9919 124.6C99.4475 124.284 99.9533 124.044 100.489 123.891C105.123 122.132 107.584 117.565 107.922 112.899C108.044 111.119 107.922 109.495 108.419 107.765C109.189 105.091 111.578 102.17 111.167 99.3116Z" fill="black"/>
</g>
<mask id="mask0" mask-type="alpha" maskUnits="userSpaceOnUse" x="17" y="21" width="402" height="277">
<path d="M18.4384 157.199C14.6051 173.699 31.6384 215.999 130.438 253.199C142.605 253.199 173.038 258.099 197.438 277.699C227.938 302.199 362.938 300.699 391.938 290.699C415.138 282.699 418.938 198.366 417.938 157.199C408.772 115.533 379.138 30.3995 333.938 23.1995C277.438 14.1995 250.938 34.6995 197.438 50.6995C143.938 66.6995 121.438 30.6995 63.4384 50.6995C17.0384 66.6995 14.1051 128.366 18.4384 157.199Z" fill="#C4C4C4"/>
</mask>
<g mask="url(#mask0)">
<path d="M18.4384 157.199C14.6051 173.699 31.6384 215.999 130.438 253.199C142.605 253.199 173.038 258.099 197.438 277.699C227.938 302.199 362.938 300.699 391.938 290.699C415.138 282.699 418.938 198.366 417.938 157.199C408.772 115.533 379.138 30.3995 333.938 23.1995C277.438 14.1995 250.938 34.6995 197.438 50.6995C143.938 66.6995 121.438 30.6995 63.4384 50.6995C17.0384 66.6995 14.1051 128.366 18.4384 157.199Z" fill="#B7E8F8"/>
<path d="M74.9526 19.413C56.7167 24.9758 22.9455 53.1746 5.67018 132.362C5.22252 134.414 5.10824 136.546 5.35925 138.631C8.28024 162.897 17.0729 211.066 32 232.5C51.5 260.5 143 244.5 192.5 250.5C242 256.5 282 361.5 330.5 340C379 318.5 360.5 262.5 417.5 266C461.419 268.697 459.08 186.575 451.849 140.611C451.32 137.244 449.903 134.104 447.649 131.548C427.408 108.605 380.69 70.4716 330.5 75C266.571 80.768 323.246 50.9556 222.444 5.55244C214.78 2.10024 205.762 4.28439 198.729 8.88886C178.903 21.8697 139.708 34.484 83.0488 19.6022C80.389 18.9036 77.583 18.6106 74.9526 19.413Z" fill="url(#paint1_linear)" stroke="white" stroke-width="5" stroke-linecap="round" stroke-linejoin="round"/>
<path d="M326.058 167H304.486V188H326.058V167Z" fill="#FF7590"/>
<path d="M430.511 246.992C430.511 246.992 428.69 247.994 426.017 249.245C421.891 251.177 415.742 253.721 411.189 254.097C403.689 254.723 401.341 255.433 392.764 249.394C386.181 244.761 375.162 238.303 370.364 235.546L368.276 234.331L368.066 234.21V234.125L372.048 223.368L386.138 216L389.635 218.949L400.047 227.723C400.047 227.723 401.673 230.295 404.296 230.118C406.919 229.94 420.915 231.091 420.915 231.091L423.56 231.517L429.131 232.427L430.511 246.992Z" fill="#8E5362"/>
<path d="M265.884 167.058L249.593 173.892L249.341 174L249.161 173.914L248.148 173.404C243.935 171.308 229.455 164.135 220.346 159.878C209.562 154.852 211.237 149.827 211.237 149.827L209.684 97.1802L206.923 87.7249C206.923 87.7249 204.975 55.676 220.583 47.6422C236.191 39.6084 226.097 94.0643 226.097 94.0643L227.305 105.379C228.085 112.617 229.517 119.771 231.583 126.752C232.258 129.048 232.682 131.409 232.848 133.795C233.33 141.449 236.925 140.939 236.925 140.939C242.603 141.829 248.084 143.689 253.13 146.438C255.004 147.426 256.797 148.559 258.493 149.827L265.884 167.058Z" fill="#8E5362"/>
<path d="M323.956 191.5L310.163 190.072C310.163 190.072 314.228 184.02 316.018 178.131C316.271 177.324 316.474 176.501 316.624 175.669C317.038 173.335 316.931 171.172 315.868 169.609C311.832 163.663 339.881 155.333 339.881 155.333C339.54 158.624 339.438 161.935 339.575 165.24C339.655 167.541 339.893 169.832 340.288 172.1C341.137 176.718 342.827 181.065 346.05 183.292C354.858 189.359 323.956 191.5 323.956 191.5Z" fill="#8E5362"/>
<path opacity="0.1" d="M323.952 191.5L310.163 190.126C310.163 190.126 314.227 184.303 316.017 178.637C317.607 180.814 318.156 180.766 320.387 181.198C320.387 181.198 334.305 183.183 340.294 172.833C341.143 177.277 342.833 181.459 346.055 183.602C354.847 189.44 323.952 191.5 323.952 191.5Z" fill="black"/>
<path opacity="0.1" d="M370.357 235.724C370.341 236.15 370.36 236.577 370.415 237L368.247 234.498L368.066 234.29L372.048 223.435L386.14 216L389.638 218.975C384.63 220.875 370.581 226.905 370.357 235.724Z" fill="black"/>
<path opacity="0.1" d="M265.884 166.969L249.425 173.912H248.989L247.718 174C247.718 174 247.813 173.788 247.965 173.395C249.338 170.047 255.708 153.702 252.955 146C254.848 147.004 256.66 148.155 258.374 149.443L265.884 166.969Z" fill="black"/>
<path opacity="0.1" d="M341.953 307C335.654 306.433 272.634 300.574 266.756 291.248C265.827 289.729 264.776 288.288 263.613 286.941C264.327 283.502 264.727 281.333 264.727 281.333C264.727 281.333 335.675 296.166 340.318 301.551C341.11 302.455 341.632 304.401 341.953 307Z" fill="black"/>
<path d="M320.863 182.391C320.863 182.391 335.034 184.474 341.025 173.536C341.025 173.536 351.031 181.698 357.014 182.398C362.997 183.097 390.774 217.832 390.774 217.832C390.774 217.832 368.507 224.968 369.943 236.384L359.406 224.254C359.406 224.254 354.141 224.011 349.594 238.525C349.594 238.525 344.085 246.845 344.803 273.246C345.521 299.647 343.13 305.833 343.13 305.833C343.13 305.833 273.211 299.89 266.991 290.135C260.771 280.381 259.808 285.141 259.808 285.141C259.808 285.141 258.846 266.589 265.31 251.604C271.775 236.62 270.338 193.572 270.338 193.572C270.338 193.572 271.056 172.401 249.989 174.306C249.989 174.306 258.846 153.849 254.78 146C254.78 146 266.898 149.268 275.531 149.368C280.831 149.409 286.053 150.628 290.817 152.936C293.41 154.199 295.801 155.79 297.159 157.688C301.225 163.396 307.933 160.785 307.933 160.785C309.624 166.008 311.713 171.096 314.182 176.004C314.463 176.525 314.743 177.039 315.03 177.531C315.447 178.245 315.878 178.958 316.309 179.544C318.032 181.991 318.521 181.927 320.863 182.391Z" fill="#FF7590"/>
<path opacity="0.1" d="M340.482 165.5C339.706 166.606 338.842 167.647 337.899 168.613C335.525 171.058 332.688 173 329.555 174.326C326.421 175.652 323.055 176.335 319.654 176.333C318.775 176.334 317.895 176.29 317.02 176.201C317.443 173.806 317.334 171.587 316.246 169.983C312.116 163.881 340.818 155.333 340.818 155.333C340.462 158.71 340.349 162.107 340.482 165.5Z" fill="black"/>
<path d="M344.224 150.083C344.224 155.044 342.759 159.894 340.014 164.019C337.269 168.144 333.368 171.359 328.804 173.257C324.24 175.156 319.218 175.653 314.373 174.685C309.528 173.717 305.077 171.328 301.584 167.82C298.091 164.312 295.712 159.843 294.748 154.977C293.784 150.111 294.279 145.068 296.169 140.484C298.06 135.901 301.261 131.984 305.369 129.227C309.476 126.471 314.306 125 319.246 125C322.529 124.988 325.783 125.628 328.819 126.884C331.855 128.141 334.613 129.988 336.935 132.319C339.257 134.651 341.096 137.421 342.347 140.47C343.598 143.519 344.236 146.786 344.224 150.083Z" fill="#8E5362"/>
<path opacity="0.1" d="M356.713 207.861L357.281 224.167C357.281 224.167 365.53 218.304 365.79 212.735C366.051 207.165 356.713 207.861 356.713 207.861Z" fill="black"/>
<path opacity="0.1" d="M296.539 224.167C296.539 224.167 316.022 251.505 327.357 254.278C338.693 257.052 300.79 233.031 296.539 224.167Z" fill="black"/>
<path opacity="0.1" d="M316.975 227.667C316.975 227.667 328.213 240.114 336.276 241.667L316.975 227.667Z" fill="black"/>
<path opacity="0.1" d="M278.373 258C278.373 258 298.603 277.798 310.163 279L278.373 258Z" fill="black"/>
<path opacity="0.1" d="M344.224 150.411C344.227 157.052 341.696 163.43 337.175 168.167L334.469 166.432C333.422 165.87 332.519 165.062 331.833 164.072C330.938 162.533 331.198 160.603 331.269 158.809C331.417 155.013 330.402 150.904 327.519 148.53C322.846 144.676 315.354 146.81 310.603 143.028C309.459 142.027 308.451 140.872 307.607 139.594L303.153 133.446C302.885 133.083 302.561 132.72 302.215 132.291C305.684 128.779 310.083 126.401 314.86 125.456C319.636 124.511 324.578 125.042 329.063 126.981C333.548 128.921 337.376 132.182 340.066 136.356C342.756 140.53 344.188 145.43 344.181 150.44L344.224 150.411Z" fill="black"/>
<path d="M303.856 118.891C306.121 117.178 308.884 116.274 311.43 115.013C313.977 113.751 316.226 112.146 318.773 111.07C321.319 109.995 324.263 109.365 326.904 110.26C332.568 112.189 334.709 120.03 340.533 121.407C341.516 121.636 342.529 121.658 343.52 121.808C345.412 122.163 347.206 122.913 348.783 124.006C350.361 125.1 351.686 126.513 352.671 128.152C354.615 131.459 355.615 135.227 355.565 139.054C355.645 141.178 355.334 143.299 354.646 145.312C352.924 149.992 348.606 153.197 345.69 157.246C342.931 161.122 341.466 165.757 341.502 170.5L334.442 166.149C333.365 165.597 332.438 164.798 331.736 163.819C330.817 162.3 331.085 160.393 331.157 158.623C331.309 154.874 330.268 150.817 327.316 148.473C322.513 144.667 314.823 146.774 309.955 143.04C308.78 142.052 307.746 140.911 306.88 139.649L302.308 133.578C301.317 132.259 299.415 130.617 298.981 129.012C298.018 125.557 301.31 120.833 303.856 118.891Z" fill="#362133"/>
<path opacity="0.1" d="M335.586 165.329C334.499 164.773 333.563 163.968 332.855 162.982C331.927 161.451 332.198 159.53 332.271 157.746C332.424 153.969 331.372 149.881 328.386 147.52C323.545 143.685 315.783 145.808 310.861 142.046C309.676 141.05 308.632 139.901 307.758 138.63L303.143 132.513C302.136 131.184 300.222 129.53 299.784 127.912C298.988 125.125 301.004 121.492 303.158 119.167C300.741 121.377 298.09 125.572 298.988 128.7C299.456 130.317 301.347 131.971 302.347 133.3L306.962 139.417C307.836 140.688 308.88 141.838 310.065 142.833C314.965 146.595 322.727 144.472 327.59 148.307C330.569 150.669 331.621 154.756 331.467 158.533C331.394 160.317 331.124 162.238 332.052 163.769C332.76 164.755 333.696 165.56 334.783 166.116L341.909 170.5C341.909 170.081 341.909 169.662 341.953 169.251L335.586 165.329Z" fill="black"/>
<path d="M170.872 176.051C170.872 176.051 167.764 145.506 179.851 153.024C191.938 160.542 183.616 173.903 183.616 173.903L180.777 183.333L170.872 176.051Z" fill="#FFC1C7"/>
<path d="M190.95 78.775L198.232 71.7953C198.232 71.7953 212.192 32.5826 226.029 42.6541C239.865 52.7256 208.493 78.1922 208.493 78.1922L200.177 87.6667L190.95 78.775Z" fill="#FFC1C7"/>
<path d="M85.7057 235.03L85.3618 243.225C85.3618 243.225 91.6689 254.8 94.3032 255.646C96.9375 256.492 96.7105 231.167 96.7105 231.167L85.7057 235.03Z" fill="#FF5374"/>
<path opacity="0.1" d="M85.7058 235.03L85.5 242.5C85.5 242.5 91.669 254.8 94.3033 255.646C96.9375 256.492 96.7106 231.167 96.7106 231.167L85.7058 235.03Z" fill="black"/>
<path d="M97 226L99 249.5L115.5 257L129.5 262.5H133.5L131.255 239.774L97 226Z" fill="#FFC1C7"/>
<path d="M134.72 187.628L144.995 199.395C144.995 199.395 149.472 204.977 154.79 196.484C160.109 187.992 170.028 172.833 170.028 172.833C170.028 172.833 181.036 182.534 183.938 180.598C186.84 178.662 157.214 220.994 157.214 220.994C157.214 220.994 147.781 234.937 133.748 218.447L129.641 216.504L134.72 187.628Z" fill="#FF5374"/>
<path opacity="0.1" d="M134.72 187.628L144.995 199.395C144.995 199.395 149.472 204.977 154.79 196.484C160.109 187.992 170.028 172.833 170.028 172.833C170.028 172.833 181.036 182.534 183.938 180.598C186.84 178.662 157.214 220.994 157.214 220.994C157.214 220.994 147.781 234.937 133.748 218.447L129.641 216.504L134.72 187.628Z" fill="black"/>
<path d="M104.095 141.333C115.696 141.333 125.099 131.931 125.099 120.333C125.099 108.735 115.696 99.3333 104.095 99.3333C92.4951 99.3333 83.0912 108.735 83.0912 120.333C83.0912 131.931 92.4951 141.333 104.095 141.333Z" fill="#FFC1C7"/>
<path opacity="0.1" d="M103.464 131.515C103.464 131.515 85.0747 140.077 87.2509 155.061C89.4272 170.045 89.7899 188.953 89.7899 188.953C89.7899 188.953 98.1393 201.083 87.0696 224.272C87.0696 224.272 79.9969 236.045 84.712 244.607C84.712 244.607 89.9422 231.05 103.464 241.04C116.985 251.029 138.755 255.667 138.755 255.667C138.755 255.667 127.511 207.148 134.402 200.369C134.402 200.369 146.372 182.888 135.49 171.829C124.609 160.769 130.05 150.423 130.05 150.423L164.993 131.993C164.993 131.993 172.363 132.107 182.279 116.888C188.699 107.162 195.768 97.866 203.439 89.061C203.439 89.061 195.939 78.0015 188.931 77.1667C188.931 77.1667 186.146 80.0207 184.216 87.7552C183.186 91.8579 176.186 98.7148 169.853 104.245C165.355 108.169 161.017 112.243 156.687 116.374C153.481 119.407 146.343 123.745 130.775 126.199C105.154 130.216 103.464 131.515 103.464 131.515Z" fill="black"/>
<path d="M103.464 129.537C103.464 129.537 85.0747 138.155 87.2509 153.237C89.4272 168.319 89.7899 187.35 89.7899 187.35C89.7899 187.35 98.1393 199.559 87.0696 222.9C87.0696 222.9 79.9969 234.75 84.712 243.368C84.712 243.368 89.9422 229.723 103.464 239.777C116.985 249.832 138.755 254.5 138.755 254.5C138.755 254.5 127.511 205.664 134.402 198.841C134.402 198.841 146.372 181.246 135.49 170.114C124.609 158.982 130.05 148.569 130.05 148.569L164.993 130.018C164.993 130.018 172.363 130.133 182.279 114.814C188.699 105.025 195.768 95.668 203.439 86.8054C203.439 86.8054 195.939 75.6736 188.931 74.8333C188.931 74.8333 186.146 77.706 184.216 85.4911C183.186 89.6206 176.186 96.5223 169.853 102.088C165.355 106.038 161.017 110.139 156.687 114.297C153.481 117.349 146.343 121.716 130.775 124.187C105.154 128.23 103.464 129.537 103.464 129.537Z" fill="#FF5374"/>
<path opacity="0.1" d="M119.423 219.5C119.423 219.5 133.816 240.397 134.182 244C134.19 244 131.993 221.539 119.423 219.5Z" fill="black"/>
<path opacity="0.1" d="M101.257 149.5C101.257 149.5 111.009 161.247 125.099 151.401C121.205 152.724 117.082 153.239 112.982 152.912C108.883 152.585 104.893 151.424 101.257 149.5Z" fill="black"/>
<path opacity="0.1" d="M108.022 98.1371C107.765 97.0685 107.231 96.0854 106.473 95.285C103.231 91.242 99.7094 87.0921 94.8823 85.1741C91.6781 83.984 88.1749 83.8445 84.8853 84.7759C81.5956 85.7074 78.6921 87.6609 76.5995 90.3507C74.8637 92.6752 73.8309 95.4418 72.3318 97.9303C69.5632 102.537 65.2812 106.088 60.6764 108.897C57.9007 110.587 54.9743 112.049 52.3563 113.967C42.8383 120.933 38.4416 133.811 40.8372 145.34C41.8916 150.389 44.1222 155.366 43.5197 160.492C43.0535 164.471 40.9233 168.036 38.7643 171.416C36.6054 174.796 34.303 178.219 33.4423 182.112C32.5816 186.005 33.4853 190.618 36.7345 192.979C37.9323 193.848 39.374 194.405 40.3997 195.446C41.0784 196.256 41.6453 197.153 42.0852 198.112C43.7938 201.246 46.1271 204 48.9425 206.207C51.758 208.414 54.9965 210.027 58.4601 210.947C61.5443 211.753 65.6829 211.461 66.809 208.494C66.9383 207.971 67.1335 207.465 67.3899 206.99C68.4085 205.564 70.6535 206.362 72.2314 207.182C75.8236 209.049 79.7594 210.172 83.8007 210.484C85.4036 210.694 87.0339 210.5 88.5418 209.92C89.8149 209.278 90.9106 208.335 91.7335 207.175C95.5063 202.291 96.5893 195.909 97.2349 189.784C97.6581 185.798 97.9521 181.741 97.1847 177.805C95.9653 171.488 92.0993 165.584 92.6731 159.18C93.2828 152.335 98.8702 146.738 99.7237 139.928C100.158 136.363 99.2619 132.763 97.2062 129.81C96.4476 128.898 95.8045 127.897 95.2911 126.83C95.0463 126.29 94.9701 125.689 95.0724 125.106C95.1747 124.522 95.4508 123.983 95.8649 123.557C96.3191 123.239 96.8233 122.998 97.3568 122.844C101.969 121.083 104.429 116.491 104.759 111.792C104.888 110.009 104.759 108.369 105.254 106.629C106.043 103.941 108.431 101.004 108.022 98.1371Z" fill="black"/>
<path d="M106.887 98.1371C106.629 97.0685 106.095 96.0854 105.338 95.285C102.096 91.242 98.574 87.0921 93.7469 85.1741C90.5427 83.984 87.0396 83.8445 83.7499 84.7759C80.4602 85.7074 77.5567 87.6609 75.4641 90.3507C73.7284 92.6752 72.6955 95.4418 71.1964 97.9303C68.4278 102.537 64.1458 106.088 59.5411 108.897C56.7653 110.587 53.8389 112.049 51.2209 113.967C41.703 120.933 37.3062 133.811 39.7018 145.34C40.7562 150.389 42.9869 155.366 42.3844 160.492C41.9181 164.471 39.7879 168.036 37.629 171.416C35.47 174.796 33.1676 178.219 32.3069 182.112C31.4462 186.005 32.35 190.618 35.5991 192.979C36.7969 193.848 38.2386 194.405 39.2643 195.446C39.9431 196.256 40.5099 197.153 40.9499 198.112C42.6584 201.246 44.9917 204 47.8072 206.207C50.6226 208.414 53.8611 210.027 57.3248 210.947C60.4089 211.753 64.5475 211.461 65.6736 208.494C65.8029 207.971 65.9981 207.465 66.2546 206.99C67.2731 205.564 69.5181 206.362 71.096 207.182C74.6883 209.049 78.624 210.172 82.6653 210.484C84.2682 210.694 85.8985 210.5 87.4064 209.92C88.6795 209.278 89.7753 208.335 90.5982 207.175C94.3709 202.291 95.454 195.909 96.0995 189.784C96.5227 185.798 96.8167 181.741 96.0493 177.805C94.83 171.488 90.964 165.584 91.5378 159.18C92.1474 152.335 97.7348 146.738 98.5884 139.928C99.0222 136.363 98.1265 132.763 96.0708 129.81C95.3122 128.898 94.6691 127.897 94.1557 126.83C93.9109 126.29 93.8347 125.689 93.937 125.106C94.0393 124.522 94.3154 123.983 94.7295 123.557C95.1837 123.239 95.6879 122.998 96.2214 122.844C100.833 121.083 103.294 116.491 103.623 111.792C103.753 110.009 103.623 108.369 104.118 106.629C104.907 103.941 107.296 101.004 106.887 98.1371Z" fill="#BB7684"/>
<g opacity="0.1">
<path opacity="0.1" d="M64.2221 206.937C63.9651 207.414 63.767 207.921 63.632 208.446C62.9628 210.219 61.2141 211.034 59.264 211.235C61.9769 211.506 64.8769 210.856 65.7908 208.446C65.9258 207.921 66.1239 207.414 66.3808 206.937C66.562 206.674 66.8104 206.464 67.1004 206.329C66.0067 206.014 64.8841 206.028 64.2221 206.937Z" fill="black"/>
<path opacity="0.1" d="M107.168 97.7888C106.916 96.7144 106.379 95.7266 105.613 94.9282C102.361 90.8732 98.8274 86.711 93.9845 84.7872C91.8798 83.9705 89.6175 83.6333 87.3643 83.8003C88.8941 83.896 90.3995 84.229 91.8257 84.7872C96.6686 86.711 100.202 90.8732 103.454 94.9282C104.22 95.7266 104.757 96.7144 105.009 97.7888C105.419 100.649 103.03 103.617 102.238 106.263C101.713 108.008 101.864 109.646 101.742 111.441C101.404 116.147 98.9426 120.738 94.3084 122.526C93.7731 122.681 93.2673 122.922 92.8116 123.241C92.3958 123.67 92.1193 124.213 92.0179 124.799C91.9165 125.386 91.995 125.989 92.2431 126.531C92.7556 127.602 93.3984 128.606 94.1572 129.52C96.2217 132.479 97.123 136.087 96.6902 139.661C95.8267 146.506 90.2139 152.112 89.6094 158.971C89.0337 165.407 92.9195 171.314 94.1357 177.644C94.8984 181.591 94.6106 185.661 94.186 189.658C93.5384 195.801 92.459 202.209 88.6667 207.101C87.844 208.264 86.747 209.21 85.4717 209.854C84.7262 210.179 83.9305 210.375 83.1187 210.434C84.6477 210.615 86.198 210.416 87.6305 209.854C88.9081 209.227 90.0122 208.299 90.8471 207.151C94.6394 202.259 95.7188 195.852 96.3664 189.708C96.791 185.711 97.086 181.641 96.316 177.694C95.0999 171.364 91.2141 165.436 91.7898 159.021C92.4086 152.148 98.0071 146.541 98.8706 139.711C99.3033 136.137 98.4021 132.529 96.3376 129.571C95.5788 128.656 94.9359 127.652 94.4235 126.581C94.1754 126.039 94.0969 125.436 94.1983 124.849C94.2997 124.263 94.5762 123.72 94.992 123.291C95.4476 122.972 95.9534 122.731 96.4887 122.576C101.123 120.803 103.584 116.197 103.922 111.491C104.044 109.696 103.922 108.059 104.419 106.314C105.189 103.617 107.578 100.671 107.168 97.7888Z" fill="black"/>
</g>
<path d="M326.058 167H304.486V188H326.058V167Z" fill="#FF7590"/>
<path d="M430.511 246.992C430.511 246.992 428.69 247.994 426.017 249.245C421.891 251.177 415.742 253.721 411.189 254.097C403.689 254.723 401.341 255.433 392.764 249.394C386.181 244.761 375.162 238.303 370.364 235.546L368.276 234.331L368.066 234.21V234.125L372.048 223.368L386.138 216L389.635 218.949L400.047 227.723C400.047 227.723 401.673 230.295 404.296 230.118C406.919 229.94 420.915 231.091 420.915 231.091L423.56 231.517L429.131 232.427L430.511 246.992Z" fill="#8E5362"/>
<path d="M265.884 167.058L249.593 173.892L249.341 174L249.161 173.914L248.148 173.404C243.935 171.308 229.455 164.135 220.346 159.878C209.562 154.852 211.237 149.827 211.237 149.827L209.684 97.1802L206.923 87.7249C206.923 87.7249 204.975 55.676 220.583 47.6422C236.191 39.6084 226.097 94.0643 226.097 94.0643L227.305 105.379C228.085 112.617 229.517 119.771 231.583 126.752C232.258 129.048 232.682 131.409 232.848 133.795C233.33 141.449 236.925 140.939 236.925 140.939C242.603 141.829 248.084 143.689 253.13 146.438C255.004 147.426 256.797 148.559 258.493 149.827L265.884 167.058Z" fill="#8E5362"/>
<path d="M323.956 191.5L310.163 190.072C310.163 190.072 314.228 184.02 316.018 178.131C316.271 177.324 316.474 176.501 316.624 175.669C317.038 173.335 316.931 171.172 315.868 169.609C311.832 163.663 339.881 155.333 339.881 155.333C339.54 158.624 339.438 161.935 339.575 165.24C339.655 167.541 339.893 169.832 340.288 172.1C341.137 176.718 342.827 181.065 346.05 183.292C354.858 189.359 323.956 191.5 323.956 191.5Z" fill="#8E5362"/>
<path opacity="0.1" d="M323.952 191.5L310.163 190.126C310.163 190.126 314.227 184.303 316.017 178.637C317.607 180.814 318.156 180.766 320.387 181.198C320.387 181.198 334.305 183.183 340.294 172.833C341.143 177.277 342.833 181.459 346.055 183.602C354.847 189.44 323.952 191.5 323.952 191.5Z" fill="black"/>
<path opacity="0.1" d="M370.357 235.724C370.341 236.15 370.36 236.577 370.415 237L368.247 234.498L368.066 234.29L372.048 223.435L386.14 216L389.638 218.975C384.63 220.875 370.581 226.905 370.357 235.724Z" fill="black"/>
<path opacity="0.1" d="M265.884 166.969L249.425 173.912H248.989L247.718 174C247.718 174 247.813 173.788 247.965 173.395C249.338 170.047 255.708 153.702 252.955 146C254.848 147.004 256.66 148.155 258.374 149.443L265.884 166.969Z" fill="black"/>
<path opacity="0.1" d="M340.482 165.5C339.706 166.606 338.842 167.647 337.899 168.613C335.525 171.058 332.688 173 329.555 174.326C326.421 175.652 323.055 176.335 319.654 176.333C318.775 176.334 317.895 176.29 317.02 176.201C317.443 173.806 317.334 171.587 316.246 169.983C312.116 163.881 340.818 155.333 340.818 155.333C340.462 158.71 340.349 162.107 340.482 165.5Z" fill="black"/>
<path d="M344.224 150.083C344.224 155.044 342.759 159.894 340.014 164.019C337.269 168.144 333.368 171.359 328.804 173.257C324.24 175.156 319.218 175.653 314.373 174.685C309.528 173.717 305.077 171.328 301.584 167.82C298.091 164.312 295.712 159.843 294.748 154.977C293.784 150.111 294.279 145.068 296.169 140.484C298.06 135.901 301.261 131.984 305.369 129.227C309.476 126.471 314.306 125 319.246 125C322.529 124.988 325.783 125.628 328.819 126.884C331.855 128.141 334.613 129.988 336.935 132.319C339.257 134.651 341.096 137.421 342.347 140.47C343.598 143.519 344.236 146.786 344.224 150.083Z" fill="#8E5362"/>
<path opacity="0.1" d="M356.713 207.861L357.281 224.167C357.281 224.167 365.53 218.304 365.79 212.735C366.051 207.165 356.713 207.861 356.713 207.861Z" fill="black"/>
<path opacity="0.1" d="M296.539 224.167C296.539 224.167 316.022 251.505 327.357 254.278C338.693 257.052 300.79 233.031 296.539 224.167Z" fill="black"/>
<path opacity="0.1" d="M316.975 227.667C316.975 227.667 328.213 240.114 336.276 241.667L316.975 227.667Z" fill="black"/>
<path opacity="0.1" d="M278.373 258C278.373 258 298.603 277.798 310.163 279L278.373 258Z" fill="black"/>
<path opacity="0.1" d="M344.224 150.411C344.227 157.052 341.696 163.43 337.175 168.167L334.469 166.432C333.422 165.87 332.519 165.062 331.833 164.072C330.938 162.533 331.198 160.603 331.269 158.809C331.417 155.013 330.402 150.904 327.519 148.53C322.846 144.676 315.354 146.81 310.603 143.028C309.459 142.027 308.451 140.872 307.607 139.594L303.153 133.446C302.885 133.083 302.561 132.72 302.215 132.291C305.684 128.779 310.083 126.401 314.86 125.456C319.636 124.511 324.578 125.042 329.063 126.981C333.548 128.921 337.376 132.182 340.066 136.356C342.756 140.53 344.188 145.43 344.181 150.44L344.224 150.411Z" fill="black"/>
<path d="M303.856 118.891C306.121 117.178 308.884 116.274 311.43 115.013C313.977 113.751 316.226 112.146 318.773 111.07C321.319 109.995 324.263 109.365 326.904 110.26C332.568 112.189 334.709 120.03 340.533 121.407C341.516 121.636 342.529 121.658 343.52 121.808C345.412 122.163 347.206 122.913 348.783 124.006C350.361 125.1 351.686 126.513 352.671 128.152C354.615 131.459 355.615 135.227 355.565 139.054C355.645 141.178 355.334 143.299 354.646 145.312C352.924 149.992 348.606 153.197 345.69 157.246C342.931 161.122 341.466 165.757 341.502 170.5L334.442 166.149C333.365 165.597 332.438 164.798 331.736 163.819C330.817 162.3 331.085 160.393 331.157 158.623C331.309 154.874 330.268 150.817 327.316 148.473C322.513 144.667 314.823 146.774 309.955 143.04C308.78 142.052 307.746 140.911 306.88 139.649L302.308 133.578C301.317 132.259 299.415 130.617 298.981 129.012C298.018 125.557 301.31 120.833 303.856 118.891Z" fill="#362133"/>
<path opacity="0.1" d="M335.586 165.329C334.499 164.773 333.563 163.968 332.855 162.982C331.927 161.451 332.198 159.53 332.271 157.746C332.424 153.969 331.372 149.881 328.386 147.52C323.545 143.685 315.783 145.808 310.861 142.046C309.676 141.05 308.632 139.901 307.758 138.63L303.143 132.513C302.136 131.184 300.222 129.53 299.784 127.912C298.988 125.125 301.004 121.492 303.158 119.167C300.741 121.377 298.09 125.572 298.988 128.7C299.456 130.317 301.347 131.971 302.347 133.3L306.962 139.417C307.836 140.688 308.88 141.838 310.065 142.833C314.965 146.595 322.727 144.472 327.59 148.307C330.569 150.669 331.621 154.756 331.467 158.533C331.394 160.317 331.124 162.238 332.052 163.769C332.76 164.755 333.696 165.56 334.783 166.116L341.909 170.5C341.909 170.081 341.909 169.662 341.953 169.251L335.586 165.329Z" fill="black"/>
<path d="M170.872 176.051C170.872 176.051 167.764 145.506 179.851 153.024C191.938 160.542 183.616 173.903 183.616 173.903L180.777 183.333L170.872 176.051Z" fill="#FFC1C7"/>
<path d="M190.95 78.775L198.232 71.7953C198.232 71.7953 212.192 32.5826 226.029 42.6541C239.865 52.7256 208.493 78.1922 208.493 78.1922L200.177 87.6667L190.95 78.775Z" fill="#FFC1C7"/>
<path d="M134.72 187.628L144.995 199.395C144.995 199.395 149.472 204.977 154.79 196.484C160.109 187.992 170.028 172.833 170.028 172.833C170.028 172.833 181.036 182.534 183.938 180.598C186.84 178.662 157.214 220.994 157.214 220.994C157.214 220.994 147.781 234.937 133.748 218.447L129.641 216.504L134.72 187.628Z" fill="#FF5374"/>
<path opacity="0.1" d="M134.72 187.628L144.995 199.395C144.995 199.395 149.472 204.977 154.79 196.484C160.109 187.992 170.028 172.833 170.028 172.833C170.028 172.833 181.036 182.534 183.938 180.598C186.84 178.662 157.214 220.994 157.214 220.994C157.214 220.994 147.781 234.937 133.748 218.447L129.641 216.504L134.72 187.628Z" fill="black"/>
<path d="M104.095 141.333C115.696 141.333 125.099 131.931 125.099 120.333C125.099 108.735 115.696 99.3333 104.095 99.3333C92.4951 99.3333 83.0912 108.735 83.0912 120.333C83.0912 131.931 92.4951 141.333 104.095 141.333Z" fill="#FFC1C7"/>
<path opacity="0.1" d="M119.423 219.5C119.423 219.5 133.816 240.397 134.182 244C134.19 244 131.993 221.539 119.423 219.5Z" fill="black"/>
<path opacity="0.1" d="M101.257 149.5C101.257 149.5 111.009 161.247 125.099 151.401C121.205 152.724 117.082 153.239 112.982 152.912C108.883 152.585 104.893 151.424 101.257 149.5Z" fill="black"/>
<path opacity="0.1" d="M108.022 98.1371C107.765 97.0685 107.231 96.0854 106.473 95.285C103.231 91.242 99.7094 87.0921 94.8823 85.1741C91.6781 83.984 88.1749 83.8445 84.8853 84.7759C81.5956 85.7074 78.6921 87.6609 76.5995 90.3507C74.8637 92.6752 73.8309 95.4418 72.3318 97.9303C69.5632 102.537 65.2812 106.088 60.6764 108.897C57.9007 110.587 54.9743 112.049 52.3563 113.967C42.8383 120.933 38.4416 133.811 40.8372 145.34C41.8916 150.389 44.1222 155.366 43.5197 160.492C43.0535 164.471 40.9233 168.036 38.7643 171.416C36.6054 174.796 34.303 178.219 33.4423 182.112C32.5816 186.005 33.4853 190.618 36.7345 192.979C37.9323 193.848 39.374 194.405 40.3997 195.446C41.0784 196.256 41.6453 197.153 42.0852 198.112C43.7938 201.246 46.1271 204 48.9425 206.207C51.758 208.414 54.9965 210.027 58.4601 210.947C61.5443 211.753 65.6829 211.461 66.809 208.494C66.9383 207.971 67.1335 207.465 67.3899 206.99C68.4085 205.564 70.6535 206.362 72.2314 207.182C75.8236 209.049 79.7594 210.172 83.8007 210.484C85.4036 210.694 87.0339 210.5 88.5418 209.92C89.8149 209.278 90.9106 208.335 91.7335 207.175C95.5063 202.291 96.5893 195.909 97.2349 189.784C97.6581 185.798 97.9521 181.741 97.1847 177.805C95.9653 171.488 92.0993 165.584 92.6731 159.18C93.2828 152.335 98.8702 146.738 99.7237 139.928C100.158 136.363 99.2619 132.763 97.2062 129.81C96.4476 128.898 95.8045 127.897 95.2911 126.83C95.0463 126.29 94.9701 125.689 95.0724 125.106C95.1747 124.522 95.4508 123.983 95.8649 123.557C96.3191 123.239 96.8233 122.998 97.3568 122.844C101.969 121.083 104.429 116.491 104.759 111.792C104.888 110.009 104.759 108.369 105.254 106.629C106.043 103.941 108.431 101.004 108.022 98.1371Z" fill="black"/>
<path d="M106.887 98.1371C106.629 97.0685 106.095 96.0854 105.338 95.285C102.096 91.242 98.574 87.0921 93.7469 85.1741C90.5427 83.984 87.0396 83.8445 83.7499 84.7759C80.4602 85.7074 77.5567 87.6609 75.4641 90.3507C73.7284 92.6752 72.6955 95.4418 71.1964 97.9303C68.4278 102.537 64.1458 106.088 59.5411 108.897C56.7653 110.587 53.8389 112.049 51.2209 113.967C41.703 120.933 37.3062 133.811 39.7018 145.34C40.7562 150.389 42.9869 155.366 42.3844 160.492C41.9181 164.471 39.7879 168.036 37.629 171.416C35.47 174.796 33.1676 178.219 32.3069 182.112C31.4462 186.005 32.35 190.618 35.5991 192.979C36.7969 193.848 38.2386 194.405 39.2643 195.446C39.9431 196.256 40.5099 197.153 40.9499 198.112C42.6584 201.246 44.9917 204 47.8072 206.207C50.6226 208.414 53.8611 210.027 57.3248 210.947C60.4089 211.753 64.5475 211.461 65.6736 208.494C65.8029 207.971 65.9981 207.465 66.2546 206.99C67.2731 205.564 69.5181 206.362 71.096 207.182C74.6883 209.049 78.624 210.172 82.6653 210.484C84.2682 210.694 85.8985 210.5 87.4064 209.92C88.6795 209.278 89.7753 208.335 90.5982 207.175C94.3709 202.291 95.454 195.909 96.0995 189.784C96.5227 185.798 96.8167 181.741 96.0493 177.805C94.83 171.488 90.964 165.584 91.5378 159.18C92.1474 152.335 97.7348 146.738 98.5884 139.928C99.0222 136.363 98.1265 132.763 96.0708 129.81C95.3122 128.898 94.6691 127.897 94.1557 126.83C93.9109 126.29 93.8347 125.689 93.937 125.106C94.0393 124.522 94.3154 123.983 94.7295 123.557C95.1837 123.239 95.6879 122.998 96.2214 122.844C100.833 121.083 103.294 116.491 103.623 111.792C103.753 110.009 103.623 108.369 104.118 106.629C104.907 103.941 107.296 101.004 106.887 98.1371Z" fill="#BB7684"/>
<g opacity="0.1">
<path opacity="0.1" d="M64.2221 206.937C63.9651 207.414 63.767 207.921 63.632 208.446C62.9628 210.219 61.2141 211.034 59.264 211.235C61.9769 211.506 64.8769 210.856 65.7908 208.446C65.9258 207.921 66.1239 207.414 66.3808 206.937C66.562 206.674 66.8104 206.464 67.1004 206.329C66.0067 206.014 64.8841 206.028 64.2221 206.937Z" fill="black"/>
<path opacity="0.1" d="M107.168 97.7888C106.916 96.7144 106.379 95.7266 105.613 94.9282C102.361 90.8732 98.8274 86.711 93.9845 84.7872C91.8798 83.9705 89.6175 83.6333 87.3643 83.8003C88.8941 83.896 90.3995 84.229 91.8257 84.7872C96.6686 86.711 100.202 90.8732 103.454 94.9282C104.22 95.7266 104.757 96.7144 105.009 97.7888C105.419 100.649 103.03 103.617 102.238 106.263C101.713 108.008 101.864 109.646 101.742 111.441C101.404 116.147 98.9426 120.738 94.3084 122.526C93.7731 122.681 93.2673 122.922 92.8116 123.241C92.3958 123.67 92.1193 124.213 92.0179 124.799C91.9165 125.386 91.995 125.989 92.2431 126.531C92.7556 127.602 93.3984 128.606 94.1572 129.52C96.2217 132.479 97.123 136.087 96.6902 139.661C95.8267 146.506 90.2139 152.112 89.6094 158.971C89.0337 165.407 92.9195 171.314 94.1357 177.644C94.8984 181.591 94.6106 185.661 94.186 189.658C93.5384 195.801 92.459 202.209 88.6667 207.101C87.844 208.264 86.747 209.21 85.4717 209.854C84.7262 210.179 83.9305 210.375 83.1187 210.434C84.6477 210.615 86.198 210.416 87.6305 209.854C88.9081 209.227 90.0122 208.299 90.8471 207.151C94.6394 202.259 95.7188 195.852 96.3664 189.708C96.791 185.711 97.086 181.641 96.316 177.694C95.0999 171.364 91.2141 165.436 91.7898 159.021C92.4086 152.148 98.0071 146.541 98.8706 139.711C99.3033 136.137 98.4021 132.529 96.3376 129.571C95.5788 128.656 94.9359 127.652 94.4235 126.581C94.1754 126.039 94.0969 125.436 94.1983 124.849C94.2997 124.263 94.5762 123.72 94.992 123.291C95.4476 122.972 95.9534 122.731 96.4887 122.576C101.123 120.803 103.584 116.197 103.922 111.491C104.044 109.696 103.922 108.059 104.419 106.314C105.189 103.617 107.578 100.671 107.168 97.7888Z" fill="black"/>
</g>
<path d="M67.1497 21.7391C48.6435 30.8157 20.5042 59.6701 4.70715 127.754C3.5204 132.869 3.26116 138.15 3.96291 143.353C7.38167 168.704 15.9882 212.381 30 232.5C49.5 260.5 141 244.5 190.5 250.5C240 256.5 280 361.5 328.5 340C377 318.5 358.5 262.5 415.5 266C457.056 268.552 457.198 195.17 450.968 148.328C449.845 139.883 446.285 131.941 440.346 125.833C417.978 102.826 374.71 70.8307 328.5 75C269.023 80.3664 313.938 54.9351 239.306 14.804C220.797 4.85138 197.666 10.859 177.987 18.2336C157.013 26.0939 126.496 30.3 87.119 21.1082C80.4239 19.5454 73.3223 18.7117 67.1497 21.7391Z" stroke="white" stroke-width="5" stroke-linecap="round" stroke-linejoin="round"/>
</g>
<defs>
<linearGradient id="paint0_linear" x1="237" y1="-88.5" x2="233.467" y2="342.898" gradientUnits="userSpaceOnUse">
<stop stop-color="white"/>
<stop offset="1" stop-color="#C4C4C4" stop-opacity="0"/>
</linearGradient>
<linearGradient id="paint1_linear" x1="230" y1="-128" x2="230.467" y2="342.898" gradientUnits="userSpaceOnUse">
<stop stop-color="white"/>
<stop offset="1" stop-color="#C4C4C4" stop-opacity="0"/>
</linearGradient>
</defs>
</svg>
