<svg width="533" height="339" viewBox="0 0 533 339" fill="none" xmlns="http://www.w3.org/2000/svg">
<path d="M18.5 177.201C15.1667 191.868 22.9 235.601 80.5 293.201C80.5 310.201 98.6 336.501 171 305.701C261.5 267.201 295 305.701 327.5 305.701C360 305.701 368.5 253.701 418 229.701C467.5 205.701 505.5 123.701 497 95.201C488.5 66.701 384 -45.799 357 20.701C335.4 73.901 260.667 61.5343 226 48.701C187.333 47.3677 104.1 54.801 80.5 95.201C56.9 135.601 29.3334 166.701 18.5 177.201Z" fill="#FF7590"/>
<path d="M317.203 258.661C317.494 262.132 318.935 265.724 321.969 267.771C325.002 269.819 329.829 269.78 332.146 267.029C332.924 265.997 333.496 264.844 333.836 263.624C335.788 257.906 337.173 251.651 335.034 245.99C330.208 245.699 324.614 243.595 320.99 247.291C318.065 250.302 316.866 254.648 317.203 258.661Z" fill="#3F3D56"/>
<path d="M339.608 223.683C338.966 228.728 337.876 233.752 337.988 238.832C338.03 240.793 338.255 242.736 338.259 244.706C338.268 249.82 336.814 254.844 334.046 259.269C333.755 259.789 333.365 260.256 332.895 260.648C331.785 261.481 330.114 261.412 328.869 260.774C327.652 260.073 326.664 259.079 326.009 257.898C322.521 252.362 322.423 245.634 321.042 239.357C319.984 234.554 318.13 229.9 317.461 225.041C317.025 221.913 317.091 218.725 316.398 215.636C316.187 214.703 315.598 213.302 315.209 211.927C314.853 210.699 314.657 209.493 315.022 208.665C315.766 206.968 318.205 207.628 319.792 207.732C325.38 208.116 330.993 208.103 336.579 207.693C337.131 207.654 337.759 207.632 338.147 207.997C338.317 208.181 338.444 208.395 338.522 208.626C338.966 209.753 339.306 210.914 339.537 212.096C340.31 215.875 340.094 219.835 339.608 223.683Z" fill="#FABDBD"/>
<g opacity="0.1">
<path opacity="0.1" d="M337.454 207.693C337.166 207.665 336.876 207.665 336.588 207.693C333.911 207.892 331.228 207.992 328.551 208.005C331.518 208.011 334.486 207.907 337.454 207.693Z" fill="black"/>
<path opacity="0.1" d="M329.815 260.774C328.598 260.073 327.609 259.079 326.954 257.898C323.467 252.362 323.368 245.634 321.987 239.357C320.93 234.554 319.076 229.9 318.406 225.041C317.971 221.913 318.037 218.725 317.344 215.636C317.133 214.703 316.543 213.302 316.155 211.927C315.799 210.699 315.602 209.493 315.967 208.665C316.122 208.325 316.384 208.036 316.717 207.835C317.051 207.634 317.442 207.53 317.84 207.537C316.656 207.463 315.499 207.593 315.031 208.665C314.666 209.493 314.863 210.699 315.218 211.927C315.607 213.302 316.197 214.703 316.407 215.636C317.1 218.725 317.035 221.913 317.47 225.041C318.14 229.904 319.993 234.559 321.051 239.357C322.432 245.634 322.531 252.371 326.018 257.898C326.673 259.079 327.662 260.073 328.878 260.774C329.626 261.157 330.482 261.318 331.331 261.234C330.799 261.169 330.285 261.013 329.815 260.774Z" fill="black"/>
</g>
<path d="M357.307 250.289C354.499 255.494 354.967 262.869 354.967 262.869C355.435 280.222 347.945 316.662 347.945 316.662H341.391C341.391 316.662 340.455 276.317 341.391 272.847C342.327 269.376 340.923 257.23 339.519 240.311C338.475 227.731 341.316 216.33 342.842 211.328C343.367 209.593 343.732 208.643 343.732 208.643C343.732 208.643 354.499 193.893 360.584 200.834C361.989 202.448 362.733 205.706 362.99 209.818C363.824 223.388 359.461 246.293 357.307 250.289Z" fill="#FABDBD"/>
<path opacity="0.1" d="M362.99 209.818C362.733 205.706 361.998 202.444 360.584 200.834C359.227 199.29 357.635 198.821 355.987 199.025C357.264 199.222 358.409 199.87 359.18 200.834C360.584 202.448 361.329 205.706 361.586 209.818C362.419 223.388 358.056 246.293 355.903 250.289C353.094 255.494 353.562 262.869 353.562 262.869C354.03 280.222 346.541 316.662 346.541 316.662H347.945C347.945 316.662 355.435 280.222 354.967 262.869C354.967 262.869 354.499 255.494 357.307 250.289C359.461 246.293 363.824 223.388 362.99 209.818Z" fill="black"/>
<path d="M337.983 315.078C337.46 315.459 337.008 315.916 336.644 316.432C335.806 317.898 336.996 319.651 338.269 320.818C339.542 321.985 341.078 323.234 341.078 324.895C341.078 326.232 339.987 327.377 338.765 328.088C338.11 328.47 337.286 328.956 337.422 329.676C337.469 329.858 337.553 330.03 337.67 330.184C338.718 331.672 340.577 332.544 342.459 332.873C344.34 333.203 346.283 333.06 348.198 332.917C348.484 332.926 348.765 332.836 348.984 332.665C349.123 332.492 349.197 332.282 349.195 332.066C349.288 331.147 349.228 330.175 349.663 329.346C350.271 328.214 351.671 327.637 352.472 326.622C353.595 325.234 353.441 323.303 353.015 321.616C352.078 317.941 349.995 313.751 346.868 311.204C343.245 308.281 340.403 312.966 337.983 315.078Z" fill="#3F3D56"/>
<path d="M352.167 96.4161C354.78 92.7981 354.101 87.7398 351.432 84.1392C348.764 80.5386 344.476 78.2741 340.052 76.8121C334.088 74.8426 327.511 74.1702 321.384 75.6495C316.506 76.8252 312.124 79.2849 307.527 81.185C299.394 84.5476 290.552 86.1783 281.649 85.9569C271.767 85.7009 260.94 83.354 252.649 88.3602C237.473 97.5093 244.223 122.41 229.866 132.609C225.994 135.359 221.121 136.561 216.814 138.682C212.508 140.804 208.426 144.495 208.529 149.016C208.575 151.185 209.605 153.254 210.869 155.089C216.253 162.997 226.317 167.891 236.396 167.8C246.475 167.708 256.31 162.741 262.119 155.098C263.575 153.185 264.858 151.055 266.969 149.779C271.182 147.22 276.734 149.011 281.762 149.393C292.954 150.239 304.152 142.452 306.38 132.236C307.317 127.876 307.153 122.666 310.94 119.929C313.997 117.72 318.299 118.193 322.175 117.816C329.262 117.135 334.856 113.044 338.704 107.699C340.469 105.248 340.675 102.32 343.081 100.39C345.674 98.2684 349.686 99.8345 352.167 96.4161Z" fill="#3F3D56"/>
<g opacity="0.1">
<path opacity="0.1" d="M272.287 86.7942C276.392 86.8985 280.497 86.6078 284.538 85.9266C283.424 85.9569 282.3 85.9569 281.181 85.9266C273.424 85.727 265.087 84.2434 257.85 86.0307C262.625 86.074 267.564 86.6727 272.287 86.7942Z" fill="black"/>
<path opacity="0.1" d="M257.597 150.642C255.486 151.918 254.203 154.048 252.747 155.961C248.273 161.782 241.733 165.96 234.271 167.765C234.818 167.787 235.366 167.8 235.918 167.795C246.006 167.704 255.832 162.737 261.642 155.093C263.098 153.18 264.38 151.05 266.492 149.775L266.857 149.567C263.552 149.146 260.308 148.998 257.597 150.642Z" fill="black"/>
<path opacity="0.1" d="M350.96 84.1262C348.296 80.5429 344.003 78.2611 339.58 76.7991C333.616 74.8296 327.039 74.1572 320.911 75.6365C320.77 75.6669 320.635 75.7059 320.499 75.7406C323.977 75.9204 327.409 76.5693 330.685 77.6667C335.109 79.1287 339.402 81.4105 342.065 84.9938C344.729 88.5771 345.412 93.67 342.8 97.2706C340.319 100.702 336.307 99.136 333.681 101.249C331.275 103.179 331.069 106.107 329.304 108.558C325.995 113.144 321.388 116.801 315.654 118.189C317.625 117.972 319.703 117.998 321.669 117.807C328.757 117.126 334.351 113.035 338.199 107.691C339.963 105.24 340.169 102.312 342.576 100.381C345.202 98.2684 349.214 99.8345 351.695 96.403C354.311 92.785 353.633 87.7095 350.96 84.1262Z" fill="black"/>
<path opacity="0.1" d="M312.78 118.675C308.927 119.048 304.625 118.579 301.545 120.788C297.757 123.525 297.94 128.735 296.985 133.095C295.342 140.717 288.667 147.003 280.741 149.341L281.298 149.389C292.491 150.235 303.689 142.448 305.917 132.231C306.853 127.872 306.689 122.662 310.476 119.924C311.346 119.321 312.333 118.88 313.383 118.623C313.173 118.627 312.981 118.658 312.78 118.675Z" fill="black"/>
</g>
<path d="M425.887 80.8856C425.887 80.8856 414.652 101.709 410.907 109.517C407.162 117.326 372.989 129.039 368.308 129.472C367.053 129.632 365.883 130.154 364.966 130.965C362.321 133.134 360.818 136.847 360.818 136.847C360.818 136.847 362.691 148.56 360.35 168.082C360.303 168.459 360.261 168.836 360.224 169.201C358.183 187.777 362.457 192.158 362.457 192.158C362.457 192.158 317.049 208.209 318.453 187.386C318.893 180.831 318.828 176.042 318.392 172.038C317.916 167.939 317.016 163.892 315.705 159.952C314.596 156.356 313.271 152.412 311.899 147.042C311.239 144.362 310.369 141.731 309.297 139.168C309.264 139.09 309.231 139.012 309.203 138.938C306.862 133.555 304.522 131.815 303.183 131.251C301.919 130.741 300.714 130.114 299.588 129.377C295.262 126.483 285.979 119.998 277.712 112.337C266.477 101.925 255.242 77.1982 255.242 77.1982C255.242 77.1982 251.966 62.8825 259.456 51.1696C266.946 39.4567 263.669 74.1616 263.669 74.1616C263.669 74.1616 277.244 91.0802 280.521 98.8888C282.206 102.906 284.884 104.962 287.075 106.029C290.694 107.775 294.16 109.783 297.439 112.033C299.655 113.585 301.984 114.994 304.409 116.25C309.643 118.853 315.911 121.79 321.135 122.562C321.951 122.687 322.776 122.752 323.602 122.757C323.995 122.769 324.384 122.696 324.742 122.546C325.099 122.395 325.414 122.171 325.662 121.889C327.067 120.358 327.034 117.061 326.711 114.35C326.538 112.945 326.282 111.551 325.943 110.172C325.943 110.172 341.157 101.279 340.689 112.124C340.616 113.323 340.736 114.524 341.045 115.69C341.294 116.76 341.845 117.75 342.642 118.558C343.439 119.366 344.453 119.963 345.581 120.289C347.408 120.785 349.341 120.843 351.198 120.458C351.777 120.366 352.337 120.189 352.855 119.933C354.26 119.065 368.304 115.161 372.517 114.727C376.73 114.293 397.795 104.75 397.795 104.75L420.733 75.2504C420.733 75.2504 420.265 57.898 429.628 50.957C438.99 44.0161 425.887 80.8856 425.887 80.8856Z" fill="#FABDBD"/>
<g opacity="0.1">
<path opacity="0.1" d="M360.224 166.598C359.815 170.084 359.635 173.59 359.685 177.096C359.732 174.806 359.896 172.19 360.224 169.201C360.261 168.836 360.303 168.459 360.35 168.082C361.169 161.401 361.56 154.681 361.52 147.957C361.448 153.812 361.058 159.66 360.35 165.479C360.322 165.856 360.261 166.234 360.224 166.598Z" fill="black"/>
<path opacity="0.1" d="M326.43 109.895C326.116 110.064 325.962 110.168 325.962 110.168C326.417 112.024 326.717 113.909 326.861 115.807C326.955 113.828 326.811 111.845 326.43 109.895Z" fill="black"/>
<path opacity="0.1" d="M263.889 71.806C264.118 68.7693 264.46 63.325 264.394 58.4836C264.315 64.9561 263.692 71.5587 263.692 71.5587L263.889 71.806Z" fill="black"/>
<path opacity="0.1" d="M318.486 186.879C318.486 187.048 318.486 187.217 318.453 187.386C317.049 208.209 362.457 192.158 362.457 192.158C361.926 191.493 361.525 190.747 361.272 189.954C354.433 192.21 320.064 202.7 318.486 186.879Z" fill="black"/>
<path opacity="0.1" d="M425.887 78.2828C425.887 78.2828 414.652 99.1057 410.907 106.914C407.162 114.723 372.989 126.436 368.308 126.87C367.053 127.029 365.883 127.551 364.966 128.362C362.321 130.531 360.818 134.244 360.818 134.244C360.818 134.244 360.931 134.951 361.066 136.296C361.591 135.181 362.939 132.622 364.966 130.965C365.883 130.154 367.053 129.632 368.308 129.472C372.989 129.039 407.162 117.326 410.907 109.517C414.652 101.709 425.887 80.8856 425.887 80.8856C425.887 80.8856 433.803 58.6095 432.933 51.9461C432.212 60.4835 425.887 78.2828 425.887 78.2828Z" fill="black"/>
<path opacity="0.1" d="M318.392 169.435C317.916 165.336 317.016 161.289 315.705 157.349C314.596 153.753 313.271 149.81 311.899 144.439C311.239 141.759 310.369 139.128 309.297 136.565C309.264 136.487 309.231 136.409 309.203 136.335C306.862 130.952 304.522 129.212 303.183 128.648C301.919 128.139 300.714 127.511 299.588 126.774C295.262 123.881 285.979 117.395 277.712 109.734C266.477 99.3226 255.243 74.5954 255.243 74.5954C254.827 72.5079 254.596 70.3927 254.55 68.2704C254.435 71.2608 254.668 74.2539 255.243 77.1983C255.243 77.1983 266.477 101.925 277.712 112.337C285.979 119.998 295.262 126.484 299.588 129.377C300.723 130.115 301.937 130.743 303.211 131.251C304.545 131.815 306.881 133.555 309.231 138.938C309.259 139.012 309.292 139.09 309.325 139.168C310.393 141.731 311.258 144.363 311.914 147.042C313.285 152.412 314.61 156.356 315.719 159.952C317.03 163.892 317.93 167.939 318.406 172.038C318.603 173.851 318.72 175.825 318.753 178.046C318.809 175.172 318.689 172.297 318.392 169.435Z" fill="black"/>
</g>
<path d="M365.383 150.547C364.668 151.642 364.042 152.785 363.51 153.965C362.803 155.787 362.799 157.77 362.668 159.7C362.481 162.41 362.036 165.098 361.338 167.735C361.225 168.22 361.069 168.696 360.87 169.157C360.73 169.468 360.546 169.76 360.322 170.025C360.073 170.308 359.779 170.555 359.452 170.758C358.949 171.069 358.418 171.337 357.865 171.561C351.348 174.381 344.242 176.871 337.132 175.899C334.126 175.412 331.217 174.505 328.504 173.209C325.929 172.051 323.018 170.676 320.349 171.639C319.94 171.831 319.498 171.959 319.043 172.016C318.955 172.018 318.867 172.01 318.781 171.995C317.901 171.838 317.901 169.088 317.7 168.277C316.932 165.162 316.815 162.637 316.356 159.93C316.112 158.433 315.735 156.958 315.228 155.518C313.356 150.269 312.789 144.673 312.789 139.172C312.789 138.899 310.683 139.172 309.98 139.146C309.803 139.146 309.704 139.12 309.746 139.064C309.787 139.01 309.834 138.961 309.887 138.917C310.132 138.732 310.418 138.6 310.725 138.53L311.277 138.379C314.17 137.619 317.363 137.303 319.525 135.416C321.772 133.468 322.334 130.357 322.236 127.512C322.208 126.596 321.726 124.375 321.805 122.531C322.621 122.656 323.446 122.722 324.272 122.727C324.664 122.738 325.054 122.666 325.411 122.516C325.769 122.365 326.084 122.14 326.332 121.859C327.113 123.26 327.789 124.71 328.354 126.197C329.15 128.011 329.759 129.919 330.924 131.559C332.797 134.231 336.252 135.988 339.688 135.719C343.124 135.45 346.321 133.004 346.934 129.863C347.472 127.108 346.223 123.143 346.251 120.28C348.077 120.777 350.01 120.835 351.868 120.449C351.947 120.626 352.014 120.807 352.069 120.991C353.123 124.34 354.527 128.184 358.061 129.373C360.346 130.136 363.047 129.564 365.158 130.674C365.32 130.761 365.477 130.856 365.626 130.96C366.114 131.296 366.534 131.709 366.867 132.179C367.734 133.506 368.249 135.005 368.369 136.552C368.91 141.389 367.869 146.265 365.383 150.547Z" fill="#6C63FF"/>
<path opacity="0.1" d="M341.045 115.686C338.71 116.52 336.195 116.833 333.705 116.6C331.215 116.368 328.819 115.595 326.711 114.345C326.538 112.941 326.282 111.546 325.943 110.168C325.943 110.168 341.157 101.275 340.689 112.12C340.616 113.318 340.736 114.52 341.045 115.686Z" fill="black"/>
<path d="M335.301 115.807C344.091 115.807 351.217 109.204 351.217 101.058C351.217 92.9119 344.091 86.3083 335.301 86.3083C326.511 86.3083 319.385 92.9119 319.385 101.058C319.385 109.204 326.511 115.807 335.301 115.807Z" fill="#FABDBD"/>
<path d="M321.613 103.5C321.145 100.793 320.424 97.3835 322.868 95.8348C323.739 95.345 324.747 95.1037 325.765 95.1407C330.826 95.0929 335.661 98.3595 340.623 97.4052C342.203 97.0985 343.653 96.3756 344.799 95.3234C345.945 94.2713 346.739 92.9346 347.086 91.4742C347.432 90.0138 347.315 88.4918 346.75 87.0913C346.185 85.6908 345.195 84.4713 343.9 83.5796C341.948 82.2348 339.481 81.7489 337.094 81.2934C330.816 80.0961 324.263 78.9031 318.065 80.4258C311.867 81.9485 306.202 87.0978 306.699 93.0063C306.933 95.8348 308.487 98.4029 310.111 100.815C311.347 102.646 316.159 111.226 318.495 111.357C321.791 111.534 321.936 105.27 321.613 103.5Z" fill="#3F3D56"/>
<path d="M361.052 184.783C361.052 184.783 328.752 192.158 317.985 184.783C317.985 184.783 313.304 201.702 314.708 210.378C314.708 210.378 337.646 211.68 339.987 212.981C339.987 212.981 340.455 209.51 342.796 211.246C342.796 211.246 350.754 202.57 365.265 210.378C365.265 210.378 368.074 189.989 361.052 184.783Z" fill="#6C63FF"/>
<path opacity="0.1" d="M343.91 83.5796C343.577 83.356 343.228 83.1531 342.866 82.9723C343.832 83.99 344.493 85.2248 344.782 86.5533C345.072 87.8818 344.98 89.2575 344.516 90.5429C344.052 91.8283 343.232 92.9783 342.139 93.878C341.045 94.7777 339.715 95.3956 338.283 95.6699C333.321 96.6243 328.485 93.3577 323.425 93.4054C322.406 93.3684 321.398 93.6098 320.527 94.0995C318.083 95.6482 318.8 99.058 319.268 101.765C319.577 103.535 319.45 109.799 316.164 109.63H316.108C317.011 110.649 317.854 111.339 318.505 111.365C321.781 111.534 321.917 105.292 321.608 103.5C321.14 100.793 320.424 97.3835 322.868 95.8348C323.739 95.3451 324.747 95.1037 325.765 95.1407C330.826 95.093 335.661 98.3596 340.623 97.4052C342.203 97.0985 343.653 96.3756 344.799 95.3234C345.945 94.2713 346.739 92.9346 347.086 91.4742C347.432 90.0138 347.315 88.4918 346.75 87.0913C346.185 85.6908 345.195 84.4713 343.9 83.5796H343.91Z" fill="black"/>
<g opacity="0.1">
<path opacity="0.1" d="M111.421 62.9736C111.421 62.9736 76.4195 49.3346 71.8319 73.9317C71.8319 73.9317 69.4398 77.7622 72.7682 80.929C72.7682 80.929 73.4844 79.2328 76.8689 80.9898C78.0771 81.6054 79.3592 82.0873 80.6888 82.4257C82.4855 82.885 84.3946 82.7906 86.1284 82.1567C86.1284 82.1567 97.6395 81.5797 107.32 67.6241C107.32 67.6241 111.468 65.2468 111.679 64.3575L104.741 64.7913C104.741 64.7913 105.27 69.4981 102.4 72.3222C102.4 72.3222 104.952 65.0212 103.725 64.813C103.477 64.7696 100.06 65.1904 100.06 65.1904C100.06 65.1904 100.944 73.372 96.3148 77.606C96.3148 77.606 100.612 69.2812 98.7396 65.3379L93.6231 66.2532C93.6231 66.2532 95.0274 74.86 89.9623 79.8705C89.9623 79.8705 94.1239 71.0208 92.5183 66.5222L87.6124 68.0492C87.6124 68.0492 88.7967 76.4738 84.5602 80.6297C84.5602 80.6297 88.2584 69.9536 86.5169 68.483C86.5169 68.483 82.1072 70.1402 81.1616 71.0859C81.1616 71.0859 81.8638 77.1592 79.1674 79.3283C79.1674 79.3283 80.8246 71.9535 80.0054 71.6498C80.0054 71.6498 74.8794 75.2244 73.3206 78.3088C73.3206 78.3088 75.2679 73.5976 79.3593 70.934C79.3593 70.934 75.9233 70.3961 73.2737 71.7279C73.2737 71.7279 75.0479 68.6001 80.5999 70.0838C80.5999 70.0838 84.7147 67.4462 85.5386 67.4809C85.5386 67.4809 80.2862 65.3118 76.4898 65.5765C76.4898 65.5765 80.5577 63.4074 86.8259 67.0341L91.7131 65.3943C91.7131 65.3943 84.93 62.171 81.5268 62.1841C81.5268 62.1841 86.0488 60.5659 92.9864 65.0776L97.9906 64.1275C97.9906 64.1275 92.3732 60.939 88.586 60.1972C88.586 60.1972 93.1315 59.5335 99.4371 63.9106L102.864 63.6417C102.864 63.6417 98.7162 61.3815 97.4617 60.8306C96.2071 60.2796 96.2633 59.9196 96.2633 59.9196C99.2493 60.4 102.032 61.6407 104.301 63.5028C104.301 63.5028 111.388 63.377 111.421 62.9736Z" fill="#6C63FF"/>
</g>
<g opacity="0.1">
<path opacity="0.1" d="M110.129 38.524C110.129 38.524 97.7051 11.9445 79.8743 24.1345C79.8743 24.1345 76.0965 25.1497 76.1293 28.7763C76.1293 28.7763 77.5992 28.1473 78.5261 30.9757C78.8726 31.9802 79.3439 32.9439 79.9305 33.8476C80.7062 35.063 81.8876 36.0116 83.2963 36.5502C83.2963 36.5502 90.4866 42.2852 104.83 39.1053C104.83 39.1053 108.757 39.8862 109.432 39.4654L105.045 36.0557C105.045 36.0557 102.471 39.1314 99.0158 39.2832C99.0158 39.2832 105.022 36.2899 104.418 35.5177C104.296 35.3616 102.012 33.8085 102.012 33.8085C102.012 33.8085 97.5038 39.1357 92.1812 39.2181C92.1812 39.2181 99.8538 36.5372 101.165 33.2099L97.5647 31.0408C97.5647 31.0408 93.0988 36.8929 87.0178 37.1966C87.0178 37.1966 94.9291 34.1599 96.7408 30.62L92.8881 28.9368C92.8881 28.9368 88.4128 34.5764 83.3524 34.7889C83.3524 34.7889 92.111 30.3988 91.9753 28.6071C91.9753 28.6071 88.3379 27.2623 87.1864 27.3404C87.1864 27.3404 83.8767 31.3098 80.9229 31.197C80.9229 31.197 86.442 27.6874 86.1378 27.0758C86.1378 27.0758 80.8948 26.4945 78.072 27.5096C78.072 27.5096 82.126 25.7396 86.1939 26.3209C86.1939 26.3209 84.4853 24.1823 82.1025 23.5879C82.1025 23.5879 85.0798 22.6639 87.4672 26.4771C87.4672 26.4771 91.5305 27.0801 92.0034 27.5313C92.0034 27.5313 90.2245 23.4578 87.7902 21.6228C87.7902 21.6228 91.5352 22.4904 93.0332 27.9434L96.942 29.5528C96.942 29.5528 94.8964 24.0564 92.8413 22.2735C92.8413 22.2735 96.5254 23.6964 97.8736 30.0387L101.427 32.1167C101.427 32.1167 100.046 27.258 98.2575 24.8373C98.2575 24.8373 101.366 26.8372 102.424 32.7674L104.624 34.4158C104.624 34.4158 103.547 30.8846 103.14 29.8955C102.733 28.9065 102.99 28.7243 102.99 28.7243C104.466 30.5874 105.356 32.7933 105.56 35.0969C105.56 35.0969 109.876 38.7496 110.129 38.524Z" fill="#6C63FF"/>
</g>
<path d="M333.588 19.9873H313.407C312.75 19.9873 312.218 20.4806 312.218 21.0892V23.1324C312.218 23.741 312.75 24.2343 313.407 24.2343H333.588C334.244 24.2343 334.777 23.741 334.777 23.1324V21.0892C334.777 20.4806 334.244 19.9873 333.588 19.9873Z" fill="#E6E8EC"/>
<path d="M340.787 24.5163C342.222 24.5163 343.385 23.4383 343.385 22.1086C343.385 20.7789 342.222 19.701 340.787 19.701C339.352 19.701 338.189 20.7789 338.189 22.1086C338.189 23.4383 339.352 24.5163 340.787 24.5163Z" fill="#E6E8EC"/>
<path d="M189.541 257.928C188.857 258.484 188.33 259.187 188.006 259.976C187.206 262.292 189.443 264.565 189.659 266.99C189.827 268.917 188.722 270.712 188.095 272.561C187.387 274.856 187.433 277.295 188.227 279.567C189.02 281.838 190.526 283.839 192.552 285.315C192.983 285.654 193.492 285.897 194.04 286.026C194.493 286.076 194.951 286.041 195.388 285.922C195.825 285.802 196.232 285.602 196.582 285.332C197.669 284.599 198.498 283.585 198.965 282.417C199.353 281.269 199.563 280.075 199.587 278.872L199.92 274.231C200.266 269.385 200.58 264.388 199.307 259.629C198.89 258.067 198.118 254.479 196.17 254.262C194.223 254.045 190.834 256.757 189.541 257.928Z" fill="#3F3D56"/>
<path d="M222.198 237.99C219.859 245.6 218.164 253.367 217.128 261.221C216.978 262.327 216.824 263.49 216.103 264.383C214.666 266.175 211.787 266.062 209.399 265.771C208.826 265.744 208.268 265.595 207.765 265.338C206.867 264.774 206.67 263.646 206.562 262.644C204.927 247.871 203.835 233.059 203.286 218.208C203.262 217.64 223.27 217.588 224.983 219.076C226.696 220.564 225.367 226.13 224.983 228.026C224.356 231.401 223.223 234.689 222.198 237.99Z" fill="#FBBEBE"/>
<path opacity="0.05" d="M222.198 237.99C219.859 245.6 218.164 253.367 217.128 261.221C216.978 262.327 216.824 263.49 216.103 264.383C214.666 266.175 211.787 266.062 209.399 265.771C208.826 265.744 208.268 265.595 207.765 265.338C206.867 264.774 206.67 263.646 206.562 262.644C204.927 247.871 203.835 233.059 203.286 218.208C203.262 217.64 223.27 217.588 224.983 219.076C226.696 220.564 225.367 226.13 224.983 228.026C224.356 231.401 223.223 234.689 222.198 237.99Z" fill="black"/>
<path d="M180.535 216.096L188.638 232.611C191.334 238.103 194.049 243.656 195.337 249.569C195.853 252.039 196.183 254.539 196.325 257.052C196.52 259.205 196.448 261.373 196.109 263.511C195.814 265.099 195.271 266.643 195.033 268.24C194.096 274.604 197.986 280.59 200.65 286.512C202.951 291.598 204.416 296.975 204.994 302.463C205.238 304.801 205.373 307.283 206.815 309.213C209.451 308.48 212.025 307.847 214.773 308.133C215.265 304.398 212.718 300.958 211.782 297.288C210.064 290.564 213.86 283.497 212.568 276.69C211.866 273.003 209.689 269.533 209.867 265.793C210.2 258.974 211.581 252.085 210.176 245.404C208.594 237.851 204.044 230.984 203.037 223.349C202.265 217.484 203.506 210.998 199.981 206.07C192.28 205.65 184.317 209.862 180.535 216.096Z" fill="#FBBEBE"/>
<path d="M207.166 319.811C206.356 319.837 205.411 319.811 204.91 319.217C204.665 318.871 204.525 318.471 204.503 318.059C204.119 315.443 203.931 312.807 203.941 310.168C203.941 309.205 203.988 308.181 204.568 307.387C204.994 306.902 205.48 306.466 206.015 306.085C207.255 305.023 208.159 303.483 209.76 302.992C210.461 302.803 211.205 302.794 211.911 302.966C212.618 303.138 213.261 303.484 213.771 303.968C214.782 304.966 215.407 306.246 215.55 307.608C215.784 309.222 215.588 310.979 216.51 312.38C216.875 312.922 217.385 313.365 217.797 313.877C219.202 315.612 220.461 319.009 217.563 319.711C214.492 320.453 210.354 319.716 207.166 319.811Z" fill="#3F3D56"/>
<path d="M214.193 118.358C215.831 115.426 214.853 111.652 212.512 109.161C210.172 106.671 206.75 105.283 203.257 104.533C198.576 103.518 193.558 103.526 189.078 105.123C185.506 106.394 182.431 108.593 179.135 110.389C173.311 113.566 166.793 115.493 160.059 116.029C152.569 116.614 144.204 115.703 138.413 120.124C127.805 128.219 135.192 146.46 125.306 155.293C122.637 157.674 119.075 158.963 116.018 160.902C112.961 162.841 110.227 165.943 110.719 169.344C110.953 170.979 111.917 172.454 113.031 173.743C117.816 179.283 125.849 182.185 133.446 181.321C141.044 180.458 148 175.938 151.703 169.717C152.639 168.16 153.398 166.455 154.872 165.323C157.826 163.062 162.161 163.978 165.99 163.869C174.505 163.626 182.239 156.863 182.983 148.994C183.301 145.632 182.683 141.719 185.291 139.359C187.393 137.45 190.679 137.468 193.553 136.882C198.834 135.81 202.677 132.271 205.088 127.95C206.193 125.963 206.08 123.742 207.719 122.093C209.465 120.28 212.634 121.143 214.193 118.358Z" fill="#3F3D56"/>
<g opacity="0.1">
<path opacity="0.1" d="M153.079 117.404C156.185 117.158 159.255 116.616 162.24 115.786C161.398 115.894 160.555 115.985 159.708 116.05C153.838 116.506 147.415 116.05 142.125 117.963C145.73 117.621 149.508 117.681 153.079 117.404Z" fill="black"/>
<path opacity="0.1" d="M147.855 166.698C146.381 167.826 145.603 169.535 144.686 171.092C141.849 175.831 137.306 179.496 131.85 181.447C132.267 181.421 132.683 181.387 133.1 181.339C140.697 180.471 147.654 175.96 151.357 169.739C152.293 168.181 153.047 166.472 154.526 165.344L154.779 165.162C152.209 165.106 149.746 165.249 147.855 166.698Z" fill="black"/>
<path opacity="0.1" d="M212.161 109.187C209.821 106.697 206.375 105.314 202.906 104.559C198.225 103.544 193.207 103.557 188.722 105.153L188.423 105.266C191.061 105.127 193.707 105.344 196.278 105.912C199.747 106.667 203.197 108.051 205.533 110.545C207.868 113.04 208.852 116.809 207.213 119.742C205.654 122.527 202.485 121.659 200.702 123.46C199.063 125.104 199.175 127.329 198.071 129.316C195.997 133.034 192.856 136.166 188.661 137.654C190.127 137.333 191.7 137.19 193.16 136.895C198.44 135.819 202.284 132.284 204.695 127.963C205.804 125.976 205.692 123.75 207.325 122.106C209.114 120.306 212.283 121.169 213.837 118.389C215.476 115.465 214.497 111.691 212.161 109.187Z" fill="black"/>
<path opacity="0.1" d="M186.536 138.253C183.662 138.834 180.376 138.821 178.274 140.725C175.666 143.09 176.284 147.003 175.966 150.365C175.409 156.243 170.948 161.505 165.176 163.895H165.602C174.117 163.652 181.846 156.885 182.59 149.02C182.913 145.654 182.295 141.741 184.902 139.381C185.5 138.852 186.203 138.437 186.971 138.157L186.536 138.253Z" fill="black"/>
</g>
<path d="M214.333 157.839C213.945 158.477 213.144 158.772 212.4 159.028C204.695 161.657 196.587 164.333 188.46 163.227C188.156 162.043 187.856 160.854 187.557 159.67C187.123 157.952 186.686 156.234 186.246 154.516C186.04 153.696 185.829 152.868 185.661 152.035C185.37 150.72 185.277 149.374 185.385 148.035C185.434 147.55 185.528 147.07 185.665 146.599C185.906 145.744 186.308 144.934 186.854 144.209C186.948 144.092 187.046 143.975 187.149 143.862C187.612 143.345 188.174 142.911 188.807 142.582C190.188 141.879 192.083 141.58 192.64 140.218C192.856 139.506 192.835 138.75 192.58 138.049C192.111 136.314 191.264 134.683 190.74 132.965C190.075 130.796 191.077 130.93 193.338 130.405C197.411 129.455 201.671 128.774 205.851 129.538C205.654 131.451 205.462 133.411 205.982 135.277C206.502 137.142 207.892 138.912 209.891 139.428C210.186 139.506 210.499 139.554 210.827 139.619C211.261 139.684 211.673 139.841 212.03 140.079C212.276 140.268 212.472 140.507 212.601 140.778C212.805 141.235 212.939 141.717 212.999 142.209C213.733 146.761 214.262 151.335 214.586 155.931V156.104C214.682 156.693 214.595 157.295 214.333 157.839Z" fill="#FBBEBE"/>
<path d="M174.665 150.365C172.914 152.833 172.324 155.835 171.79 158.75L168.392 177.014C167.924 179.513 167.507 182.259 168.888 184.449C169.356 185.191 170.011 185.833 170.353 186.618C170.611 187.408 170.781 188.221 170.859 189.043C171.654 193.23 176.097 196.054 180.554 197.069C182.164 197.438 184.046 197.581 185.314 196.587C186.719 195.507 186.719 193.451 185.89 191.967C185.062 190.484 183.549 189.434 182.084 188.44L177.23 185.126L180.039 165.171C180.245 163.722 180.975 161.843 182.557 162.004C183.999 162.147 185.108 164.095 186.391 163.466C186.793 163.214 187.076 162.829 187.182 162.39C187.744 160.755 187.589 158.993 187.43 157.28L186.85 151.094C186.658 149.085 187.215 147.58 187.477 145.693C187.781 143.493 186.199 144.161 184.247 144.634C180.497 145.554 176.832 147.302 174.665 150.365Z" fill="#FBBEBE"/>
<path d="M235.029 180.358C234.672 180.914 234.144 181.359 233.512 181.634C229.722 183.614 225.265 184.195 221.032 183.261C220.057 182.995 219.066 182.781 218.064 182.619C216.463 182.436 214.834 182.731 213.219 182.619C209.942 182.389 207.063 180.493 204.793 178.28C203.426 176.979 202.185 174.849 203.459 173.452C203.814 173.115 204.256 172.867 204.743 172.73C205.23 172.594 205.746 172.573 206.244 172.671C207.235 172.876 208.191 173.206 209.086 173.652C212.219 174.998 215.57 175.854 219.005 176.185C221.346 176.411 224.323 176.042 225.133 173.981C225.526 172.979 225.25 171.869 224.974 170.832C224.218 167.992 223.463 165.15 222.708 162.308C222.656 162.059 222.561 161.821 222.427 161.6C222.389 161.541 222.343 161.486 222.291 161.436C221.993 161.205 221.632 161.055 221.247 161.002C219.501 160.603 217.755 159.956 216.505 158.763C215.686 157.916 215.033 156.943 214.577 155.887C214.446 155.623 214.324 155.354 214.197 155.085C213.238 153.011 212.227 150.885 211.445 148.708C210.899 147.236 210.497 145.721 210.242 144.183C210.036 142.851 209.924 142.239 210.71 141.649C210.921 141.502 211.145 141.371 211.379 141.259C211.74 141.081 212.147 140.903 212.578 140.734L212.994 140.574C214.275 140.099 215.591 139.711 216.931 139.411C220.18 138.713 223.649 140.17 225.877 142.474C228.105 144.777 229.262 147.792 230.001 150.807C230.741 153.822 231.12 156.911 232.047 159.878C232.407 161.041 232.857 162.186 233.166 163.349C233.497 164.732 233.733 166.133 233.873 167.544C234.313 171.138 234.751 174.733 235.188 178.328C235.35 179.005 235.294 179.71 235.029 180.358Z" fill="#FBBEBE"/>
<path d="M186.962 178.797C187.898 184.332 185.207 189.776 182.604 194.848C184.078 195.845 185.881 196.34 187.641 196.769C199.422 199.639 211.668 200.494 223.78 199.29C224.07 197.416 224.342 195.429 223.513 193.702C222.998 192.631 222.109 191.759 221.542 190.709C220.606 188.974 220.7 186.957 220.803 185.031L221.641 168.619C215.831 166.138 209.095 168.463 202.705 168.797C199.395 168.971 196.044 168.598 192.781 169.14C191.086 169.422 185.759 170.199 184.959 171.817C184.158 173.435 186.677 177.035 186.962 178.797Z" fill="#FBBEBE"/>
<path opacity="0.05" d="M186.962 178.797C187.898 184.332 185.207 189.776 182.604 194.848C184.078 195.845 185.881 196.34 187.641 196.769C199.422 199.639 211.668 200.494 223.78 199.29C224.07 197.416 224.342 195.429 223.513 193.702C222.998 192.631 222.109 191.759 221.542 190.709C220.606 188.974 220.7 186.957 220.803 185.031L221.641 168.619C215.831 166.138 209.095 168.463 202.705 168.797C199.395 168.971 196.044 168.598 192.781 169.14C191.086 169.422 185.759 170.199 184.959 171.817C184.158 173.435 186.677 177.035 186.962 178.797Z" fill="black"/>
<path d="M202.354 194.683C196.058 193.468 189.869 191.46 183.442 191.321C183.119 191.29 182.794 191.348 182.506 191.486C182.192 191.726 181.982 192.064 181.916 192.436C181.251 194.561 180.656 196.703 180.132 198.86C178.391 206.031 177.534 213.953 181.363 220.39C181.326 218.3 182.744 216.343 184.64 215.185C186.536 214.026 188.806 213.558 191.053 213.367C193.3 213.176 195.702 213.254 197.794 214.109C199.257 214.725 200.518 215.686 201.453 216.897C202.387 218.108 202.961 219.525 203.117 221.006L225.236 221.67C225.365 221.705 225.502 221.71 225.634 221.683C225.766 221.657 225.888 221.601 225.991 221.519C226.093 221.438 226.172 221.334 226.22 221.217C226.268 221.1 226.284 220.974 226.266 220.85C227.081 214.275 227.051 207.633 226.177 201.064C225.933 199.229 225.901 196.683 223.672 195.993C221.013 195.169 216.81 196.132 213.968 196.019C210.064 195.867 206.18 195.42 202.354 194.683Z" fill="#3F3D56"/>
<path d="M222.432 162.546L222.362 171.656L199.985 172.346C195.88 172.476 191.742 172.606 187.739 173.452C186.588 173.695 185.45 173.999 184.317 174.298C183.138 170.294 181.977 166.099 182.286 162.017C182.371 160.916 182.578 159.825 182.904 158.763C183.615 156.473 184.949 154.312 185.661 152.048C185.947 151.166 186.105 150.253 186.129 149.332C186.076 148.413 185.919 147.501 185.661 146.612C185.455 145.883 185.358 145.132 185.371 144.378L187.145 143.871C187.196 144.066 187.238 144.257 187.276 144.456C187.351 144.868 187.412 145.289 187.454 145.71C187.554 146.753 187.585 147.8 187.547 148.846C187.486 150.937 187.182 153.267 188.591 154.92C190.422 157.041 193.942 156.711 196.816 156.182L204.344 154.79C206.722 154.356 209.376 153.74 210.616 151.809C211.146 150.872 211.425 149.831 211.431 148.773V148.564C211.543 146.26 211.295 143.953 210.696 141.715C210.513 141.012 210.289 140.318 210.036 139.637H210.79C211.224 139.701 211.636 139.859 211.993 140.096C212.239 140.285 212.435 140.524 212.564 140.795L212.98 140.634C214.641 146.926 217.379 152.931 221.088 158.421C221.565 159.049 221.944 159.737 222.212 160.464C222.323 160.858 222.386 161.263 222.399 161.67C222.436 161.926 222.432 162.234 222.432 162.546Z" fill="#FF6F61"/>
<path d="M198.792 134.973C206.289 134.973 212.367 129.341 212.367 122.393C212.367 115.445 206.289 109.812 198.792 109.812C191.294 109.812 185.216 115.445 185.216 122.393C185.216 129.341 191.294 134.973 198.792 134.973Z" fill="#FBBEBE"/>
<path d="M174.665 150.365C172.914 152.833 172.324 155.835 171.79 158.75L168.392 177.014C167.924 179.513 167.507 182.259 168.888 184.449C169.356 185.191 170.011 185.833 170.353 186.618C170.611 187.408 170.781 188.221 170.859 189.043C171.654 193.23 176.097 196.054 180.554 197.069C182.164 197.438 184.046 197.581 185.314 196.587C186.719 195.507 186.719 193.451 185.89 191.967C185.062 190.484 183.549 189.434 182.084 188.44L177.23 185.126L180.039 165.171C180.226 163.735 176.832 147.302 174.665 150.365Z" fill="#FBBEBE"/>
<path d="M230.006 150.833C230.746 153.848 231.125 156.937 232.052 159.904C232.412 161.071 232.862 162.212 233.171 163.375C233.502 164.756 233.738 166.156 233.877 167.565L235.193 178.35C235.344 179.016 235.287 179.708 235.029 180.345C234.671 180.9 234.143 181.344 233.512 181.621C229.72 183.596 225.265 184.177 221.032 183.248C220.058 182.978 219.067 182.763 218.064 182.606C216.463 182.419 214.834 182.718 213.219 182.606C209.942 182.376 207.063 180.484 204.793 178.289C203.426 176.988 202.185 174.853 203.459 173.456C203.814 173.119 204.256 172.871 204.743 172.735C205.23 172.598 205.746 172.578 206.244 172.676C207.235 172.882 208.192 173.213 209.086 173.66C212.22 175.003 215.571 175.858 219.005 176.19C221.346 176.419 224.323 176.051 225.133 173.986C225.526 172.984 225.25 171.873 224.974 170.836L222.708 162.312C222.614 162.017 229.266 147.823 230.006 150.833Z" fill="#FBBEBE"/>
<path d="M190.389 126.267C189.785 124.258 188.938 121.746 190.637 120.384C191.248 119.947 191.983 119.686 192.753 119.634C196.568 119.2 200.514 121.282 204.166 120.172C205.33 119.819 206.36 119.161 207.13 118.278C207.901 117.395 208.379 116.325 208.507 115.195C208.635 114.066 208.408 112.927 207.853 111.915C207.297 110.902 206.438 110.061 205.378 109.491C203.782 108.624 201.877 108.454 200.037 108.302C195.192 107.89 190.141 107.509 185.609 109.17C181.078 110.832 177.258 115.109 178.194 119.538C178.63 121.651 180.039 123.469 181.471 125.152C182.571 126.431 186.986 132.526 188.76 132.44C191.259 132.31 190.782 127.572 190.389 126.267Z" fill="#3F3D56"/>
<path opacity="0.1" d="M205.378 109.491C205.108 109.346 204.826 109.22 204.535 109.114C205.357 109.805 205.969 110.684 206.309 111.663C206.65 112.642 206.707 113.687 206.474 114.693C206.242 115.699 205.729 116.63 204.986 117.395C204.243 118.159 203.297 118.729 202.242 119.048C198.59 120.159 194.644 118.076 190.829 118.51C190.059 118.563 189.324 118.824 188.713 119.261C187.014 120.623 187.861 123.134 188.465 125.143C188.858 126.444 189.336 131.186 186.845 131.316H186.803C187.575 132.015 188.273 132.47 188.769 132.444C191.26 132.314 190.782 127.577 190.389 126.271C189.785 124.262 188.938 121.751 190.637 120.388C191.248 119.952 191.983 119.691 192.753 119.638C196.568 119.204 200.514 121.286 204.166 120.176C205.33 119.823 206.36 119.166 207.13 118.283C207.901 117.4 208.379 116.329 208.507 115.2C208.635 114.071 208.408 112.931 207.853 111.919C207.298 110.907 206.438 110.065 205.378 109.495V109.491Z" fill="black"/>
<path d="M132.726 29.24C108.252 29.5074 60.0694 42.716 8.49794 95.0058C4.92358 98.6299 2.94684 103.548 3.30976 108.625C5.30086 136.481 17.4295 193.101 55.0493 248.938C107.099 326.193 130.621 287.566 234.719 311.82C338.818 336.074 413.889 350.447 396.372 311.82C380.189 276.132 387.501 262.298 445.543 190.618C453.473 180.825 472.251 180.547 482.754 173.585C495.726 164.986 512.256 139.595 529.348 80.8879C530.43 77.1709 530.535 73.0708 528.635 69.6982C511.247 38.8445 430.705 16.9049 340.319 12.2332C244.729 7.2925 270.253 37.8351 223.709 58.9454C191.004 73.779 161.31 52.9679 146.43 36.3219C142.83 32.294 138.128 29.181 132.726 29.24Z" stroke="white" stroke-width="5" stroke-linecap="round" stroke-linejoin="round"/>
<path d="M132.726 26.539C108.252 26.8064 60.0694 40.015 8.49794 92.3048C4.92358 95.9289 2.94684 100.847 3.30976 105.924C5.30086 133.78 17.4295 190.4 55.0493 246.237C107.099 323.492 130.621 284.865 234.719 309.119C338.818 333.373 413.889 347.746 396.372 309.119C380.189 273.431 387.501 259.597 445.543 187.917C453.473 178.124 472.251 177.846 482.754 170.884C495.726 162.285 512.256 136.894 529.348 78.1869C530.43 74.4699 530.535 70.3699 528.635 66.9972C511.247 36.1435 430.705 14.2039 340.319 9.53222C244.729 4.59151 270.253 35.1341 223.709 56.2444C191.004 71.078 161.31 50.2669 146.43 33.6209C142.83 29.593 138.128 26.48 132.726 26.539Z" fill="url(#paint0_linear)" stroke="white" stroke-width="5" stroke-linecap="round" stroke-linejoin="round"/>
<mask id="mask0" mask-type="alpha" maskUnits="userSpaceOnUse" x="17" y="0" width="482" height="320">
<path d="M18.5 177.201C15.1667 191.868 22.9 235.601 80.5 293.201C80.5 310.201 98.6 336.501 171 305.701C261.5 267.201 295 305.701 327.5 305.701C360 305.701 368.5 253.701 418 229.701C467.5 205.701 505.5 123.701 497 95.201C488.5 66.701 384 -45.799 357 20.701C335.4 73.901 260.667 61.5343 226 48.701C187.333 47.3677 104.1 54.801 80.5 95.201C56.9 135.601 29.3334 166.701 18.5 177.201Z" fill="#FF7590"/>
</mask>
<g mask="url(#mask0)">
<path d="M317.203 258.661C317.494 262.132 318.935 265.724 321.969 267.771C325.002 269.819 329.829 269.78 332.146 267.029C332.924 265.997 333.496 264.844 333.836 263.624C335.788 257.906 337.173 251.651 335.034 245.99C330.208 245.699 324.614 243.595 320.99 247.291C318.065 250.302 316.866 254.648 317.203 258.661Z" fill="#3F3D56"/>
<path d="M339.608 223.683C338.966 228.728 337.876 233.752 337.988 238.832C338.03 240.793 338.255 242.736 338.259 244.706C338.268 249.82 336.814 254.844 334.046 259.269C333.755 259.789 333.365 260.256 332.895 260.648C331.785 261.481 330.114 261.412 328.869 260.774C327.652 260.073 326.664 259.079 326.009 257.898C322.521 252.362 322.423 245.634 321.042 239.357C319.984 234.554 318.13 229.9 317.461 225.041C317.025 221.913 317.091 218.725 316.398 215.636C316.187 214.703 315.598 213.302 315.209 211.927C314.853 210.699 314.657 209.493 315.022 208.665C315.766 206.968 318.205 207.628 319.792 207.732C325.38 208.116 330.993 208.103 336.579 207.693C337.131 207.654 337.759 207.632 338.147 207.997C338.317 208.181 338.444 208.395 338.522 208.626C338.966 209.753 339.306 210.914 339.537 212.096C340.31 215.875 340.094 219.835 339.608 223.683Z" fill="#FABDBD"/>
<g opacity="0.1">
<path opacity="0.1" d="M337.454 207.693C337.166 207.665 336.876 207.665 336.588 207.693C333.911 207.892 331.228 207.992 328.551 208.005C331.518 208.011 334.486 207.907 337.454 207.693Z" fill="black"/>
<path opacity="0.1" d="M329.815 260.774C328.598 260.073 327.609 259.079 326.954 257.898C323.467 252.362 323.368 245.634 321.987 239.357C320.93 234.554 319.076 229.9 318.406 225.041C317.971 221.913 318.037 218.725 317.344 215.636C317.133 214.703 316.543 213.302 316.155 211.927C315.799 210.699 315.602 209.493 315.967 208.665C316.122 208.325 316.384 208.036 316.717 207.835C317.051 207.634 317.442 207.53 317.84 207.537C316.656 207.463 315.499 207.593 315.031 208.665C314.666 209.493 314.863 210.699 315.218 211.927C315.607 213.302 316.197 214.703 316.407 215.636C317.1 218.725 317.035 221.913 317.47 225.041C318.14 229.904 319.993 234.559 321.051 239.357C322.432 245.634 322.531 252.371 326.018 257.898C326.673 259.079 327.662 260.073 328.878 260.774C329.626 261.157 330.482 261.318 331.331 261.234C330.799 261.169 330.285 261.013 329.815 260.774Z" fill="black"/>
</g>
<path d="M357.307 250.289C354.499 255.494 354.967 262.869 354.967 262.869C355.435 280.222 347.945 316.662 347.945 316.662H341.391C341.391 316.662 340.455 276.317 341.391 272.847C342.327 269.376 340.923 257.23 339.519 240.311C338.475 227.731 341.316 216.33 342.842 211.328C343.367 209.593 343.732 208.643 343.732 208.643C343.732 208.643 354.499 193.893 360.584 200.834C361.989 202.448 362.733 205.706 362.99 209.818C363.824 223.388 359.461 246.293 357.307 250.289Z" fill="#FABDBD"/>
<path opacity="0.1" d="M362.99 209.818C362.733 205.706 361.998 202.444 360.584 200.834C359.227 199.29 357.635 198.821 355.987 199.025C357.264 199.222 358.409 199.87 359.18 200.834C360.584 202.448 361.329 205.706 361.586 209.818C362.419 223.388 358.056 246.293 355.903 250.289C353.094 255.494 353.562 262.869 353.562 262.869C354.03 280.222 346.541 316.662 346.541 316.662H347.945C347.945 316.662 355.435 280.222 354.967 262.869C354.967 262.869 354.499 255.494 357.307 250.289C359.461 246.293 363.824 223.388 362.99 209.818Z" fill="black"/>
<path d="M337.983 315.078C337.46 315.459 337.008 315.916 336.644 316.432C335.806 317.898 336.996 319.651 338.269 320.818C339.542 321.985 341.078 323.234 341.078 324.895C341.078 326.232 339.987 327.377 338.765 328.088C338.11 328.47 337.286 328.956 337.422 329.676C337.469 329.858 337.553 330.03 337.67 330.184C338.718 331.672 340.577 332.544 342.459 332.873C344.34 333.203 346.283 333.06 348.198 332.917C348.484 332.926 348.765 332.836 348.984 332.665C349.123 332.492 349.197 332.282 349.195 332.066C349.288 331.147 349.228 330.175 349.663 329.346C350.271 328.214 351.671 327.637 352.472 326.622C353.595 325.234 353.441 323.303 353.015 321.616C352.078 317.941 349.995 313.751 346.868 311.204C343.245 308.281 340.403 312.966 337.983 315.078Z" fill="#3F3D56"/>
<path d="M352.167 96.4161C354.78 92.7981 354.101 87.7398 351.432 84.1392C348.764 80.5386 344.476 78.2741 340.052 76.8121C334.088 74.8426 327.511 74.1702 321.384 75.6495C316.506 76.8252 312.124 79.2849 307.527 81.185C299.394 84.5476 290.552 86.1783 281.649 85.9569C271.767 85.7009 260.94 83.354 252.649 88.3602C237.473 97.5093 244.223 122.41 229.866 132.609C225.994 135.359 221.121 136.561 216.814 138.682C212.508 140.804 208.426 144.495 208.529 149.016C208.575 151.185 209.605 153.254 210.869 155.089C216.253 162.997 226.317 167.891 236.396 167.8C246.475 167.708 256.31 162.741 262.119 155.098C263.575 153.185 264.858 151.055 266.969 149.779C271.182 147.22 276.734 149.011 281.762 149.393C292.954 150.239 304.152 142.452 306.38 132.236C307.317 127.876 307.153 122.666 310.94 119.929C313.997 117.72 318.299 118.193 322.175 117.816C329.262 117.135 334.856 113.044 338.704 107.699C340.469 105.248 340.675 102.32 343.081 100.39C345.674 98.2684 349.686 99.8345 352.167 96.4161Z" fill="#3F3D56"/>
<g opacity="0.1">
<path opacity="0.1" d="M272.287 86.7942C276.392 86.8985 280.497 86.6078 284.538 85.9266C283.424 85.9569 282.3 85.9569 281.181 85.9266C273.424 85.727 265.087 84.2434 257.85 86.0307C262.625 86.074 267.564 86.6727 272.287 86.7942Z" fill="black"/>
<path opacity="0.1" d="M257.597 150.642C255.486 151.918 254.203 154.048 252.747 155.961C248.273 161.782 241.733 165.96 234.271 167.765C234.818 167.787 235.366 167.8 235.918 167.795C246.006 167.704 255.832 162.737 261.642 155.093C263.098 153.18 264.38 151.05 266.492 149.775L266.857 149.567C263.552 149.146 260.308 148.998 257.597 150.642Z" fill="black"/>
<path opacity="0.1" d="M350.96 84.1262C348.296 80.5429 344.003 78.2611 339.58 76.7991C333.616 74.8296 327.039 74.1572 320.911 75.6365C320.77 75.6669 320.635 75.7059 320.499 75.7406C323.977 75.9204 327.409 76.5693 330.685 77.6667C335.109 79.1287 339.402 81.4105 342.065 84.9938C344.729 88.5771 345.412 93.67 342.8 97.2706C340.319 100.702 336.307 99.136 333.681 101.249C331.275 103.179 331.069 106.107 329.304 108.558C325.995 113.144 321.388 116.801 315.654 118.189C317.625 117.972 319.703 117.998 321.669 117.807C328.757 117.126 334.351 113.035 338.199 107.691C339.963 105.24 340.169 102.312 342.576 100.381C345.202 98.2684 349.214 99.8345 351.695 96.403C354.311 92.785 353.633 87.7095 350.96 84.1262Z" fill="black"/>
<path opacity="0.1" d="M312.78 118.675C308.927 119.048 304.625 118.579 301.545 120.788C297.757 123.525 297.94 128.735 296.985 133.095C295.342 140.717 288.667 147.003 280.741 149.341L281.298 149.389C292.491 150.235 303.689 142.448 305.917 132.231C306.853 127.872 306.689 122.662 310.476 119.924C311.346 119.321 312.333 118.88 313.383 118.623C313.173 118.627 312.981 118.658 312.78 118.675Z" fill="black"/>
</g>
<path d="M425.887 80.8856C425.887 80.8856 414.652 101.709 410.907 109.517C407.162 117.326 372.989 129.039 368.308 129.472C367.053 129.632 365.883 130.154 364.966 130.965C362.321 133.134 360.818 136.847 360.818 136.847C360.818 136.847 362.691 148.56 360.35 168.082C360.303 168.459 360.261 168.836 360.224 169.201C358.183 187.777 362.457 192.158 362.457 192.158C362.457 192.158 317.049 208.209 318.453 187.386C318.893 180.831 318.828 176.042 318.392 172.038C317.916 167.939 317.016 163.892 315.705 159.952C314.596 156.356 313.271 152.412 311.899 147.042C311.239 144.362 310.369 141.731 309.297 139.168C309.264 139.09 309.231 139.012 309.203 138.938C306.862 133.555 304.522 131.815 303.183 131.251C301.919 130.741 300.714 130.114 299.588 129.377C295.262 126.483 285.979 119.998 277.712 112.337C266.477 101.925 255.242 77.1982 255.242 77.1982C255.242 77.1982 251.966 62.8825 259.456 51.1696C266.946 39.4567 263.669 74.1616 263.669 74.1616C263.669 74.1616 277.244 91.0802 280.521 98.8888C282.206 102.906 284.884 104.962 287.075 106.029C290.694 107.775 294.16 109.783 297.439 112.033C299.655 113.585 301.984 114.994 304.409 116.25C309.643 118.853 315.911 121.79 321.135 122.562C321.951 122.687 322.776 122.752 323.602 122.757C323.995 122.769 324.384 122.696 324.742 122.546C325.099 122.395 325.414 122.171 325.662 121.889C327.067 120.358 327.034 117.061 326.711 114.35C326.538 112.945 326.282 111.551 325.943 110.172C325.943 110.172 341.157 101.279 340.689 112.124C340.616 113.323 340.736 114.524 341.045 115.69C341.294 116.76 341.845 117.75 342.642 118.558C343.439 119.366 344.453 119.963 345.581 120.289C347.408 120.785 349.341 120.843 351.198 120.458C351.777 120.366 352.337 120.189 352.855 119.933C354.26 119.065 368.304 115.161 372.517 114.727C376.73 114.293 397.795 104.75 397.795 104.75L420.733 75.2504C420.733 75.2504 420.265 57.898 429.628 50.957C438.99 44.0161 425.887 80.8856 425.887 80.8856Z" fill="#FABDBD"/>
<g opacity="0.1">
<path opacity="0.1" d="M360.224 166.598C359.815 170.084 359.635 173.59 359.685 177.096C359.732 174.806 359.896 172.19 360.224 169.201C360.261 168.836 360.303 168.459 360.35 168.082C361.169 161.401 361.56 154.681 361.52 147.957C361.448 153.812 361.058 159.66 360.35 165.479C360.322 165.856 360.261 166.234 360.224 166.598Z" fill="black"/>
<path opacity="0.1" d="M326.43 109.895C326.116 110.064 325.962 110.168 325.962 110.168C326.417 112.024 326.717 113.909 326.861 115.807C326.955 113.828 326.811 111.845 326.43 109.895Z" fill="black"/>
<path opacity="0.1" d="M263.889 71.806C264.118 68.7693 264.46 63.325 264.394 58.4836C264.315 64.9561 263.692 71.5587 263.692 71.5587L263.889 71.806Z" fill="black"/>
<path opacity="0.1" d="M318.486 186.879C318.486 187.048 318.486 187.217 318.453 187.386C317.049 208.209 362.457 192.158 362.457 192.158C361.926 191.493 361.525 190.747 361.272 189.954C354.433 192.21 320.064 202.7 318.486 186.879Z" fill="black"/>
<path opacity="0.1" d="M425.887 78.2828C425.887 78.2828 414.652 99.1057 410.907 106.914C407.162 114.723 372.989 126.436 368.308 126.87C367.053 127.029 365.883 127.551 364.966 128.362C362.321 130.531 360.818 134.244 360.818 134.244C360.818 134.244 360.931 134.951 361.066 136.296C361.591 135.181 362.939 132.622 364.966 130.965C365.883 130.154 367.053 129.632 368.308 129.472C372.989 129.039 407.162 117.326 410.907 109.517C414.652 101.709 425.887 80.8856 425.887 80.8856C425.887 80.8856 433.803 58.6095 432.933 51.9461C432.212 60.4835 425.887 78.2828 425.887 78.2828Z" fill="black"/>
<path opacity="0.1" d="M318.392 169.435C317.916 165.336 317.016 161.289 315.705 157.349C314.596 153.753 313.271 149.81 311.899 144.439C311.239 141.759 310.369 139.128 309.297 136.565C309.264 136.487 309.231 136.409 309.203 136.335C306.862 130.952 304.522 129.212 303.183 128.648C301.919 128.139 300.714 127.511 299.588 126.774C295.262 123.881 285.979 117.395 277.712 109.734C266.477 99.3226 255.243 74.5954 255.243 74.5954C254.827 72.5079 254.596 70.3927 254.55 68.2704C254.435 71.2608 254.668 74.2539 255.243 77.1983C255.243 77.1983 266.477 101.925 277.712 112.337C285.979 119.998 295.262 126.484 299.588 129.377C300.723 130.115 301.937 130.743 303.211 131.251C304.545 131.815 306.881 133.555 309.231 138.938C309.259 139.012 309.292 139.09 309.325 139.168C310.393 141.731 311.258 144.363 311.914 147.042C313.285 152.412 314.61 156.356 315.719 159.952C317.03 163.892 317.93 167.939 318.406 172.038C318.603 173.851 318.72 175.825 318.753 178.046C318.809 175.172 318.689 172.297 318.392 169.435Z" fill="black"/>
</g>
<path d="M365.383 150.547C364.668 151.642 364.042 152.785 363.51 153.965C362.803 155.787 362.799 157.77 362.668 159.7C362.481 162.41 362.036 165.098 361.338 167.735C361.225 168.22 361.069 168.696 360.87 169.157C360.73 169.468 360.546 169.76 360.322 170.025C360.073 170.308 359.779 170.555 359.452 170.758C358.949 171.069 358.418 171.337 357.865 171.561C351.348 174.381 344.242 176.871 337.132 175.899C334.126 175.412 331.217 174.505 328.504 173.209C325.929 172.051 323.018 170.676 320.349 171.639C319.94 171.831 319.498 171.959 319.043 172.016C318.955 172.018 318.867 172.01 318.781 171.995C317.901 171.838 317.901 169.088 317.7 168.277C316.932 165.162 316.815 162.637 316.356 159.93C316.112 158.433 315.735 156.958 315.228 155.518C313.356 150.269 312.789 144.673 312.789 139.172C312.789 138.899 310.683 139.172 309.98 139.146C309.803 139.146 309.704 139.12 309.746 139.064C309.787 139.01 309.834 138.961 309.887 138.917C310.132 138.732 310.418 138.6 310.725 138.53L311.277 138.379C314.17 137.619 317.363 137.303 319.525 135.416C321.772 133.468 322.334 130.357 322.236 127.512C322.208 126.596 321.726 124.375 321.805 122.531C322.621 122.656 323.446 122.722 324.272 122.727C324.664 122.738 325.054 122.666 325.411 122.516C325.769 122.365 326.084 122.14 326.332 121.859C327.113 123.26 327.789 124.71 328.354 126.197C329.15 128.011 329.759 129.919 330.924 131.559C332.797 134.231 336.252 135.988 339.688 135.719C343.124 135.45 346.321 133.004 346.934 129.863C347.472 127.108 346.223 123.143 346.251 120.28C348.077 120.777 350.01 120.835 351.868 120.449C351.947 120.626 352.014 120.807 352.069 120.991C353.123 124.34 354.527 128.184 358.061 129.373C360.346 130.136 363.047 129.564 365.158 130.674C365.32 130.761 365.477 130.856 365.626 130.96C366.114 131.296 366.534 131.709 366.867 132.179C367.734 133.506 368.249 135.005 368.369 136.552C368.91 141.389 367.869 146.265 365.383 150.547Z" fill="#B7E8F8"/>
<path opacity="0.1" d="M341.045 115.686C338.71 116.52 336.195 116.833 333.705 116.6C331.215 116.368 328.819 115.595 326.711 114.345C326.538 112.941 326.282 111.546 325.943 110.168C325.943 110.168 341.157 101.275 340.689 112.12C340.616 113.318 340.736 114.52 341.045 115.686Z" fill="black"/>
<path d="M335.301 115.807C344.091 115.807 351.217 109.204 351.217 101.058C351.217 92.9119 344.091 86.3083 335.301 86.3083C326.511 86.3083 319.385 92.9119 319.385 101.058C319.385 109.204 326.511 115.807 335.301 115.807Z" fill="#FABDBD"/>
<path d="M321.613 103.5C321.145 100.793 320.424 97.3835 322.868 95.8348C323.739 95.345 324.747 95.1037 325.765 95.1407C330.826 95.0929 335.661 98.3595 340.623 97.4052C342.203 97.0985 343.653 96.3756 344.799 95.3234C345.945 94.2713 346.739 92.9346 347.086 91.4742C347.432 90.0138 347.315 88.4918 346.75 87.0913C346.185 85.6908 345.195 84.4713 343.9 83.5796C341.948 82.2348 339.481 81.7489 337.094 81.2934C330.816 80.0961 324.263 78.9031 318.065 80.4258C311.867 81.9485 306.202 87.0978 306.699 93.0063C306.933 95.8348 308.487 98.4029 310.111 100.815C311.347 102.646 316.159 111.226 318.495 111.357C321.791 111.534 321.936 105.27 321.613 103.5Z" fill="#3F3D56"/>
<path d="M361.052 184.783C361.052 184.783 328.752 192.158 317.985 184.783C317.985 184.783 313.304 201.702 314.708 210.378C314.708 210.378 337.646 211.68 339.987 212.981C339.987 212.981 340.455 209.51 342.796 211.246C342.796 211.246 350.754 202.57 365.265 210.378C365.265 210.378 368.074 189.989 361.052 184.783Z" fill="#B7E8F8"/>
<path opacity="0.1" d="M343.91 83.5796C343.577 83.356 343.228 83.1531 342.866 82.9723C343.832 83.99 344.493 85.2248 344.782 86.5533C345.072 87.8818 344.98 89.2575 344.516 90.5429C344.052 91.8283 343.232 92.9783 342.139 93.878C341.045 94.7777 339.715 95.3956 338.283 95.6699C333.321 96.6243 328.485 93.3577 323.425 93.4054C322.406 93.3684 321.398 93.6098 320.527 94.0995C318.083 95.6482 318.8 99.058 319.268 101.765C319.577 103.535 319.45 109.799 316.164 109.63H316.108C317.011 110.649 317.854 111.339 318.505 111.365C321.781 111.534 321.917 105.292 321.608 103.5C321.14 100.793 320.424 97.3835 322.868 95.8348C323.739 95.3451 324.747 95.1037 325.765 95.1407C330.826 95.093 335.661 98.3596 340.623 97.4052C342.203 97.0985 343.653 96.3756 344.799 95.3234C345.945 94.2713 346.739 92.9346 347.086 91.4742C347.432 90.0138 347.315 88.4918 346.75 87.0913C346.185 85.6908 345.195 84.4713 343.9 83.5796H343.91Z" fill="black"/>
<g opacity="0.1">
<path opacity="0.1" d="M111.421 62.9736C111.421 62.9736 76.4195 49.3346 71.8319 73.9317C71.8319 73.9317 69.4398 77.7622 72.7682 80.929C72.7682 80.929 73.4844 79.2328 76.8689 80.9898C78.0771 81.6054 79.3592 82.0873 80.6888 82.4257C82.4855 82.885 84.3946 82.7906 86.1284 82.1567C86.1284 82.1567 97.6395 81.5797 107.32 67.6241C107.32 67.6241 111.468 65.2468 111.679 64.3575L104.741 64.7913C104.741 64.7913 105.27 69.4981 102.4 72.3222C102.4 72.3222 104.952 65.0212 103.725 64.813C103.477 64.7696 100.06 65.1904 100.06 65.1904C100.06 65.1904 100.944 73.372 96.3148 77.606C96.3148 77.606 100.612 69.2812 98.7396 65.3379L93.6231 66.2532C93.6231 66.2532 95.0274 74.86 89.9623 79.8705C89.9623 79.8705 94.1239 71.0208 92.5183 66.5222L87.6124 68.0492C87.6124 68.0492 88.7967 76.4738 84.5602 80.6297C84.5602 80.6297 88.2584 69.9536 86.5169 68.483C86.5169 68.483 82.1072 70.1402 81.1616 71.0859C81.1616 71.0859 81.8638 77.1592 79.1674 79.3283C79.1674 79.3283 80.8246 71.9535 80.0054 71.6498C80.0054 71.6498 74.8794 75.2244 73.3206 78.3088C73.3206 78.3088 75.2679 73.5976 79.3593 70.934C79.3593 70.934 75.9233 70.3961 73.2737 71.7279C73.2737 71.7279 75.0479 68.6001 80.5999 70.0838C80.5999 70.0838 84.7147 67.4462 85.5386 67.4809C85.5386 67.4809 80.2862 65.3118 76.4898 65.5765C76.4898 65.5765 80.5577 63.4074 86.8259 67.0341L91.7131 65.3943C91.7131 65.3943 84.93 62.171 81.5268 62.1841C81.5268 62.1841 86.0488 60.5659 92.9864 65.0776L97.9906 64.1275C97.9906 64.1275 92.3732 60.939 88.586 60.1972C88.586 60.1972 93.1315 59.5335 99.4371 63.9106L102.864 63.6417C102.864 63.6417 98.7162 61.3815 97.4617 60.8306C96.2071 60.2796 96.2633 59.9196 96.2633 59.9196C99.2493 60.4 102.032 61.6407 104.301 63.5028C104.301 63.5028 111.388 63.377 111.421 62.9736Z" fill="#6C63FF"/>
</g>
<g opacity="0.1">
<path opacity="0.1" d="M110.129 38.524C110.129 38.524 97.7051 11.9445 79.8743 24.1345C79.8743 24.1345 76.0965 25.1497 76.1293 28.7763C76.1293 28.7763 77.5992 28.1473 78.5261 30.9757C78.8726 31.9802 79.3439 32.9439 79.9305 33.8476C80.7062 35.063 81.8876 36.0116 83.2963 36.5502C83.2963 36.5502 90.4866 42.2852 104.83 39.1053C104.83 39.1053 108.757 39.8862 109.432 39.4654L105.045 36.0557C105.045 36.0557 102.471 39.1314 99.0158 39.2832C99.0158 39.2832 105.022 36.2899 104.418 35.5177C104.296 35.3616 102.012 33.8085 102.012 33.8085C102.012 33.8085 97.5038 39.1357 92.1812 39.2181C92.1812 39.2181 99.8538 36.5372 101.165 33.2099L97.5647 31.0408C97.5647 31.0408 93.0988 36.8929 87.0178 37.1966C87.0178 37.1966 94.9291 34.1599 96.7408 30.62L92.8881 28.9368C92.8881 28.9368 88.4128 34.5764 83.3524 34.7889C83.3524 34.7889 92.111 30.3988 91.9753 28.6071C91.9753 28.6071 88.3379 27.2623 87.1864 27.3404C87.1864 27.3404 83.8767 31.3098 80.9229 31.197C80.9229 31.197 86.442 27.6874 86.1378 27.0758C86.1378 27.0758 80.8948 26.4945 78.072 27.5096C78.072 27.5096 82.126 25.7396 86.1939 26.3209C86.1939 26.3209 84.4853 24.1823 82.1025 23.5879C82.1025 23.5879 85.0798 22.6639 87.4672 26.4771C87.4672 26.4771 91.5305 27.0801 92.0034 27.5313C92.0034 27.5313 90.2245 23.4578 87.7902 21.6228C87.7902 21.6228 91.5352 22.4904 93.0332 27.9434L96.942 29.5528C96.942 29.5528 94.8964 24.0564 92.8413 22.2735C92.8413 22.2735 96.5254 23.6964 97.8736 30.0387L101.427 32.1167C101.427 32.1167 100.046 27.258 98.2575 24.8373C98.2575 24.8373 101.366 26.8372 102.424 32.7674L104.624 34.4158C104.624 34.4158 103.547 30.8846 103.14 29.8955C102.733 28.9065 102.99 28.7243 102.99 28.7243C104.466 30.5874 105.356 32.7933 105.56 35.0969C105.56 35.0969 109.876 38.7496 110.129 38.524Z" fill="#6C63FF"/>
</g>
<path d="M333.588 19.9873H313.407C312.75 19.9873 312.218 20.4806 312.218 21.0892V23.1324C312.218 23.741 312.75 24.2343 313.407 24.2343H333.588C334.244 24.2343 334.777 23.741 334.777 23.1324V21.0892C334.777 20.4806 334.244 19.9873 333.588 19.9873Z" fill="#E6E8EC"/>
<path d="M340.787 24.5163C342.222 24.5163 343.385 23.4383 343.385 22.1086C343.385 20.7789 342.222 19.701 340.787 19.701C339.352 19.701 338.189 20.7789 338.189 22.1086C338.189 23.4383 339.352 24.5163 340.787 24.5163Z" fill="#E6E8EC"/>
<path d="M189.541 257.928C188.857 258.484 188.33 259.187 188.006 259.976C187.206 262.292 189.443 264.565 189.659 266.99C189.827 268.917 188.722 270.712 188.095 272.561C187.387 274.856 187.433 277.295 188.227 279.567C189.02 281.838 190.526 283.839 192.552 285.315C192.983 285.654 193.492 285.897 194.04 286.026C194.493 286.076 194.951 286.041 195.388 285.922C195.825 285.802 196.232 285.602 196.582 285.332C197.669 284.599 198.498 283.585 198.965 282.417C199.353 281.269 199.563 280.075 199.587 278.872L199.92 274.231C200.266 269.385 200.58 264.388 199.307 259.629C198.89 258.067 198.118 254.479 196.17 254.262C194.223 254.045 190.834 256.757 189.541 257.928Z" fill="#3F3D56"/>
<path d="M222.198 237.99C219.859 245.6 218.164 253.367 217.128 261.221C216.978 262.327 216.824 263.49 216.103 264.383C214.666 266.175 211.787 266.062 209.399 265.771C208.826 265.744 208.268 265.595 207.765 265.338C206.867 264.774 206.67 263.646 206.562 262.644C204.927 247.871 203.835 233.059 203.286 218.208C203.262 217.64 223.27 217.588 224.983 219.076C226.696 220.564 225.367 226.13 224.983 228.026C224.356 231.401 223.223 234.689 222.198 237.99Z" fill="#FBBEBE"/>
<path opacity="0.05" d="M222.198 237.99C219.859 245.6 218.164 253.367 217.128 261.221C216.978 262.327 216.824 263.49 216.103 264.383C214.666 266.175 211.787 266.062 209.399 265.771C208.826 265.744 208.268 265.595 207.765 265.338C206.867 264.774 206.67 263.646 206.562 262.644C204.927 247.871 203.835 233.059 203.286 218.208C203.262 217.64 223.27 217.588 224.983 219.076C226.696 220.564 225.367 226.13 224.983 228.026C224.356 231.401 223.223 234.689 222.198 237.99Z" fill="black"/>
<path d="M180.535 216.096L188.638 232.611C191.334 238.103 194.049 243.656 195.337 249.569C195.853 252.039 196.183 254.539 196.325 257.052C196.52 259.205 196.448 261.373 196.109 263.511C195.814 265.099 195.271 266.643 195.033 268.24C194.096 274.604 197.986 280.59 200.65 286.512C202.951 291.598 204.416 296.975 204.994 302.463C205.238 304.801 205.373 307.283 206.815 309.213C209.451 308.48 212.025 307.847 214.773 308.133C215.265 304.398 212.718 300.958 211.782 297.288C210.064 290.564 213.86 283.497 212.568 276.69C211.866 273.003 209.689 269.533 209.867 265.793C210.2 258.974 211.581 252.085 210.176 245.404C208.594 237.851 204.044 230.984 203.037 223.349C202.265 217.484 203.506 210.998 199.981 206.07C192.28 205.65 184.317 209.862 180.535 216.096Z" fill="#FBBEBE"/>
<path d="M207.166 319.811C206.356 319.837 205.411 319.811 204.91 319.217C204.665 318.871 204.525 318.471 204.503 318.059C204.119 315.443 203.931 312.807 203.941 310.168C203.941 309.205 203.988 308.181 204.568 307.387C204.994 306.902 205.48 306.466 206.015 306.085C207.255 305.023 208.159 303.483 209.76 302.992C210.461 302.803 211.205 302.794 211.911 302.966C212.618 303.138 213.261 303.484 213.771 303.968C214.782 304.966 215.407 306.246 215.55 307.608C215.784 309.222 215.588 310.979 216.51 312.38C216.875 312.922 217.385 313.365 217.797 313.877C219.202 315.612 220.461 319.009 217.563 319.711C214.492 320.453 210.354 319.716 207.166 319.811Z" fill="#3F3D56"/>
<path d="M214.193 118.358C215.831 115.426 214.853 111.652 212.512 109.161C210.172 106.671 206.75 105.283 203.257 104.533C198.576 103.518 193.558 103.526 189.078 105.123C185.506 106.394 182.431 108.593 179.135 110.389C173.311 113.566 166.793 115.493 160.059 116.029C152.569 116.614 144.204 115.703 138.413 120.124C127.805 128.219 135.192 146.46 125.306 155.293C122.637 157.674 119.075 158.963 116.018 160.902C112.961 162.841 110.227 165.943 110.719 169.344C110.953 170.979 111.917 172.454 113.031 173.743C117.816 179.283 125.849 182.185 133.446 181.321C141.044 180.458 148 175.938 151.703 169.717C152.639 168.16 153.398 166.455 154.872 165.323C157.826 163.062 162.161 163.978 165.99 163.869C174.505 163.626 182.239 156.863 182.983 148.994C183.301 145.632 182.683 141.719 185.291 139.359C187.393 137.45 190.679 137.468 193.553 136.882C198.834 135.81 202.677 132.271 205.088 127.95C206.193 125.963 206.08 123.742 207.719 122.093C209.465 120.28 212.634 121.143 214.193 118.358Z" fill="#3F3D56"/>
<g opacity="0.1">
<path opacity="0.1" d="M153.079 117.404C156.185 117.158 159.255 116.616 162.24 115.786C161.398 115.894 160.555 115.985 159.708 116.05C153.838 116.506 147.415 116.05 142.125 117.963C145.73 117.621 149.508 117.681 153.079 117.404Z" fill="black"/>
<path opacity="0.1" d="M147.855 166.698C146.381 167.826 145.603 169.535 144.686 171.092C141.849 175.831 137.306 179.496 131.85 181.447C132.267 181.421 132.683 181.387 133.1 181.339C140.697 180.471 147.654 175.96 151.357 169.739C152.293 168.181 153.047 166.472 154.526 165.344L154.779 165.162C152.209 165.106 149.746 165.249 147.855 166.698Z" fill="black"/>
<path opacity="0.1" d="M212.161 109.187C209.821 106.697 206.375 105.314 202.906 104.559C198.225 103.544 193.207 103.557 188.722 105.153L188.423 105.266C191.061 105.127 193.707 105.344 196.278 105.912C199.747 106.667 203.197 108.051 205.533 110.545C207.868 113.04 208.852 116.809 207.213 119.742C205.654 122.527 202.485 121.659 200.702 123.46C199.063 125.104 199.175 127.329 198.071 129.316C195.997 133.034 192.856 136.166 188.661 137.654C190.127 137.333 191.7 137.19 193.16 136.895C198.44 135.819 202.284 132.284 204.695 127.963C205.804 125.976 205.692 123.75 207.325 122.106C209.114 120.306 212.283 121.169 213.837 118.389C215.476 115.465 214.497 111.691 212.161 109.187Z" fill="black"/>
<path opacity="0.1" d="M186.536 138.253C183.662 138.834 180.376 138.821 178.274 140.725C175.666 143.09 176.284 147.003 175.966 150.365C175.409 156.243 170.948 161.505 165.176 163.895H165.602C174.117 163.652 181.846 156.885 182.59 149.02C182.913 145.654 182.295 141.741 184.902 139.381C185.5 138.852 186.203 138.437 186.971 138.157L186.536 138.253Z" fill="black"/>
</g>
<path d="M214.333 157.839C213.945 158.477 213.144 158.772 212.4 159.028C204.695 161.657 196.587 164.333 188.46 163.227C188.156 162.043 187.856 160.854 187.557 159.67C187.123 157.952 186.686 156.234 186.246 154.516C186.04 153.696 185.829 152.868 185.661 152.035C185.37 150.72 185.277 149.374 185.385 148.035C185.434 147.55 185.528 147.07 185.665 146.599C185.906 145.744 186.308 144.934 186.854 144.209C186.948 144.092 187.046 143.975 187.149 143.862C187.612 143.345 188.174 142.911 188.807 142.582C190.188 141.879 192.083 141.58 192.64 140.218C192.856 139.506 192.835 138.75 192.58 138.049C192.111 136.314 191.264 134.683 190.74 132.965C190.075 130.796 191.077 130.93 193.338 130.405C197.411 129.455 201.671 128.774 205.851 129.538C205.654 131.451 205.462 133.411 205.982 135.277C206.502 137.142 207.892 138.912 209.891 139.428C210.186 139.506 210.499 139.554 210.827 139.619C211.261 139.684 211.673 139.841 212.03 140.079C212.276 140.268 212.472 140.507 212.601 140.778C212.805 141.235 212.939 141.717 212.999 142.209C213.733 146.761 214.262 151.335 214.586 155.931V156.104C214.682 156.693 214.595 157.295 214.333 157.839Z" fill="#FBBEBE"/>
<path d="M174.665 150.365C172.914 152.833 172.324 155.835 171.79 158.75L168.392 177.014C167.924 179.513 167.507 182.259 168.888 184.449C169.356 185.191 170.011 185.833 170.353 186.618C170.611 187.408 170.781 188.221 170.859 189.043C171.654 193.23 176.097 196.054 180.554 197.069C182.164 197.438 184.046 197.581 185.314 196.587C186.719 195.507 186.719 193.451 185.89 191.967C185.062 190.484 183.549 189.434 182.084 188.44L177.23 185.126L180.039 165.171C180.245 163.722 180.975 161.843 182.557 162.004C183.999 162.147 185.108 164.095 186.391 163.466C186.793 163.214 187.076 162.829 187.182 162.39C187.744 160.755 187.589 158.993 187.43 157.28L186.85 151.094C186.658 149.085 187.215 147.58 187.477 145.693C187.781 143.493 186.199 144.161 184.247 144.634C180.497 145.554 176.832 147.302 174.665 150.365Z" fill="#FBBEBE"/>
<path d="M235.029 180.358C234.672 180.914 234.144 181.359 233.512 181.634C229.722 183.614 225.265 184.195 221.032 183.261C220.057 182.995 219.066 182.781 218.064 182.619C216.463 182.436 214.834 182.731 213.219 182.619C209.942 182.389 207.063 180.493 204.793 178.28C203.426 176.979 202.185 174.849 203.459 173.452C203.814 173.115 204.256 172.867 204.743 172.73C205.23 172.594 205.746 172.573 206.244 172.671C207.235 172.876 208.191 173.206 209.086 173.652C212.219 174.998 215.57 175.854 219.005 176.185C221.346 176.411 224.323 176.042 225.133 173.981C225.526 172.979 225.25 171.869 224.974 170.832C224.218 167.992 223.463 165.15 222.708 162.308C222.656 162.059 222.561 161.821 222.427 161.6C222.389 161.541 222.343 161.486 222.291 161.436C221.993 161.205 221.632 161.055 221.247 161.002C219.501 160.603 217.755 159.956 216.505 158.763C215.686 157.916 215.033 156.943 214.577 155.887C214.446 155.623 214.324 155.354 214.197 155.085C213.238 153.011 212.227 150.885 211.445 148.708C210.899 147.236 210.497 145.721 210.242 144.183C210.036 142.851 209.924 142.239 210.71 141.649C210.921 141.502 211.145 141.371 211.379 141.259C211.74 141.081 212.147 140.903 212.578 140.734L212.994 140.574C214.275 140.099 215.591 139.711 216.931 139.411C220.18 138.713 223.649 140.17 225.877 142.474C228.105 144.777 229.262 147.792 230.001 150.807C230.741 153.822 231.12 156.911 232.047 159.878C232.407 161.041 232.857 162.186 233.166 163.349C233.497 164.732 233.733 166.133 233.873 167.544C234.313 171.138 234.751 174.733 235.188 178.328C235.35 179.005 235.294 179.71 235.029 180.358Z" fill="#FBBEBE"/>
<path d="M186.962 178.797C187.898 184.332 185.207 189.776 182.604 194.848C184.078 195.845 185.881 196.34 187.641 196.769C199.422 199.639 211.668 200.494 223.78 199.29C224.07 197.416 224.342 195.429 223.513 193.702C222.998 192.631 222.109 191.759 221.542 190.709C220.606 188.974 220.7 186.957 220.803 185.031L221.641 168.619C215.831 166.138 209.095 168.463 202.705 168.797C199.395 168.971 196.044 168.598 192.781 169.14C191.086 169.422 185.759 170.199 184.959 171.817C184.158 173.435 186.677 177.035 186.962 178.797Z" fill="#FBBEBE"/>
<path opacity="0.05" d="M186.962 178.797C187.898 184.332 185.207 189.776 182.604 194.848C184.078 195.845 185.881 196.34 187.641 196.769C199.422 199.639 211.668 200.494 223.78 199.29C224.07 197.416 224.342 195.429 223.513 193.702C222.998 192.631 222.109 191.759 221.542 190.709C220.606 188.974 220.7 186.957 220.803 185.031L221.641 168.619C215.831 166.138 209.095 168.463 202.705 168.797C199.395 168.971 196.044 168.598 192.781 169.14C191.086 169.422 185.759 170.199 184.959 171.817C184.158 173.435 186.677 177.035 186.962 178.797Z" fill="black"/>
<path d="M202.354 194.683C196.058 193.468 189.869 191.46 183.442 191.321C183.119 191.29 182.794 191.348 182.506 191.486C182.192 191.726 181.982 192.064 181.916 192.436C181.251 194.561 180.656 196.703 180.132 198.86C178.391 206.031 177.534 213.953 181.363 220.39C181.326 218.3 182.744 216.343 184.64 215.185C186.536 214.026 188.806 213.558 191.053 213.367C193.3 213.176 195.702 213.254 197.794 214.109C199.257 214.725 200.518 215.686 201.453 216.897C202.387 218.108 202.961 219.525 203.117 221.006L225.236 221.67C225.365 221.705 225.502 221.71 225.634 221.683C225.766 221.657 225.888 221.601 225.991 221.519C226.093 221.438 226.172 221.334 226.22 221.217C226.268 221.1 226.284 220.974 226.266 220.85C227.081 214.275 227.051 207.633 226.177 201.064C225.933 199.229 225.901 196.683 223.672 195.993C221.013 195.169 216.81 196.132 213.968 196.019C210.064 195.867 206.18 195.42 202.354 194.683Z" fill="#3F3D56"/>
<path d="M222.432 162.546L222.362 171.656L199.985 172.346C195.88 172.476 191.742 172.606 187.739 173.452C186.588 173.695 185.45 173.999 184.317 174.298C183.138 170.294 181.977 166.099 182.286 162.017C182.371 160.916 182.578 159.825 182.904 158.763C183.615 156.473 184.949 154.312 185.661 152.048C185.947 151.166 186.105 150.253 186.129 149.332C186.076 148.413 185.919 147.501 185.661 146.612C185.455 145.883 185.358 145.132 185.371 144.378L187.145 143.871C187.196 144.066 187.238 144.257 187.276 144.456C187.351 144.868 187.412 145.289 187.454 145.71C187.554 146.753 187.585 147.8 187.547 148.846C187.486 150.937 187.182 153.267 188.591 154.92C190.422 157.041 193.942 156.711 196.816 156.182L204.344 154.79C206.722 154.356 209.376 153.74 210.616 151.809C211.146 150.872 211.425 149.831 211.431 148.773V148.564C211.543 146.26 211.295 143.953 210.696 141.715C210.513 141.012 210.289 140.318 210.036 139.637H210.79C211.224 139.701 211.636 139.859 211.993 140.096C212.239 140.285 212.435 140.524 212.564 140.795L212.98 140.634C214.641 146.926 217.379 152.931 221.088 158.421C221.565 159.049 221.944 159.737 222.212 160.464C222.323 160.858 222.386 161.263 222.399 161.67C222.436 161.926 222.432 162.234 222.432 162.546Z" fill="#79D8F7"/>
<path d="M198.792 134.973C206.289 134.973 212.367 129.341 212.367 122.393C212.367 115.445 206.289 109.812 198.792 109.812C191.294 109.812 185.216 115.445 185.216 122.393C185.216 129.341 191.294 134.973 198.792 134.973Z" fill="#FBBEBE"/>
<path d="M174.665 150.365C172.914 152.833 172.324 155.835 171.79 158.75L168.392 177.014C167.924 179.513 167.507 182.259 168.888 184.449C169.356 185.191 170.011 185.833 170.353 186.618C170.611 187.408 170.781 188.221 170.859 189.043C171.654 193.23 176.097 196.054 180.554 197.069C182.164 197.438 184.046 197.581 185.314 196.587C186.719 195.507 186.719 193.451 185.89 191.967C185.062 190.484 183.549 189.434 182.084 188.44L177.23 185.126L180.039 165.171C180.226 163.735 176.832 147.302 174.665 150.365Z" fill="#FBBEBE"/>
<path d="M230.006 150.833C230.746 153.848 231.125 156.937 232.052 159.904C232.412 161.071 232.862 162.212 233.171 163.375C233.502 164.756 233.738 166.156 233.877 167.565L235.193 178.35C235.344 179.016 235.287 179.708 235.029 180.345C234.671 180.9 234.143 181.344 233.512 181.621C229.72 183.596 225.265 184.177 221.032 183.248C220.058 182.978 219.067 182.763 218.064 182.606C216.463 182.419 214.834 182.718 213.219 182.606C209.942 182.376 207.063 180.484 204.793 178.289C203.426 176.988 202.185 174.853 203.459 173.456C203.814 173.119 204.256 172.871 204.743 172.735C205.23 172.598 205.746 172.578 206.244 172.676C207.235 172.882 208.192 173.213 209.086 173.66C212.22 175.003 215.571 175.858 219.005 176.19C221.346 176.419 224.323 176.051 225.133 173.986C225.526 172.984 225.25 171.873 224.974 170.836L222.708 162.312C222.614 162.017 229.266 147.823 230.006 150.833Z" fill="#FBBEBE"/>
<path d="M190.389 126.267C189.785 124.258 188.938 121.746 190.637 120.384C191.248 119.947 191.983 119.686 192.753 119.634C196.568 119.2 200.514 121.282 204.166 120.172C205.33 119.819 206.36 119.161 207.13 118.278C207.901 117.395 208.379 116.325 208.507 115.195C208.635 114.066 208.408 112.927 207.853 111.915C207.297 110.902 206.438 110.061 205.378 109.491C203.782 108.624 201.877 108.454 200.037 108.302C195.192 107.89 190.141 107.509 185.609 109.17C181.078 110.832 177.258 115.109 178.194 119.538C178.63 121.651 180.039 123.469 181.471 125.152C182.571 126.431 186.986 132.526 188.76 132.44C191.259 132.31 190.782 127.572 190.389 126.267Z" fill="#3F3D56"/>
<path opacity="0.1" d="M205.378 109.491C205.108 109.346 204.826 109.22 204.535 109.114C205.357 109.805 205.969 110.684 206.309 111.663C206.65 112.642 206.707 113.687 206.474 114.693C206.242 115.699 205.729 116.63 204.986 117.395C204.243 118.159 203.297 118.729 202.242 119.048C198.59 120.159 194.644 118.076 190.829 118.51C190.059 118.563 189.324 118.824 188.713 119.261C187.014 120.623 187.861 123.134 188.465 125.143C188.858 126.444 189.336 131.186 186.845 131.316H186.803C187.575 132.015 188.273 132.47 188.769 132.444C191.26 132.314 190.782 127.577 190.389 126.271C189.785 124.262 188.938 121.751 190.637 120.388C191.248 119.952 191.983 119.691 192.753 119.638C196.568 119.204 200.514 121.286 204.166 120.176C205.33 119.823 206.36 119.166 207.13 118.283C207.901 117.4 208.379 116.329 208.507 115.2C208.635 114.071 208.408 112.931 207.853 111.919C207.298 110.907 206.438 110.065 205.378 109.495V109.491Z" fill="black"/>
</g>
<defs>
<linearGradient id="paint0_linear" x1="258.5" y1="-56" x2="267" y2="333" gradientUnits="userSpaceOnUse">
<stop stop-color="white"/>
<stop offset="1" stop-color="#C4C4C4" stop-opacity="0"/>
</linearGradient>
</defs>
</svg>
